<?xml version="1.0" encoding="UTF-8"?>
<!-- Generated by jsxcad -->
<!DOCTYPE svg PUBLIC "-//W3C//DTD SVG 1.1 Tiny//EN" "http://www.w3.org/Graphics/SVG/1.1/DTD/svg11-tiny.dtd">
<svg baseProfile="tiny" height="335.78261mm" width="835.86207mm" viewBox="0.00000 0.21739 835.86207 335.78261" version="1.1" stroke="black" stroke-width=".1" fill="none" xmlns="http://www.w3.org/2000/svg">
<path fill="#000000" stroke="#000000" d="M834.68966 324.58621 L832.01799 329.20833 L828.05603 332.86957 L823.22515 335.21739 L817.93103 336.00000 L667.43103 336.00000 L667.43103 228.00000 L648.43103 228.00000 L648.43103 336.00000 L57.43103 336.00000 L57.43103 228.00000 L38.43103 228.00000 L38.43103 336.00000 L17.93103 336.00000 L12.63692 335.21739 L7.80603 332.86957 L3.84408 329.20833 L1.17241 324.58621 L0.00000 319.33333 L0.00000 19.33333 L0.39257 14.00000 L2.33103 9.00000 L5.69103 4.80000 L10.10495 1.80000 L15.23103 0.21739 L820.63103 0.21739 L825.75712 1.80000 L830.17103 4.80000 L833.53103 9.00000 L835.46950 14.00000 L835.86207 19.33333 L835.86207 319.33333 z M817.83083 90.72727 L816.88535 83.65657 L816.64898 81.88889 L814.47462 75.06349 L813.93103 73.35714 L810.54876 67.07143 L809.70319 65.50000 L805.17435 59.88095 L804.04215 58.47619 L798.68267 53.71429 L797.34280 52.52381 L791.20469 48.90476 L789.67016 48.00000 L782.94553 45.48148 L781.26437 44.85185 L774.15326 43.57138 L772.37548 43.25126 L765.26437 43.25126 L763.48659 43.25126 L756.37548 44.53173 L754.59770 44.85185 L747.87306 47.37037 L746.19190 48.00000 L740.05380 51.61905 L738.51927 52.52381 L733.15979 57.28571 L731.81992 58.47619 L727.29109 64.09524 L726.15888 65.50000 L722.77660 71.78571 L721.93103 73.35714 L719.75668 80.18254 L719.21309 81.88889 L718.26761 88.95960 L718.03123 90.72727 L718.35107 97.87879 L718.43103 99.66667 L719.98225 106.71429 L720.37006 108.47619 L723.21884 115.04261 L723.93103 116.68421 L727.82669 122.64250 L728.80060 124.13208 L733.81923 129.38026 L735.07389 130.69231 L740.81907 134.91346 L742.25536 135.96875 L748.74185 139.01310 L750.36347 139.77419 L757.27466 141.67687 L759.00246 142.15254 L766.14532 142.83051 L767.93103 143.00000 L775.07389 142.32203 L776.85961 142.15254 L783.77080 140.24986 L785.49860 139.77419 L791.98509 136.72984 L793.60671 135.96875 L799.35188 131.74760 L800.78818 130.69231 L805.80681 125.44412 L807.06147 124.13208 L810.95712 118.17378 L811.93103 116.68421 L814.77981 110.11779 L815.49201 108.47619 L817.04323 101.42857 L817.43103 99.66667 L817.75087 92.51515 z M817.83083 240.72727 L816.88535 233.65657 L816.64898 231.88889 L814.47462 225.06349 L813.93103 223.35714 L810.54876 217.07143 L809.70319 215.50000 L805.17435 209.88095 L804.04215 208.47619 L798.68267 203.71429 L797.34280 202.52381 L791.20469 198.90476 L789.67016 198.00000 L782.94553 195.48148 L781.26437 194.85185 L774.15326 193.57138 L772.37548 193.25126 L765.26437 193.25126 L763.48659 193.25126 L756.37548 194.53173 L754.59770 194.85185 L747.87306 197.37037 L746.19190 198.00000 L740.05380 201.61905 L738.51927 202.52381 L733.15979 207.28571 L731.81992 208.47619 L727.29109 214.09524 L726.15888 215.50000 L722.77660 221.78571 L721.93103 223.35714 L719.75668 230.18254 L719.21309 231.88889 L718.26761 238.95960 L718.03123 240.72727 L718.35107 247.87879 L718.43103 249.66667 L719.98225 256.71429 L720.37006 258.47619 L723.21884 265.04261 L723.93103 266.68421 L727.82669 272.64250 L728.80060 274.13208 L733.81923 279.38026 L735.07389 280.69231 L740.81907 284.91346 L742.25536 285.96875 L748.74185 289.01310 L750.36347 289.77419 L757.27466 291.67687 L759.00246 292.15254 L766.14532 292.83051 L767.93103 293.00000 L775.07389 292.32203 L776.85961 292.15254 L783.77080 290.24986 L785.49860 289.77419 L791.98509 286.72984 L793.60671 285.96875 L799.35188 281.74760 L800.78818 280.69231 L805.80681 275.44412 L807.06147 274.13208 L810.95712 268.17378 L811.93103 266.68421 L814.77981 260.11779 L815.49201 258.47619 L817.04323 251.42857 L817.43103 249.66667 L817.75087 242.51515 z M126.70027 285.00000 L126.70027 51.00000 L124.97451 47.39535 L121.84408 44.90000 L117.93103 44.00000 L114.01799 44.90000 L110.88756 47.39535 L109.16180 51.00000 L109.16180 285.00000 L110.88756 288.60465 L114.01799 291.10000 L117.93103 292.00000 L121.84408 291.10000 L124.97451 288.60465 z M154.70027 285.00000 L154.70027 51.00000 L152.97451 47.39535 L149.84408 44.90000 L145.93103 44.00000 L142.01799 44.90000 L138.88756 47.39535 L137.16180 51.00000 L137.16180 285.00000 L138.88756 288.60465 L142.01799 291.10000 L145.93103 292.00000 L149.84408 291.10000 L152.97451 288.60465 z M182.70027 285.00000 L182.70027 51.00000 L180.97451 47.39535 L177.84408 44.90000 L173.93103 44.00000 L170.01799 44.90000 L166.88756 47.39535 L165.16180 51.00000 L165.16180 285.00000 L166.88756 288.60465 L170.01799 291.10000 L173.93103 292.00000 L177.84408 291.10000 L180.97451 288.60465 z M210.70027 285.00000 L210.70027 51.00000 L208.97451 47.39535 L205.84408 44.90000 L201.93103 44.00000 L198.01799 44.90000 L194.88756 47.39535 L193.16180 51.00000 L193.16180 285.00000 L194.88756 288.60465 L198.01799 291.10000 L201.93103 292.00000 L205.84408 291.10000 L208.97451 288.60465 z M238.70027 285.00000 L238.70027 51.00000 L236.97451 47.39535 L233.84408 44.90000 L229.93103 44.00000 L226.01799 44.90000 L222.88756 47.39535 L221.16180 51.00000 L221.16180 285.00000 L222.88756 288.60465 L226.01799 291.10000 L229.93103 292.00000 L233.84408 291.10000 L236.97451 288.60465 z M266.70027 285.00000 L266.70027 51.00000 L264.97451 47.39535 L261.84408 44.90000 L257.93103 44.00000 L254.01799 44.90000 L250.88756 47.39535 L249.16180 51.00000 L249.16180 285.00000 L250.88756 288.60465 L254.01799 291.10000 L257.93103 292.00000 L261.84408 291.10000 L264.97451 288.60465 z M294.70027 285.00000 L294.70027 51.00000 L292.97451 47.39535 L289.84408 44.90000 L285.93103 44.00000 L282.01799 44.90000 L278.88756 47.39535 L277.16180 51.00000 L277.16180 285.00000 L278.88756 288.60465 L282.01799 291.10000 L285.93103 292.00000 L289.84408 291.10000 L292.97451 288.60465 z M322.70027 285.00000 L322.70027 51.00000 L320.97451 47.39535 L317.84408 44.90000 L313.93103 44.00000 L310.01799 44.90000 L306.88756 47.39535 L305.16180 51.00000 L305.16180 285.00000 L306.88756 288.60465 L310.01799 291.10000 L313.93103 292.00000 L317.84408 291.10000 L320.97451 288.60465 z M350.70027 285.00000 L350.70027 51.00000 L348.97451 47.39535 L345.84408 44.90000 L341.93103 44.00000 L338.01799 44.90000 L334.88756 47.39535 L333.16180 51.00000 L333.16180 285.00000 L334.88756 288.60465 L338.01799 291.10000 L341.93103 292.00000 L345.84408 291.10000 L348.97451 288.60465 z M378.70027 285.00000 L378.70027 51.00000 L376.97451 47.39535 L373.84408 44.90000 L369.93103 44.00000 L366.01799 44.90000 L362.88756 47.39535 L361.16180 51.00000 L361.16180 285.00000 L362.88756 288.60465 L366.01799 291.10000 L369.93103 292.00000 L373.84408 291.10000 L376.97451 288.60465 z M406.70027 285.00000 L406.70027 51.00000 L404.97451 47.39535 L401.84408 44.90000 L397.93103 44.00000 L394.01799 44.90000 L390.88756 47.39535 L389.16180 51.00000 L389.16180 285.00000 L390.88756 288.60465 L394.01799 291.10000 L397.93103 292.00000 L401.84408 291.10000 L404.97451 288.60465 z M434.70027 285.00000 L434.70027 51.00000 L432.97451 47.39535 L429.84408 44.90000 L425.93103 44.00000 L422.01799 44.90000 L418.88756 47.39535 L417.16180 51.00000 L417.16180 285.00000 L418.88756 288.60465 L422.01799 291.10000 L425.93103 292.00000 L429.84408 291.10000 L432.97451 288.60465 z M462.70027 285.00000 L462.70027 51.00000 L460.97451 47.39535 L457.84408 44.90000 L453.93103 44.00000 L450.01799 44.90000 L446.88756 47.39535 L445.16180 51.00000 L445.16180 285.00000 L446.88756 288.60465 L450.01799 291.10000 L453.93103 292.00000 L457.84408 291.10000 L460.97451 288.60465 z M490.70027 285.00000 L490.70027 51.00000 L488.97451 47.39535 L485.84408 44.90000 L481.93103 44.00000 L478.01799 44.90000 L474.88756 47.39535 L473.16180 51.00000 L473.16180 285.00000 L474.88756 288.60465 L478.01799 291.10000 L481.93103 292.00000 L485.84408 291.10000 L488.97451 288.60465 z M518.70027 285.00000 L518.70027 51.00000 L516.97451 47.39535 L513.84408 44.90000 L509.93103 44.00000 L506.01799 44.90000 L502.88756 47.39535 L501.16180 51.00000 L501.16180 285.00000 L502.88756 288.60465 L506.01799 291.10000 L509.93103 292.00000 L513.84408 291.10000 L516.97451 288.60465 z M546.70027 285.00000 L546.70027 51.00000 L544.97451 47.39535 L541.84408 44.90000 L537.93103 44.00000 L534.01799 44.90000 L530.88756 47.39535 L529.16180 51.00000 L529.16180 285.00000 L530.88756 288.60465 L534.01799 291.10000 L537.93103 292.00000 L541.84408 291.10000 L544.97451 288.60465 z M574.70027 285.00000 L574.70027 51.00000 L572.97451 47.39535 L569.84408 44.90000 L565.93103 44.00000 L562.01799 44.90000 L558.88756 47.39535 L557.16180 51.00000 L557.16180 285.00000 L558.88756 288.60465 L562.01799 291.10000 L565.93103 292.00000 L569.84408 291.10000 L572.97451 288.60465 z M602.70027 285.00000 L602.70027 51.00000 L600.97451 47.39535 L597.84408 44.90000 L593.93103 44.00000 L590.01799 44.90000 L586.88756 47.39535 L585.16180 51.00000 L585.16180 285.00000 L586.88756 288.60465 L590.01799 291.10000 L593.93103 292.00000 L597.84408 291.10000 L600.97451 288.60465 z"/>
<path fill="#000000" stroke="#000000" d="M109.16180 51.00000 L110.88756 47.39535 L114.01799 44.90000 L117.93103 44.00000 L121.84408 44.90000 L124.97451 47.39535 L126.70027 51.00000 L126.70027 285.00000 L124.97451 288.60465 L121.84408 291.10000 L117.93103 292.00000 L114.01799 291.10000 L110.88756 288.60465 L109.16180 285.00000 z"/>
<path fill="#000000" stroke="#000000" d="M137.16180 51.00000 L138.88756 47.39535 L142.01799 44.90000 L145.93103 44.00000 L149.84408 44.90000 L152.97451 47.39535 L154.70027 51.00000 L154.70027 285.00000 L152.97451 288.60465 L149.84408 291.10000 L145.93103 292.00000 L142.01799 291.10000 L138.88756 288.60465 L137.16180 285.00000 z"/>
<path fill="#000000" stroke="#000000" d="M165.16180 51.00000 L166.88756 47.39535 L170.01799 44.90000 L173.93103 44.00000 L177.84408 44.90000 L180.97451 47.39535 L182.70027 51.00000 L182.70027 285.00000 L180.97451 288.60465 L177.84408 291.10000 L173.93103 292.00000 L170.01799 291.10000 L166.88756 288.60465 L165.16180 285.00000 z"/>
<path fill="#000000" stroke="#000000" d="M193.16180 51.00000 L194.88756 47.39535 L198.01799 44.90000 L201.93103 44.00000 L205.84408 44.90000 L208.97451 47.39535 L210.70027 51.00000 L210.70027 285.00000 L208.97451 288.60465 L205.84408 291.10000 L201.93103 292.00000 L198.01799 291.10000 L194.88756 288.60465 L193.16180 285.00000 z"/>
<path fill="#000000" stroke="#000000" d="M221.16180 51.00000 L222.88756 47.39535 L226.01799 44.90000 L229.93103 44.00000 L233.84408 44.90000 L236.97451 47.39535 L238.70027 51.00000 L238.70027 285.00000 L236.97451 288.60465 L233.84408 291.10000 L229.93103 292.00000 L226.01799 291.10000 L222.88756 288.60465 L221.16180 285.00000 z"/>
<path fill="#000000" stroke="#000000" d="M249.16180 51.00000 L250.88756 47.39535 L254.01799 44.90000 L257.93103 44.00000 L261.84408 44.90000 L264.97451 47.39535 L266.70027 51.00000 L266.70027 285.00000 L264.97451 288.60465 L261.84408 291.10000 L257.93103 292.00000 L254.01799 291.10000 L250.88756 288.60465 L249.16180 285.00000 z"/>
<path fill="#000000" stroke="#000000" d="M277.16180 51.00000 L278.88756 47.39535 L282.01799 44.90000 L285.93103 44.00000 L289.84408 44.90000 L292.97451 47.39535 L294.70027 51.00000 L294.70027 285.00000 L292.97451 288.60465 L289.84408 291.10000 L285.93103 292.00000 L282.01799 291.10000 L278.88756 288.60465 L277.16180 285.00000 z"/>
<path fill="#000000" stroke="#000000" d="M305.16180 51.00000 L306.88756 47.39535 L310.01799 44.90000 L313.93103 44.00000 L317.84408 44.90000 L320.97451 47.39535 L322.70027 51.00000 L322.70027 285.00000 L320.97451 288.60465 L317.84408 291.10000 L313.93103 292.00000 L310.01799 291.10000 L306.88756 288.60465 L305.16180 285.00000 z"/>
<path fill="#000000" stroke="#000000" d="M333.16180 51.00000 L334.88756 47.39535 L338.01799 44.90000 L341.93103 44.00000 L345.84408 44.90000 L348.97451 47.39535 L350.70027 51.00000 L350.70027 285.00000 L348.97451 288.60465 L345.84408 291.10000 L341.93103 292.00000 L338.01799 291.10000 L334.88756 288.60465 L333.16180 285.00000 z"/>
<path fill="#000000" stroke="#000000" d="M361.16180 51.00000 L362.88756 47.39535 L366.01799 44.90000 L369.93103 44.00000 L373.84408 44.90000 L376.97451 47.39535 L378.70027 51.00000 L378.70027 285.00000 L376.97451 288.60465 L373.84408 291.10000 L369.93103 292.00000 L366.01799 291.10000 L362.88756 288.60465 L361.16180 285.00000 z"/>
<path fill="#000000" stroke="#000000" d="M389.16180 51.00000 L390.88756 47.39535 L394.01799 44.90000 L397.93103 44.00000 L401.84408 44.90000 L404.97451 47.39535 L406.70027 51.00000 L406.70027 285.00000 L404.97451 288.60465 L401.84408 291.10000 L397.93103 292.00000 L394.01799 291.10000 L390.88756 288.60465 L389.16180 285.00000 z"/>
<path fill="#000000" stroke="#000000" d="M417.16180 51.00000 L418.88756 47.39535 L422.01799 44.90000 L425.93103 44.00000 L429.84408 44.90000 L432.97451 47.39535 L434.70027 51.00000 L434.70027 285.00000 L432.97451 288.60465 L429.84408 291.10000 L425.93103 292.00000 L422.01799 291.10000 L418.88756 288.60465 L417.16180 285.00000 z"/>
<path fill="#000000" stroke="#000000" d="M445.16180 51.00000 L446.88756 47.39535 L450.01799 44.90000 L453.93103 44.00000 L457.84408 44.90000 L460.97451 47.39535 L462.70027 51.00000 L462.70027 285.00000 L460.97451 288.60465 L457.84408 291.10000 L453.93103 292.00000 L450.01799 291.10000 L446.88756 288.60465 L445.16180 285.00000 z"/>
<path fill="#000000" stroke="#000000" d="M473.16180 51.00000 L474.88756 47.39535 L478.01799 44.90000 L481.93103 44.00000 L485.84408 44.90000 L488.97451 47.39535 L490.70027 51.00000 L490.70027 285.00000 L488.97451 288.60465 L485.84408 291.10000 L481.93103 292.00000 L478.01799 291.10000 L474.88756 288.60465 L473.16180 285.00000 z"/>
<path fill="#000000" stroke="#000000" d="M501.16180 51.00000 L502.88756 47.39535 L506.01799 44.90000 L509.93103 44.00000 L513.84408 44.90000 L516.97451 47.39535 L518.70027 51.00000 L518.70027 285.00000 L516.97451 288.60465 L513.84408 291.10000 L509.93103 292.00000 L506.01799 291.10000 L502.88756 288.60465 L501.16180 285.00000 z"/>
<path fill="#000000" stroke="#000000" d="M529.16180 51.00000 L530.88756 47.39535 L534.01799 44.90000 L537.93103 44.00000 L541.84408 44.90000 L544.97451 47.39535 L546.70027 51.00000 L546.70027 285.00000 L544.97451 288.60465 L541.84408 291.10000 L537.93103 292.00000 L534.01799 291.10000 L530.88756 288.60465 L529.16180 285.00000 z"/>
<path fill="#000000" stroke="#000000" d="M557.16180 51.00000 L558.88756 47.39535 L562.01799 44.90000 L565.93103 44.00000 L569.84408 44.90000 L572.97451 47.39535 L574.70027 51.00000 L574.70027 285.00000 L572.97451 288.60465 L569.84408 291.10000 L565.93103 292.00000 L562.01799 291.10000 L558.88756 288.60465 L557.16180 285.00000 z"/>
<path fill="#000000" stroke="#000000" d="M585.16180 51.00000 L586.88756 47.39535 L590.01799 44.90000 L593.93103 44.00000 L597.84408 44.90000 L600.97451 47.39535 L602.70027 51.00000 L602.70027 285.00000 L600.97451 288.60465 L597.84408 291.10000 L593.93103 292.00000 L590.01799 291.10000 L586.88756 288.60465 L585.16180 285.00000 z"/>
<path fill="#000000" stroke="#000000" d="M817.75087 92.51515 L817.43103 99.66667 L817.04323 101.42857 L815.49201 108.47619 L814.77981 110.11779 L811.93103 116.68421 L810.95712 118.17378 L807.06147 124.13208 L805.80681 125.44412 L800.78818 130.69231 L799.35188 131.74760 L793.60671 135.96875 L791.98509 136.72984 L785.49860 139.77419 L783.77080 140.24986 L776.85961 142.15254 L775.07389 142.32203 L767.93103 143.00000 L766.14532 142.83051 L759.00246 142.15254 L757.27466 141.67687 L750.36347 139.77419 L748.74185 139.01310 L742.25536 135.96875 L740.81907 134.91346 L735.07389 130.69231 L733.81923 129.38026 L728.80060 124.13208 L727.82669 122.64250 L723.93103 116.68421 L723.21884 115.04261 L720.37006 108.47619 L719.98225 106.71429 L718.43103 99.66667 L718.35107 97.87879 L718.03123 90.72727 L718.26761 88.95960 L719.21309 81.88889 L719.75668 80.18254 L721.93103 73.35714 L722.77660 71.78571 L726.15888 65.50000 L727.29109 64.09524 L731.81992 58.47619 L733.15979 57.28571 L738.51927 52.52381 L740.05380 51.61905 L746.19190 48.00000 L747.87306 47.37037 L754.59770 44.85185 L756.37548 44.53173 L763.48659 43.25126 L765.26437 43.25126 L772.37548 43.25126 L774.15326 43.57138 L781.26437 44.85185 L782.94553 45.48148 L789.67016 48.00000 L791.20469 48.90476 L797.34280 52.52381 L798.68267 53.71429 L804.04215 58.47619 L805.17435 59.88095 L809.70319 65.50000 L810.54876 67.07143 L813.93103 73.35714 L814.47462 75.06349 L816.64898 81.88889 L816.88535 83.65657 L817.83083 90.72727 z"/>
<path fill="#000000" stroke="#000000" d="M817.75087 242.51515 L817.43103 249.66667 L817.04323 251.42857 L815.49201 258.47619 L814.77981 260.11779 L811.93103 266.68421 L810.95712 268.17378 L807.06147 274.13208 L805.80681 275.44412 L800.78818 280.69231 L799.35188 281.74760 L793.60671 285.96875 L791.98509 286.72984 L785.49860 289.77419 L783.77080 290.24986 L776.85961 292.15254 L775.07389 292.32203 L767.93103 293.00000 L766.14532 292.83051 L759.00246 292.15254 L757.27466 291.67687 L750.36347 289.77419 L748.74185 289.01310 L742.25536 285.96875 L740.81907 284.91346 L735.07389 280.69231 L733.81923 279.38026 L728.80060 274.13208 L727.82669 272.64250 L723.93103 266.68421 L723.21884 265.04261 L720.37006 258.47619 L719.98225 256.71429 L718.43103 249.66667 L718.35107 247.87879 L718.03123 240.72727 L718.26761 238.95960 L719.21309 231.88889 L719.75668 230.18254 L721.93103 223.35714 L722.77660 221.78571 L726.15888 215.50000 L727.29109 214.09524 L731.81992 208.47619 L733.15979 207.28571 L738.51927 202.52381 L740.05380 201.61905 L746.19190 198.00000 L747.87306 197.37037 L754.59770 194.85185 L756.37548 194.53173 L763.48659 193.25126 L765.26437 193.25126 L772.37548 193.25126 L774.15326 193.57138 L781.26437 194.85185 L782.94553 195.48148 L789.67016 198.00000 L791.20469 198.90476 L797.34280 202.52381 L798.68267 203.71429 L804.04215 208.47619 L805.17435 209.88095 L809.70319 215.50000 L810.54876 217.07143 L813.93103 223.35714 L814.47462 225.06349 L816.64898 231.88889 L816.88535 233.65657 L817.83083 240.72727 z"/>
</svg>