<?xml version="1.0" encoding="UTF-8"?>
<!-- Generated by jsxcad -->
<!DOCTYPE svg PUBLIC "-//W3C//DTD SVG 1.1 Tiny//EN" "http://www.w3.org/Graphics/SVG/1.1/DTD/svg11-tiny.dtd">
<svg baseProfile="tiny" height="767.9252587703943mm" width="845.8620689655186mm" viewBox="-422.9310344827593 -383.96262938519715 845.8620689655186 767.9252587703943" version="1.1" stroke="black" stroke-width=".1" fill="none" xmlns="http://www.w3.org/2000/svg">
<path fill="#bababa" stroke="#bababa" d="M249.5 -168 L249.5 -168 L249.5 -60 L249.5 -60 z"/>
<path fill="#bababa" stroke="#bababa" d="M-379.5 -60 L-379.5 -168 L-379.5 -168 L-379.5 -60 z"/>
<path fill="#bababa" stroke="#bababa" d="M-379.5 -60 L-379.5 -60 L-360.5 -60 L-360.5 -60 z"/>
<path fill="#bababa" stroke="#bababa" d="M230.5 -60 L230.5 -60 L249.5 -60 L249.5 -60 z"/>
<path fill="#bababa" stroke="#bababa" d="M391.77215189873414 -47.5 L391.77215189873414 -47.5 L395.99999999999994 -55.357142857142854 L395.99999999999994 -55.357142857142854 z"/>
<path fill="#bababa" stroke="#bababa" d="M341.07142857142856 -124.15254237288134 L332.4324324324324 -121.77419354838709 L332.4324324324324 -121.77419354838709 L341.07142857142856 -124.15254237288134 z"/>
<path fill="#bababa" stroke="#bababa" d="M306 -98.68421052631578 L306 -98.68421052631578 L302.4390243902439 -90.47619047619047 L302.4390243902439 -90.47619047619047 z"/>
<path fill="#bababa" stroke="#bababa" d="M382.85714285714283 -112.69230769230768 L375.6756756756756 -117.96875 L375.6756756756756 -117.96875 L382.85714285714283 -112.69230769230768 z"/>
<path fill="#bababa" stroke="#bababa" d="M363.3333333333333 -26.85185185185185 L363.3333333333333 -26.85185185185185 L371.73913043478257 -30.000000000000004 L371.73913043478257 -30.000000000000004 z"/>
<path fill="#bababa" stroke="#bababa" d="M320.5882352941176 -34.523809523809526 L313.88888888888886 -40.476190476190474 L313.88888888888886 -40.476190476190474 L320.5882352941176 -34.523809523809526 z"/>
<path fill="#bababa" stroke="#bababa" d="M389.1304347826087 -106.1320754716981 L389.1304347826087 -106.1320754716981 L382.85714285714283 -112.69230769230768 L382.85714285714283 -112.69230769230768 z"/>
<path fill="#bababa" stroke="#bababa" d="M341.07142857142856 -124.15254237288134 L341.07142857142856 -124.15254237288134 L350 -125 L350 -125 z"/>
<path fill="#bababa" stroke="#bababa" d="M313.88888888888886 -40.476190476190474 L308.2278481012658 -47.5 L308.2278481012658 -47.5 L313.88888888888886 -40.476190476190474 z"/>
<path fill="#bababa" stroke="#bababa" d="M336.66666666666663 -26.85185185185185 L336.66666666666663 -26.85185185185185 L345.55555555555554 -25.251256281407034 L345.55555555555554 -25.251256281407034 z"/>
<path fill="#bababa" stroke="#bababa" d="M399.8997995991984 -72.72727272727272 L398.7179487179487 -63.888888888888886 L398.7179487179487 -63.888888888888886 L399.8997995991984 -72.72727272727272 z"/>
<path fill="#bababa" stroke="#bababa" d="M398.7179487179487 -63.888888888888886 L398.7179487179487 -63.888888888888886 L395.99999999999994 -55.357142857142854 L395.99999999999994 -55.357142857142854 z"/>
<path fill="#bababa" stroke="#bababa" d="M310.86956521739125 -106.1320754716981 L310.86956521739125 -106.1320754716981 L317.1428571428571 -112.69230769230768 L317.1428571428571 -112.69230769230768 z"/>
<path fill="#bababa" stroke="#bababa" d="M386.1111111111111 -40.476190476190474 L379.4117647058823 -34.523809523809526 L379.4117647058823 -34.523809523809526 L386.1111111111111 -40.476190476190474 z"/>
<path fill="#bababa" stroke="#bababa" d="M363.3333333333333 -26.85185185185185 L363.3333333333333 -26.85185185185185 L354.4444444444444 -25.251256281407034 L354.4444444444444 -25.251256281407034 z"/>
<path fill="#bababa" stroke="#bababa" d="M328.2608695652174 -30.000000000000004 L328.2608695652174 -30.000000000000004 L336.66666666666663 -26.85185185185185 L336.66666666666663 -26.85185185185185 z"/>
<path fill="#bababa" stroke="#bababa" d="M320.5882352941176 -34.523809523809526 L320.5882352941176 -34.523809523809526 L328.2608695652174 -30.000000000000004 L328.2608695652174 -30.000000000000004 z"/>
<path fill="#bababa" stroke="#bababa" d="M308.2278481012658 -47.5 L308.2278481012658 -47.5 L304 -55.357142857142854 L304 -55.357142857142854 z"/>
<path fill="#bababa" stroke="#bababa" d="M304 -55.357142857142854 L304 -55.357142857142854 L301.28205128205127 -63.888888888888886 L301.28205128205127 -63.888888888888886 z"/>
<path fill="#bababa" stroke="#bababa" d="M345.55555555555554 124.74874371859296 L336.66666666666663 123.14814814814814 L336.66666666666663 123.14814814814814 L345.55555555555554 124.74874371859296 z"/>
<path fill="#bababa" stroke="#bababa" d="M375.6756756756756 -117.96875 L367.56756756756755 -121.77419354838709 L367.56756756756755 -121.77419354838709 L375.6756756756756 -117.96875 z"/>
<path fill="#bababa" stroke="#bababa" d="M302.4390243902439 59.523809523809526 L300.5 68.33333333333333 L300.5 68.33333333333333 L302.4390243902439 59.523809523809526 z"/>
<path fill="#bababa" stroke="#bababa" d="M358.9285714285714 -124.15254237288134 L350 -125 L350 -125 L358.9285714285714 -124.15254237288134 z"/>
<path fill="#bababa" stroke="#bababa" d="M358.9285714285714 25.847457627118647 L350 25 L350 25 L358.9285714285714 25.847457627118647 z"/>
<path fill="#bababa" stroke="#bababa" d="M399.49999999999994 68.33333333333333 L397.56097560975604 59.523809523809526 L397.56097560975604 59.523809523809526 L399.49999999999994 68.33333333333333 z"/>
<path fill="#bababa" stroke="#bababa" d="M399.8997995991984 77.27272727272727 L399.8997995991984 77.27272727272727 L399.49999999999994 68.33333333333333 L399.49999999999994 68.33333333333333 z"/>
<path fill="#bababa" stroke="#bababa" d="M397.56097560975604 -90.47619047619047 L397.56097560975604 -90.47619047619047 L393.99999999999994 -98.68421052631578 L393.99999999999994 -98.68421052631578 z"/>
<path fill="#bababa" stroke="#bababa" d="M317.1428571428571 -112.69230769230768 L324.3243243243243 -117.96875 L324.3243243243243 -117.96875 L317.1428571428571 -112.69230769230768 z"/>
<path fill="#bababa" stroke="#bababa" d="M399.8997995991984 77.27272727272727 L398.7179487179487 86.1111111111111 L398.7179487179487 86.1111111111111 L399.8997995991984 77.27272727272727 z"/>
<path fill="#bababa" stroke="#bababa" d="M367.56756756756755 -121.77419354838709 L367.56756756756755 -121.77419354838709 L358.9285714285714 -124.15254237288134 L358.9285714285714 -124.15254237288134 z"/>
<path fill="#bababa" stroke="#bababa" d="M398.7179487179487 86.1111111111111 L398.7179487179487 86.1111111111111 L395.99999999999994 94.64285714285714 L395.99999999999994 94.64285714285714 z"/>
<path fill="#bababa" stroke="#bababa" d="M399.8997995991984 -72.72727272727272 L399.49999999999994 -81.66666666666666 L399.49999999999994 -81.66666666666666 L399.8997995991984 -72.72727272727272 z"/>
<path fill="#bababa" stroke="#bababa" d="M300.5 -81.66666666666666 L300.5 -81.66666666666666 L302.4390243902439 -90.47619047619047 L302.4390243902439 -90.47619047619047 z"/>
<path fill="#bababa" stroke="#bababa" d="M310.86956521739125 43.867924528301884 L306 51.315789473684205 L306 51.315789473684205 L310.86956521739125 43.867924528301884 z"/>
<path fill="#bababa" stroke="#bababa" d="M397.56097560975604 59.523809523809526 L397.56097560975604 59.523809523809526 L393.99999999999994 51.315789473684205 L393.99999999999994 51.315789473684205 z"/>
<path fill="#bababa" stroke="#bababa" d="M310.86956521739125 43.867924528301884 L317.1428571428571 37.30769230769231 L317.1428571428571 37.30769230769231 L310.86956521739125 43.867924528301884 z"/>
<path fill="#bababa" stroke="#bababa" d="M395.99999999999994 94.64285714285714 L391.77215189873414 102.49999999999999 L391.77215189873414 102.49999999999999 L395.99999999999994 94.64285714285714 z"/>
<path fill="#bababa" stroke="#bababa" d="M393.99999999999994 51.315789473684205 L389.1304347826087 43.867924528301884 L389.1304347826087 43.867924528301884 L393.99999999999994 51.315789473684205 z"/>
<path fill="#bababa" stroke="#bababa" d="M391.77215189873414 102.49999999999999 L391.77215189873414 102.49999999999999 L386.1111111111111 109.52380952380952 L386.1111111111111 109.52380952380952 z"/>
<path fill="#bababa" stroke="#bababa" d="M386.1111111111111 109.52380952380952 L386.1111111111111 109.52380952380952 L379.4117647058823 115.47619047619047 L379.4117647058823 115.47619047619047 z"/>
<path fill="#bababa" stroke="#bababa" d="M183.60465116279067 121.05128205128204 L179.91304347826085 123.1 L180.225 123.74418604651162 z"/>
<path fill="#bababa" stroke="#bababa" d="M-307.04347826086956 -120.60526315789473 L-303.9130434782608 -123.1 L-307.6046511627907 -121.05128205128204 z"/>
<path fill="#bababa" stroke="#bababa" d="M345.55555555555554 -25.251256281407034 L345.55555555555554 -25.251256281407034 L354.4444444444444 -25.251256281407034 L354.4444444444444 -25.251256281407034 z"/>
<path fill="#bababa" stroke="#bababa" d="M324.3243243243243 32.03125 L332.4324324324324 28.225806451612904 L332.4324324324324 28.225806451612904 L324.3243243243243 32.03125 z"/>
<path fill="#bababa" stroke="#bababa" d="M183.60465116279067 121.05128205128204 L183.60465116279067 121.05128205128204 L180.225 123.74418604651162 L180.225 123.74418604651162 z"/>
<path fill="#bababa" stroke="#bababa" d="M176.07999999999998 -124.70454545454545 L176.07999999999998 -124.70454545454545 L180.225 -123.74418604651162 L180.225 -123.74418604651162 z"/>
<path fill="#bababa" stroke="#bababa" d="M-300.08 124.70454545454545 L-300.08 124.70454545454545 L-304.22499999999997 123.74418604651162 L-304.22499999999997 123.74418604651162 z"/>
<path fill="#bababa" stroke="#bababa" d="M382.85714285714283 37.30769230769231 L389.1304347826087 43.867924528301884 L389.1304347826087 43.867924528301884 L382.85714285714283 37.30769230769231 z"/>
<path fill="#bababa" stroke="#bababa" d="M310.86956521739125 -106.1320754716981 L306 -98.68421052631578 L306 -98.68421052631578 L310.86956521739125 -106.1320754716981 z"/>
<path fill="#bababa" stroke="#bababa" d="M183.60465116279067 121.05128205128204 L183.04347826086956 120.60526315789473 L179.91304347826085 123.1 z"/>
<path fill="#bababa" stroke="#bababa" d="M176 124 L176.07999999999998 124.70454545454545 L179.91304347826085 123.1 z"/>
<path fill="#bababa" stroke="#bababa" d="M320.5882352941176 115.47619047619047 L313.88888888888886 109.52380952380952 L313.88888888888886 109.52380952380952 L320.5882352941176 115.47619047619047 z"/>
<path fill="#bababa" stroke="#bababa" d="M-307.04347826086956 120.60526315789473 L-308.7692307692307 117 L-307.6046511627907 121.05128205128204 z"/>
<path fill="#bababa" stroke="#bababa" d="M-307.6046511627907 121.05128205128204 L-303.9130434782608 123.1 L-307.04347826086956 120.60526315789473 z"/>
<path fill="#bababa" stroke="#bababa" d="M179.91304347826085 -123.1 L183.04347826086956 -120.60526315789473 L183.60465116279067 -121.05128205128204 z"/>
<path fill="#bababa" stroke="#bababa" d="M-304.22499999999997 123.74418604651162 L-303.9130434782608 123.1 L-307.6046511627907 121.05128205128204 z"/>
<path fill="#bababa" stroke="#bababa" d="M176.07999999999998 124.70454545454545 L180.225 123.74418604651162 L179.91304347826085 123.1 z"/>
<path fill="#bababa" stroke="#bababa" d="M183.60465116279067 121.05128205128204 L185.46666666666664 117.1578947368421 L184.76923076923075 117 z"/>
<path fill="#bababa" stroke="#bababa" d="M-304.22499999999997 -123.74418604651162 L-303.9130434782608 -123.1 L-300.08 -124.70454545454545 z"/>
<path fill="#bababa" stroke="#bababa" d="M-307.6046511627907 -121.05128205128204 L-309.46666666666664 -117.1578947368421 L-309.46666666666664 -117.1578947368421 L-307.6046511627907 -121.05128205128204 z"/>
<path fill="#bababa" stroke="#bababa" d="M183.60465116279067 121.05128205128204 L184.76923076923075 117 L183.04347826086956 120.60526315789473 z"/>
<path fill="#bababa" stroke="#bababa" d="M-309.46666666666664 117.1578947368421 L-307.6046511627907 121.05128205128204 L-308.7692307692307 117 z"/>
<path fill="#bababa" stroke="#bababa" d="M350 25 L350 25 L341.07142857142856 25.847457627118647 L341.07142857142856 25.847457627118647 z"/>
<path fill="#bababa" stroke="#bababa" d="M-309.46666666666664 -117.1578947368421 L-309.46666666666664 -117.1578947368421 L-309.46666666666664 117.1578947368421 L-309.46666666666664 117.1578947368421 z"/>
<path fill="#bababa" stroke="#bababa" d="M-304.22499999999997 123.74418604651162 L-304.22499999999997 123.74418604651162 L-307.6046511627907 121.05128205128204 L-307.6046511627907 121.05128205128204 z"/>
<path fill="#bababa" stroke="#bababa" d="M308.2278481012658 102.49999999999999 L308.2278481012658 102.49999999999999 L304 94.64285714285714 L304 94.64285714285714 z"/>
<path fill="#bababa" stroke="#bababa" d="M-309.46666666666664 117.1578947368421 L-307.6046511627907 121.05128205128204 L-307.6046511627907 121.05128205128204 L-309.46666666666664 117.1578947368421 z"/>
<path fill="#bababa" stroke="#bababa" d="M185.46666666666664 -117.1578947368421 L184.76923076923075 -117 L184.76923076923075 117 L185.46666666666664 117.1578947368421 z"/>
<path fill="#bababa" stroke="#bababa" d="M-307.6046511627907 -121.05128205128204 L-304.22499999999997 -123.74418604651162 L-304.22499999999997 -123.74418604651162 L-307.6046511627907 -121.05128205128204 z"/>
<path fill="#bababa" stroke="#bababa" d="M180.225 123.74418604651162 L180.225 123.74418604651162 L176.07999999999998 124.70454545454545 L176.07999999999998 124.70454545454545 z"/>
<path fill="#bababa" stroke="#bababa" d="M179.91304347826085 -123.1 L180.225 -123.74418604651162 L176.07999999999998 -124.70454545454545 z"/>
<path fill="#bababa" stroke="#bababa" d="M332.4324324324324 -121.77419354838709 L324.3243243243243 -117.96875 L324.3243243243243 -117.96875 L332.4324324324324 -121.77419354838709 z"/>
<path fill="#bababa" stroke="#bababa" d="M179.91304347826085 -123.1 L183.60465116279067 -121.05128205128204 L180.225 -123.74418604651162 z"/>
<path fill="#bababa" stroke="#bababa" d="M184.76923076923075 -117 L185.46666666666664 -117.1578947368421 L183.60465116279067 -121.05128205128204 z"/>
<path fill="#bababa" stroke="#bababa" d="M184.76923076923075 -117 L183.60465116279067 -121.05128205128204 L183.04347826086956 -120.60526315789473 z"/>
<path fill="#bababa" stroke="#bababa" d="M-300.08 124.70454545454545 L-303.9130434782608 123.1 L-304.22499999999997 123.74418604651162 z"/>
<path fill="#bababa" stroke="#bababa" d="M176 -124 L179.91304347826085 -123.1 L176.07999999999998 -124.70454545454545 z"/>
<path fill="#bababa" stroke="#bababa" d="M-307.6046511627907 -121.05128205128204 L-309.46666666666664 -117.1578947368421 L-308.7692307692307 -117 z"/>
<path fill="#bababa" stroke="#bababa" d="M176.07999999999998 -124.70454545454545 L-300.08 -124.70454545454545 L-300.08 -124.70454545454545 L176.07999999999998 -124.70454545454545 z"/>
<path fill="#bababa" stroke="#bababa" d="M-300 124 L-303.9130434782608 123.1 L-300.08 124.70454545454545 z"/>
<path fill="#bababa" stroke="#bababa" d="M304 94.64285714285714 L301.28205128205127 86.1111111111111 L301.28205128205127 86.1111111111111 L304 94.64285714285714 z"/>
<path fill="#bababa" stroke="#bababa" d="M185.46666666666664 117.1578947368421 L185.46666666666664 117.1578947368421 L183.60465116279067 121.05128205128204 L183.60465116279067 121.05128205128204 z"/>
<path fill="#bababa" stroke="#bababa" d="M176.07999999999998 124.70454545454545 L-300.08 124.70454545454545 L-300.08 124.70454545454545 L176.07999999999998 124.70454545454545 z"/>
<path fill="#bababa" stroke="#bababa" d="M393.99999999999994 -98.68421052631578 L393.99999999999994 -98.68421052631578 L389.1304347826087 -106.1320754716981 L389.1304347826087 -106.1320754716981 z"/>
<path fill="#bababa" stroke="#bababa" d="M-360.5 -168 L-360.5 -168 L-360.5 -60 L-360.5 -60 z"/>
<path fill="#bababa" stroke="#bababa" d="M371.73913043478257 -30.000000000000004 L371.73913043478257 -30.000000000000004 L379.4117647058823 -34.523809523809526 L379.4117647058823 -34.523809523809526 z"/>
<path fill="#bababa" stroke="#bababa" d="M-300 -124 L176 -124 L176.07999999999998 -124.70454545454545 L-300.08 -124.70454545454545 z"/>
<path fill="#bababa" stroke="#bababa" d="M300.10020040080155 77.27272727272727 L301.28205128205127 86.1111111111111 L301.28205128205127 86.1111111111111 L300.10020040080155 77.27272727272727 z"/>
<path fill="#bababa" stroke="#bababa" d="M300.5 -81.66666666666666 L300.5 -81.66666666666666 L300.10020040080155 -72.72727272727272 L300.10020040080155 -72.72727272727272 z"/>
<path fill="#bababa" stroke="#bababa" d="M185.46666666666664 -117.1578947368421 L183.60465116279067 -121.05128205128204 L183.60465116279067 -121.05128205128204 L185.46666666666664 -117.1578947368421 z"/>
<path fill="#bababa" stroke="#bababa" d="M-304.22499999999997 -123.74418604651162 L-304.22499999999997 -123.74418604651162 L-300.08 -124.70454545454545 L-300.08 -124.70454545454545 z"/>
<path fill="#bababa" stroke="#bababa" d="M185.46666666666664 117.1578947368421 L185.46666666666664 117.1578947368421 L185.46666666666664 -117.1578947368421 L185.46666666666664 -117.1578947368421 z"/>
<path fill="#bababa" stroke="#bababa" d="M382.85714285714283 37.30769230769231 L375.6756756756756 32.03125 L375.6756756756756 32.03125 L382.85714285714283 37.30769230769231 z"/>
<path fill="#bababa" stroke="#bababa" d="M320.5882352941176 115.47619047619047 L320.5882352941176 115.47619047619047 L328.2608695652174 119.99999999999999 L328.2608695652174 119.99999999999999 z"/>
<path fill="#bababa" stroke="#bababa" d="M386.1111111111111 -40.476190476190474 L386.1111111111111 -40.476190476190474 L391.77215189873414 -47.5 L391.77215189873414 -47.5 z"/>
<path fill="#bababa" stroke="#bababa" d="M328.2608695652174 119.99999999999999 L328.2608695652174 119.99999999999999 L336.66666666666663 123.14814814814814 L336.66666666666663 123.14814814814814 z"/>
<path fill="#bababa" stroke="#bababa" d="M300.10020040080155 77.27272727272727 L300.10020040080155 77.27272727272727 L300.5 68.33333333333333 L300.5 68.33333333333333 z"/>
<path fill="#bababa" stroke="#bababa" d="M-379.5 -168 L-400 -168 L-400 -168 L-379.5 -168 z"/>
<path fill="#bababa" stroke="#bababa" d="M400 -168 L249.5 -168 L249.5 -168 L400 -168 z"/>
<path fill="#bababa" stroke="#bababa" d="M230.5 -168 L-360.5 -168 L-360.5 -168 L230.5 -168 z"/>
<path fill="#bababa" stroke="#bababa" d="M324.3243243243243 32.03125 L324.3243243243243 32.03125 L317.1428571428571 37.30769230769231 L317.1428571428571 37.30769230769231 z"/>
<path fill="#bababa" stroke="#bababa" d="M367.56756756756755 28.225806451612904 L367.56756756756755 28.225806451612904 L358.9285714285714 25.847457627118647 L358.9285714285714 25.847457627118647 z"/>
<path fill="#bababa" stroke="#bababa" d="M230.5 -168 L230.5 -60 L230.5 -60 L230.5 -168 z"/>
<path fill="#bababa" stroke="#bababa" d="M313.88888888888886 109.52380952380952 L308.2278481012658 102.49999999999999 L308.2278481012658 102.49999999999999 L313.88888888888886 109.52380952380952 z"/>
<path fill="#bababa" stroke="#bababa" d="M302.4390243902439 59.523809523809526 L302.4390243902439 59.523809523809526 L306 51.315789473684205 L306 51.315789473684205 z"/>
<path fill="#bababa" stroke="#bababa" d="M341.07142857142856 25.847457627118647 L341.07142857142856 25.847457627118647 L332.4324324324324 28.225806451612904 L332.4324324324324 28.225806451612904 z"/>
<path fill="#bababa" stroke="#bababa" d="M367.56756756756755 28.225806451612904 L375.6756756756756 32.03125 L375.6756756756756 32.03125 L367.56756756756755 28.225806451612904 z"/>
<path fill="#bababa" stroke="#bababa" d="M397.56097560975604 -90.47619047619047 L397.56097560975604 -90.47619047619047 L399.49999999999994 -81.66666666666666 L399.49999999999994 -81.66666666666666 z"/>
<path fill="#bababa" stroke="#bababa" d="M354.4444444444444 124.74874371859296 L354.4444444444444 124.74874371859296 L363.3333333333333 123.14814814814814 L363.3333333333333 123.14814814814814 z"/>
<path fill="#bababa" stroke="#bababa" d="M354.4444444444444 124.74874371859296 L345.55555555555554 124.74874371859296 L345.55555555555554 124.74874371859296 L354.4444444444444 124.74874371859296 z"/>
<path fill="#bababa" stroke="#bababa" d="M300.10020040080155 -72.72727272727272 L301.28205128205127 -63.888888888888886 L301.28205128205127 -63.888888888888886 L300.10020040080155 -72.72727272727272 z"/>
<path fill="#bababa" stroke="#bababa" d="M-417.9310344827586 -151.33333333333331 L-417.9310344827586 148.66666666666666 L-417.9310344827586 148.66666666666666 L-417.9310344827586 -151.33333333333331 z"/>
<path fill="#bababa" stroke="#bababa" d="M-416.7586206896551 -156.58620689655172 L-417.9310344827586 -151.33333333333331 L-417.9310344827586 -151.33333333333331 L-416.7586206896551 -156.58620689655172 z"/>
<path fill="#bababa" stroke="#bababa" d="M-414.0869565217391 -161.20833333333331 L-416.7586206896551 -156.58620689655172 L-416.7586206896551 -156.58620689655172 L-414.0869565217391 -161.20833333333331 z"/>
<path fill="#bababa" stroke="#bababa" d="M-410.125 -164.86956521739128 L-414.0869565217391 -161.20833333333331 L-414.0869565217391 -161.20833333333331 L-410.125 -164.86956521739128 z"/>
<path fill="#bababa" stroke="#bababa" d="M-405.2941176470588 -167.2173913043478 L-410.125 -164.86956521739128 L-410.125 -164.86956521739128 L-405.2941176470588 -167.2173913043478 z"/>
<path fill="#bababa" stroke="#bababa" d="M-400 -168 L-405.2941176470588 -167.2173913043478 L-405.2941176470588 -167.2173913043478 L-400 -168 z"/>
<path fill="#bababa" stroke="#bababa" d="M405.2941176470588 -167.2173913043478 L400 -168 L400 -168 L405.2941176470588 -167.2173913043478 z"/>
<path fill="#bababa" stroke="#bababa" d="M410.125 -164.86956521739128 L405.2941176470588 -167.2173913043478 L405.2941176470588 -167.2173913043478 L410.125 -164.86956521739128 z"/>
<path fill="#bababa" stroke="#bababa" d="M414.0869565217391 -161.20833333333331 L410.125 -164.86956521739128 L410.125 -164.86956521739128 L414.0869565217391 -161.20833333333331 z"/>
<path fill="#bababa" stroke="#bababa" d="M416.7586206896551 -156.58620689655172 L414.0869565217391 -161.20833333333331 L414.0869565217391 -161.20833333333331 L416.7586206896551 -156.58620689655172 z"/>
<path fill="#bababa" stroke="#bababa" d="M417.9310344827586 -151.33333333333331 L416.7586206896551 -156.58620689655172 L416.7586206896551 -156.58620689655172 L417.9310344827586 -151.33333333333331 z"/>
<path fill="#bababa" stroke="#bababa" d="M417.9310344827586 148.66666666666666 L417.9310344827586 -151.33333333333331 L417.9310344827586 -151.33333333333331 L417.9310344827586 148.66666666666666 z"/>
<path fill="#bababa" stroke="#bababa" d="M417.5384615384615 154 L417.9310344827586 148.66666666666666 L417.9310344827586 148.66666666666666 L417.5384615384615 154 z"/>
<path fill="#bababa" stroke="#bababa" d="M415.59999999999997 159 L417.5384615384615 154 L417.5384615384615 154 L415.59999999999997 159 z"/>
<path fill="#bababa" stroke="#bababa" d="M412.23999999999995 163.2 L415.59999999999997 159 L415.59999999999997 159 L412.23999999999995 163.2 z"/>
<path fill="#bababa" stroke="#bababa" d="M407.8260869565217 166.2 L412.23999999999995 163.2 L412.23999999999995 163.2 L407.8260869565217 166.2 z"/>
<path fill="#bababa" stroke="#bababa" d="M402.7 167.78260869565216 L407.8260869565217 166.2 L407.8260869565217 166.2 L402.7 167.78260869565216 z"/>
<path fill="#bababa" stroke="#bababa" d="M-402.7 167.78260869565216 L402.7 167.78260869565216 L402.7 167.78260869565216 L-402.7 167.78260869565216 z"/>
<path fill="#bababa" stroke="#bababa" d="M-407.8260869565217 166.2 L-402.7 167.78260869565216 L-402.7 167.78260869565216 L-407.8260869565217 166.2 z"/>
<path fill="#bababa" stroke="#bababa" d="M-412.23999999999995 163.2 L-407.8260869565217 166.2 L-407.8260869565217 166.2 L-412.23999999999995 163.2 z"/>
<path fill="#bababa" stroke="#bababa" d="M-415.59999999999997 159 L-412.23999999999995 163.2 L-412.23999999999995 163.2 L-415.59999999999997 159 z"/>
<path fill="#bababa" stroke="#bababa" d="M-417.5384615384615 154 L-415.59999999999997 159 L-415.59999999999997 159 L-417.5384615384615 154 z"/>
<path fill="#bababa" stroke="#bababa" d="M-417.9310344827586 148.66666666666666 L-417.5384615384615 154 L-417.5384615384615 154 L-417.9310344827586 148.66666666666666 z"/>
<path fill="#bababa" stroke="#bababa" d="M-308.7692307692307 -117 L-309.46666666666664 -117.1578947368421 L-309.46666666666664 117.1578947368421 L-308.7692307692307 117 z"/>
<path fill="#bababa" stroke="#bababa" d="M-304.22499999999997 -123.74418604651162 L-307.6046511627907 -121.05128205128204 L-303.9130434782608 -123.1 z"/>
<path fill="#bababa" stroke="#bababa" d="M-303.9130434782608 -123.1 L-300 -124 L-300.08 -124.70454545454545 z"/>
<path fill="#bababa" stroke="#bababa" d="M-307.04347826086956 -120.60526315789473 L-307.6046511627907 -121.05128205128204 L-308.7692307692307 -117 z"/>
<path fill="#bababa" stroke="#bababa" d="M-300 124 L-300.08 124.70454545454545 L176.07999999999998 124.70454545454545 L176 124 z"/>
<path fill="#bababa" stroke="#bababa" d="M183.60465116279067 -121.05128205128204 L183.60465116279067 -121.05128205128204 L180.225 -123.74418604651162 L180.225 -123.74418604651162 z"/>
<path fill="#bababa" stroke="#bababa" d="M249.5 -168 L249.5 -60 L230.5 -60 L230.5 -168 L-360.5 -168 L-360.5 -60 L-379.5 -60 L-379.5 -168 L-400 -168 L-405.2941176470588 -167.2173913043478 L-410.125 -164.86956521739128 L-414.0869565217391 -161.20833333333331 L-416.7586206896551 -156.58620689655172 L-417.9310344827586 -151.33333333333331 L-417.9310344827586 148.66666666666666 L-417.5384615384615 154 L-415.59999999999997 159 L-412.23999999999995 163.2 L-407.8260869565217 166.2 L-402.7 167.78260869565216 L402.7 167.78260869565216 L407.8260869565217 166.2 L412.23999999999995 163.2 L415.59999999999997 159 L417.5384615384615 154 L417.9310344827586 148.66666666666666 L417.9310344827586 -151.33333333333331 L416.7586206896551 -156.58620689655172 L414.0869565217391 -161.20833333333331 L410.125 -164.86956521739128 L405.2941176470588 -167.2173913043478 L400 -168 z M180.225 123.74418604651162 L176.07999999999998 124.70454545454545 L-300.08 124.70454545454545 L-304.22499999999997 123.74418604651162 L-307.6046511627907 121.05128205128204 L-309.46666666666664 117.1578947368421 L-309.46666666666664 -117.1578947368421 L-307.6046511627907 -121.05128205128204 L-304.22499999999997 -123.74418604651162 L-300.08 -124.70454545454545 L176.07999999999998 -124.70454545454545 L180.225 -123.74418604651162 L183.60465116279067 -121.05128205128204 L185.46666666666664 -117.1578947368421 L185.46666666666664 117.1578947368421 L183.60465116279067 121.05128205128204 z M300.5 -81.66666666666666 L302.4390243902439 -90.47619047619047 L306 -98.68421052631578 L310.86956521739125 -106.1320754716981 L317.1428571428571 -112.69230769230768 L324.3243243243243 -117.96875 L332.4324324324324 -121.77419354838709 L341.07142857142856 -124.15254237288134 L350 -125 L358.9285714285714 -124.15254237288134 L367.56756756756755 -121.77419354838709 L375.6756756756756 -117.96875 L382.85714285714283 -112.69230769230768 L389.1304347826087 -106.1320754716981 L393.99999999999994 -98.68421052631578 L397.56097560975604 -90.47619047619047 L399.49999999999994 -81.66666666666666 L399.8997995991984 -72.72727272727272 L398.7179487179487 -63.888888888888886 L395.99999999999994 -55.357142857142854 L391.77215189873414 -47.5 L386.1111111111111 -40.476190476190474 L379.4117647058823 -34.523809523809526 L371.73913043478257 -30.000000000000004 L363.3333333333333 -26.85185185185185 L354.4444444444444 -25.251256281407034 L345.55555555555554 -25.251256281407034 L336.66666666666663 -26.85185185185185 L328.2608695652174 -30.000000000000004 L320.5882352941176 -34.523809523809526 L313.88888888888886 -40.476190476190474 L308.2278481012658 -47.5 L304 -55.357142857142854 L301.28205128205127 -63.888888888888886 L300.10020040080155 -72.72727272727272 z M308.2278481012658 102.49999999999999 L304 94.64285714285714 L301.28205128205127 86.1111111111111 L300.10020040080155 77.27272727272727 L300.5 68.33333333333333 L302.4390243902439 59.523809523809526 L306 51.315789473684205 L310.86956521739125 43.867924528301884 L317.1428571428571 37.30769230769231 L324.3243243243243 32.03125 L332.4324324324324 28.225806451612904 L341.07142857142856 25.847457627118647 L350 25 L358.9285714285714 25.847457627118647 L367.56756756756755 28.225806451612904 L375.6756756756756 32.03125 L382.85714285714283 37.30769230769231 L389.1304347826087 43.867924528301884 L393.99999999999994 51.315789473684205 L397.56097560975604 59.523809523809526 L399.49999999999994 68.33333333333333 L399.8997995991984 77.27272727272727 L398.7179487179487 86.1111111111111 L395.99999999999994 94.64285714285714 L391.77215189873414 102.49999999999999 L386.1111111111111 109.52380952380952 L379.4117647058823 115.47619047619047 L371.73913043478257 119.99999999999999 L363.3333333333333 123.14814814814814 L354.4444444444444 124.74874371859296 L345.55555555555554 124.74874371859296 L336.66666666666663 123.14814814814814 L328.2608695652174 119.99999999999999 L320.5882352941176 115.47619047619047 L313.88888888888886 109.52380952380952 z"/>
<path fill="#bababa" stroke="#bababa" d="M371.73913043478257 119.99999999999999 L371.73913043478257 119.99999999999999 L363.3333333333333 123.14814814814814 L363.3333333333333 123.14814814814814 z"/>
<path fill="#bababa" stroke="#bababa" d="M379.4117647058823 115.47619047619047 L379.4117647058823 115.47619047619047 L371.73913043478257 119.99999999999999 L371.73913043478257 119.99999999999999 z"/>
<path fill="#bababa" stroke="#bababa" d="M249.5 -168 L400 -168 L405.2941176470588 -167.2173913043478 L410.125 -164.86956521739128 L414.0869565217391 -161.20833333333331 L416.7586206896551 -156.58620689655172 L417.9310344827586 -151.33333333333331 L417.9310344827586 148.66666666666666 L417.5384615384615 154 L415.59999999999997 159 L412.23999999999995 163.2 L407.8260869565217 166.2 L402.7 167.78260869565216 L-402.7 167.78260869565216 L-407.8260869565217 166.2 L-412.23999999999995 163.2 L-415.59999999999997 159 L-417.5384615384615 154 L-417.9310344827586 148.66666666666666 L-417.9310344827586 -151.33333333333331 L-416.7586206896551 -156.58620689655172 L-414.0869565217391 -161.20833333333331 L-410.125 -164.86956521739128 L-405.2941176470588 -167.2173913043478 L-400 -168 L-379.5 -168 L-379.5 -60 L-360.5 -60 L-360.5 -168 L230.5 -168 L230.5 -60 L249.5 -60 z M-308.7692307692307 -117 L-308.7692307692307 117 L-307.04347826086956 120.60526315789473 L-303.9130434782608 123.1 L-300 124 L176 124 L179.91304347826085 123.1 L183.04347826086956 120.60526315789473 L184.76923076923075 117 L184.76923076923075 -117 L183.04347826086956 -120.60526315789473 L179.91304347826085 -123.1 L176 -124 L-300 -124 L-303.9130434782608 -123.1 L-307.04347826086956 -120.60526315789473 z M300.10020040080155 -72.72727272727272 L301.28205128205127 -63.888888888888886 L304 -55.357142857142854 L308.2278481012658 -47.5 L313.88888888888886 -40.476190476190474 L320.5882352941176 -34.523809523809526 L328.2608695652174 -30.000000000000004 L336.66666666666663 -26.85185185185185 L345.55555555555554 -25.251256281407034 L354.4444444444444 -25.251256281407034 L363.3333333333333 -26.85185185185185 L371.73913043478257 -30.000000000000004 L379.4117647058823 -34.523809523809526 L386.1111111111111 -40.476190476190474 L391.77215189873414 -47.5 L395.99999999999994 -55.357142857142854 L398.7179487179487 -63.888888888888886 L399.8997995991984 -72.72727272727272 L399.49999999999994 -81.66666666666666 L397.56097560975604 -90.47619047619047 L393.99999999999994 -98.68421052631578 L389.1304347826087 -106.1320754716981 L382.85714285714283 -112.69230769230768 L375.6756756756756 -117.96875 L367.56756756756755 -121.77419354838709 L358.9285714285714 -124.15254237288134 L350 -125 L341.07142857142856 -124.15254237288134 L332.4324324324324 -121.77419354838709 L324.3243243243243 -117.96875 L317.1428571428571 -112.69230769230768 L310.86956521739125 -106.1320754716981 L306 -98.68421052631578 L302.4390243902439 -90.47619047619047 L300.5 -81.66666666666666 z M300.10020040080155 77.27272727272727 L301.28205128205127 86.1111111111111 L304 94.64285714285714 L308.2278481012658 102.49999999999999 L313.88888888888886 109.52380952380952 L320.5882352941176 115.47619047619047 L328.2608695652174 119.99999999999999 L336.66666666666663 123.14814814814814 L345.55555555555554 124.74874371859296 L354.4444444444444 124.74874371859296 L363.3333333333333 123.14814814814814 L371.73913043478257 119.99999999999999 L379.4117647058823 115.47619047619047 L386.1111111111111 109.52380952380952 L391.77215189873414 102.49999999999999 L395.99999999999994 94.64285714285714 L398.7179487179487 86.1111111111111 L399.8997995991984 77.27272727272727 L399.49999999999994 68.33333333333333 L397.56097560975604 59.523809523809526 L393.99999999999994 51.315789473684205 L389.1304347826087 43.867924528301884 L382.85714285714283 37.30769230769231 L375.6756756756756 32.03125 L367.56756756756755 28.225806451612904 L358.9285714285714 25.847457627118647 L350 25 L341.07142857142856 25.847457627118647 L332.4324324324324 28.225806451612904 L324.3243243243243 32.03125 L317.1428571428571 37.30769230769231 L310.86956521739125 43.867924528301884 L306 51.315789473684205 L302.4390243902439 59.523809523809526 L300.5 68.33333333333333 z"/>
<path fill="#c4d3ac" stroke="#c4d3ac" d="M350 25 L341.07142857142856 25.847457627118647 L341.07142857142856 25.847457627118647 L350 25 z"/>
<path fill="#c4d3ac" stroke="#c4d3ac" d="M358.9285714285714 25.847457627118647 L350 25 L350 25 L358.9285714285714 25.847457627118647 z"/>
<path fill="#c4d3ac" stroke="#c4d3ac" d="M375.6756756756756 32.03125 L367.56756756756755 28.225806451612904 L367.56756756756755 28.225806451612904 L375.6756756756756 32.03125 z"/>
<path fill="#c4d3ac" stroke="#c4d3ac" d="M382.85714285714283 37.30769230769231 L375.6756756756756 32.03125 L375.6756756756756 32.03125 L382.85714285714283 37.30769230769231 z"/>
<path fill="#c4d3ac" stroke="#c4d3ac" d="M367.56756756756755 28.225806451612904 L358.9285714285714 25.847457627118647 L358.9285714285714 25.847457627118647 L367.56756756756755 28.225806451612904 z"/>
<path fill="#c4d3ac" stroke="#c4d3ac" d="M389.1304347826087 43.867924528301884 L382.85714285714283 37.30769230769231 L382.85714285714283 37.30769230769231 L389.1304347826087 43.867924528301884 z"/>
<path fill="#c4d3ac" stroke="#c4d3ac" d="M393.99999999999994 51.315789473684205 L389.1304347826087 43.867924528301884 L389.1304347826087 43.867924528301884 L393.99999999999994 51.315789473684205 z"/>
<path fill="#c4d3ac" stroke="#c4d3ac" d="M397.56097560975604 59.523809523809526 L393.99999999999994 51.315789473684205 L393.99999999999994 51.315789473684205 L397.56097560975604 59.523809523809526 z"/>
<path fill="#c4d3ac" stroke="#c4d3ac" d="M399.49999999999994 68.33333333333333 L397.56097560975604 59.523809523809526 L397.56097560975604 59.523809523809526 L399.49999999999994 68.33333333333333 z"/>
<path fill="#c4d3ac" stroke="#c4d3ac" d="M398.7179487179487 86.1111111111111 L399.8997995991984 77.27272727272727 L399.8997995991984 77.27272727272727 L398.7179487179487 86.1111111111111 z"/>
<path fill="#c4d3ac" stroke="#c4d3ac" d="M395.99999999999994 94.64285714285714 L398.7179487179487 86.1111111111111 L398.7179487179487 86.1111111111111 L395.99999999999994 94.64285714285714 z"/>
<path fill="#c4d3ac" stroke="#c4d3ac" d="M391.77215189873414 102.49999999999999 L395.99999999999994 94.64285714285714 L395.99999999999994 94.64285714285714 L391.77215189873414 102.49999999999999 z"/>
<path fill="#c4d3ac" stroke="#c4d3ac" d="M386.1111111111111 109.52380952380952 L391.77215189873414 102.49999999999999 L391.77215189873414 102.49999999999999 L386.1111111111111 109.52380952380952 z"/>
<path fill="#c4d3ac" stroke="#c4d3ac" d="M379.4117647058823 115.47619047619047 L386.1111111111111 109.52380952380952 L386.1111111111111 109.52380952380952 L379.4117647058823 115.47619047619047 z"/>
<path fill="#c4d3ac" stroke="#c4d3ac" d="M371.73913043478257 119.99999999999999 L379.4117647058823 115.47619047619047 L379.4117647058823 115.47619047619047 L371.73913043478257 119.99999999999999 z"/>
<path fill="#c4d3ac" stroke="#c4d3ac" d="M363.3333333333333 123.14814814814814 L371.73913043478257 119.99999999999999 L371.73913043478257 119.99999999999999 L363.3333333333333 123.14814814814814 z"/>
<path fill="#c4d3ac" stroke="#c4d3ac" d="M354.4444444444444 124.74874371859296 L363.3333333333333 123.14814814814814 L363.3333333333333 123.14814814814814 L354.4444444444444 124.74874371859296 z"/>
<path fill="#c4d3ac" stroke="#c4d3ac" d="M399.8997995991984 77.27272727272727 L399.49999999999994 68.33333333333333 L399.49999999999994 68.33333333333333 L399.8997995991984 77.27272727272727 z"/>
<path fill="#c4d3ac" stroke="#c4d3ac" d="M345.55555555555554 124.74874371859296 L354.4444444444444 124.74874371859296 L354.4444444444444 124.74874371859296 L345.55555555555554 124.74874371859296 z"/>
<path fill="#c4d3ac" stroke="#c4d3ac" d="M300.5 68.33333333333333 L300.10020040080155 77.27272727272727 L300.10020040080155 77.27272727272727 L300.5 68.33333333333333 z"/>
<path fill="#c4d3ac" stroke="#c4d3ac" d="M320.5882352941176 115.47619047619047 L328.2608695652174 119.99999999999999 L328.2608695652174 119.99999999999999 L320.5882352941176 115.47619047619047 z"/>
<path fill="#c4d3ac" stroke="#c4d3ac" d="M313.88888888888886 109.52380952380952 L320.5882352941176 115.47619047619047 L320.5882352941176 115.47619047619047 L313.88888888888886 109.52380952380952 z"/>
<path fill="#c4d3ac" stroke="#c4d3ac" d="M328.2608695652174 119.99999999999999 L336.66666666666663 123.14814814814814 L336.66666666666663 123.14814814814814 L328.2608695652174 119.99999999999999 z"/>
<path fill="#c4d3ac" stroke="#c4d3ac" d="M336.66666666666663 123.14814814814814 L345.55555555555554 124.74874371859296 L345.55555555555554 124.74874371859296 L336.66666666666663 123.14814814814814 z"/>
<path fill="#c4d3ac" stroke="#c4d3ac" d="M304 94.64285714285714 L308.2278481012658 102.49999999999999 L308.2278481012658 102.49999999999999 L304 94.64285714285714 z"/>
<path fill="#c4d3ac" stroke="#c4d3ac" d="M301.28205128205127 86.1111111111111 L304 94.64285714285714 L304 94.64285714285714 L301.28205128205127 86.1111111111111 z"/>
<path fill="#c4d3ac" stroke="#c4d3ac" d="M300.10020040080155 77.27272727272727 L301.28205128205127 86.1111111111111 L301.28205128205127 86.1111111111111 L300.10020040080155 77.27272727272727 z"/>
<path fill="#c4d3ac" stroke="#c4d3ac" d="M308.2278481012658 102.49999999999999 L313.88888888888886 109.52380952380952 L313.88888888888886 109.52380952380952 L308.2278481012658 102.49999999999999 z"/>
<path fill="#c4d3ac" stroke="#c4d3ac" d="M341.07142857142856 25.847457627118647 L332.4324324324324 28.225806451612904 L332.4324324324324 28.225806451612904 L341.07142857142856 25.847457627118647 z"/>
<path fill="#c4d3ac" stroke="#c4d3ac" d="M302.4390243902439 59.523809523809526 L300.5 68.33333333333333 L300.5 68.33333333333333 L302.4390243902439 59.523809523809526 z"/>
<path fill="#c4d3ac" stroke="#c4d3ac" d="M306 51.315789473684205 L302.4390243902439 59.523809523809526 L302.4390243902439 59.523809523809526 L306 51.315789473684205 z"/>
<path fill="#c4d3ac" stroke="#c4d3ac" d="M324.3243243243243 32.03125 L317.1428571428571 37.30769230769231 L317.1428571428571 37.30769230769231 L324.3243243243243 32.03125 z"/>
<path fill="#c4d3ac" stroke="#c4d3ac" d="M332.4324324324324 28.225806451612904 L324.3243243243243 32.03125 L324.3243243243243 32.03125 L332.4324324324324 28.225806451612904 z"/>
<path fill="#c4d3ac" stroke="#c4d3ac" d="M310.86956521739125 43.867924528301884 L306 51.315789473684205 L306 51.315789473684205 L310.86956521739125 43.867924528301884 z"/>
<path fill="#c4d3ac" stroke="#c4d3ac" d="M317.1428571428571 37.30769230769231 L310.86956521739125 43.867924528301884 L310.86956521739125 43.867924528301884 L317.1428571428571 37.30769230769231 z"/>
<path fill="#c4d3ac" stroke="#c4d3ac" d="M350 25 L341.07142857142856 25.847457627118647 L332.4324324324324 28.225806451612904 L324.3243243243243 32.03125 L317.1428571428571 37.30769230769231 L310.86956521739125 43.867924528301884 L306 51.315789473684205 L302.4390243902439 59.523809523809526 L300.5 68.33333333333333 L300.10020040080155 77.27272727272727 L301.28205128205127 86.1111111111111 L304 94.64285714285714 L308.2278481012658 102.49999999999999 L313.88888888888886 109.52380952380952 L320.5882352941176 115.47619047619047 L328.2608695652174 119.99999999999999 L336.66666666666663 123.14814814814814 L345.55555555555554 124.74874371859296 L354.4444444444444 124.74874371859296 L363.3333333333333 123.14814814814814 L371.73913043478257 119.99999999999999 L379.4117647058823 115.47619047619047 L386.1111111111111 109.52380952380952 L391.77215189873414 102.49999999999999 L395.99999999999994 94.64285714285714 L398.7179487179487 86.1111111111111 L399.8997995991984 77.27272727272727 L399.49999999999994 68.33333333333333 L397.56097560975604 59.523809523809526 L393.99999999999994 51.315789473684205 L389.1304347826087 43.867924528301884 L382.85714285714283 37.30769230769231 L375.6756756756756 32.03125 L367.56756756756755 28.225806451612904 L358.9285714285714 25.847457627118647 z"/>
<path fill="#c4d3ac" stroke="#c4d3ac" d="M341.07142857142856 25.847457627118647 L350 25 L358.9285714285714 25.847457627118647 L367.56756756756755 28.225806451612904 L375.6756756756756 32.03125 L382.85714285714283 37.30769230769231 L389.1304347826087 43.867924528301884 L393.99999999999994 51.315789473684205 L397.56097560975604 59.523809523809526 L399.49999999999994 68.33333333333333 L399.8997995991984 77.27272727272727 L398.7179487179487 86.1111111111111 L395.99999999999994 94.64285714285714 L391.77215189873414 102.49999999999999 L386.1111111111111 109.52380952380952 L379.4117647058823 115.47619047619047 L371.73913043478257 119.99999999999999 L363.3333333333333 123.14814814814814 L354.4444444444444 124.74874371859296 L345.55555555555554 124.74874371859296 L336.66666666666663 123.14814814814814 L328.2608695652174 119.99999999999999 L320.5882352941176 115.47619047619047 L313.88888888888886 109.52380952380952 L308.2278481012658 102.49999999999999 L304 94.64285714285714 L301.28205128205127 86.1111111111111 L300.10020040080155 77.27272727272727 L300.5 68.33333333333333 L302.4390243902439 59.523809523809526 L306 51.315789473684205 L310.86956521739125 43.867924528301884 L317.1428571428571 37.30769230769231 L324.3243243243243 32.03125 L332.4324324324324 28.225806451612904 z"/>
<path fill="#c4d3ac" stroke="#c4d3ac" d="M350 -125 L341.07142857142856 -124.15254237288134 L341.07142857142856 -124.15254237288134 L350 -125 z"/>
<path fill="#c4d3ac" stroke="#c4d3ac" d="M358.9285714285714 -124.15254237288134 L350 -125 L350 -125 L358.9285714285714 -124.15254237288134 z"/>
<path fill="#c4d3ac" stroke="#c4d3ac" d="M375.6756756756756 -117.96875 L367.56756756756755 -121.77419354838709 L367.56756756756755 -121.77419354838709 L375.6756756756756 -117.96875 z"/>
<path fill="#c4d3ac" stroke="#c4d3ac" d="M382.85714285714283 -112.69230769230768 L375.6756756756756 -117.96875 L375.6756756756756 -117.96875 L382.85714285714283 -112.69230769230768 z"/>
<path fill="#c4d3ac" stroke="#c4d3ac" d="M367.56756756756755 -121.77419354838709 L358.9285714285714 -124.15254237288134 L358.9285714285714 -124.15254237288134 L367.56756756756755 -121.77419354838709 z"/>
<path fill="#c4d3ac" stroke="#c4d3ac" d="M389.1304347826087 -106.1320754716981 L382.85714285714283 -112.69230769230768 L382.85714285714283 -112.69230769230768 L389.1304347826087 -106.1320754716981 z"/>
<path fill="#c4d3ac" stroke="#c4d3ac" d="M393.99999999999994 -98.68421052631578 L389.1304347826087 -106.1320754716981 L389.1304347826087 -106.1320754716981 L393.99999999999994 -98.68421052631578 z"/>
<path fill="#c4d3ac" stroke="#c4d3ac" d="M397.56097560975604 -90.47619047619047 L393.99999999999994 -98.68421052631578 L393.99999999999994 -98.68421052631578 L397.56097560975604 -90.47619047619047 z"/>
<path fill="#c4d3ac" stroke="#c4d3ac" d="M399.49999999999994 -81.66666666666666 L397.56097560975604 -90.47619047619047 L397.56097560975604 -90.47619047619047 L399.49999999999994 -81.66666666666666 z"/>
<path fill="#c4d3ac" stroke="#c4d3ac" d="M398.7179487179487 -63.888888888888886 L399.8997995991984 -72.72727272727272 L399.8997995991984 -72.72727272727272 L398.7179487179487 -63.888888888888886 z"/>
<path fill="#c4d3ac" stroke="#c4d3ac" d="M395.99999999999994 -55.357142857142854 L398.7179487179487 -63.888888888888886 L398.7179487179487 -63.888888888888886 L395.99999999999994 -55.357142857142854 z"/>
<path fill="#c4d3ac" stroke="#c4d3ac" d="M391.77215189873414 -47.5 L395.99999999999994 -55.357142857142854 L395.99999999999994 -55.357142857142854 L391.77215189873414 -47.5 z"/>
<path fill="#c4d3ac" stroke="#c4d3ac" d="M386.1111111111111 -40.476190476190474 L391.77215189873414 -47.5 L391.77215189873414 -47.5 L386.1111111111111 -40.476190476190474 z"/>
<path fill="#c4d3ac" stroke="#c4d3ac" d="M379.4117647058823 -34.523809523809526 L386.1111111111111 -40.476190476190474 L386.1111111111111 -40.476190476190474 L379.4117647058823 -34.523809523809526 z"/>
<path fill="#c4d3ac" stroke="#c4d3ac" d="M371.73913043478257 -30.000000000000004 L379.4117647058823 -34.523809523809526 L379.4117647058823 -34.523809523809526 L371.73913043478257 -30.000000000000004 z"/>
<path fill="#c4d3ac" stroke="#c4d3ac" d="M363.3333333333333 -26.85185185185185 L371.73913043478257 -30.000000000000004 L371.73913043478257 -30.000000000000004 L363.3333333333333 -26.85185185185185 z"/>
<path fill="#c4d3ac" stroke="#c4d3ac" d="M354.4444444444444 -25.251256281407034 L363.3333333333333 -26.85185185185185 L363.3333333333333 -26.85185185185185 L354.4444444444444 -25.251256281407034 z"/>
<path fill="#c4d3ac" stroke="#c4d3ac" d="M399.8997995991984 -72.72727272727272 L399.49999999999994 -81.66666666666666 L399.49999999999994 -81.66666666666666 L399.8997995991984 -72.72727272727272 z"/>
<path fill="#c4d3ac" stroke="#c4d3ac" d="M345.55555555555554 -25.251256281407034 L354.4444444444444 -25.251256281407034 L354.4444444444444 -25.251256281407034 L345.55555555555554 -25.251256281407034 z"/>
<path fill="#c4d3ac" stroke="#c4d3ac" d="M300.5 -81.66666666666666 L300.10020040080155 -72.72727272727272 L300.10020040080155 -72.72727272727272 L300.5 -81.66666666666666 z"/>
<path fill="#c4d3ac" stroke="#c4d3ac" d="M320.5882352941176 -34.523809523809526 L328.2608695652174 -30.000000000000004 L328.2608695652174 -30.000000000000004 L320.5882352941176 -34.523809523809526 z"/>
<path fill="#c4d3ac" stroke="#c4d3ac" d="M313.88888888888886 -40.476190476190474 L320.5882352941176 -34.523809523809526 L320.5882352941176 -34.523809523809526 L313.88888888888886 -40.476190476190474 z"/>
<path fill="#c4d3ac" stroke="#c4d3ac" d="M328.2608695652174 -30.000000000000004 L336.66666666666663 -26.85185185185185 L336.66666666666663 -26.85185185185185 L328.2608695652174 -30.000000000000004 z"/>
<path fill="#c4d3ac" stroke="#c4d3ac" d="M336.66666666666663 -26.85185185185185 L345.55555555555554 -25.251256281407034 L345.55555555555554 -25.251256281407034 L336.66666666666663 -26.85185185185185 z"/>
<path fill="#c4d3ac" stroke="#c4d3ac" d="M304 -55.357142857142854 L308.2278481012658 -47.5 L308.2278481012658 -47.5 L304 -55.357142857142854 z"/>
<path fill="#c4d3ac" stroke="#c4d3ac" d="M301.28205128205127 -63.888888888888886 L304 -55.357142857142854 L304 -55.357142857142854 L301.28205128205127 -63.888888888888886 z"/>
<path fill="#c4d3ac" stroke="#c4d3ac" d="M300.10020040080155 -72.72727272727272 L301.28205128205127 -63.888888888888886 L301.28205128205127 -63.888888888888886 L300.10020040080155 -72.72727272727272 z"/>
<path fill="#c4d3ac" stroke="#c4d3ac" d="M308.2278481012658 -47.5 L313.88888888888886 -40.476190476190474 L313.88888888888886 -40.476190476190474 L308.2278481012658 -47.5 z"/>
<path fill="#c4d3ac" stroke="#c4d3ac" d="M341.07142857142856 -124.15254237288134 L332.4324324324324 -121.77419354838709 L332.4324324324324 -121.77419354838709 L341.07142857142856 -124.15254237288134 z"/>
<path fill="#c4d3ac" stroke="#c4d3ac" d="M302.4390243902439 -90.47619047619047 L300.5 -81.66666666666666 L300.5 -81.66666666666666 L302.4390243902439 -90.47619047619047 z"/>
<path fill="#c4d3ac" stroke="#c4d3ac" d="M306 -98.68421052631578 L302.4390243902439 -90.47619047619047 L302.4390243902439 -90.47619047619047 L306 -98.68421052631578 z"/>
<path fill="#c4d3ac" stroke="#c4d3ac" d="M324.3243243243243 -117.96875 L317.1428571428571 -112.69230769230768 L317.1428571428571 -112.69230769230768 L324.3243243243243 -117.96875 z"/>
<path fill="#c4d3ac" stroke="#c4d3ac" d="M332.4324324324324 -121.77419354838709 L324.3243243243243 -117.96875 L324.3243243243243 -117.96875 L332.4324324324324 -121.77419354838709 z"/>
<path fill="#c4d3ac" stroke="#c4d3ac" d="M310.86956521739125 -106.1320754716981 L306 -98.68421052631578 L306 -98.68421052631578 L310.86956521739125 -106.1320754716981 z"/>
<path fill="#c4d3ac" stroke="#c4d3ac" d="M317.1428571428571 -112.69230769230768 L310.86956521739125 -106.1320754716981 L310.86956521739125 -106.1320754716981 L317.1428571428571 -112.69230769230768 z"/>
<path fill="#c4d3ac" stroke="#c4d3ac" d="M350 -125 L341.07142857142856 -124.15254237288134 L332.4324324324324 -121.77419354838709 L324.3243243243243 -117.96875 L317.1428571428571 -112.69230769230768 L310.86956521739125 -106.1320754716981 L306 -98.68421052631578 L302.4390243902439 -90.47619047619047 L300.5 -81.66666666666666 L300.10020040080155 -72.72727272727272 L301.28205128205127 -63.888888888888886 L304 -55.357142857142854 L308.2278481012658 -47.5 L313.88888888888886 -40.476190476190474 L320.5882352941176 -34.523809523809526 L328.2608695652174 -30.000000000000004 L336.66666666666663 -26.85185185185185 L345.55555555555554 -25.251256281407034 L354.4444444444444 -25.251256281407034 L363.3333333333333 -26.85185185185185 L371.73913043478257 -30.000000000000004 L379.4117647058823 -34.523809523809526 L386.1111111111111 -40.476190476190474 L391.77215189873414 -47.5 L395.99999999999994 -55.357142857142854 L398.7179487179487 -63.888888888888886 L399.8997995991984 -72.72727272727272 L399.49999999999994 -81.66666666666666 L397.56097560975604 -90.47619047619047 L393.99999999999994 -98.68421052631578 L389.1304347826087 -106.1320754716981 L382.85714285714283 -112.69230769230768 L375.6756756756756 -117.96875 L367.56756756756755 -121.77419354838709 L358.9285714285714 -124.15254237288134 z"/>
<path fill="#c4d3ac" stroke="#c4d3ac" d="M341.07142857142856 -124.15254237288134 L350 -125 L358.9285714285714 -124.15254237288134 L367.56756756756755 -121.77419354838709 L375.6756756756756 -117.96875 L382.85714285714283 -112.69230769230768 L389.1304347826087 -106.1320754716981 L393.99999999999994 -98.68421052631578 L397.56097560975604 -90.47619047619047 L399.49999999999994 -81.66666666666666 L399.8997995991984 -72.72727272727272 L398.7179487179487 -63.888888888888886 L395.99999999999994 -55.357142857142854 L391.77215189873414 -47.5 L386.1111111111111 -40.476190476190474 L379.4117647058823 -34.523809523809526 L371.73913043478257 -30.000000000000004 L363.3333333333333 -26.85185185185185 L354.4444444444444 -25.251256281407034 L345.55555555555554 -25.251256281407034 L336.66666666666663 -26.85185185185185 L328.2608695652174 -30.000000000000004 L320.5882352941176 -34.523809523809526 L313.88888888888886 -40.476190476190474 L308.2278481012658 -47.5 L304 -55.357142857142854 L301.28205128205127 -63.888888888888886 L300.10020040080155 -72.72727272727272 L300.5 -81.66666666666666 L302.4390243902439 -90.47619047619047 L306 -98.68421052631578 L310.86956521739125 -106.1320754716981 L317.1428571428571 -112.69230769230768 L324.3243243243243 -117.96875 L332.4324324324324 -121.77419354838709 z"/>
<path fill="#bababa" stroke="#bababa" d="M-360.5 -60 L-360.5 -60 L-379.5 -60 L-379.5 -60 z"/>
<path fill="#bababa" stroke="#bababa" d="M-360.5 -180 L-360.5 -180 L-379.5 -180 L-379.5 -180 z"/>
<path fill="#bababa" stroke="#bababa" d="M-379.5 -325 L-379.5 85 L-360.5 85 L-360.5 -325 z"/>
<path fill="#bababa" stroke="#bababa" d="M-379.5 -334.6944444444444 L-379.5 -325 L-360.5 -325 L-360.5 -334.6944444444444 z"/>
<path fill="#bababa" stroke="#bababa" d="M-379.5 -344.15625 L-379.5 -334.6944444444444 L-360.5 -334.6944444444444 L-360.5 -344.15625 z"/>
<path fill="#bababa" stroke="#bababa" d="M-379.5 -352.85714285714283 L-379.5 -344.15625 L-360.5 -344.15625 L-360.5 -352.85714285714283 z"/>
<path fill="#bababa" stroke="#bababa" d="M-379.5 -360.64516129032256 L-379.5 -352.85714285714283 L-360.5 -352.85714285714283 L-360.5 -360.64516129032256 z"/>
<path fill="#bababa" stroke="#bababa" d="M-379.5 -367.36842105263156 L-379.5 -360.64516129032256 L-360.5 -360.64516129032256 L-360.5 -367.36842105263156 z"/>
<path fill="#bababa" stroke="#bababa" d="M-379.5 -372.79999999999995 L-379.5 -367.36842105263156 L-360.5 -367.36842105263156 L-360.5 -372.79999999999995 z"/>
<path fill="#bababa" stroke="#bababa" d="M-379.5 -376.75757575757575 L-379.5 -372.79999999999995 L-360.5 -372.79999999999995 L-360.5 -376.75757575757575 z"/>
<path fill="#bababa" stroke="#bababa" d="M-379.5 -376.75757575757575 L-360.5 -376.75757575757575 L-360.5 -378.9626293851962 L-379.5 -378.9626293851962 z"/>
<path fill="#bababa" stroke="#bababa" d="M-379.5 -378.9626293851962 L-360.5 -378.9626293851962 L-360.5 -376.75757575757575 L-379.5 -376.75757575757575 z"/>
<path fill="#bababa" stroke="#bababa" d="M-379.5 -372.79999999999995 L-379.5 -376.75757575757575 L-360.5 -376.75757575757575 L-360.5 -372.79999999999995 z"/>
<path fill="#bababa" stroke="#bababa" d="M-379.5 -367.36842105263156 L-379.5 -372.79999999999995 L-360.5 -372.79999999999995 L-360.5 -367.36842105263156 z"/>
<path fill="#bababa" stroke="#bababa" d="M-379.5 -360.64516129032256 L-379.5 -367.36842105263156 L-360.5 -367.36842105263156 L-360.5 -360.64516129032256 z"/>
<path fill="#bababa" stroke="#bababa" d="M-379.5 -352.85714285714283 L-379.5 -360.64516129032256 L-360.5 -360.64516129032256 L-360.5 -352.85714285714283 z"/>
<path fill="#bababa" stroke="#bababa" d="M-379.5 -344.15625 L-379.5 -352.85714285714283 L-360.5 -352.85714285714283 L-360.5 -344.15625 z"/>
<path fill="#bababa" stroke="#bababa" d="M-379.5 -334.6944444444444 L-379.5 -344.15625 L-360.5 -344.15625 L-360.5 -334.6944444444444 z"/>
<path fill="#bababa" stroke="#bababa" d="M-379.5 -325 L-379.5 -334.6944444444444 L-360.5 -334.6944444444444 L-360.5 -325 z"/>
<path fill="#bababa" stroke="#bababa" d="M-379.5 85 L-379.5 -325 L-360.5 -325 L-360.5 85 z"/>
<path fill="#bababa" stroke="#bababa" d="M-379.5 94.69444444444444 L-379.5 85 L-360.5 85 L-360.5 94.69444444444444 z"/>
<path fill="#bababa" stroke="#bababa" d="M-379.5 104.15625 L-379.5 94.69444444444444 L-360.5 94.69444444444444 L-360.5 104.15625 z"/>
<path fill="#bababa" stroke="#bababa" d="M-379.5 112.85714285714285 L-379.5 104.15625 L-360.5 104.15625 L-360.5 112.85714285714285 z"/>
<path fill="#bababa" stroke="#bababa" d="M-379.5 120.64516129032258 L-379.5 112.85714285714285 L-360.5 112.85714285714285 L-360.5 120.64516129032258 z"/>
<path fill="#bababa" stroke="#bababa" d="M-379.5 127.36842105263158 L-379.5 120.64516129032258 L-360.5 120.64516129032258 L-360.5 127.36842105263158 z"/>
<path fill="#bababa" stroke="#bababa" d="M-379.5 132.79999999999998 L-379.5 127.36842105263158 L-360.5 127.36842105263158 L-360.5 132.79999999999998 z"/>
<path fill="#bababa" stroke="#bababa" d="M-379.5 136.75757575757575 L-379.5 132.79999999999998 L-360.5 132.79999999999998 L-360.5 136.75757575757575 z"/>
<path fill="#bababa" stroke="#bababa" d="M-379.5 139.1304347826087 L-379.5 136.75757575757575 L-360.5 136.75757575757575 L-360.5 139.1304347826087 z"/>
<path fill="#bababa" stroke="#bababa" d="M-379.5 139.1304347826087 L-360.5 139.1304347826087 L-360.5 139.158615136876 L-379.5 139.158615136876 z"/>
<path fill="#bababa" stroke="#bababa" d="M-379.5 139.158615136876 L-360.5 139.158615136876 L-360.5 139.1304347826087 L-379.5 139.1304347826087 z"/>
<path fill="#bababa" stroke="#bababa" d="M-379.5 136.75757575757575 L-379.5 139.1304347826087 L-360.5 139.1304347826087 L-360.5 136.75757575757575 z"/>
<path fill="#bababa" stroke="#bababa" d="M-379.5 132.79999999999998 L-379.5 136.75757575757575 L-360.5 136.75757575757575 L-360.5 132.79999999999998 z"/>
<path fill="#bababa" stroke="#bababa" d="M-379.5 127.36842105263158 L-379.5 132.79999999999998 L-360.5 132.79999999999998 L-360.5 127.36842105263158 z"/>
<path fill="#bababa" stroke="#bababa" d="M-379.5 120.64516129032258 L-379.5 127.36842105263158 L-360.5 127.36842105263158 L-360.5 120.64516129032258 z"/>
<path fill="#bababa" stroke="#bababa" d="M-379.5 112.85714285714285 L-379.5 120.64516129032258 L-360.5 120.64516129032258 L-360.5 112.85714285714285 z"/>
<path fill="#bababa" stroke="#bababa" d="M-379.5 104.15625 L-379.5 112.85714285714285 L-360.5 112.85714285714285 L-360.5 104.15625 z"/>
<path fill="#bababa" stroke="#bababa" d="M-379.5 94.69444444444444 L-379.5 104.15625 L-360.5 104.15625 L-360.5 94.69444444444444 z"/>
<path fill="#bababa" stroke="#bababa" d="M-379.5 85 L-379.5 94.69444444444444 L-360.5 94.69444444444444 L-360.5 85 z"/>
<path fill="#bababa" stroke="#bababa" d="M-378.15634556574923 -378.9626293851962 L-379.5 -378.9626293851962 L-379.5 -180 L-360.5 -180 L-360.5 -378.9626293851962 z"/>
<path fill="#bababa" stroke="#bababa" d="M-360.5 -372.79087396684105 L-360.5 -180 L-379.5 -180 L-379.5 -378.9626293851962 L-360.5 -378.9626293851962 z"/>
<path fill="#bababa" stroke="#bababa" d="M-379.5 93.38730453729812 L-379.5 -60 L-360.5 -60 L-360.5 139.158615136876 L-379.5 139.158615136876 z"/>
<path fill="#bababa" stroke="#bababa" d="M-379.5 130.2485905761825 L-379.5 139.158615136876 L-360.5 139.158615136876 L-360.5 -60 L-379.5 -60 z"/>
<path fill="#bababa" stroke="#bababa" d="M-360.5 90.694858624299 L-360.5 139.158615136876 L-360.5 139.1304347826087 L-360.5 136.75757575757575 L-360.5 132.79999999999998 L-360.5 127.36842105263158 L-360.5 120.64516129032258 L-360.5 112.85714285714285 L-360.5 104.15625 L-360.5 94.69444444444444 L-360.5 85 L-360.5 -325 L-360.5 -334.6944444444444 L-360.5 -344.15625 L-360.5 -352.85714285714283 L-360.5 -360.64516129032256 L-360.5 -367.36842105263156 L-360.5 -372.79999999999995 L-360.5 -376.75757575757575 L-360.5 -378.9626293851962 L-360.5 -180 L-360.5 -180 L-360.5 -378.9626293851962 L-360.5 -376.75757575757575 L-360.5 -372.79999999999995 L-360.5 -367.36842105263156 L-360.5 -360.64516129032256 L-360.5 -352.85714285714283 L-360.5 -344.15625 L-360.5 -334.6944444444444 L-360.5 -325 L-360.5 85 L-360.5 94.69444444444444 L-360.5 104.15625 L-360.5 112.85714285714285 L-360.5 120.64516129032258 L-360.5 127.36842105263158 L-360.5 132.79999999999998 L-360.5 136.75757575757575 L-360.5 139.1304347826087 L-360.5 139.158615136876 L-360.5 -60 L-360.5 -60 z"/>
<path fill="#bababa" stroke="#bababa" d="M-379.5 93.38730453729812 L-379.5 139.158615136876 L-379.5 139.1304347826087 L-379.5 136.75757575757575 L-379.5 132.79999999999998 L-379.5 127.36842105263158 L-379.5 120.64516129032258 L-379.5 112.85714285714285 L-379.5 104.15625 L-379.5 94.69444444444444 L-379.5 85 L-379.5 -325 L-379.5 -334.6944444444444 L-379.5 -344.15625 L-379.5 -352.85714285714283 L-379.5 -360.64516129032256 L-379.5 -367.36842105263156 L-379.5 -372.79999999999995 L-379.5 -376.75757575757575 L-379.5 -378.9626293851962 L-379.5 -180 L-379.5 -180 L-379.5 -378.9626293851962 L-379.5 -376.75757575757575 L-379.5 -372.79999999999995 L-379.5 -367.36842105263156 L-379.5 -360.64516129032256 L-379.5 -352.85714285714283 L-379.5 -344.15625 L-379.5 -334.6944444444444 L-379.5 -325 L-379.5 85 L-379.5 94.69444444444444 L-379.5 104.15625 L-379.5 112.85714285714285 L-379.5 120.64516129032258 L-379.5 127.36842105263158 L-379.5 132.79999999999998 L-379.5 136.75757575757575 L-379.5 139.1304347826087 L-379.5 139.158615136876 L-379.5 -60 L-379.5 -60 z"/>
<path fill="#bababa" stroke="#bababa" d="M249.5 -60 L249.5 -60 L230.5 -60 L230.5 -60 z"/>
<path fill="#bababa" stroke="#bababa" d="M249.5 -180 L249.5 -180 L230.5 -180 L230.5 -180 z"/>
<path fill="#bababa" stroke="#bababa" d="M230.5 -325 L230.5 85 L249.5 85 L249.5 -325 z"/>
<path fill="#bababa" stroke="#bababa" d="M230.5 -334.6944444444444 L230.5 -325 L249.5 -325 L249.5 -334.6944444444444 z"/>
<path fill="#bababa" stroke="#bababa" d="M230.5 -344.15625 L230.5 -334.6944444444444 L249.5 -334.6944444444444 L249.5 -344.15625 z"/>
<path fill="#bababa" stroke="#bababa" d="M230.5 -352.85714285714283 L230.5 -344.15625 L249.5 -344.15625 L249.5 -352.85714285714283 z"/>
<path fill="#bababa" stroke="#bababa" d="M230.5 -360.64516129032256 L230.5 -352.85714285714283 L249.5 -352.85714285714283 L249.5 -360.64516129032256 z"/>
<path fill="#bababa" stroke="#bababa" d="M230.5 -367.36842105263156 L230.5 -360.64516129032256 L249.5 -360.64516129032256 L249.5 -367.36842105263156 z"/>
<path fill="#bababa" stroke="#bababa" d="M230.5 -372.79999999999995 L230.5 -367.36842105263156 L249.5 -367.36842105263156 L249.5 -372.79999999999995 z"/>
<path fill="#bababa" stroke="#bababa" d="M230.5 -376.75757575757575 L230.5 -372.79999999999995 L249.5 -372.79999999999995 L249.5 -376.75757575757575 z"/>
<path fill="#bababa" stroke="#bababa" d="M230.5 -376.75757575757575 L249.5 -376.75757575757575 L249.5 -378.9626293851962 L230.5 -378.9626293851962 z"/>
<path fill="#bababa" stroke="#bababa" d="M230.5 -378.9626293851962 L249.5 -378.9626293851962 L249.5 -376.75757575757575 L230.5 -376.75757575757575 z"/>
<path fill="#bababa" stroke="#bababa" d="M230.5 -372.79999999999995 L230.5 -376.75757575757575 L249.5 -376.75757575757575 L249.5 -372.79999999999995 z"/>
<path fill="#bababa" stroke="#bababa" d="M230.5 -367.36842105263156 L230.5 -372.79999999999995 L249.5 -372.79999999999995 L249.5 -367.36842105263156 z"/>
<path fill="#bababa" stroke="#bababa" d="M230.5 -360.64516129032256 L230.5 -367.36842105263156 L249.5 -367.36842105263156 L249.5 -360.64516129032256 z"/>
<path fill="#bababa" stroke="#bababa" d="M230.5 -352.85714285714283 L230.5 -360.64516129032256 L249.5 -360.64516129032256 L249.5 -352.85714285714283 z"/>
<path fill="#bababa" stroke="#bababa" d="M230.5 -344.15625 L230.5 -352.85714285714283 L249.5 -352.85714285714283 L249.5 -344.15625 z"/>
<path fill="#bababa" stroke="#bababa" d="M230.5 -334.6944444444444 L230.5 -344.15625 L249.5 -344.15625 L249.5 -334.6944444444444 z"/>
<path fill="#bababa" stroke="#bababa" d="M230.5 -325 L230.5 -334.6944444444444 L249.5 -334.6944444444444 L249.5 -325 z"/>
<path fill="#bababa" stroke="#bababa" d="M230.5 85 L230.5 -325 L249.5 -325 L249.5 85 z"/>
<path fill="#bababa" stroke="#bababa" d="M230.5 94.69444444444444 L230.5 85 L249.5 85 L249.5 94.69444444444444 z"/>
<path fill="#bababa" stroke="#bababa" d="M230.5 104.15625 L230.5 94.69444444444444 L249.5 94.69444444444444 L249.5 104.15625 z"/>
<path fill="#bababa" stroke="#bababa" d="M230.5 112.85714285714285 L230.5 104.15625 L249.5 104.15625 L249.5 112.85714285714285 z"/>
<path fill="#bababa" stroke="#bababa" d="M230.5 120.64516129032258 L230.5 112.85714285714285 L249.5 112.85714285714285 L249.5 120.64516129032258 z"/>
<path fill="#bababa" stroke="#bababa" d="M230.5 127.36842105263158 L230.5 120.64516129032258 L249.5 120.64516129032258 L249.5 127.36842105263158 z"/>
<path fill="#bababa" stroke="#bababa" d="M230.5 132.79999999999998 L230.5 127.36842105263158 L249.5 127.36842105263158 L249.5 132.79999999999998 z"/>
<path fill="#bababa" stroke="#bababa" d="M230.5 136.75757575757575 L230.5 132.79999999999998 L249.5 132.79999999999998 L249.5 136.75757575757575 z"/>
<path fill="#bababa" stroke="#bababa" d="M230.5 139.1304347826087 L230.5 136.75757575757575 L249.5 136.75757575757575 L249.5 139.1304347826087 z"/>
<path fill="#bababa" stroke="#bababa" d="M230.5 139.1304347826087 L249.5 139.1304347826087 L249.5 139.158615136876 L230.5 139.158615136876 z"/>
<path fill="#bababa" stroke="#bababa" d="M230.5 139.158615136876 L249.5 139.158615136876 L249.5 139.1304347826087 L230.5 139.1304347826087 z"/>
<path fill="#bababa" stroke="#bababa" d="M230.5 136.75757575757575 L230.5 139.1304347826087 L249.5 139.1304347826087 L249.5 136.75757575757575 z"/>
<path fill="#bababa" stroke="#bababa" d="M230.5 132.79999999999998 L230.5 136.75757575757575 L249.5 136.75757575757575 L249.5 132.79999999999998 z"/>
<path fill="#bababa" stroke="#bababa" d="M230.5 127.36842105263158 L230.5 132.79999999999998 L249.5 132.79999999999998 L249.5 127.36842105263158 z"/>
<path fill="#bababa" stroke="#bababa" d="M230.5 120.64516129032258 L230.5 127.36842105263158 L249.5 127.36842105263158 L249.5 120.64516129032258 z"/>
<path fill="#bababa" stroke="#bababa" d="M230.5 112.85714285714285 L230.5 120.64516129032258 L249.5 120.64516129032258 L249.5 112.85714285714285 z"/>
<path fill="#bababa" stroke="#bababa" d="M230.5 104.15625 L230.5 112.85714285714285 L249.5 112.85714285714285 L249.5 104.15625 z"/>
<path fill="#bababa" stroke="#bababa" d="M230.5 94.69444444444444 L230.5 104.15625 L249.5 104.15625 L249.5 94.69444444444444 z"/>
<path fill="#bababa" stroke="#bababa" d="M230.5 85 L230.5 94.69444444444444 L249.5 94.69444444444444 L249.5 85 z"/>
<path fill="#bababa" stroke="#bababa" d="M231.84365443425074 -378.9626293851962 L230.5 -378.9626293851962 L230.5 -180 L249.5 -180 L249.5 -378.9626293851962 z"/>
<path fill="#bababa" stroke="#bababa" d="M249.5 -372.79087396684105 L249.5 -180 L230.5 -180 L230.5 -378.9626293851962 L249.5 -378.9626293851962 z"/>
<path fill="#bababa" stroke="#bababa" d="M230.5 93.38730453729812 L230.5 -60 L249.5 -60 L249.5 139.158615136876 L230.5 139.158615136876 z"/>
<path fill="#bababa" stroke="#bababa" d="M230.5 130.2485905761825 L230.5 139.158615136876 L249.5 139.158615136876 L249.5 -60 L230.5 -60 z"/>
<path fill="#bababa" stroke="#bababa" d="M249.5 90.694858624299 L249.5 139.158615136876 L249.5 139.1304347826087 L249.5 136.75757575757575 L249.5 132.79999999999998 L249.5 127.36842105263158 L249.5 120.64516129032258 L249.5 112.85714285714285 L249.5 104.15625 L249.5 94.69444444444444 L249.5 85 L249.5 -325 L249.5 -334.6944444444444 L249.5 -344.15625 L249.5 -352.85714285714283 L249.5 -360.64516129032256 L249.5 -367.36842105263156 L249.5 -372.79999999999995 L249.5 -376.75757575757575 L249.5 -378.9626293851962 L249.5 -180 L249.5 -180 L249.5 -378.9626293851962 L249.5 -376.75757575757575 L249.5 -372.79999999999995 L249.5 -367.36842105263156 L249.5 -360.64516129032256 L249.5 -352.85714285714283 L249.5 -344.15625 L249.5 -334.6944444444444 L249.5 -325 L249.5 85 L249.5 94.69444444444444 L249.5 104.15625 L249.5 112.85714285714285 L249.5 120.64516129032258 L249.5 127.36842105263158 L249.5 132.79999999999998 L249.5 136.75757575757575 L249.5 139.1304347826087 L249.5 139.158615136876 L249.5 -60 L249.5 -60 z"/>
<path fill="#bababa" stroke="#bababa" d="M230.5 93.38730453729812 L230.5 139.158615136876 L230.5 139.1304347826087 L230.5 136.75757575757575 L230.5 132.79999999999998 L230.5 127.36842105263158 L230.5 120.64516129032258 L230.5 112.85714285714285 L230.5 104.15625 L230.5 94.69444444444444 L230.5 85 L230.5 -325 L230.5 -334.6944444444444 L230.5 -344.15625 L230.5 -352.85714285714283 L230.5 -360.64516129032256 L230.5 -367.36842105263156 L230.5 -372.79999999999995 L230.5 -376.75757575757575 L230.5 -378.9626293851962 L230.5 -180 L230.5 -180 L230.5 -378.9626293851962 L230.5 -376.75757575757575 L230.5 -372.79999999999995 L230.5 -367.36842105263156 L230.5 -360.64516129032256 L230.5 -352.85714285714283 L230.5 -344.15625 L230.5 -334.6944444444444 L230.5 -325 L230.5 85 L230.5 94.69444444444444 L230.5 104.15625 L230.5 112.85714285714285 L230.5 120.64516129032258 L230.5 127.36842105263158 L230.5 132.79999999999998 L230.5 136.75757575757575 L230.5 139.1304347826087 L230.5 139.158615136876 L230.5 -60 L230.5 -60 z"/>
</svg>