<?xml version="1.0" encoding="UTF-8"?>
<!-- Generated by jsxcad -->
<!DOCTYPE svg PUBLIC "-//W3C//DTD SVG 1.1 Tiny//EN" "http://www.w3.org/Graphics/SVG/1.1/DTD/svg11-tiny.dtd">
<svg baseProfile="tiny" height="613.1959517918968mm" width="546.7457039966811mm" viewBox="-167.78313253012058 -353.7807572391764 546.7457039966811 613.1959517918968" version="1.1" stroke="black" stroke-width=".1" fill="none" xmlns="http://www.w3.org/2000/svg">
<path fill="#bababa" stroke="#bababa" d="M60 291.41422399827195 L60 304.8396047089318 L60 318.28427475969323 L60 304.8588940490333 z"/>
<path fill="#bababa" stroke="#bababa" d="M60 -140.23044605248947 L60 -126.80506534182956 L60 -113.36039529106814 L60 -126.78577600172804 z"/>
<path fill="#bababa" stroke="#bababa" d="M168 318.28427475969323 L168 332.79036613025164 L168 319.36498541959173 L168 304.8588940490333 z"/>
<path fill="#bababa" stroke="#bababa" d="M168 -138.36684704404345 L168 -140.23044605248947 L168 -246.72638513878388 L168 -233.30100442812397 L168 -126.80506534182956 z"/>
<path fill="#bababa" stroke="#bababa" d="M168 300.8312807818147 L168 291.41422399827195 L168 -126.78577600172804 L168 -113.36039529106814 L168 304.8396047089318 z"/>
<path fill="#bababa" stroke="#bababa" d="M117.96875 -229.51414752045488 L117.96875000000001 -216.08876680979498 L112.69230769230772 -221.1704750590159 L112.69230769230772 -234.59585576967578 z"/>
<path fill="#bababa" stroke="#bababa" d="M57.063492063492056 -230.85519940404487 L55.35714285714285 -230.47054757533212 L55.35714285714285 -243.89592828599203 L63.88888888888888 -245.81918742955574 L63.88888888888888 -232.39380671889583 z"/>
<path fill="#bababa" stroke="#bababa" d="M117.96874999999996 -193.1772014373159 L112.69230769230766 -188.09549318809496 L112.69230769230765 -174.67011247743505 L117.96874999999997 -179.751820726656 z"/>
<path fill="#bababa" stroke="#bababa" d="M106.05759682224428 -183.62196492249612 L98.68421052631578 -180.21064909817477 L98.68421052631578 -166.7852683875149 L106.13207547169809 -170.23104194743541 L106.13207547169809 -183.65642265809532 z"/>
<path fill="#bababa" stroke="#bababa" d="M72.63888888888889 -176.04422999157683 L63.88888888888888 -176.87216152821512 L63.88888888888888 -163.44678081755524 L72.72727272727272 -162.6104863361024 L72.72727272727272 -176.03586704676232 z"/>
<path fill="#bababa" stroke="#bababa" d="M124.29822145629612 -206.113760219869 L124.15254237288134 -205.02769043247494 L124.15254237288134 -191.60230972181503 L124.99999999999999 -197.9202937682255 L124.99999999999999 -211.34567447888537 z"/>
<path fill="#bababa" stroke="#bababa" d="M26.883333333333322 -220.84001126988073 L29.999999999999986 -226.7285921571021 L29.999999999999986 -213.30321144644222 L26.851851851851837 -207.35514994419842 L26.851851851851833 -220.78053065485832 z"/>
<path fill="#bababa" stroke="#bababa" d="M90.47619047619047 -231.57511610325093 L90.47619047619047 -245.0004968139108 L98.68421052631578 -242.48069985959606 L98.68421052631578 -229.05531914893623 z"/>
<path fill="#bababa" stroke="#bababa" d="M47.49999999999993 -227.47886216763433 L40.47619047619038 -223.47302924481878 L40.47619047619046 -236.8984099554787 L47.49999999999993 -240.90424287829418 z"/>
<path fill="#bababa" stroke="#bababa" d="M35.71428571428566 -219.6805870564375 L34.523809523809504 -218.73247650934223 L34.523809523809476 -232.1578572200021 L40.47619047619044 -236.89840995547874 L40.47619047619042 -223.47302924481883 z"/>
<path fill="#bababa" stroke="#bababa" d="M30.904761904761894 -214.38906445902222 L29.99999999999997 -213.30321144644222 L29.999999999999975 -226.72859215710207 L34.52380952380951 -232.15785722000211 L34.52380952380948 -218.7324765093422 z"/>
<path fill="#bababa" stroke="#bababa" d="M25.251256281407034 -196.0333225330309 L25.251256281407034 -194.77534170956784 L25.251256281407034 -208.20072242022775 L25.251256281407034 -214.49062653754305 L25.251256281407034 -201.06524582688314 z"/>
<path fill="#bababa" stroke="#bababa" d="M26.5317327377629 -189.7434184157156 L26.851851851851862 -188.48543759225254 L26.851851851851855 -201.91081830291245 L25.25125628140704 -208.20072242022772 L25.251256281407045 -194.77534170956784 z"/>
<path fill="#bababa" stroke="#bababa" d="M29.3703703703704 -183.7269883904575 L30.000000000000014 -182.53737609000873 L30.00000000000002 -195.96275680066867 L26.85185185185187 -201.91081830291245 L26.851851851851865 -188.48543759225254 z"/>
<path fill="#bababa" stroke="#bababa" d="M34.478571428571435 -190.58778438839764 L30.00000000000001 -195.96275680066864 L30.00000000000003 -182.53737609000876 L34.52380952380954 -177.10811102710875 L34.523809523809554 -190.53349173776863 z"/>
<path fill="#bababa" stroke="#bababa" d="M39.285714285714306 -173.31566883872745 L40.476190476190524 -172.36755829163215 L40.47619047619049 -185.79293900229203 L34.523809523809575 -190.5334917377686 L34.52380952380958 -177.10811102710872 z"/>
<path fill="#bababa" stroke="#bababa" d="M46.09523809523816 -169.1628919533797 L47.50000000000002 -168.36172536881665 L47.50000000000005 -181.78710607947647 L40.476190476190496 -185.79293900229206 L40.476190476190496 -172.36755829163212 z"/>
<path fill="#bababa" stroke="#bababa" d="M55.357142857142854 -178.7954206717788 L47.49999999999999 -181.78710607947656 L47.49999999999999 -168.36172536881668 L55.357142857142854 -165.37003996111895 z"/>
<path fill="#bababa" stroke="#bababa" d="M63.88888888888887 -245.8191874295558 L72.72727272727272 -246.65548191100862 L72.72727272727272 -233.23010120034866 L63.88888888888887 -232.39380671889586 z"/>
<path fill="#bababa" stroke="#bababa" d="M81.75476190476189 -246.35885722000216 L90.47619047619045 -245.0004968139108 L90.47619047619045 -231.5751161032509 L81.66666666666666 -232.947197321525 L81.66666666666666 -246.37257803218492 z"/>
<path fill="#bababa" stroke="#bababa" d="M74.5151515151515 -233.17352042458396 L72.7272727272727 -233.23010120034868 L72.7272727272727 -246.65548191100856 L81.66666666666666 -246.37257803218492 L81.66666666666666 -232.94719732152504 z"/>
<path fill="#bababa" stroke="#bababa" d="M112.69230769230766 -188.09549318809493 L106.13207547169804 -183.65642265809524 L106.13207547169803 -170.23104194743536 L112.69230769230766 -174.67011247743505 z"/>
<path fill="#bababa" stroke="#bababa" d="M81.57727272727271 -176.31594188679773 L72.72727272727272 -176.03586704676232 L72.72727272727272 -162.6104863361024 L81.66666666666666 -162.89339021492603 L81.66666666666666 -176.31877092558597 z"/>
<path fill="#bababa" stroke="#bababa" d="M124.16101694915254 -217.60047868483173 L125 -211.34567447888537 L125 -197.9202937682255 L124.15254237288136 -204.23827781463595 L124.15254237288136 -217.6636585252958 z"/>
<path fill="#bababa" stroke="#bababa" d="M62.18253968253967 -163.83143264626793 L63.88888888888888 -163.44678081755518 L63.88888888888888 -176.8721615282151 L55.35714285714285 -178.7954206717788 L55.35714285714285 -165.3700399611189 z"/>
<path fill="#bababa" stroke="#bababa" d="M161.54355882096337 -126.8050653418296 L60 -126.8050653418296 L60 -140.23044605248947 L168 -140.23044605248947 L168 -126.8050653418296 z"/>
<path fill="#bababa" stroke="#bababa" d="M90.47619047619045 -177.69085214386 L81.66666666666666 -176.3187709255859 L81.66666666666666 -162.893390214926 L90.47619047619045 -164.2654714332001 z"/>
<path fill="#bababa" stroke="#bababa" d="M123.85479230839766 -218.4289663262952 L124.15254237288136 -217.66365852529583 L124.15254237288136 -204.23827781463592 L121.7741935483871 -210.35135427035198 L121.77419354838709 -223.77673498101188 z"/>
<path fill="#bababa" stroke="#bababa" d="M121.77419354838709 -223.77673498101188 L121.7741935483871 -210.35135427035198 L117.96875000000001 -216.08876680979495 L117.96875000000001 -229.51414752045486 z"/>
<path fill="#bababa" stroke="#bababa" d="M124.1287588846364 -204.96655966791778 L121.77419354838707 -198.9146139767589 L121.77419354838707 -185.489233266099 L124.15254237288134 -191.60230972181506 L124.15254237288134 -205.02769043247494 z"/>
<path fill="#bababa" stroke="#bababa" d="M-94.64285714285714 -178.79542067177883 L-102.49999999999999 -181.7871060794766 L-102.49999999999999 -168.36172536881668 L-94.64285714285714 -165.37003996111892 z"/>
<path fill="#bababa" stroke="#bababa" d="M-115.47619047619044 -190.53349173776863 L-119.99999999999997 -195.96275680066864 L-119.99999999999997 -182.53737609000876 L-115.47619047619045 -177.10811102710872 z"/>
<path fill="#bababa" stroke="#bababa" d="M106.13207547169809 -225.60954558901562 L98.68421052631578 -229.05531914893618 L98.68421052631578 -242.48069985959606 L106.13207547169809 -239.03492629967553 z"/>
<path fill="#bababa" stroke="#bababa" d="M-123.14814814814812 -188.48543759225257 L-119.99999999999999 -182.53737609000873 L-119.99999999999997 -195.96275680066867 L-123.14814814814814 -201.91081830291247 z"/>
<path fill="#bababa" stroke="#bababa" d="M121.7361391129032 -198.85723985136445 L117.96874999999996 -193.17720143731586 L117.96874999999999 -179.75182072665598 L121.77419354838706 -185.48923326609898 L121.77419354838707 -198.9146139767589 z"/>
<path fill="#bababa" stroke="#bababa" d="M-109.52380952380948 -172.36755829163215 L-102.49999999999991 -168.3617253688166 L-102.49999999999991 -181.78710607947653 L-109.52380952380948 -185.7929390022921 z"/>
<path fill="#bababa" stroke="#bababa" d="M-94.64285714285712 -165.37003996111892 L-86.11111111111109 -163.4467808175552 L-86.11111111111109 -176.87216152821512 L-94.64285714285712 -178.79542067177883 z"/>
<path fill="#bababa" stroke="#bababa" d="M-124.74874371859296 -201.06524582688314 L-124.74874371859296 -214.49062653754302 L-123.14814814814815 -220.7805306548583 L-123.14814814814815 -207.35514994419842 z"/>
<path fill="#bababa" stroke="#bababa" d="M-119.95476190476192 -226.7828848077311 L-115.4761904761905 -232.15785722000211 L-115.47619047619051 -218.73247650934223 L-120.00000000000001 -213.30321144644222 L-120.00000000000003 -226.72859215710213 z"/>
<path fill="#bababa" stroke="#bababa" d="M-77.27272727272727 -246.65548191100854 L-68.33333333333333 -246.3725780321849 L-68.33333333333333 -232.947197321525 L-77.27272727272727 -233.23010120034866 z"/>
<path fill="#bababa" stroke="#bababa" d="M-84.34343434343432 -232.56106561518638 L-86.11111111111109 -232.39380671889583 L-86.11111111111109 -245.81918742955574 L-77.27272727272725 -246.65548191100854 L-77.27272727272725 -233.23010120034866 z"/>
<path fill="#bababa" stroke="#bababa" d="M-68.33333333333333 -246.37257803218495 L-59.52380952380952 -245.00049681391084 L-59.52380952380952 -231.5751161032509 L-68.33333333333333 -232.94719732152504 z"/>
<path fill="#bababa" stroke="#bababa" d="M47.57857142857142 -240.93415973237126 L55.35714285714285 -243.895928285992 L55.35714285714285 -230.47054757533212 L47.49999999999999 -227.4788621676344 L47.49999999999999 -240.90424287829427 z"/>
<path fill="#bababa" stroke="#bababa" d="M-92.93650793650792 -230.85519940404487 L-94.64285714285714 -230.47054757533212 L-94.64285714285714 -243.895928285992 L-86.1111111111111 -245.8191874295557 L-86.1111111111111 -232.39380671889583 z"/>
<path fill="#bababa" stroke="#bababa" d="M-59.52380952380952 -245.0004968139108 L-51.315789473684205 -242.4806998595961 L-51.315789473684205 -229.05531914893618 L-59.52380952380952 -231.5751161032509 z"/>
<path fill="#bababa" stroke="#bababa" d="M-100.92857142857142 -228.07719924917393 L-102.49999999999999 -227.47886216763436 L-102.49999999999999 -240.90424287829427 L-94.64285714285714 -243.89592828599203 L-94.64285714285714 -230.47054757533212 z"/>
<path fill="#bababa" stroke="#bababa" d="M-51.3157894736842 -242.4806998595961 L-43.867924528301884 -239.03492629967556 L-43.867924528301884 -225.60954558901565 L-51.3157894736842 -229.0553191489362 z"/>
<path fill="#bababa" stroke="#bababa" d="M-108.11904761904765 -224.27419582938197 L-109.52380952380959 -223.47302924481883 L-109.52380952380955 -236.89840995547874 L-102.50000000000006 -240.90424287829418 L-102.50000000000003 -227.4788621676344 z"/>
<path fill="#bababa" stroke="#bababa" d="M-109.52380952380958 -223.47302924481883 L-115.47619047619052 -218.73247650934226 L-115.47619047619052 -232.15785722000214 L-109.52380952380958 -236.8984099554787 z"/>
<path fill="#bababa" stroke="#bababa" d="M107.44412191582006 -224.72173148301567 L106.13207547169816 -225.6095455890156 L106.13207547169813 -239.03492629967553 L112.69230769230772 -234.59585576967578 L112.69230769230771 -221.1704750590159 z"/>
<path fill="#bababa" stroke="#bababa" d="M97.04260651629072 -166.2813089966519 L98.68421052631578 -166.78526838751483 L98.68421052631578 -180.2106490981748 L90.47619047619045 -177.69085214386007 L90.47619047619045 -164.2654714332001 z"/>
<path fill="#bababa" stroke="#bababa" d="M-25 -197.92029376822546 L-25.000000000000004 -211.34567447888537 L-25.847457627118644 -205.02769043247494 L-25.847457627118647 -191.60230972181503 z"/>
<path fill="#bababa" stroke="#bababa" d="M-25.871241115363592 -204.96655966791778 L-28.225806451612918 -198.9146139767589 L-28.22580645161291 -185.489233266099 L-25.847457627118654 -191.60230972181506 L-25.847457627118647 -205.02769043247494 z"/>
<path fill="#bababa" stroke="#bababa" d="M-32.031249999999964 -229.51414752045486 L-28.225806451612865 -223.77673498101186 L-28.225806451612854 -210.35135427035195 L-32.03124999999995 -216.08876680979495 z"/>
<path fill="#bababa" stroke="#bababa" d="M-36.252403846153825 -220.15413340917172 L-37.30769230769227 -221.1704750590159 L-37.307692307692264 -234.59585576967578 L-32.031249999999986 -229.51414752045488 L-32.03124999999997 -216.08876680979498 z"/>
<path fill="#bababa" stroke="#bababa" d="M-32.03125000000003 -193.1772014373159 L-37.30769230769233 -188.09549318809496 L-37.30769230769234 -174.67011247743505 L-32.03125000000002 -179.751820726656 z"/>
<path fill="#bababa" stroke="#bababa" d="M-124 262.0289448104547 L-123.1 264.79786999253366 L-124.70454545454545 255.87110646605794 z"/>
<path fill="#bababa" stroke="#bababa" d="M124 -74.7954206717788 L123.10000000000001 -77.5643458538578 L124.70454545454545 -81.0664772902872 z"/>
<path fill="#bababa" stroke="#bababa" d="M123.1 264.79786999253366 L124 262.0289448104547 L124.70454545454545 255.87110646605794 z"/>
<path fill="#bababa" stroke="#bababa" d="M-110.7142857142857 -173.31566883872745 L-109.52380952380949 -172.36755829163212 L-109.52380952380948 -185.792939002292 L-115.47619047619045 -190.53349173776866 L-115.47619047619042 -177.10811102710875 z"/>
<path fill="#bababa" stroke="#bababa" d="M-121.05000000000001 -93.60196063164187 L-121.05000000000003 -86.39664140664723 L-123.74418604651164 -84.00515220820549 L-123.74418604651166 -91.21047143320014 z"/>
<path fill="#bababa" stroke="#bababa" d="M123.74418604651164 -91.21047143320013 L123.74418604651164 -84.00515220820547 L121.05000000000003 -86.3966414066472 L121.05000000000001 -93.60196063164186 z"/>
<path fill="#bababa" stroke="#bababa" d="M-121.05000000000003 261.1900425739925 L-123.74418604651164 258.7985533755508 L-120.60465116279069 267.0130101381969 z"/>
<path fill="#bababa" stroke="#bababa" d="M-123.74418604651163 258.7985533755508 L-123.10000000000001 264.79786999253366 L-120.60465116279072 267.0130101381968 z"/>
<path fill="#bababa" stroke="#bababa" d="M-121.04999999999998 261.19004257399257 L-120.60465116279069 267.0130101381969 L-116.99999999999999 268.23417714157534 z"/>
<path fill="#bababa" stroke="#bababa" d="M123.10000000000005 -77.5643458538578 L120.60465116279073 -79.77948599952103 L123.74418604651164 -84.00515220820547 z"/>
<path fill="#bababa" stroke="#bababa" d="M123.74418604651164 -84.00515220820549 L120.60465116279072 -79.77948599952101 L121.05000000000001 -86.39664140664722 z"/>
<path fill="#bababa" stroke="#bababa" d="M-124.70454545454545 -81.0664772902872 L-123.74418604651163 -84.00515220820549 L-123.1 -77.56434585385782 z"/>
<path fill="#bababa" stroke="#bababa" d="M116.99999999999999 -81.00065300289944 L121.04999999999998 -86.39664140664723 L120.60465116279069 -79.77948599952101 z"/>
<path fill="#bababa" stroke="#bababa" d="M-121.04999999999998 -86.39664140664722 L-117.1578947368421 -87.71423004238483 L-116.99999999999999 -81.00065300289945 z"/>
<path fill="#bababa" stroke="#bababa" d="M-68.33333333333331 -176.3187709255859 L-77.27272727272725 -176.03586704676226 L-77.27272727272725 -162.6104863361024 L-68.33333333333331 -162.89339021492606 z"/>
<path fill="#bababa" stroke="#bababa" d="M-24.999999999999996 -197.9202937682255 L-25.847457627118636 -204.23827781463595 L-25.847457627118636 -217.6636585252958 L-24.999999999999996 -211.34567447888537 z"/>
<path fill="#bababa" stroke="#bababa" d="M-124.70454545454545 248.6601732368506 L-124.70454545454545 255.87110646605797 L-123.74418604651162 258.7985533755508 L-123.74418604651163 251.59323415055619 z"/>
<path fill="#bababa" stroke="#bababa" d="M132.722616358604 318.28427475969323 L168 318.28427475969323 L168 304.8588940490333 L60 304.8588940490333 L60 318.28427475969323 z"/>
<path fill="#bababa" stroke="#bababa" d="M124.70454545454545 255.87110646605797 L124.70454545454545 -81.0664772902872 L124.70454545454545 -88.27741051949454 L124.70454545454545 248.66017323685062 z"/>
<path fill="#bababa" stroke="#bababa" d="M121.04999999999998 261.19004257399257 L116.99999999999999 268.23417714157534 L120.60465116279069 267.0130101381969 z"/>
<path fill="#bababa" stroke="#bababa" d="M124 262.0289448104546 L124 -74.7954206717788 L124.70454545454545 -81.06647729028718 L124.70454545454545 255.87110646605797 z"/>
<path fill="#bababa" stroke="#bababa" d="M123.1 -77.56434585385782 L123.74418604651163 -84.00515220820549 L124.70454545454545 -81.0664772902872 z"/>
<path fill="#bababa" stroke="#bababa" d="M116.99999999999999 -81.00065300289945 L117.1578947368421 -87.71423004238483 L121.04999999999998 -86.39664140664722 z"/>
<path fill="#bababa" stroke="#bababa" d="M-124 -74.7954206717788 L-124.70454545454545 -81.0664772902872 L-123.10000000000001 -77.5643458538578 z"/>
<path fill="#bababa" stroke="#bababa" d="M-124.70454545454545 255.87110646605794 L-123.1 264.79786999253366 L-123.74418604651163 258.7985533755508 z"/>
<path fill="#bababa" stroke="#bababa" d="M-120.60465116279073 -79.77948599952103 L-123.10000000000005 -77.5643458538578 L-123.74418604651164 -84.00515220820547 z"/>
<path fill="#bababa" stroke="#bababa" d="M-117.1578947368421 262.50763120973016 L-121.04999999999998 261.19004257399257 L-116.99999999999999 268.23417714157534 z"/>
<path fill="#bababa" stroke="#bababa" d="M-123.74418604651163 258.7985533755508 L-121.05000000000001 261.1900425739925 L-121.05 253.98472334899793 L-123.74418604651164 251.59323415055616 z"/>
<path fill="#bababa" stroke="#bababa" d="M71.74525088588182 -81.00065300289945 L-117 -81.00065300289945 L-117.1578947368421 -87.71423004238484 L117.1578947368421 -87.71423004238484 L117 -81.00065300289945 z"/>
<path fill="#bababa" stroke="#bababa" d="M123.10000000000001 264.79786999253366 L123.74418604651163 258.7985533755508 L120.60465116279072 267.0130101381968 z"/>
<path fill="#bababa" stroke="#bababa" d="M-106.77935531053906 268.23417714157534 L117 268.23417714157534 L117.1578947368421 262.50763120973016 L-117.1578947368421 262.50763120973016 L-117 268.23417714157534 z"/>
<path fill="#bababa" stroke="#bababa" d="M121.04999999999998 261.19004257399257 L117.1578947368421 262.50763120973016 L116.99999999999999 268.23417714157534 z"/>
<path fill="#bababa" stroke="#bababa" d="M123.74418604651164 258.7985533755508 L121.05000000000003 261.1900425739925 L120.60465116279069 267.0130101381969 z"/>
<path fill="#bababa" stroke="#bababa" d="M-124.70454545454545 255.87110646605797 L-124.70454545454545 248.66017323685062 L-124.70454545454545 -88.27741051949454 L-124.70454545454545 -81.0664772902872 z"/>
<path fill="#bababa" stroke="#bababa" d="M-117.1578947368421 -87.71423004238488 L-121.04999999999998 -86.39664140664726 L-121.04999999999998 -93.60196063164193 L-117.1578947368421 -94.91954926737954 z"/>
<path fill="#bababa" stroke="#bababa" d="M124.70454545454545 -88.27741051949454 L124.70454545454545 -81.06647729028718 L123.74418604651163 -84.00515220820549 L123.74418604651163 -91.21047143320013 z"/>
<path fill="#bababa" stroke="#bababa" d="M124.70454545454545 248.6601732368506 L123.74418604651162 251.59323415055619 L123.74418604651162 258.7985533755508 L124.70454545454545 255.87110646605794 z"/>
<path fill="#bababa" stroke="#bababa" d="M117.1578947368421 -94.91954926737958 L121.04999999999997 -93.60196063164196 L121.04999999999997 -86.39664140664726 L117.1578947368421 -87.71423004238487 z"/>
<path fill="#bababa" stroke="#bababa" d="M117.1578947368421 262.50763120973016 L121.04999999999998 261.19004257399257 L121.04999999999998 253.98472334899796 L117.1578947368421 255.30231198473555 z"/>
<path fill="#bababa" stroke="#bababa" d="M-121.04999999999997 253.98472334899796 L-121.04999999999997 261.19004257399257 L-117.1578947368421 262.50763120973016 L-117.1578947368421 255.30231198473555 z"/>
<path fill="#bababa" stroke="#bababa" d="M-124.70454545454545 -88.27741051949452 L-123.74418604651163 -91.21047143320013 L-123.74418604651163 -84.00515220820547 L-124.70454545454545 -81.06647729028718 z"/>
<path fill="#bababa" stroke="#bababa" d="M-117.1578947368421 262.50763120973016 L117.1578947368421 262.50763120973016 L117.1578947368421 255.30231198473555 L-117.1578947368421 255.30231198473555 z"/>
<path fill="#bababa" stroke="#bababa" d="M-120 -213.30321144644222 L-123.14814814814815 -207.35514994419842 L-123.14814814814815 -220.78053065485832 L-120 -226.7285921571021 z"/>
<path fill="#bababa" stroke="#bababa" d="M-86.1111111111111 -163.44678081755518 L-77.27272727272725 -162.61048633610238 L-77.27272727272725 -176.0358670467623 L-86.1111111111111 -176.87216152821512 z"/>
<path fill="#bababa" stroke="#bababa" d="M-51.315789473684205 -166.78526838751486 L-51.315789473684205 -180.21064909817474 L-59.52380952380952 -177.69085214386 L-59.52380952380952 -164.26547143320013 z"/>
<path fill="#bababa" stroke="#bababa" d="M-124.74874371859296 -196.0333225330309 L-124.74874371859296 -194.77534170956784 L-124.74874371859296 -208.20072242022775 L-124.74874371859296 -214.49062653754305 L-124.74874371859296 -201.06524582688314 z"/>
<path fill="#bababa" stroke="#bababa" d="M-28.202022963367956 -223.71560421645472 L-25.84745762711863 -217.66365852529583 L-25.84745762711863 -204.23827781463592 L-28.225806451612886 -210.35135427035198 L-28.2258064516129 -223.77673498101188 z"/>
<path fill="#bababa" stroke="#bababa" d="M-59.52380952380952 -177.6908521438601 L-68.33333333333331 -176.318770925586 L-68.33333333333331 -162.89339021492606 L-59.52380952380952 -164.26547143320016 z"/>
<path fill="#bababa" stroke="#bababa" d="M-43.86792452830188 -183.65642265809532 L-51.3157894736842 -180.21064909817477 L-51.3157894736842 -166.7852683875149 L-43.86792452830188 -170.23104194743544 z"/>
<path fill="#bababa" stroke="#bababa" d="M-43.867924528301934 -170.23104194743541 L-37.30769230769236 -174.67011247743505 L-37.30769230769233 -188.09549318809493 L-43.8679245283019 -183.65642265809527 z"/>
<path fill="#bababa" stroke="#bababa" d="M-28.225806451612915 -198.9146139767589 L-32.03125000000002 -193.1772014373159 L-32.03125 -179.751820726656 L-28.22580645161293 -185.48923326609898 z"/>
<path fill="#bababa" stroke="#bababa" d="M151.33333333333331 345.4791755441879 L-148.66666666666666 345.4791755441879 L-148.66666666666666 332.053794833528 L151.33333333333331 332.053794833528 z"/>
<path fill="#bababa" stroke="#bababa" d="M156.5853658536585 344.64900432384513 L151.3333333333333 345.4791755441879 L151.3333333333333 332.053794833528 L156.5853658536585 331.2236236131852 z"/>
<path fill="#bababa" stroke="#bababa" d="M161.20754716981128 342.75849678573604 L156.5853658536585 344.64900432384513 L156.5853658536585 331.2236236131853 L161.20754716981128 329.3331160750762 z"/>
<path fill="#bababa" stroke="#bababa" d="M164.86956521739128 339.95496003888104 L161.2075471698113 342.75849678573604 L161.2075471698113 329.33311607507613 L164.8695652173913 326.52957932822113 z"/>
<path fill="#bababa" stroke="#bababa" d="M167.2173913043478 336.53655902365256 L164.86956521739128 339.95496003888104 L164.86956521739128 326.52957932822113 L167.2173913043478 323.1111783129927 z"/>
<path fill="#bababa" stroke="#bababa" d="M168 332.7903661302516 L167.2173913043478 336.53655902365256 L167.2173913043478 323.1111783129927 L168 319.3649854195917 z"/>
<path fill="#bababa" stroke="#bababa" d="M167.2173913043478 -237.04719732152492 L168 -233.30100442812395 L168 -246.72638513878385 L167.2173913043478 -250.47257803218483 z"/>
<path fill="#bababa" stroke="#bababa" d="M164.86956521739128 -240.4655983367534 L167.2173913043478 -237.04719732152495 L167.2173913043478 -250.47257803218486 L164.86956521739128 -253.89097904741328 z"/>
<path fill="#bababa" stroke="#bababa" d="M161.20754716981133 -243.26913508360838 L164.86956521739134 -240.46559833675337 L164.86956521739134 -253.89097904741328 L161.20754716981136 -256.6945157942683 z"/>
<path fill="#bababa" stroke="#bababa" d="M156.5853658536585 -245.1596426217175 L161.20754716981128 -243.26913508360843 L161.20754716981128 -256.6945157942683 L156.5853658536585 -258.5850233323774 z"/>
<path fill="#bababa" stroke="#bababa" d="M151.3333333333333 -245.98981384206039 L156.5853658536585 -245.1596426217176 L156.5853658536585 -258.5850233323775 L151.3333333333333 -259.41519455272027 z"/>
<path fill="#bababa" stroke="#bababa" d="M-148.66666666666666 -245.98981384206036 L151.33333333333331 -245.98981384206036 L151.33333333333331 -259.4151945527202 L-148.66666666666666 -259.4151945527202 z"/>
<path fill="#bababa" stroke="#bababa" d="M-153.99999999999997 -245.71146909036528 L-148.66666666666663 -245.98981384206027 L-148.66666666666663 -259.4151945527202 L-153.99999999999997 -259.13684980102516 z"/>
<path fill="#bababa" stroke="#bababa" d="M-158.99999999999997 -244.33978615401236 L-153.99999999999997 -245.71146909036534 L-153.99999999999997 -259.13684980102516 L-158.99999999999997 -257.7651668646722 z"/>
<path fill="#bababa" stroke="#bababa" d="M-163.2 -241.96220239766708 L-159.00000000000006 -244.33978615401224 L-159.00000000000009 -257.7651668646721 L-163.20000000000002 -255.38758310832696 z"/>
<path fill="#bababa" stroke="#bababa" d="M-166.20000000000002 -238.83885479228192 L-163.20000000000002 -241.96220239766706 L-163.20000000000002 -255.38758310832696 L-166.20000000000002 -252.26423550294183 z"/>
<path fill="#bababa" stroke="#bababa" d="M-167.78313253012047 -235.21156280375845 L-166.2 -238.83885479228192 L-166.2 -252.26423550294186 L-167.78313253012047 -248.63694351441836 z"/>
<path fill="#bababa" stroke="#bababa" d="M-167.78313253012047 334.7009245058861 L-167.78313253012047 -235.21156280375848 L-167.78313253012047 -248.6369435144184 L-167.78313253012047 321.2755437952262 z"/>
<path fill="#bababa" stroke="#bababa" d="M-166.2 338.3282164944096 L-167.78313253012047 334.7009245058861 L-167.78313253012047 321.2755437952262 L-166.2 324.90283578374965 z"/>
<path fill="#bababa" stroke="#bababa" d="M-163.2 341.4515640997947 L-166.2 338.3282164944096 L-166.2 324.9028357837497 L-163.2 328.0261833891348 z"/>
<path fill="#bababa" stroke="#bababa" d="M-159.00000000000003 343.82914785613985 L-163.20000000000002 341.45156409979467 L-163.2 328.0261833891348 L-159 330.40376714548 z"/>
<path fill="#bababa" stroke="#bababa" d="M-153.99999999999997 345.2008307924929 L-158.99999999999997 343.8291478561399 L-158.99999999999997 330.40376714548 L-153.99999999999997 331.775450081833 z"/>
<path fill="#bababa" stroke="#bababa" d="M-148.66666666666663 345.4791755441879 L-153.99999999999997 345.2008307924929 L-153.99999999999997 331.775450081833 L-148.66666666666663 332.053794833528 z"/>
<path fill="#bababa" stroke="#bababa" d="M121.05000000000001 261.1900425739925 L123.74418604651163 258.7985533755508 L123.74418604651164 251.59323415055616 L121.05 253.98472334899793 z"/>
<path fill="#bababa" stroke="#bababa" d="M-124 -74.7954206717788 L-124 262.0289448104546 L-124.70454545454545 255.87110646605797 L-124.70454545454545 -81.06647729028718 z"/>
<path fill="#bababa" stroke="#bababa" d="M123.1 264.79786999253366 L124.70454545454545 255.87110646605794 L123.74418604651163 258.7985533755508 z"/>
<path fill="#bababa" stroke="#bababa" d="M117.1578947368421 -87.7142300423849 L-117.1578947368421 -87.7142300423849 L-117.1578947368421 -94.91954926737951 L117.1578947368421 -94.91954926737951 z"/>
<path fill="#bababa" stroke="#bababa" d="M-121.05000000000001 -86.39664140664722 L-120.60465116279072 -79.77948599952101 L-123.74418604651164 -84.00515220820549 z"/>
<path fill="#bababa" stroke="#bababa" d="M-121.04999999999998 -86.39664140664723 L-116.99999999999999 -81.00065300289944 L-120.60465116279069 -79.77948599952101 z"/>
<path fill="#bababa" stroke="#bababa" d="M87.39804572271386 -126.78577600172808 L60 -126.78577600172808 L60 -113.3603952910682 L168 -113.3603952910682 L168 -126.78577600172808 z"/>
<path fill="#bababa" stroke="#bababa" d="M150.1275883277254 291.4142239982719 L168 291.4142239982719 L168 304.8396047089318 L60 304.8396047089318 L60 291.4142239982719 z"/>
<path fill="#bababa" stroke="#bababa" d="M104.53978110201649 -126.78577600172802 L168 -126.78577600172802 L168 291.4142239982719 L60 291.4142239982719 L60 304.8588940490333 L168 304.8588940490333 L168 319.3649854195917 L167.2173913043478 323.1111783129927 L164.86956521739128 326.52957932822113 L161.2075471698113 329.33311607507613 L156.58536585365852 331.2236236131852 L151.33333333333331 332.053794833528 L-148.66666666666666 332.053794833528 L-154 331.77545008183296 L-159 330.40376714548 L-163.2 328.0261833891348 L-166.2 324.9028357837497 L-167.78313253012047 321.2755437952262 L-167.78313253012047 -248.63694351441836 L-166.2 -252.26423550294183 L-163.2 -255.38758310832696 L-159 -257.76516686467215 L-154 -259.1368498010251 L-148.66666666666666 -259.41519455272015 L151.33333333333331 -259.41519455272015 L156.58536585365852 -258.5850233323774 L161.2075471698113 -256.6945157942683 L164.86956521739128 -253.8909790474133 L167.2173913043478 -250.47257803218486 L168 -246.72638513878385 L168 -140.23044605248944 L60 -140.23044605248944 L60 -126.78577600172802 z M-124.70454545454545 -88.27741051949452 L-124.70454545454545 248.6601732368506 L-123.74418604651162 251.59323415055619 L-121.05 253.98472334899793 L-117.1578947368421 255.30231198473555 L117.1578947368421 255.30231198473555 L121.05 253.98472334899793 L123.74418604651162 251.59323415055619 L124.70454545454545 248.6601732368506 L124.70454545454545 -88.27741051949452 L123.74418604651162 -91.21047143320011 L121.05 -93.60196063164186 L117.1578947368421 -94.91954926737948 L-117.1578947368421 -94.91954926737948 L-121.05 -93.60196063164186 L-123.74418604651162 -91.21047143320011 z M106.05759682224428 -183.62196492249606 L106.1320754716981 -183.65642265809524 L112.69230769230768 -188.09549318809493 L117.96875 -193.17720143731592 L121.77419354838709 -198.9146139767589 L124.15254237288134 -205.02769043247494 L125 -211.34567447888534 L124.15254237288134 -217.6636585252958 L121.77419354838709 -223.77673498101186 L117.96875 -229.51414752045486 L112.69230769230768 -234.5958557696758 L106.1320754716981 -239.0349262996755 L98.68421052631578 -242.48069985959603 L90.47619047619047 -245.00049681391076 L81.66666666666666 -246.3725780321849 L72.72727272727272 -246.65548191100848 L63.888888888888886 -245.8191874295557 L55.357142857142854 -243.89592828599197 L47.5 -240.9042428782942 L40.476190476190474 -236.8984099554787 L34.52380952380952 -232.15785722000214 L30 -226.72859215710213 L26.85185185185185 -220.78053065485832 L25.251256281407034 -214.49062653754302 L25.251256281407034 -208.20072242022772 L26.85185185185185 -201.91081830291245 L30 -195.96275680066864 L34.52380952380952 -190.5334917377686 L40.476190476190474 -185.79293900229206 L47.5 -181.78710607947653 L55.357142857142854 -178.7954206717788 L63.888888888888886 -176.87216152821506 L72.72727272727272 -176.03586704676226 L81.66666666666666 -176.31877092558588 L90.47619047619047 -177.69085214385998 L98.68421052631578 -180.2106490981747 z M-109.58333333333333 -185.84034452964679 L-109.52380952380952 -185.79293900229206 L-102.5 -181.78710607947653 L-94.64285714285714 -178.7954206717788 L-86.1111111111111 -176.87216152821506 L-77.27272727272727 -176.03586704676226 L-68.33333333333333 -176.31877092558588 L-59.52380952380952 -177.69085214385998 L-51.315789473684205 -180.2106490981747 L-43.867924528301884 -183.65642265809524 L-37.30769230769231 -188.09549318809493 L-32.03125 -193.17720143731592 L-28.2258064516129 -198.9146139767589 L-25.847457627118644 -205.02769043247494 L-25 -211.34567447888534 L-25.847457627118644 -217.6636585252958 L-28.2258064516129 -223.77673498101186 L-32.03125 -229.51414752045486 L-37.30769230769231 -234.5958557696758 L-43.867924528301884 -239.0349262996755 L-51.315789473684205 -242.48069985959603 L-59.52380952380952 -245.00049681391076 L-68.33333333333333 -246.3725780321849 L-77.27272727272727 -246.65548191100848 L-86.1111111111111 -245.8191874295557 L-94.64285714285714 -243.89592828599197 L-102.5 -240.9042428782942 L-109.52380952380952 -236.8984099554787 L-115.47619047619047 -232.15785722000214 L-120 -226.72859215710213 L-123.14814814814814 -220.78053065485832 L-124.74874371859296 -214.49062653754302 L-124.74874371859296 -208.20072242022772 L-123.14814814814814 -201.91081830291245 L-120 -195.96275680066864 L-115.47619047619047 -190.5334917377686 z"/>
<path fill="#bababa" stroke="#bababa" d="M-37.307692307692214 -221.17047505901587 L-43.86792452830185 -225.60954558901562 L-43.8679245283018 -239.0349262996755 L-37.30769230769228 -234.5958557696758 z"/>
<path fill="#bababa" stroke="#bababa" d="M-123.16415410385258 -201.97371734408563 L-124.74874371859295 -208.20072242022775 L-124.74874371859295 -194.77534170956784 L-123.14814814814814 -188.48543759225257 L-123.14814814814814 -201.91081830291245 z"/>
<path fill="#bababa" stroke="#bababa" d="M25.26726223711148 -214.55352557871618 L26.851851851851844 -220.78053065485832 L26.851851851851848 -207.35514994419842 L25.251256281407024 -201.06524582688309 L25.25125628140702 -214.490626537543 z"/>
<path fill="#bababa" stroke="#bababa" d="M108.28319116430409 -126.80506534182955 L168 -126.80506534182955 L168 -233.30100442812395 L167.2173913043478 -237.04719732152492 L164.86956521739128 -240.4655983367534 L161.2075471698113 -243.26913508360838 L156.58536585365852 -245.1596426217175 L151.33333333333331 -245.98981384206022 L-148.66666666666666 -245.98981384206022 L-154 -245.71146909036523 L-159 -244.33978615401227 L-163.2 -241.96220239766706 L-166.2 -238.83885479228195 L-167.78313253012047 -235.21156280375845 L-167.78313253012047 334.7009245058861 L-166.2 338.3282164944096 L-163.2 341.4515640997947 L-159 343.8291478561399 L-154 345.20083079249287 L-148.66666666666666 345.4791755441879 L151.33333333333331 345.4791755441879 L156.58536585365852 344.64900432384513 L161.2075471698113 342.75849678573604 L164.86956521739128 339.95496003888104 L167.2173913043478 336.53655902365256 L168 332.7903661302516 L168 318.28427475969323 L60 318.28427475969323 L60 304.8396047089318 L168 304.8396047089318 L168 -113.36039529106813 L60 -113.36039529106813 L60 -126.80506534182955 z M120.60465116279069 -79.77948599952101 L123.1 -77.56434585385782 L124 -74.7954206717788 L124 262.0289448104547 L123.1 264.79786999253366 L120.60465116279069 267.0130101381969 L117 268.2341771415753 L-117 268.2341771415753 L-120.60465116279069 267.0130101381969 L-123.1 264.79786999253366 L-124 262.0289448104547 L-124 -74.7954206717788 L-123.1 -77.56434585385782 L-120.60465116279069 -79.77948599952101 L-117 -81.00065300289945 L117 -81.00065300289945 z M-51.315789473684205 -166.78526838751483 L-59.52380952380952 -164.2654714332001 L-68.33333333333333 -162.893390214926 L-77.27272727272727 -162.61048633610235 L-86.1111111111111 -163.44678081755518 L-94.64285714285714 -165.3700399611189 L-102.5 -168.36172536881662 L-109.52380952380952 -172.36755829163212 L-115.47619047619047 -177.10811102710875 L-120 -182.53737609000873 L-123.14814814814814 -188.48543759225254 L-124.74874371859296 -194.77534170956784 L-124.74874371859296 -201.0652458268831 L-123.14814814814814 -207.35514994419842 L-120 -213.30321144644222 L-115.47619047619047 -218.7324765093422 L-109.52380952380952 -223.4730292448188 L-102.5 -227.47886216763433 L-94.64285714285714 -230.4705475753321 L-86.1111111111111 -232.3938067188958 L-77.27272727272727 -233.2301012003486 L-68.33333333333333 -232.94719732152498 L-59.52380952380952 -231.57511610325085 L-51.315789473684205 -229.05531914893615 L-43.867924528301884 -225.60954558901557 L-37.30769230769231 -221.1704750590159 L-32.03125 -216.08876680979498 L-28.2258064516129 -210.35135427035198 L-25.847457627118644 -204.23827781463592 L-25 -197.92029376822546 L-25.847457627118644 -191.60230972181503 L-28.2258064516129 -185.489233266099 L-32.03125 -179.75182072665598 L-37.30769230769231 -174.67011247743505 L-43.867924528301884 -170.2310419474354 z M53.785714285714285 -165.96837704265843 L47.5 -168.36172536881662 L40.476190476190474 -172.36755829163212 L34.52380952380952 -177.10811102710875 L30 -182.53737609000873 L26.85185185185185 -188.48543759225254 L25.251256281407034 -194.77534170956784 L25.251256281407034 -201.0652458268831 L26.85185185185185 -207.35514994419842 L30 -213.30321144644222 L34.52380952380952 -218.7324765093422 L40.476190476190474 -223.4730292448188 L47.5 -227.47886216763433 L55.357142857142854 -230.4705475753321 L63.888888888888886 -232.3938067188958 L72.72727272727272 -233.2301012003486 L81.66666666666666 -232.94719732152498 L90.47619047619047 -231.57511610325085 L98.68421052631578 -229.05531914893615 L106.1320754716981 -225.60954558901557 L112.69230769230768 -221.1704750590159 L117.96875 -216.08876680979498 L121.77419354838709 -210.35135427035198 L124.15254237288134 -204.23827781463592 L125 -197.92029376822546 L124.15254237288134 -191.60230972181503 L121.77419354838709 -185.489233266099 L117.96875 -179.75182072665598 L112.69230769230768 -174.67011247743505 L106.1320754716981 -170.2310419474354 L98.68421052631578 -166.78526838751483 L90.47619047619047 -164.2654714332001 L81.66666666666666 -162.893390214926 L72.72727272727272 -162.61048633610235 L63.888888888888886 -163.44678081755518 L55.357142857142854 -165.3700399611189 z"/>
<path fill="#c4d3ac" stroke="#c4d3ac" d="M-25.84745762711864 -218.3702575100674 L-25.847457627118636 -147.71035903291005 L-24.999999999999996 -141.3923749864996 L-24.999999999999993 -212.05227346365695 z"/>
<path fill="#c4d3ac" stroke="#c4d3ac" d="M-28.225806451612893 -224.48333396578343 L-28.225806451612886 -153.8234354886261 L-25.84745762711863 -147.71035903291005 L-25.847457627118636 -218.37025751006738 z"/>
<path fill="#c4d3ac" stroke="#c4d3ac" d="M-25.000000000000004 -212.05227346365695 L-25 -141.3923749864996 L-25.847457627118644 -135.07439094008916 L-25.847457627118647 -205.73428941724652 z"/>
<path fill="#c4d3ac" stroke="#c4d3ac" d="M-32.031249999999964 -230.22074650522643 L-32.031249999999986 -159.56084802806907 L-28.22580645161288 -153.8234354886261 L-28.225806451612883 -224.48333396578343 z"/>
<path fill="#c4d3ac" stroke="#c4d3ac" d="M-37.30769230769229 -235.30245475444738 L-37.30769230769229 -164.64255627729003 L-32.03124999999998 -159.56084802806907 L-32.03124999999995 -230.22074650522643 z"/>
<path fill="#c4d3ac" stroke="#c4d3ac" d="M-43.86792452830183 -239.74152528444702 L-43.86792452830188 -169.08162680728972 L-37.307692307692264 -164.64255627729 L-37.307692307692264 -235.30245475444738 z"/>
<path fill="#c4d3ac" stroke="#c4d3ac" d="M-51.315789473684205 -243.1872988443677 L-51.315789473684205 -172.52740036721028 L-43.86792452830188 -169.08162680728972 L-43.86792452830188 -239.74152528444714 z"/>
<path fill="#c4d3ac" stroke="#c4d3ac" d="M-59.52380952380952 -245.70709579868236 L-59.52380952380952 -175.0471973215251 L-51.315789473684205 -172.52740036721036 L-51.315789473684205 -243.18729884436763 z"/>
<path fill="#c4d3ac" stroke="#c4d3ac" d="M-68.33333333333333 -247.07917701695646 L-68.33333333333333 -176.41927853979914 L-59.52380952380952 -175.04719732152503 L-59.52380952380952 -245.70709579868236 z"/>
<path fill="#c4d3ac" stroke="#c4d3ac" d="M-77.27272727272727 -247.3620808957801 L-77.27272727272727 -176.7021824186228 L-68.33333333333331 -176.41927853979917 L-68.33333333333331 -247.07917701695646 z"/>
<path fill="#c4d3ac" stroke="#c4d3ac" d="M-86.1111111111111 -246.52578641432734 L-86.1111111111111 -175.86588793717 L-77.27272727272727 -176.7021824186228 L-77.27272727272727 -247.36208089578014 z"/>
<path fill="#c4d3ac" stroke="#c4d3ac" d="M-94.64285714285714 -244.6025272707636 L-94.64285714285714 -173.94262879360625 L-86.1111111111111 -175.86588793716996 L-86.1111111111111 -246.5257864143273 z"/>
<path fill="#c4d3ac" stroke="#c4d3ac" d="M-102.49999999999999 -241.6108418630659 L-102.49999999999999 -170.95094338590857 L-94.64285714285712 -173.94262879360633 L-94.64285714285712 -244.60252727076366 z"/>
<path fill="#c4d3ac" stroke="#c4d3ac" d="M-109.52380952380956 -237.60500894025034 L-109.52380952380955 -166.94511046309296 L-102.50000000000004 -170.9509433859084 L-102.50000000000006 -241.6108418630658 z"/>
<path fill="#c4d3ac" stroke="#c4d3ac" d="M-115.47619047619052 -232.8644562047737 L-115.47619047619052 -162.2045577276163 L-109.52380952380958 -166.94511046309293 L-109.52380952380955 -237.6050089402503 z"/>
<path fill="#c4d3ac" stroke="#c4d3ac" d="M-120.00000000000001 -227.43519114187367 L-120.00000000000001 -156.77529266471632 L-115.47619047619048 -162.20455772761633 L-115.4761904761905 -232.8644562047737 z"/>
<path fill="#c4d3ac" stroke="#c4d3ac" d="M-123.14814814814815 -221.4871296396299 L-123.14814814814815 -150.82723116247251 L-120.00000000000001 -156.77529266471635 L-120 -227.43519114187367 z"/>
<path fill="#c4d3ac" stroke="#c4d3ac" d="M-124.74874371859298 -215.19722552231457 L-124.74874371859296 -144.53732704515724 L-123.14814814814814 -150.82723116247251 L-123.14814814814814 -221.4871296396299 z"/>
<path fill="#c4d3ac" stroke="#c4d3ac" d="M-124.74874371859296 -208.90732140499932 L-124.74874371859296 -138.24742292784197 L-124.74874371859296 -144.53732704515724 L-124.74874371859296 -215.1972255223146 z"/>
<path fill="#c4d3ac" stroke="#c4d3ac" d="M-123.14814814814814 -202.61741728768402 L-123.14814814814814 -131.95751881052666 L-124.74874371859295 -138.24742292784194 L-124.74874371859295 -208.90732140499932 z"/>
<path fill="#c4d3ac" stroke="#c4d3ac" d="M-119.99999999999999 -196.66935578544022 L-119.99999999999997 -126.00945730828288 L-123.14814814814812 -131.95751881052666 L-123.14814814814812 -202.617417287684 z"/>
<path fill="#c4d3ac" stroke="#c4d3ac" d="M-86.1111111111111 -177.57876051298666 L-86.1111111111111 -106.91886203582933 L-94.64285714285714 -108.84212117939305 L-94.64285714285714 -179.50201965655037 z"/>
<path fill="#c4d3ac" stroke="#c4d3ac" d="M-109.52380952380949 -186.49953798706363 L-109.52380952380949 -115.83963950990625 L-115.47619047619044 -120.58019224538288 L-115.47619047619044 -191.2400907225402 z"/>
<path fill="#c4d3ac" stroke="#c4d3ac" d="M-102.49999999999997 -182.49370506424813 L-102.49999999999993 -111.8338065870908 L-109.52380952380943 -115.83963950990625 L-109.52380952380945 -186.4995379870636 z"/>
<path fill="#c4d3ac" stroke="#c4d3ac" d="M-94.64285714285712 -179.50201965655037 L-94.64285714285712 -108.84212117939308 L-102.49999999999999 -111.83380658709082 L-102.49999999999999 -182.49370506424813 z"/>
<path fill="#c4d3ac" stroke="#c4d3ac" d="M-115.47619047619044 -191.2400907225402 L-115.47619047619045 -120.58019224538286 L-119.99999999999996 -126.00945730828285 L-119.99999999999997 -196.66935578544025 z"/>
<path fill="#c4d3ac" stroke="#c4d3ac" d="M-68.33333333333331 -177.02536991035754 L-68.33333333333331 -106.36547143320017 L-77.27272727272727 -106.08256755437654 L-77.27272727272727 -176.7424660315339 z"/>
<path fill="#c4d3ac" stroke="#c4d3ac" d="M-59.52380952380952 -178.39745112863162 L-59.52380952380952 -107.73755265147429 L-68.33333333333333 -106.36547143320017 L-68.33333333333333 -177.02536991035748 z"/>
<path fill="#c4d3ac" stroke="#c4d3ac" d="M-77.27272727272727 -176.7424660315339 L-77.27272727272727 -106.08256755437648 L-86.1111111111111 -106.9188620358293 L-86.1111111111111 -177.5787605129867 z"/>
<path fill="#c4d3ac" stroke="#c4d3ac" d="M-25.847457627118654 -205.73428941724652 L-25.84745762711865 -135.07439094008916 L-28.225806451612907 -128.9613144843731 L-28.22580645161291 -199.62121296153046 z"/>
<path fill="#c4d3ac" stroke="#c4d3ac" d="M-32.031250000000036 -193.88380042208746 L-32.03125000000001 -123.2239019449301 L-37.30769230769235 -118.14219369570917 L-37.30769230769235 -188.8020921728665 z"/>
<path fill="#c4d3ac" stroke="#c4d3ac" d="M-28.225806451612918 -199.62121296153046 L-28.22580645161293 -128.9613144843731 L-32.03125000000001 -123.22390194493012 L-32.03125 -193.88380042208746 z"/>
<path fill="#c4d3ac" stroke="#c4d3ac" d="M-51.315789473684205 -180.91724808294637 L-51.315789473684205 -110.25734960578903 L-59.52380952380952 -107.7375526514743 L-59.52380952380952 -178.39745112863164 z"/>
<path fill="#c4d3ac" stroke="#c4d3ac" d="M-43.86792452830188 -184.36302164286693 L-43.86792452830188 -113.70312316570951 L-51.315789473684205 -110.25734960578896 L-51.315789473684205 -180.91724808294637 z"/>
<path fill="#c4d3ac" stroke="#c4d3ac" d="M-37.307692307692356 -188.8020921728665 L-37.307692307692356 -118.14219369570912 L-43.86792452830192 -113.70312316570948 L-43.86792452830192 -184.36302164286687 z"/>
<path fill="#c4d3ac" stroke="#c4d3ac" d="M-25.847457627118644 -218.37025751006738 L-25 -212.05227346365695 L-25.847457627118644 -205.7342894172465 L-28.2258064516129 -199.62121296153046 L-32.03125 -193.8838004220875 L-37.30769230769231 -188.8020921728665 L-43.867924528301884 -184.36302164286684 L-51.315789473684205 -180.9172480829463 L-59.52380952380952 -178.3974511286316 L-68.33333333333333 -177.02536991035748 L-77.27272727272727 -176.74246603153384 L-86.1111111111111 -177.57876051298663 L-94.64285714285714 -179.50201965655035 L-102.5 -182.49370506424808 L-109.52380952380952 -186.4995379870636 L-115.47619047619047 -191.2400907225402 L-120 -196.66935578544025 L-123.14814814814814 -202.61741728768402 L-124.74874371859296 -208.90732140499932 L-124.74874371859296 -215.1972255223146 L-123.14814814814814 -221.48712963962987 L-120 -227.43519114187367 L-115.47619047619047 -232.86445620477372 L-109.52380952380952 -237.6050089402503 L-102.5 -241.6108418630658 L-94.64285714285714 -244.60252727076355 L-86.1111111111111 -246.52578641432726 L-77.27272727272727 -247.36208089578008 L-68.33333333333333 -247.07917701695644 L-59.52380952380952 -245.70709579868233 L-51.315789473684205 -243.1872988443676 L-43.867924528301884 -239.74152528444705 L-37.30769230769231 -235.30245475444735 L-32.03125 -230.22074650522643 L-28.2258064516129 -224.48333396578343 z"/>
<path fill="#c4d3ac" stroke="#c4d3ac" d="M-25.847457627118644 -147.71035903291005 L-28.2258064516129 -153.82343548862607 L-32.03125 -159.5608480280691 L-37.30769230769231 -164.64255627729003 L-43.867924528301884 -169.08162680728972 L-51.315789473684205 -172.52740036721025 L-59.52380952380952 -175.04719732152498 L-68.33333333333333 -176.4192785397991 L-77.27272727272727 -176.7021824186227 L-86.1111111111111 -175.8658879371699 L-94.64285714285714 -173.9426287936062 L-102.5 -170.95094338590846 L-109.52380952380952 -166.94511046309293 L-115.47619047619047 -162.20455772761636 L-120 -156.77529266471635 L-123.14814814814814 -150.82723116247251 L-124.74874371859296 -144.53732704515724 L-124.74874371859296 -138.24742292784197 L-123.14814814814814 -131.95751881052666 L-120 -126.00945730828288 L-115.47619047619047 -120.58019224538285 L-109.52380952380952 -115.83963950990626 L-102.5 -111.83380658709075 L-94.64285714285714 -108.842121179393 L-86.1111111111111 -106.91886203582929 L-77.27272727272727 -106.08256755437648 L-68.33333333333333 -106.36547143320011 L-59.52380952380952 -107.73755265147423 L-51.315789473684205 -110.25734960578895 L-43.867924528301884 -113.70312316570948 L-37.30769230769231 -118.14219369570918 L-32.03125 -123.2239019449301 L-28.2258064516129 -128.9613144843731 L-25.847457627118644 -135.07439094008916 L-25 -141.3923749864996 z"/>
<path fill="#c4d3ac" stroke="#c4d3ac" d="M124.15254237288136 -218.3702575100674 L124.15254237288136 -147.71035903291005 L125 -141.3923749864996 L125 -212.05227346365695 z"/>
<path fill="#c4d3ac" stroke="#c4d3ac" d="M121.7741935483871 -224.48333396578343 L121.7741935483871 -153.8234354886261 L124.15254237288136 -147.71035903291005 L124.15254237288136 -218.37025751006738 z"/>
<path fill="#c4d3ac" stroke="#c4d3ac" d="M124.99999999999999 -212.05227346365695 L124.99999999999999 -141.3923749864996 L124.15254237288134 -135.07439094008916 L124.15254237288134 -205.73428941724652 z"/>
<path fill="#c4d3ac" stroke="#c4d3ac" d="M117.96875000000003 -230.22074650522643 L117.96875 -159.56084802806907 L121.77419354838712 -153.8234354886261 L121.7741935483871 -224.48333396578343 z"/>
<path fill="#c4d3ac" stroke="#c4d3ac" d="M112.6923076923077 -235.30245475444738 L112.6923076923077 -164.64255627729003 L117.96875000000001 -159.56084802806907 L117.96875000000004 -230.22074650522643 z"/>
<path fill="#c4d3ac" stroke="#c4d3ac" d="M106.13207547169816 -239.74152528444702 L106.13207547169812 -169.08162680728972 L112.69230769230772 -164.64255627729 L112.69230769230772 -235.30245475444738 z"/>
<path fill="#c4d3ac" stroke="#c4d3ac" d="M98.68421052631578 -243.18729884436766 L98.68421052631578 -172.5274003672104 L106.1320754716981 -169.08162680728984 L106.1320754716981 -239.74152528444714 z"/>
<path fill="#c4d3ac" stroke="#c4d3ac" d="M90.47619047619047 -245.70709579868245 L90.47619047619047 -175.0471973215251 L98.68421052631577 -172.52740036721036 L98.68421052631577 -243.18729884436772 z"/>
<path fill="#c4d3ac" stroke="#c4d3ac" d="M81.66666666666666 -247.07917701695652 L81.66666666666666 -176.4192785397991 L90.47619047619047 -175.047197321525 L90.47619047619047 -245.7070957986824 z"/>
<path fill="#c4d3ac" stroke="#c4d3ac" d="M72.7272727272727 -247.36208089578014 L72.7272727272727 -176.70218241862275 L81.66666666666666 -176.4192785397991 L81.66666666666666 -247.0791770169565 z"/>
<path fill="#c4d3ac" stroke="#c4d3ac" d="M63.888888888888886 -246.5257864143273 L63.888888888888886 -175.86588793717004 L72.72727272727272 -176.70218241862287 L72.72727272727272 -247.3620808957801 z"/>
<path fill="#c4d3ac" stroke="#c4d3ac" d="M55.35714285714285 -244.60252727076357 L55.35714285714285 -173.94262879360625 L63.88888888888888 -175.86588793716996 L63.88888888888888 -246.52578641432729 z"/>
<path fill="#c4d3ac" stroke="#c4d3ac" d="M47.49999999999999 -241.61084186306584 L47.49999999999999 -170.95094338590857 L55.35714285714285 -173.94262879360633 L55.35714285714285 -244.60252727076357 z"/>
<path fill="#c4d3ac" stroke="#c4d3ac" d="M40.476190476190425 -237.60500894025034 L40.47619047619044 -166.94511046309296 L47.49999999999994 -170.9509433859084 L47.49999999999993 -241.6108418630658 z"/>
<path fill="#c4d3ac" stroke="#c4d3ac" d="M34.52380952380947 -232.8644562047737 L34.52380952380947 -162.2045577276163 L40.47619047619041 -166.94511046309293 L40.476190476190446 -237.6050089402503 z"/>
<path fill="#c4d3ac" stroke="#c4d3ac" d="M29.999999999999975 -227.43519114187367 L29.999999999999982 -156.77529266471632 L34.523809523809504 -162.20455772761633 L34.5238095238095 -232.8644562047737 z"/>
<path fill="#c4d3ac" stroke="#c4d3ac" d="M26.851851851851844 -221.4871296396299 L26.851851851851833 -150.82723116247251 L29.99999999999998 -156.77529266471635 L29.999999999999986 -227.43519114187367 z"/>
<path fill="#c4d3ac" stroke="#c4d3ac" d="M25.25125628140702 -215.19722552231457 L25.251256281407024 -144.53732704515724 L26.851851851851848 -150.82723116247251 L26.851851851851848 -221.4871296396299 z"/>
<path fill="#c4d3ac" stroke="#c4d3ac" d="M25.251256281407034 -208.90732140499932 L25.251256281407034 -138.24742292784197 L25.251256281407034 -144.53732704515724 L25.251256281407034 -215.1972255223146 z"/>
<path fill="#c4d3ac" stroke="#c4d3ac" d="M26.85185185185186 -202.61741728768402 L26.85185185185186 -131.95751881052666 L25.25125628140704 -138.24742292784194 L25.251256281407045 -208.90732140499932 z"/>
<path fill="#c4d3ac" stroke="#c4d3ac" d="M30.000000000000007 -196.66935578544022 L30.000000000000014 -126.00945730828288 L26.851851851851873 -131.95751881052666 L26.851851851851865 -202.617417287684 z"/>
<path fill="#c4d3ac" stroke="#c4d3ac" d="M63.88888888888888 -177.57876051298666 L63.88888888888888 -106.91886203582935 L55.35714285714285 -108.84212117939306 L55.35714285714285 -179.50201965655037 z"/>
<path fill="#c4d3ac" stroke="#c4d3ac" d="M40.476190476190496 -186.49953798706363 L40.476190476190496 -115.83963950990625 L34.523809523809554 -120.58019224538288 L34.52380952380955 -191.2400907225402 z"/>
<path fill="#c4d3ac" stroke="#c4d3ac" d="M47.500000000000014 -182.49370506424813 L47.500000000000064 -111.8338065870908 L40.47619047619056 -115.83963950990625 L40.47619047619054 -186.4995379870636 z"/>
<path fill="#c4d3ac" stroke="#c4d3ac" d="M55.35714285714285 -179.5020196565504 L55.35714285714285 -108.84212117939302 L47.49999999999999 -111.83380658709076 L47.49999999999999 -182.49370506424813 z"/>
<path fill="#c4d3ac" stroke="#c4d3ac" d="M34.52380952380955 -191.2400907225402 L34.52380952380954 -120.58019224538286 L30.000000000000036 -126.00945730828285 L30.000000000000025 -196.66935578544025 z"/>
<path fill="#c4d3ac" stroke="#c4d3ac" d="M81.66666666666666 -177.0253699103575 L81.66666666666666 -106.36547143320016 L72.7272727272727 -106.08256755437652 L72.7272727272727 -176.7424660315339 z"/>
<path fill="#c4d3ac" stroke="#c4d3ac" d="M90.47619047619047 -178.39745112863164 L90.47619047619047 -107.73755265147425 L81.66666666666666 -106.36547143320013 L81.66666666666666 -177.02536991035754 z"/>
<path fill="#c4d3ac" stroke="#c4d3ac" d="M72.72727272727272 -176.74246603153384 L72.72727272727272 -106.08256755437651 L63.888888888888886 -106.91886203582933 L63.888888888888886 -177.57876051298666 z"/>
<path fill="#c4d3ac" stroke="#c4d3ac" d="M124.15254237288134 -205.73428941724652 L124.15254237288134 -135.07439094008916 L121.77419354838709 -128.9613144843731 L121.77419354838707 -199.62121296153046 z"/>
<path fill="#c4d3ac" stroke="#c4d3ac" d="M117.96874999999996 -193.88380042208746 L117.96874999999999 -123.2239019449301 L112.69230769230764 -118.14219369570917 L112.69230769230764 -188.8020921728665 z"/>
<path fill="#c4d3ac" stroke="#c4d3ac" d="M121.77419354838707 -199.62121296153046 L121.77419354838706 -128.9613144843731 L117.96874999999999 -123.22390194493012 L117.96874999999999 -193.88380042208746 z"/>
<path fill="#c4d3ac" stroke="#c4d3ac" d="M98.68421052631577 -180.91724808294634 L98.68421052631577 -110.25734960578896 L90.47619047619047 -107.73755265147425 L90.47619047619047 -178.39745112863164 z"/>
<path fill="#c4d3ac" stroke="#c4d3ac" d="M106.1320754716981 -184.36302164286687 L106.1320754716981 -113.70312316570951 L98.68421052631578 -110.25734960578896 L98.68421052631578 -180.91724808294632 z"/>
<path fill="#c4d3ac" stroke="#c4d3ac" d="M112.69230769230764 -188.8020921728665 L112.69230769230764 -118.14219369570912 L106.13207547169807 -113.70312316570948 L106.13207547169807 -184.36302164286687 z"/>
<path fill="#c4d3ac" stroke="#c4d3ac" d="M124.15254237288134 -218.37025751006738 L125 -212.05227346365695 L124.15254237288134 -205.7342894172465 L121.77419354838709 -199.62121296153046 L117.96875 -193.8838004220875 L112.69230769230768 -188.8020921728665 L106.1320754716981 -184.36302164286684 L98.68421052631578 -180.9172480829463 L90.47619047619047 -178.3974511286316 L81.66666666666666 -177.02536991035748 L72.72727272727272 -176.74246603153384 L63.888888888888886 -177.57876051298663 L55.357142857142854 -179.50201965655035 L47.5 -182.49370506424808 L40.476190476190474 -186.4995379870636 L34.52380952380952 -191.2400907225402 L30 -196.66935578544025 L26.85185185185185 -202.61741728768402 L25.251256281407034 -208.90732140499932 L25.251256281407034 -215.1972255223146 L26.85185185185185 -221.48712963962987 L30 -227.43519114187367 L34.52380952380952 -232.86445620477372 L40.476190476190474 -237.6050089402503 L47.5 -241.6108418630658 L55.357142857142854 -244.60252727076355 L63.888888888888886 -246.52578641432726 L72.72727272727272 -247.36208089578008 L81.66666666666666 -247.07917701695644 L90.47619047619047 -245.70709579868233 L98.68421052631578 -243.1872988443676 L106.1320754716981 -239.74152528444705 L112.69230769230768 -235.30245475444735 L117.96875 -230.22074650522643 L121.77419354838709 -224.48333396578343 z"/>
<path fill="#c4d3ac" stroke="#c4d3ac" d="M124.15254237288134 -147.71035903291005 L121.77419354838709 -153.82343548862607 L117.96875 -159.5608480280691 L112.69230769230768 -164.64255627729003 L106.1320754716981 -169.08162680728972 L98.68421052631578 -172.52740036721025 L90.47619047619047 -175.04719732152498 L81.66666666666666 -176.4192785397991 L72.72727272727272 -176.7021824186227 L63.888888888888886 -175.8658879371699 L55.357142857142854 -173.9426287936062 L47.5 -170.95094338590846 L40.476190476190474 -166.94511046309293 L34.52380952380952 -162.20455772761636 L30 -156.77529266471635 L26.85185185185185 -150.82723116247251 L25.251256281407034 -144.53732704515724 L25.251256281407034 -138.24742292784197 L26.85185185185185 -131.95751881052666 L30 -126.00945730828288 L34.52380952380952 -120.58019224538285 L40.476190476190474 -115.83963950990626 L47.5 -111.83380658709075 L55.357142857142854 -108.842121179393 L63.888888888888886 -106.91886203582929 L72.72727272727272 -106.08256755437648 L81.66666666666666 -106.36547143320011 L90.47619047619047 -107.73755265147423 L98.68421052631578 -110.25734960578895 L106.1320754716981 -113.70312316570948 L112.69230769230768 -118.14219369570918 L117.96875 -123.2239019449301 L121.77419354838709 -128.9613144843731 L124.15254237288134 -135.07439094008916 L125 -141.3923749864996 z"/>
<path fill="#bababa" stroke="#bababa" d="M60 304.8396047089318 L60 291.41422399827195 L60 304.8588940490333 L60 318.28427475969323 z"/>
<path fill="#bababa" stroke="#bababa" d="M180 290.7076250135004 L180 305.5462036937034 L180 318.9908737444648 L180 304.15229506426175 z"/>
<path fill="#bababa" stroke="#bababa" d="M325 269.3624115695504 L-85 269.3624115695504 L-85 255.91774151878894 L325 255.91774151878894 z"/>
<path fill="#bababa" stroke="#bababa" d="M334.6938775510203 270.50051841451557 L324.99999999999994 269.3624115695503 L324.99999999999994 255.91774151878892 L334.6938775510203 257.05584836375414 z"/>
<path fill="#bababa" stroke="#bababa" d="M344.1558441558441 272.70864024192673 L334.6938775510203 270.50051841451557 L334.6938775510203 257.05584836375414 L344.1558441558441 259.2639701911653 z"/>
<path fill="#bababa" stroke="#bababa" d="M352.8571428571428 276.0506624671977 L344.1558441558441 272.70864024192673 L344.1558441558441 259.2639701911653 L352.8571428571428 262.60599241643627 z"/>
<path fill="#bababa" stroke="#bababa" d="M360.6451612903225 280.39809978208797 L352.8571428571428 276.0506624671977 L352.8571428571428 262.60599241643627 L360.6451612903225 266.95342973132654 z"/>
<path fill="#bababa" stroke="#bababa" d="M367.3684210526315 285.5558945105008 L360.6451612903225 280.39809978208797 L360.6451612903225 266.95342973132654 L367.3684210526315 272.1112244597394 z"/>
<path fill="#bababa" stroke="#bababa" d="M372.79999999999995 291.38304198231833 L367.3684210526315 285.5558945105008 L367.3684210526315 272.1112244597394 L372.79999999999995 277.9383719315569 z"/>
<path fill="#bababa" stroke="#bababa" d="M376.75675675675666 297.82155010610563 L372.79999999999995 291.38304198231833 L372.79999999999995 277.9383719315569 L376.75675675675666 284.3768800553442 z"/>
<path fill="#bababa" stroke="#bababa" d="M376.75675675675666 297.82155010610563 L376.75675675675666 284.3768800553442 L378.96257146656023 290.7076250135003 L378.96257146656023 304.15229506426175 z"/>
<path fill="#bababa" stroke="#bababa" d="M378.9625714665603 318.9908737444648 L378.96257146656023 305.5462036937034 L376.7567567567567 311.8769486518595 L376.7567567567567 325.3216187026209 z"/>
<path fill="#bababa" stroke="#bababa" d="M372.79999999999995 331.7601268264082 L376.7567567567567 325.3216187026209 L376.7567567567567 311.8769486518595 L372.79999999999995 318.3154567756468 z"/>
<path fill="#bababa" stroke="#bababa" d="M367.36842105263156 337.58727429822574 L372.79999999999995 331.7601268264082 L372.79999999999995 318.3154567756468 L367.36842105263156 324.1426042474643 z"/>
<path fill="#bababa" stroke="#bababa" d="M360.64516129032256 342.7450690266386 L367.36842105263156 337.58727429822574 L367.36842105263156 324.14260424746436 L360.64516129032256 329.30039897587716 z"/>
<path fill="#bababa" stroke="#bababa" d="M352.85714285714283 347.09250634152886 L360.64516129032256 342.7450690266386 L360.64516129032256 329.30039897587716 L352.85714285714283 333.64783629076743 z"/>
<path fill="#bababa" stroke="#bababa" d="M344.1558441558441 350.4345285667998 L352.8571428571428 347.09250634152886 L352.8571428571428 333.64783629076743 L344.1558441558441 336.9898585160384 z"/>
<path fill="#bababa" stroke="#bababa" d="M334.6938775510203 352.642650394211 L344.1558441558441 350.4345285667998 L344.1558441558441 336.9898585160384 L334.6938775510203 339.1979803434496 z"/>
<path fill="#bababa" stroke="#bababa" d="M324.99999999999994 353.78075723917624 L334.6938775510203 352.642650394211 L334.6938775510203 339.19798034344956 L324.99999999999994 340.3360871884148 z"/>
<path fill="#bababa" stroke="#bababa" d="M-85 353.78075723917624 L325 353.78075723917624 L325 340.33608718841475 L-85 340.33608718841475 z"/>
<path fill="#bababa" stroke="#bababa" d="M-94.69387755102038 352.64265039421093 L-84.99999999999999 353.7807572391762 L-84.99999999999999 340.3360871884148 L-94.69387755102038 339.19798034344956 z"/>
<path fill="#bababa" stroke="#bababa" d="M-104.15584415584412 350.4345285667998 L-94.69387755102038 352.642650394211 L-94.69387755102038 339.1979803434496 L-104.15584415584412 336.9898585160384 z"/>
<path fill="#bababa" stroke="#bababa" d="M-112.85714285714282 347.09250634152886 L-104.15584415584412 350.4345285667998 L-104.15584415584412 336.9898585160384 L-112.85714285714282 333.64783629076743 z"/>
<path fill="#bababa" stroke="#bababa" d="M-120.64516129032258 342.7450690266386 L-112.85714285714283 347.09250634152886 L-112.85714285714286 333.64783629076743 L-120.64516129032258 329.30039897587716 z"/>
<path fill="#bababa" stroke="#bababa" d="M-127.36842105263158 337.58727429822574 L-120.64516129032256 342.7450690266386 L-120.64516129032259 329.30039897587716 L-127.36842105263156 324.14260424746436 z"/>
<path fill="#bababa" stroke="#bababa" d="M-132.79999999999998 331.7601268264082 L-127.36842105263158 337.58727429822574 L-127.36842105263158 324.1426042474643 L-132.79999999999998 318.3154567756468 z"/>
<path fill="#bababa" stroke="#bababa" d="M-136.75675675675672 325.3216187026209 L-132.79999999999998 331.7601268264082 L-132.79999999999998 318.3154567756468 L-136.75675675675672 311.8769486518595 z"/>
<path fill="#bababa" stroke="#bababa" d="M-139.1304347826087 318.5091017093933 L-136.75675675675672 325.3216187026209 L-136.75675675675672 311.8769486518595 L-139.1304347826087 305.06443165863186 z"/>
<path fill="#bababa" stroke="#bababa" d="M-139.1304347826087 318.50910170939324 L-139.1304347826087 305.0644316586318 L-139.158615136876 304.83960470893174 L-139.158615136876 318.2842747596932 z"/>
<path fill="#bababa" stroke="#bababa" d="M-139.158615136876 304.8588940490333 L-139.158615136876 291.4142239982719 L-139.13043478260866 291.1893970485719 L-139.13043478260866 304.63406709933327 z"/>
<path fill="#bababa" stroke="#bababa" d="M-136.7567567567567 297.82155010610563 L-139.13043478260866 304.6340670993333 L-139.13043478260866 291.18939704857183 L-136.7567567567567 284.3768800553442 z"/>
<path fill="#bababa" stroke="#bababa" d="M-132.79999999999995 291.38304198231833 L-136.7567567567567 297.82155010610563 L-136.7567567567567 284.3768800553442 L-132.79999999999995 277.9383719315569 z"/>
<path fill="#bababa" stroke="#bababa" d="M-127.36842105263155 285.5558945105008 L-132.79999999999995 291.38304198231833 L-132.79999999999995 277.9383719315569 L-127.36842105263155 272.1112244597394 z"/>
<path fill="#bababa" stroke="#bababa" d="M-120.64516129032253 280.39809978208797 L-127.36842105263153 285.5558945105008 L-127.36842105263155 272.1112244597394 L-120.64516129032253 266.95342973132654 z"/>
<path fill="#bababa" stroke="#bababa" d="M-112.85714285714282 276.0506624671977 L-120.64516129032252 280.39809978208797 L-120.64516129032253 266.95342973132654 L-112.8571428571428 262.60599241643627 z"/>
<path fill="#bababa" stroke="#bababa" d="M-104.15584415584412 272.70864024192673 L-112.85714285714282 276.0506624671977 L-112.85714285714282 262.60599241643627 L-104.15584415584412 259.2639701911653 z"/>
<path fill="#bababa" stroke="#bababa" d="M-94.69387755102038 270.50051841451557 L-104.15584415584412 272.70864024192673 L-104.15584415584412 259.2639701911653 L-94.69387755102038 257.05584836375414 z"/>
<path fill="#bababa" stroke="#bababa" d="M-84.99999999999999 269.3624115695503 L-94.69387755102038 270.50051841451557 L-94.69387755102038 257.05584836375414 L-84.99999999999999 255.91774151878894 z"/>
<path fill="#bababa" stroke="#bababa" d="M378.96257146656023 318.04008476916243 L378.96257146656023 318.99087374446475 L180 318.99087374446475 L180 305.5462036937034 L378.96257146656023 305.5462036937034 z"/>
<path fill="#bababa" stroke="#bababa" d="M372.7909233322589 290.7076250135003 L180 290.7076250135003 L180 304.15229506426175 L378.96257146656023 304.15229506426175 L378.96257146656023 290.7076250135003 z"/>
<path fill="#bababa" stroke="#bababa" d="M-93.38716332621111 304.8588940490333 L60 304.8588940490333 L60 291.4142239982719 L-139.158615136876 291.4142239982719 L-139.158615136876 304.8588940490333 z"/>
<path fill="#bababa" stroke="#bababa" d="M-130.2479065187323 318.2842747596932 L-139.158615136876 318.2842747596932 L-139.158615136876 304.8396047089318 L60 304.8396047089318 L60 318.2842747596932 z"/>
<path fill="#bababa" stroke="#bababa" d="M-90.69453880087319 304.8396047089318 L-139.158615136876 304.8396047089318 L-139.1304347826087 305.06443165863186 L-136.75675675675672 311.8769486518595 L-132.79999999999998 318.3154567756468 L-127.36842105263156 324.14260424746436 L-120.64516129032256 329.30039897587716 L-112.85714285714283 333.6478362907675 L-104.15584415584414 336.9898585160384 L-94.69387755102039 339.1979803434496 L-85 340.3360871884148 L325 340.3360871884148 L334.69387755102036 339.1979803434496 L344.15584415584414 336.9898585160384 L352.85714285714283 333.6478362907675 L360.64516129032256 329.30039897587716 L367.36842105263156 324.14260424746436 L372.79999999999995 318.3154567756468 L376.7567567567567 311.8769486518595 L378.96257146656023 305.5462036937034 L180 305.5462036937034 L180 290.7076250135003 L378.96257146656023 290.7076250135003 L376.7567567567567 284.3768800553442 L372.79999999999995 277.9383719315569 L367.36842105263156 272.1112244597394 L360.64516129032256 266.9534297313266 L352.85714285714283 262.60599241643627 L344.15584415584414 259.2639701911653 L334.69387755102036 257.05584836375414 L325 255.91774151878894 L-85 255.91774151878894 L-94.69387755102039 257.05584836375414 L-104.15584415584414 259.2639701911653 L-112.85714285714283 262.60599241643627 L-120.64516129032256 266.9534297313266 L-127.36842105263156 272.1112244597394 L-132.79999999999998 277.9383719315569 L-136.75675675675672 284.3768800553442 L-139.1304347826087 291.1893970485719 L-139.158615136876 291.41422399827195 L60 291.41422399827195 L60 304.8396047089318 z"/>
<path fill="#bababa" stroke="#bababa" d="M-93.38716332621111 304.8588940490333 L-139.158615136876 304.8588940490333 L-139.1304347826087 304.6340670993333 L-136.75675675675672 297.82155010610563 L-132.79999999999998 291.38304198231833 L-127.36842105263156 285.5558945105008 L-120.64516129032256 280.39809978208797 L-112.85714285714283 276.0506624671977 L-104.15584415584414 272.70864024192673 L-94.69387755102039 270.50051841451557 L-85 269.3624115695504 L325 269.3624115695504 L334.69387755102036 270.50051841451557 L344.15584415584414 272.70864024192673 L352.85714285714283 276.0506624671977 L360.64516129032256 280.39809978208797 L367.36842105263156 285.5558945105008 L372.79999999999995 291.38304198231833 L376.7567567567567 297.82155010610563 L378.96257146656023 304.15229506426175 L180 304.15229506426175 L180 318.9908737444648 L378.96257146656023 318.9908737444648 L376.7567567567567 325.3216187026209 L372.79999999999995 331.7601268264082 L367.36842105263156 337.5872742982258 L360.64516129032256 342.7450690266386 L352.85714285714283 347.09250634152886 L344.15584415584414 350.4345285667998 L334.69387755102036 352.642650394211 L325 353.78075723917624 L-85 353.78075723917624 L-94.69387755102039 352.642650394211 L-104.15584415584414 350.4345285667998 L-112.85714285714283 347.09250634152886 L-120.64516129032256 342.7450690266386 L-127.36842105263156 337.5872742982258 L-132.79999999999998 331.7601268264082 L-136.75675675675672 325.3216187026209 L-139.1304347826087 318.5091017093933 L-139.158615136876 318.28427475969323 L60 318.28427475969323 L60 304.8588940490333 z"/>
<path fill="#bababa" stroke="#bababa" d="M60 -126.80506534182956 L60 -140.23044605248947 L60 -126.78577600172804 L60 -113.36039529106814 z"/>
<path fill="#bababa" stroke="#bababa" d="M180 -140.93704503726102 L180 -126.09846635705799 L180 -112.65379630629657 L180 -127.49237498649961 z"/>
<path fill="#bababa" stroke="#bababa" d="M325 -162.28225848121102 L-85 -162.28225848121102 L-85 -175.72692853197242 L325 -175.72692853197242 z"/>
<path fill="#bababa" stroke="#bababa" d="M334.6938775510203 -161.14415163624577 L324.99999999999994 -162.282258481211 L324.99999999999994 -175.72692853197242 L334.6938775510203 -174.5888216870072 z"/>
<path fill="#bababa" stroke="#bababa" d="M344.1558441558441 -158.9360298088346 L334.6938775510203 -161.1441516362458 L334.6938775510203 -174.58882168700723 L344.1558441558441 -172.38069985959606 z"/>
<path fill="#bababa" stroke="#bababa" d="M352.8571428571428 -155.59400758356364 L344.1558441558441 -158.9360298088346 L344.1558441558441 -172.38069985959604 L352.8571428571428 -169.0386776343251 z"/>
<path fill="#bababa" stroke="#bababa" d="M360.6451612903225 -151.2465702686734 L352.8571428571428 -155.59400758356367 L352.85714285714283 -169.0386776343251 L360.64516129032256 -164.6912403194348 z"/>
<path fill="#bababa" stroke="#bababa" d="M367.36842105263156 -146.08877554026054 L360.6451612903225 -151.2465702686734 L360.6451612903225 -164.69124031943483 L367.3684210526315 -159.53344559102197 z"/>
<path fill="#bababa" stroke="#bababa" d="M372.79999999999995 -140.26162806844303 L367.3684210526315 -146.08877554026054 L367.3684210526315 -159.53344559102197 L372.79999999999995 -153.70629811920446 z"/>
<path fill="#bababa" stroke="#bababa" d="M376.75675675675666 -133.8231199446557 L372.79999999999995 -140.26162806844303 L372.79999999999995 -153.70629811920443 L376.75675675675666 -147.26778999541713 z"/>
<path fill="#bababa" stroke="#bababa" d="M376.75675675675666 -133.82311994465573 L376.7567567567567 -147.26778999541713 L378.96257146656023 -140.93704503726102 L378.96257146656023 -127.4923749864996 z"/>
<path fill="#bababa" stroke="#bababa" d="M378.9625714665603 -112.65379630629656 L378.9625714665603 -126.09846635705797 L376.7567567567567 -119.76772139890186 L376.7567567567567 -106.32305134814044 z"/>
<path fill="#bababa" stroke="#bababa" d="M372.79999999999995 -99.88454322435312 L376.7567567567567 -106.32305134814044 L376.7567567567567 -119.76772139890187 L372.79999999999995 -113.32921327511455 z"/>
<path fill="#bababa" stroke="#bababa" d="M367.36842105263156 -94.05739575253561 L372.79999999999995 -99.88454322435312 L372.79999999999995 -113.32921327511454 L367.36842105263156 -107.50206580329703 z"/>
<path fill="#bababa" stroke="#bababa" d="M360.64516129032256 -88.89960102412277 L367.36842105263156 -94.05739575253561 L367.36842105263156 -107.50206580329703 L360.64516129032256 -102.3442710748842 z"/>
<path fill="#bababa" stroke="#bababa" d="M352.85714285714283 -84.5521637092325 L360.64516129032256 -88.89960102412277 L360.64516129032256 -102.3442710748842 L352.85714285714283 -97.99683375999392 z"/>
<path fill="#bababa" stroke="#bababa" d="M344.1558441558441 -81.21014148396155 L352.8571428571428 -84.5521637092325 L352.8571428571428 -97.99683375999393 L344.1558441558441 -94.65481153472297 z"/>
<path fill="#bababa" stroke="#bababa" d="M334.6938775510203 -79.00201965655036 L344.1558441558441 -81.21014148396154 L344.1558441558441 -94.65481153472297 L334.6938775510203 -92.44668970731179 z"/>
<path fill="#bababa" stroke="#bababa" d="M324.99999999999994 -77.86391281158515 L334.6938775510203 -79.00201965655037 L334.6938775510203 -92.44668970731179 L324.99999999999994 -91.30858286234657 z"/>
<path fill="#bababa" stroke="#bababa" d="M-85 -77.86391281158515 L325 -77.86391281158515 L325 -91.30858286234657 L-85 -91.30858286234657 z"/>
<path fill="#bababa" stroke="#bababa" d="M-94.69387755102038 -79.00201965655037 L-84.99999999999999 -77.86391281158515 L-84.99999999999999 -91.30858286234657 L-94.69387755102038 -92.44668970731179 z"/>
<path fill="#bababa" stroke="#bababa" d="M-104.15584415584412 -81.21014148396154 L-94.69387755102038 -79.00201965655037 L-94.69387755102038 -92.44668970731178 L-104.15584415584412 -94.65481153472295 z"/>
<path fill="#bababa" stroke="#bababa" d="M-112.85714285714282 -84.55216370923249 L-104.15584415584412 -81.21014148396154 L-104.15584415584412 -94.65481153472297 L-112.85714285714282 -97.99683375999392 z"/>
<path fill="#bababa" stroke="#bababa" d="M-120.64516129032259 -88.89960102412277 L-112.85714285714286 -84.5521637092325 L-112.85714285714286 -97.99683375999392 L-120.64516129032259 -102.3442710748842 z"/>
<path fill="#bababa" stroke="#bababa" d="M-127.36842105263156 -94.05739575253561 L-120.64516129032256 -88.89960102412277 L-120.64516129032258 -102.3442710748842 L-127.36842105263158 -107.50206580329703 z"/>
<path fill="#bababa" stroke="#bababa" d="M-132.79999999999998 -99.88454322435312 L-127.36842105263159 -94.05739575253561 L-127.36842105263156 -107.50206580329703 L-132.79999999999998 -113.32921327511454 z"/>
<path fill="#bababa" stroke="#bababa" d="M-136.75675675675672 -106.32305134814044 L-132.79999999999998 -99.88454322435312 L-132.79999999999998 -113.32921327511455 L-136.75675675675672 -119.76772139890187 z"/>
<path fill="#bababa" stroke="#bababa" d="M-139.1304347826087 -113.13556834136809 L-136.75675675675672 -106.32305134814044 L-136.75675675675672 -119.76772139890187 L-139.1304347826087 -126.58023839212952 z"/>
<path fill="#bababa" stroke="#bababa" d="M-139.1304347826087 -113.13556834136809 L-139.1304347826087 -126.58023839212952 L-139.158615136876 -126.80506534182956 L-139.158615136876 -113.36039529106813 z"/>
<path fill="#bababa" stroke="#bababa" d="M-139.158615136876 -126.78577600172804 L-139.158615136876 -140.23044605248944 L-139.13043478260866 -140.45527300218947 L-139.13043478260866 -127.01060295142808 z"/>
<path fill="#bababa" stroke="#bababa" d="M-136.7567567567567 -133.82311994465573 L-139.13043478260866 -127.01060295142808 L-139.13043478260866 -140.4552730021895 L-136.7567567567567 -147.26778999541713 z"/>
<path fill="#bababa" stroke="#bababa" d="M-132.79999999999995 -140.26162806844303 L-136.7567567567567 -133.8231199446557 L-136.7567567567567 -147.26778999541713 L-132.79999999999998 -153.70629811920443 z"/>
<path fill="#bababa" stroke="#bababa" d="M-127.36842105263155 -146.08877554026054 L-132.79999999999998 -140.26162806844303 L-132.79999999999995 -153.70629811920446 L-127.36842105263152 -159.53344559102197 z"/>
<path fill="#bababa" stroke="#bababa" d="M-120.64516129032252 -151.2465702686734 L-127.36842105263156 -146.08877554026054 L-127.36842105263155 -159.53344559102197 L-120.64516129032255 -164.69124031943483 z"/>
<path fill="#bababa" stroke="#bababa" d="M-112.85714285714282 -155.59400758356367 L-120.64516129032255 -151.2465702686734 L-120.64516129032256 -164.6912403194348 L-112.85714285714283 -169.0386776343251 z"/>
<path fill="#bababa" stroke="#bababa" d="M-104.15584415584412 -158.9360298088346 L-112.85714285714282 -155.59400758356367 L-112.85714285714282 -169.0386776343251 L-104.15584415584412 -172.38069985959604 z"/>
<path fill="#bababa" stroke="#bababa" d="M-94.69387755102038 -161.1441516362458 L-104.15584415584412 -158.93602980883463 L-104.15584415584412 -172.38069985959604 L-94.69387755102038 -174.5888216870072 z"/>
<path fill="#bababa" stroke="#bababa" d="M-84.99999999999999 -162.28225848121102 L-94.69387755102038 -161.1441516362458 L-94.69387755102038 -174.58882168700723 L-84.99999999999999 -175.72692853197245 z"/>
<path fill="#bababa" stroke="#bababa" d="M378.96257146656023 -113.60458528159889 L378.96257146656023 -112.65379630629656 L180 -112.65379630629656 L180 -126.09846635705797 L378.96257146656023 -126.09846635705797 z"/>
<path fill="#bababa" stroke="#bababa" d="M372.7909233322589 -140.93704503726102 L180 -140.93704503726102 L180 -127.49237498649961 L378.96257146656023 -127.49237498649961 L378.96257146656023 -140.93704503726102 z"/>
<path fill="#bababa" stroke="#bababa" d="M-93.38716332621111 -126.78577600172804 L60 -126.78577600172804 L60 -140.23044605248944 L-139.158615136876 -140.23044605248944 L-139.158615136876 -126.78577600172804 z"/>
<path fill="#bababa" stroke="#bababa" d="M-130.2479065187323 -113.36039529106813 L-139.158615136876 -113.36039529106813 L-139.158615136876 -126.80506534182956 L60 -126.80506534182956 L60 -113.36039529106813 z"/>
<path fill="#bababa" stroke="#bababa" d="M-90.69453880087319 -126.80506534182963 L-139.158615136876 -126.80506534182963 L-139.1304347826087 -126.58023839212953 L-136.75675675675672 -119.76772139890194 L-132.79999999999998 -113.32921327511458 L-127.36842105263156 -107.50206580329706 L-120.64516129032256 -102.34427107488423 L-112.85714285714283 -97.99683375999398 L-104.15584415584414 -94.65481153472298 L-94.69387755102039 -92.44668970731185 L-85 -91.30858286234663 L325 -91.30858286234663 L334.69387755102036 -92.44668970731185 L344.15584415584414 -94.65481153472298 L352.85714285714283 -97.99683375999398 L360.64516129032256 -102.34427107488423 L367.36842105263156 -107.50206580329706 L372.79999999999995 -113.32921327511458 L376.7567567567567 -119.76772139890194 L378.96257146656023 -126.098466357058 L180 -126.098466357058 L180 -140.9370450372611 L378.96257146656023 -140.9370450372611 L376.7567567567567 -147.26778999541722 L372.79999999999995 -153.7062981192045 L367.36842105263156 -159.53344559102203 L360.64516129032256 -164.69124031943485 L352.85714285714283 -169.03867763432513 L344.15584415584414 -172.38069985959612 L334.69387755102036 -174.58882168700725 L325 -175.72692853197248 L-85 -175.72692853197248 L-94.69387755102039 -174.58882168700725 L-104.15584415584414 -172.38069985959612 L-112.85714285714283 -169.03867763432513 L-120.64516129032256 -164.69124031943485 L-127.36842105263156 -159.53344559102203 L-132.79999999999998 -153.7062981192045 L-136.75675675675672 -147.26778999541722 L-139.1304347826087 -140.45527300218956 L-139.158615136876 -140.23044605248953 L60 -140.23044605248953 L60 -126.80506534182963 z"/>
<path fill="#bababa" stroke="#bababa" d="M-93.38716332621111 -126.78577600172807 L-139.158615136876 -126.78577600172807 L-139.1304347826087 -127.0106029514281 L-136.75675675675672 -133.82311994465576 L-132.79999999999998 -140.26162806844312 L-127.36842105263156 -146.08877554026063 L-120.64516129032256 -151.24657026867345 L-112.85714285714283 -155.59400758356372 L-104.15584415584414 -158.93602980883463 L-94.69387755102039 -161.14415163624585 L-85 -162.28225848121107 L325 -162.28225848121107 L334.69387755102036 -161.14415163624585 L344.15584415584414 -158.93602980883463 L352.85714285714283 -155.59400758356372 L360.64516129032256 -151.24657026867345 L367.36842105263156 -146.08877554026063 L372.79999999999995 -140.26162806844312 L376.7567567567567 -133.82311994465576 L378.96257146656023 -127.49237498649963 L180 -127.49237498649963 L180 -112.65379630629661 L378.96257146656023 -112.65379630629661 L376.7567567567567 -106.32305134814047 L372.79999999999995 -99.8845432243532 L367.36842105263156 -94.05739575253567 L360.64516129032256 -88.89960102412284 L352.85714285714283 -84.5521637092325 L344.15584415584414 -81.21014148396159 L334.69387755102036 -79.00201965655037 L325 -77.86391281158515 L-85 -77.86391281158515 L-94.69387755102039 -79.00201965655037 L-104.15584415584414 -81.21014148396159 L-112.85714285714283 -84.5521637092325 L-120.64516129032256 -88.89960102412284 L-127.36842105263156 -94.05739575253567 L-132.79999999999998 -99.8845432243532 L-136.75675675675672 -106.32305134814047 L-139.1304347826087 -113.13556834136813 L-139.158615136876 -113.36039529106817 L60 -113.36039529106817 L60 -126.78577600172807 z"/>
</svg>