<?xml version="1.0" encoding="UTF-8"?>
<!-- Generated by jsxcad -->
<!DOCTYPE svg PUBLIC "-//W3C//DTD SVG 1.1 Tiny//EN" "http://www.w3.org/Graphics/SVG/1.1/DTD/svg11-tiny.dtd">
<svg baseProfile="tiny" height="598.3484263959396mm" width="335.2800000000002mm" viewBox="-167.2800000000001 -298.9745516074452 335.2800000000002 598.3484263959396" version="1.1" stroke="black" stroke-width=".1" fill="none" xmlns="http://www.w3.org/2000/svg">
<path fill="#bababa" stroke="#bababa" d="M123.99999999999999 180.2368866328257 L123.99999999999999 -156.58747884940774 L124.70022724198124 -162.55055665171156 L124.70022724198124 174.47074242582786 z"/>
<path fill="#bababa" stroke="#bababa" d="M-121.88526592146172 -167.33952332060792 L-121.36585365853658 -161.0920473773265 L-124.70022724198124 -162.55055665171156 z"/>
<path fill="#bababa" stroke="#bababa" d="M-121.8852659214617 -167.33952332060795 L-115.13915322193428 -169.31610852173463 L-121.36585365853655 -161.0920473773265 z"/>
<path fill="#bababa" stroke="#bababa" d="M-121.88526592146171 179.22906621697334 L-121.52439626962469 178.1495618289705 L-121.88526592146171 178.04300881278388 z"/>
<path fill="#bababa" stroke="#bababa" d="M-121.88526592146172 178.04300881278385 L-122.03584658278713 177.78765231803214 L-121.88526592146172 179.22906621697334 z"/>
<path fill="#bababa" stroke="#bababa" d="M-115.13915322193428 -170.5174873647996 L-115.13915322193428 -169.31610852173466 L-121.88526592146171 -167.33952332060795 L-121.88526592146171 -168.52558072479744 z"/>
<path fill="#bababa" stroke="#bababa" d="M-121.88526592146172 179.22906621697334 L-124.70022724198124 174.47074242582786 L-121.36585365853658 184.74145516074444 z"/>
<path fill="#bababa" stroke="#bababa" d="M-115.13915322193428 181.23629429585097 L-121.36585365853657 184.7414551607445 L-114.99999999999999 186.60541455160745 z"/>
<path fill="#bababa" stroke="#bababa" d="M-124.70022724198124 174.47074242582784 L-121.88526592146172 179.2290662169733 L-122.03584658278713 177.78765231803217 L-124.70022724198124 173.2693635827629 z"/>
<path fill="#bababa" stroke="#bababa" d="M-124.70022724198124 174.47074242582786 L-124 180.2368866328257 L-121.36585365853658 184.74145516074444 z"/>
<path fill="#bababa" stroke="#bababa" d="M-121.88526592146171 179.22906621697337 L-121.36585365853657 184.74145516074447 L-115.13915322193428 181.23629429585094 z"/>
<path fill="#bababa" stroke="#bababa" d="M121.36585365853657 184.74145516074447 L121.88526592146168 179.22906621697334 L115.13915322193427 181.23629429585097 z"/>
<path fill="#bababa" stroke="#bababa" d="M90.05572133273152 -162.9560067681895 L-115 -162.9560067681895 L-115.1391532219343 -169.31610852173463 L115.1391532219343 -169.31610852173463 L115 -162.9560067681895 z"/>
<path fill="#bababa" stroke="#bababa" d="M-114.99999999999999 -162.95600676818947 L-121.36585365853657 -161.09204737732654 L-115.13915322193427 -169.3161085217346 z"/>
<path fill="#bababa" stroke="#bababa" d="M-124.70022724198124 -162.5505566517116 L-121.36585365853658 -161.0920473773265 L-124 -156.58747884940774 z"/>
<path fill="#bababa" stroke="#bababa" d="M114.99999999999999 186.60541455160745 L121.36585365853657 184.7414551607445 L115.13915322193428 181.23629429585097 z"/>
<path fill="#bababa" stroke="#bababa" d="M124 -156.58747884940774 L121.36585365853658 -161.0920473773265 L124.70022724198124 -162.5505566517116 z"/>
<path fill="#bababa" stroke="#bababa" d="M114.99999999999999 -162.95600676818947 L115.13915322193427 -169.3161085217346 L121.36585365853657 -161.09204737732654 z"/>
<path fill="#bababa" stroke="#bababa" d="M121.36585365853658 184.74145516074444 L124.70022724198124 174.47074242582786 L121.88526592146171 179.22906621697334 z"/>
<path fill="#bababa" stroke="#bababa" d="M115.13915322193428 -169.31610852173463 L121.8852659214617 -167.33952332060795 L121.36585365853655 -161.0920473773265 z"/>
<path fill="#bababa" stroke="#bababa" d="M121.88526592146172 -167.33952332060792 L124.70022724198124 -162.55055665171156 L121.36585365853658 -161.0920473773265 z"/>
<path fill="#bababa" stroke="#bababa" d="M124 180.2368866328257 L124.70022724198124 174.4707424258279 L121.36585365853658 184.74145516074444 z"/>
<path fill="#bababa" stroke="#bababa" d="M-91.60030605014819 186.60541455160742 L115 186.60541455160742 L115.1391532219343 181.23629429585094 L-115.1391532219343 181.23629429585094 L-115 186.60541455160742 z"/>
<path fill="#bababa" stroke="#bababa" d="M-115.13915322193428 180.03491545278604 L-121.52439626962469 178.14956182897046 L-121.88526592146171 179.22906621697334 L-115.13915322193428 181.23629429585094 z"/>
<path fill="#bababa" stroke="#bababa" d="M115.13915322193428 180.03491545278604 L115.13915322193428 181.23629429585097 L121.8852659214617 179.22906621697334 L121.8852659214617 178.04300881278388 z"/>
<path fill="#bababa" stroke="#bababa" d="M124.70022724198125 173.26936358276294 L121.88526592146171 178.04300881278382 L121.88526592146171 179.22906621697334 L124.70022724198124 174.47074242582786 z"/>
<path fill="#bababa" stroke="#bababa" d="M121.8852659214617 -168.52558072479744 L121.8852659214617 -167.33952332060795 L115.13915322193428 -169.31610852173466 L115.13915322193428 -170.5174873647996 z"/>
<path fill="#bababa" stroke="#bababa" d="M-124.70022724198124 -162.5505566517116 L-124.70022724198124 174.47074242582786 L-124.70022724198124 173.26936358276294 L-124.70022724198124 -163.7519354947765 z"/>
<path fill="#bababa" stroke="#bababa" d="M124.70022724198124 173.26936358276296 L124.70022724198124 174.4707424258279 L124.70022724198124 -162.5505566517116 L124.70022724198124 -163.7519354947765 z"/>
<path fill="#bababa" stroke="#bababa" d="M124.70022724198124 -162.5505566517116 L121.88526592146172 -167.33952332060792 L121.88526592146172 -168.52558072479738 L124.70022724198124 -163.7519354947765 z"/>
<path fill="#bababa" stroke="#bababa" d="M103.59572894717637 -170.51748736479956 L115.1391532219343 -170.51748736479956 L115.1391532219343 -169.31610852173466 L-115.1391532219343 -169.31610852173466 L-115.1391532219343 -170.51748736479956 z"/>
<path fill="#bababa" stroke="#bababa" d="M115.1391532219343 180.03491545278604 L-115.1391532219343 180.03491545278604 L-115.1391532219343 181.23629429585097 L115.1391532219343 181.23629429585097 z"/>
<path fill="#bababa" stroke="#bababa" d="M147.42857142857142 298.97455160744494 L-152.57142857142856 298.97455160744494 L-152.57142857142856 291.90856175972925 L147.42857142857142 291.90856175972925 z"/>
<path fill="#bababa" stroke="#bababa" d="M157.4634146341463 297.95816028303335 L147.4285714285714 298.974551607445 L147.4285714285714 291.9085617597292 L157.4634146341463 290.8921704353176 z"/>
<path fill="#bababa" stroke="#bababa" d="M165.15789473684208 293.2639136598527 L157.46341463414632 297.9581602830333 L157.46341463414632 290.89217043531755 L165.1578947368421 286.19792381213693 z"/>
<path fill="#bababa" stroke="#bababa" d="M168 286.37901861252107 L165.15789473684208 293.2639136598527 L165.15789473684208 286.19792381213693 L168 279.3130287648054 z"/>
<path fill="#bababa" stroke="#bababa" d="M168 -279.71235194585444 L168 286.3790186125211 L168 279.3130287648054 L168 -286.7783417935702 z"/>
<path fill="#bababa" stroke="#bababa" d="M165.15789473684208 -286.597246993186 L168 -279.71235194585444 L168 -286.7783417935702 L165.15789473684208 -293.66323684090173 z"/>
<path fill="#bababa" stroke="#bababa" d="M157.46341463414635 -291.2914936163666 L165.15789473684208 -286.597246993186 L165.15789473684208 -293.66323684090173 L157.46341463414632 -298.35748346408235 z"/>
<path fill="#bababa" stroke="#bababa" d="M147.4285714285714 -292.3078849407783 L157.4634146341463 -291.29149361636667 L157.4634146341463 -298.3574834640824 L147.4285714285714 -299.37387478849405 z"/>
<path fill="#bababa" stroke="#bababa" d="M-152.57142857142856 -292.3078849407783 L147.42857142857142 -292.3078849407783 L147.42857142857142 -299.37387478849405 L-152.57142857142856 -299.37387478849405 z"/>
<path fill="#bababa" stroke="#bababa" d="M-161.79310344827582 -289.34280879864633 L-152.57142857142853 -292.3078849407783 L-152.57142857142853 -299.37387478849405 L-161.79310344827582 -296.4087986463621 z"/>
<path fill="#bababa" stroke="#bababa" d="M-167.27999999999997 -283.29464890016914 L-161.79310344827584 -289.3428087986463 L-161.79310344827584 -296.408798646362 L-167.27999999999997 -290.3606387478849 z"/>
<path fill="#bababa" stroke="#bababa" d="M-167.27999999999997 289.9613155668358 L-167.27999999999997 -283.2946489001692 L-167.27999999999997 -290.36063874788493 L-167.27999999999997 282.8953257191201 z"/>
<path fill="#bababa" stroke="#bababa" d="M-161.79310344827587 296.0094754653129 L-167.27999999999997 289.9613155668358 L-167.27999999999997 282.8953257191201 L-161.79310344827584 288.9434856175972 z"/>
<path fill="#bababa" stroke="#bababa" d="M-152.57142857142853 298.974551607445 L-161.79310344827582 296.009475465313 L-161.79310344827582 288.9434856175973 L-152.57142857142853 291.90856175972925 z"/>
<path fill="#bababa" stroke="#bababa" d="M-121.88526592146172 -167.33952332060792 L-124.70022724198124 -162.5505566517116 L-124.70022724198124 -163.7519354947765 L-121.88526592146172 -168.5255807247974 z"/>
<path fill="#bababa" stroke="#bababa" d="M-124.70022724198122 174.47074242582786 L-124.70022724198122 -162.55055665171156 L-124 -156.58747884940774 L-124 180.23688663282567 z"/>
<path fill="#bababa" stroke="#bababa" d="M165.15789473684208 -293.66323684090173 L168 -286.7783417935702 L168 279.3130287648054 L165.15789473684208 286.19792381213693 L157.46341463414632 290.89217043531755 L147.42857142857142 291.9085617597292 L-152.57142857142856 291.9085617597292 L-161.79310344827584 288.9434856175972 L-167.27999999999997 282.8953257191201 L-167.27999999999997 -290.3606387478849 L-161.79310344827584 -296.408798646362 L-152.57142857142856 -299.373874788494 L147.42857142857142 -299.373874788494 L157.46341463414632 -298.35748346408235 z M-124.70022724198124 -145.5033845347195 L-124.70022724198124 173.26936358276294 L-122.03584658278712 177.78765231803217 L-121.88526592146171 178.04300881278382 L-121.5243962696247 178.14956182897046 L-115.1391532219343 180.034915452786 L115.1391532219343 180.034915452786 L121.88526592146171 178.04300881278382 L124.70022724198124 173.26936358276296 L124.70022724198124 -163.7519354947765 L121.88526592146172 -168.5255807247974 L115.1391532219343 -170.51748736479954 L-115.1391532219343 -170.51748736479954 L-121.88526592146172 -168.5255807247974 L-124.70022724198124 -163.7519354947765 z"/>
<path fill="#bababa" stroke="#bababa" d="M147.42857142857142 -292.30788494077825 L-152.57142857142856 -292.30788494077825 L-161.79310344827584 -289.3428087986463 L-167.27999999999997 -283.2946489001692 L-167.27999999999997 289.9613155668358 L-161.79310344827584 296.00947546531296 L-152.57142857142856 298.97455160744494 L147.42857142857142 298.97455160744494 L157.46341463414632 297.9581602830333 L165.15789473684208 293.2639136598527 L168 286.3790186125211 L168 -279.71235194585444 L165.15789473684208 -286.597246993186 L157.46341463414632 -291.29149361636667 z M-124 180.23688663282567 L-124 -156.58747884940777 L-121.36585365853658 -161.09204737732654 L-115 -162.9560067681895 L115 -162.9560067681895 L121.36585365853658 -161.09204737732654 L124 -156.58747884940777 L124 180.23688663282567 L121.36585365853658 184.74145516074444 L115 186.60541455160742 L-115 186.60541455160742 L-121.36585365853658 184.74145516074444 z"/>
</svg>