<?xml version="1.0" encoding="UTF-8"?>
<!-- Generated by jsxcad -->
<!DOCTYPE svg PUBLIC "-//W3C//DTD SVG 1.1 Tiny//EN" "http://www.w3.org/Graphics/SVG/1.1/DTD/svg11-tiny.dtd">
<svg baseProfile="tiny" height="598.3484263959396mm" width="335.2800000000002mm" viewBox="-167.2800000000001 -328.9745516074452 335.2800000000002 598.3484263959396" version="1.1" stroke="black" stroke-width=".1" fill="none" xmlns="http://www.w3.org/2000/svg">
<path fill="#bababa" stroke="#bababa" d="M122.29729729729729 -232.8724562125577 L125 -221.39763113367172 L125 -214.33164128595598 L122.2972972972973 -225.80646636484198 z"/>
<path fill="#bababa" stroke="#bababa" d="M41.12903225806451 -247.4128595600677 L54.87012987012986 -253.82994923857868 L54.87012987012986 -246.76395939086294 L41.12903225806451 -240.34686971235195 z"/>
<path fill="#bababa" stroke="#bababa" d="M25.724637681159418 -215.6080602984156 L25.724637681159418 -227.18720196892784 L25.724637681159418 -220.1212121212121 L25.724637681159418 -208.54207045069987 z"/>
<path fill="#bababa" stroke="#bababa" d="M29.944927536231898 -199.69536115322913 L31.000000000000007 -197.48368382886147 L31.00000000000001 -204.54967367657719 L25.724637681159425 -215.6080602984156 L25.72463768115943 -208.54207045069987 z"/>
<path fill="#bababa" stroke="#bababa" d="M39.10322580645163 -190.1498670534203 L41.12903225806453 -188.31641285956005 L41.129032258064534 -195.3824027072758 L31.00000000000003 -204.5496736765772 L31.000000000000025 -197.48368382886144 z"/>
<path fill="#bababa" stroke="#bababa" d="M53.49602010892332 -189.60702199661594 L41.12903225806451 -195.38240270727582 L41.12903225806451 -188.3164128595601 L54.87012987012986 -181.8993231810491 L54.87012987012986 -188.96531302876483 z"/>
<path fill="#bababa" stroke="#bababa" d="M120.73257467994308 -200.80960309640508 L122.29729729729728 -202.85681620706998 L122.29729729729728 -209.92280605478575 L114.47368421052629 -199.6867405014613 L114.47368421052629 -192.62075065374557 z"/>
<path fill="#bababa" stroke="#bababa" d="M114.47368421052634 -243.10852176588213 L122.29729729729729 -232.87245621255772 L122.29729729729732 -225.80646636484195 L114.47368421052632 -236.0425319181664 z"/>
<path fill="#bababa" stroke="#bababa" d="M100.8673469387755 -191.29115648008414 L87.24489795918366 -187.12256768189508 L87.24489795918366 -180.05657783417936 L102.38095238095237 -184.68834316550056 L102.38095238095237 -191.75433301321627 z"/>
<path fill="#bababa" stroke="#bababa" d="M26.25217391304346 -228.29304063111167 L30.999999999999986 -238.2455885907662 L30.99999999999999 -231.1795987430505 L25.724637681159404 -220.12121212121207 L25.724637681159404 -227.1872019689278 z"/>
<path fill="#bababa" stroke="#bababa" d="M54.870129870129865 -253.8299492385787 L70.83333333333333 -256.6224796320729 L70.83333333333333 -249.55648978435715 L54.870129870129865 -246.76395939086296 z"/>
<path fill="#bababa" stroke="#bababa" d="M33.02580645161288 -233.01305293691078 L30.99999999999995 -231.17959874305046 L30.99999999999999 -238.24558859076623 L41.129032258064484 -247.41285956006763 L41.12903225806449 -240.34686971235192 z"/>
<path fill="#bababa" stroke="#bababa" d="M67.64069264069263 -179.66529886625375 L70.83333333333331 -179.10679278755492 L70.83333333333331 -186.17278263527064 L54.870129870129865 -188.96531302876483 L54.870129870129865 -181.8993231810491 z"/>
<path fill="#bababa" stroke="#bababa" d="M97.66996559273967 -245.4165426587475 L87.24489795918366 -248.6067047377327 L87.24489795918366 -255.67269458544843 L102.38095238095237 -251.04092925412726 L102.38095238095237 -243.97493940641155 z"/>
<path fill="#bababa" stroke="#bababa" d="M104.79949874686723 -242.3884579087624 L102.38095238095241 -243.9749394064115 L102.38095238095244 -251.04092925412718 L114.47368421052636 -243.1085217658821 L114.47368421052633 -236.04253191816645 z"/>
<path fill="#bababa" stroke="#bababa" d="M102.38095238095231 -191.75433301321624 L102.38095238095235 -184.6883431655005 L114.47368421052627 -192.62075065374555 L114.47368421052627 -199.68674050146132 z"/>
<path fill="#bababa" stroke="#bababa" d="M-79.16666666666666 -256.6224796320729 L-62.75510204081632 -255.67269458544845 L-62.75510204081632 -248.6067047377327 L-79.16666666666666 -249.55648978435718 z"/>
<path fill="#bababa" stroke="#bababa" d="M-91.93722943722942 -247.3224654695618 L-95.12987012987011 -246.76395939086296 L-95.12987012987011 -253.8299492385787 L-79.16666666666666 -256.6224796320729 L-79.16666666666666 -249.55648978435715 z"/>
<path fill="#bababa" stroke="#bababa" d="M122.29729729729729 -209.9228060547857 L122.29729729729728 -202.85681620706998 L124.99999999999999 -214.33164128595595 L124.99999999999999 -221.3976311336717 z"/>
<path fill="#bababa" stroke="#bababa" d="M-95.12987012987011 -188.9653130287648 L-108.87096774193546 -195.38240270727582 L-108.87096774193546 -188.31641285956007 L-95.12987012987011 -181.89932318104908 z"/>
<path fill="#bababa" stroke="#bababa" d="M-115.65433792193497 -234.20758701082593 L-119.00000000000004 -231.17959874305046 L-119.00000000000001 -238.2455885907662 L-108.87096774193553 -247.41285956006763 L-108.87096774193549 -240.34686971235192 z"/>
<path fill="#bababa" stroke="#bababa" d="M-124.27536231884059 -227.1872019689278 L-119.00000000000001 -238.2455885907662 L-119 -231.1795987430505 L-124.27536231884058 -220.1212121212121 z"/>
<path fill="#bababa" stroke="#bababa" d="M-124.27536231884058 -215.6080602984156 L-124.27536231884058 -227.18720196892784 L-124.27536231884058 -220.1212121212121 L-124.27536231884058 -208.54207045069987 z"/>
<path fill="#bababa" stroke="#bababa" d="M-108.87096774193546 -247.41285956006772 L-95.12987012987013 -253.8299492385787 L-95.12987012987013 -246.76395939086296 L-108.87096774193546 -240.34686971235197 z"/>
<path fill="#bababa" stroke="#bababa" d="M-61.24149659863944 -255.20951805231633 L-47.61904761904761 -251.0409292541273 L-47.61904761904761 -243.9749394064115 L-62.755102040816325 -248.60670473773266 L-62.755102040816325 -255.67269458544845 z"/>
<path fill="#bababa" stroke="#bababa" d="M-82.35930735930735 -179.66529886625375 L-79.16666666666666 -179.10679278755492 L-79.16666666666666 -186.17278263527064 L-95.12987012987011 -188.96531302876483 L-95.12987012987011 -181.8993231810491 z"/>
<path fill="#bababa" stroke="#bababa" d="M-28.485064011379816 -208.89919949945326 L-35.52631578947369 -199.6867405014613 L-35.526315789473706 -192.62075065374552 L-27.702702702702716 -202.85681620706998 L-27.70270270270272 -209.9228060547857 z"/>
<path fill="#bababa" stroke="#bababa" d="M-27.432432432432424 -231.7249737046691 L-24.99999999999999 -221.3976311336717 L-24.999999999999996 -214.33164128595598 L-27.702702702702698 -225.80646636484198 L-27.702702702702695 -232.8724562125577 z"/>
<path fill="#bababa" stroke="#bababa" d="M-25.540540540540547 -212.0366762701788 L-25.000000000000007 -214.33164128595598 L-25.000000000000004 -221.39763113367172 L-27.70270270270271 -209.92280605478572 L-27.702702702702712 -202.85681620706998 z"/>
<path fill="#bababa" stroke="#bababa" d="M-118.99999999999997 -197.48368382886144 L-108.87096774193546 -188.31641285956005 L-108.87096774193546 -195.3824027072758 L-118.99999999999996 -204.5496736765772 z"/>
<path fill="#bababa" stroke="#bababa" d="M-47.61904761904764 -184.6883431655005 L-35.52631578947371 -192.62075065374555 L-35.52631578947372 -199.68674050146132 L-47.61904761904768 -191.75433301321624 z"/>
<path fill="#bababa" stroke="#bababa" d="M-33.961593172119464 -233.9953188075015 L-35.526315789473664 -236.04253191816642 L-35.526315789473664 -243.10852176588216 L-27.70270270270267 -232.87245621255767 L-27.70270270270267 -225.80646636484192 z"/>
<path fill="#bababa" stroke="#bababa" d="M124 245.61759729272416 L124 -91.20676818950929 L124.70022724198124 -97.1698459918131 L124.70022724198124 239.85145308572632 z"/>
<path fill="#bababa" stroke="#bababa" d="M-121.88526592146172 -101.95881266070947 L-121.3658536585366 -95.71133671742807 L-124.70022724198124 -97.1698459918131 z"/>
<path fill="#bababa" stroke="#bababa" d="M-121.8852659214617 -101.95881266070946 L-115.13915322193428 -103.93539786183617 L-121.36585365853655 -95.71133671742807 z"/>
<path fill="#bababa" stroke="#bababa" d="M-121.88526592146171 244.60977687687182 L-121.52439626962469 243.53027248886895 L-121.88526592146171 243.42371947268234 z"/>
<path fill="#bababa" stroke="#bababa" d="M-121.88526592146172 243.42371947268234 L-122.03584658278713 243.16836297793066 L-121.88526592146172 244.6097768768718 z"/>
<path fill="#bababa" stroke="#bababa" d="M-115.13915322193428 -105.1367767049011 L-115.13915322193428 -103.9353978618362 L-121.88526592146171 -101.95881266070951 L-121.88526592146171 -103.14487006489895 z"/>
<path fill="#bababa" stroke="#bababa" d="M-121.88526592146174 244.60977687687176 L-124.70022724198124 239.85145308572632 L-121.36585365853658 250.12216582064292 z"/>
<path fill="#bababa" stroke="#bababa" d="M-115.13915322193428 246.61700495574942 L-121.36585365853657 250.12216582064295 L-114.99999999999999 251.9861252115059 z"/>
<path fill="#bababa" stroke="#bababa" d="M-124.70022724198124 239.85145308572632 L-121.88526592146172 244.6097768768718 L-122.03584658278713 243.16836297793066 L-124.70022724198124 238.6500742426614 z"/>
<path fill="#bababa" stroke="#bababa" d="M-124.70022724198125 239.8514530857263 L-124 245.61759729272416 L-121.36585365853658 250.1221658206429 z"/>
<path fill="#bababa" stroke="#bababa" d="M-121.88526592146171 244.60977687687182 L-121.36585365853657 250.12216582064295 L-115.13915322193428 246.61700495574942 z"/>
<path fill="#bababa" stroke="#bababa" d="M121.36585365853657 250.12216582064295 L121.88526592146168 244.60977687687182 L115.13915322193427 246.61700495574942 z"/>
<path fill="#bababa" stroke="#bababa" d="M71.47214673835651 -97.57529610829101 L-115 -97.57529610829101 L-115.1391532219343 -103.93539786183617 L115.1391532219343 -103.93539786183617 L115 -97.57529610829101 z"/>
<path fill="#bababa" stroke="#bababa" d="M-114.99999999999999 -97.57529610829101 L-121.36585365853657 -95.71133671742807 L-115.13915322193427 -103.93539786183617 z"/>
<path fill="#bababa" stroke="#bababa" d="M-124.70022724198125 -97.1698459918131 L-121.36585365853658 -95.71133671742807 L-124 -91.2067681895093 z"/>
<path fill="#bababa" stroke="#bababa" d="M114.99999999999999 251.9861252115059 L121.36585365853657 250.12216582064295 L115.13915322193428 246.61700495574942 z"/>
<path fill="#bababa" stroke="#bababa" d="M124 -91.2067681895093 L121.36585365853658 -95.71133671742807 L124.70022724198125 -97.1698459918131 z"/>
<path fill="#bababa" stroke="#bababa" d="M114.99999999999999 -97.57529610829101 L115.13915322193427 -103.93539786183617 L121.36585365853657 -95.71133671742807 z"/>
<path fill="#bababa" stroke="#bababa" d="M121.36585365853658 250.12216582064292 L124.70022724198125 239.85145308572632 L121.88526592146171 244.6097768768718 z"/>
<path fill="#bababa" stroke="#bababa" d="M115.13915322193428 -103.93539786183617 L121.8852659214617 -101.95881266070946 L121.36585365853655 -95.71133671742807 z"/>
<path fill="#bababa" stroke="#bababa" d="M87.24489795918366 -187.1225676818951 L70.83333333333333 -186.17278263527064 L70.83333333333333 -179.1067927875549 L87.24489795918366 -180.05657783417936 z"/>
<path fill="#bababa" stroke="#bababa" d="M121.88526592146172 -101.95881266070947 L124.70022724198124 -97.1698459918131 L121.3658536585366 -95.71133671742807 z"/>
<path fill="#bababa" stroke="#bababa" d="M124 245.61759729272416 L124.70022724198124 239.85145308572635 L121.36585365853658 250.12216582064292 z"/>
<path fill="#bababa" stroke="#bababa" d="M115.13915322193428 245.41562611268452 L115.13915322193428 246.61700495574942 L121.8852659214617 244.60977687687182 L121.8852659214617 243.42371947268234 z"/>
<path fill="#bababa" stroke="#bababa" d="M-115.13915322193428 245.4156261126845 L-121.52439626962469 243.53027248886895 L-121.88526592146171 244.60977687687182 L-115.13915322193428 246.61700495574942 z"/>
<path fill="#bababa" stroke="#bababa" d="M124.70022724198124 238.65007424266142 L121.88526592146171 243.4237194726823 L121.88526592146171 244.6097768768718 L124.70022724198124 239.85145308572635 z"/>
<path fill="#bababa" stroke="#bababa" d="M121.8852659214617 -103.14487006489897 L121.8852659214617 -101.95881266070951 L115.13915322193428 -103.93539786183621 L115.13915322193428 -105.13677670490111 z"/>
<path fill="#bababa" stroke="#bababa" d="M-124.70022724198124 -97.16984599181312 L-124.70022724198124 239.85145308572635 L-124.70022724198124 238.65007424266142 L-124.70022724198124 -98.37122483487803 z"/>
<path fill="#bababa" stroke="#bababa" d="M124.70022724198124 238.65007424266145 L124.70022724198124 239.85145308572635 L124.70022724198124 -97.16984599181312 L124.70022724198124 -98.37122483487803 z"/>
<path fill="#bababa" stroke="#bababa" d="M115.1391532219343 245.4156261126845 L-115.1391532219343 245.4156261126845 L-115.1391532219343 246.61700495574942 L115.1391532219343 246.61700495574942 z"/>
<path fill="#bababa" stroke="#bababa" d="M124.70022724198124 -97.1698459918131 L121.88526592146172 -101.95881266070946 L121.88526592146172 -103.14487006489894 L124.70022724198124 -98.37122483487803 z"/>
<path fill="#bababa" stroke="#bababa" d="M102.67037032412183 -105.13677670490111 L115.1391532219343 -105.13677670490111 L115.1391532219343 -103.93539786183621 L-115.1391532219343 -103.93539786183621 L-115.1391532219343 -105.13677670490111 z"/>
<path fill="#bababa" stroke="#bababa" d="M-124.27536231884056 -208.54207045069987 L-118.99999999999999 -197.48368382886147 L-118.99999999999999 -204.54967367657719 L-124.27536231884056 -215.6080602984156 z"/>
<path fill="#bababa" stroke="#bababa" d="M86.07537474161212 -248.6743884527869 L70.83333333333331 -249.55648978435718 L70.83333333333331 -256.62247963207284 L87.24489795918366 -255.67269458544837 L87.24489795918366 -248.60670473773268 z"/>
<path fill="#bababa" stroke="#bababa" d="M-46.409774436090196 -250.24768850530268 L-35.526315789473585 -243.10852176588213 L-35.52631578947362 -236.0425319181664 L-47.61904761904756 -243.97493940641144 L-47.619047619047514 -251.04092925412718 z"/>
<path fill="#bababa" stroke="#bababa" d="M147.42857142857142 328.97455160744494 L-152.57142857142856 328.97455160744494 L-152.57142857142856 321.9085617597292 L147.42857142857142 321.9085617597292 z"/>
<path fill="#bababa" stroke="#bababa" d="M157.4634146341463 327.9581602830333 L147.4285714285714 328.97455160744494 L147.4285714285714 321.9085617597292 L157.4634146341463 320.8921704353176 z"/>
<path fill="#bababa" stroke="#bababa" d="M165.1578947368421 323.2639136598526 L157.46341463414635 327.95816028303324 L157.46341463414632 320.89217043531755 L165.1578947368421 316.1979238121369 z"/>
<path fill="#bababa" stroke="#bababa" d="M168 316.3790186125211 L165.15789473684208 323.2639136598527 L165.15789473684208 316.19792381213693 L168 309.3130287648053 z"/>
<path fill="#bababa" stroke="#bababa" d="M168 -249.71235194585446 L168 316.3790186125211 L168 309.3130287648054 L168 -256.7783417935702 z"/>
<path fill="#bababa" stroke="#bababa" d="M165.15789473684208 -256.597246993186 L168 -249.71235194585446 L168 -256.7783417935702 L165.15789473684208 -263.66323684090173 z"/>
<path fill="#bababa" stroke="#bababa" d="M157.46341463414635 -261.2914936163666 L165.15789473684214 -256.597246993186 L165.15789473684214 -263.66323684090173 L157.46341463414637 -268.35748346408235 z"/>
<path fill="#bababa" stroke="#bababa" d="M147.4285714285714 -262.3078849407783 L157.4634146341463 -261.29149361636667 L157.4634146341463 -268.3574834640824 L147.4285714285714 -269.37387478849405 z"/>
<path fill="#bababa" stroke="#bababa" d="M-152.57142857142856 -262.3078849407783 L147.42857142857142 -262.3078849407783 L147.42857142857142 -269.37387478849405 L-152.57142857142856 -269.37387478849405 z"/>
<path fill="#bababa" stroke="#bababa" d="M-161.79310344827582 -259.3428087986464 L-152.57142857142853 -262.30788494077837 L-152.57142857142853 -269.37387478849405 L-161.79310344827582 -266.4087986463621 z"/>
<path fill="#bababa" stroke="#bababa" d="M-167.27999999999997 -253.29464890016916 L-161.79310344827587 -259.3428087986463 L-161.79310344827584 -266.408798646362 L-167.27999999999997 -260.3606387478849 z"/>
<path fill="#bababa" stroke="#bababa" d="M-167.27999999999997 319.9613155668358 L-167.27999999999997 -253.2946489001692 L-167.27999999999997 -260.36063874788493 L-167.27999999999997 312.8953257191201 z"/>
<path fill="#bababa" stroke="#bababa" d="M-161.79310344827584 326.00947546531296 L-167.27999999999997 319.9613155668358 L-167.27999999999997 312.8953257191201 L-161.79310344827584 318.9434856175972 z"/>
<path fill="#bababa" stroke="#bababa" d="M-152.57142857142853 328.974551607445 L-161.79310344827582 326.009475465313 L-161.79310344827582 318.9434856175973 L-152.57142857142853 321.90856175972925 z"/>
<path fill="#bababa" stroke="#bababa" d="M-110.79776276339769 251.9861252115059 L115 251.9861252115059 L115.1391532219343 246.61700495574942 L-115.1391532219343 246.61700495574942 L-115 251.9861252115059 z"/>
<path fill="#bababa" stroke="#bababa" d="M-121.88526592146174 -101.95881266070947 L-124.70022724198124 -97.1698459918131 L-124.70022724198124 -98.37122483487803 L-121.88526592146172 -103.14487006489894 z"/>
<path fill="#bababa" stroke="#bababa" d="M-124.70022724198124 239.85145308572632 L-124.70022724198124 -97.1698459918131 L-124 -91.20676818950929 L-124 245.61759729272416 z"/>
<path fill="#bababa" stroke="#bababa" d="M-62.75510204081632 -187.1225676818951 L-79.16666666666666 -186.17278263527064 L-79.16666666666666 -179.1067927875549 L-62.75510204081632 -180.05657783417936 z"/>
<path fill="#bababa" stroke="#bababa" d="M147.42857142857142 -269.373874788494 L157.46341463414632 -268.35748346408235 L165.15789473684208 -263.66323684090173 L168 -256.7783417935702 L168 309.3130287648053 L165.15789473684208 316.19792381213693 L157.46341463414632 320.89217043531755 L147.42857142857142 321.90856175972914 L-152.57142857142856 321.90856175972914 L-161.79310344827584 318.9434856175972 L-167.27999999999997 312.8953257191201 L-167.27999999999997 -260.3606387478849 L-161.79310344827584 -266.408798646362 L-152.57142857142856 -269.373874788494 z M64.0993088299529 -105.13677670490108 L-115.1391532219343 -105.13677670490108 L-121.88526592146172 -103.14487006489894 L-124.70022724198124 -98.37122483487803 L-124.70022724198124 238.6500742426614 L-122.03584658278712 243.16836297793066 L-121.88526592146171 243.4237194726823 L-121.5243962696247 243.53027248886892 L-115.1391532219343 245.41562611268446 L115.1391532219343 245.41562611268446 L121.88526592146171 243.4237194726823 L124.70022724198124 238.65007424266142 L124.70022724198124 -98.37122483487803 L121.88526592146172 -103.14487006489894 L115.1391532219343 -105.13677670490108 z M-27.7027027027027 -232.8724562125577 L-35.52631578947368 -243.10852176588213 L-47.61904761904761 -251.0409292541272 L-62.755102040816325 -255.67269458544837 L-79.16666666666666 -256.62247963207284 L-95.12987012987013 -253.82994923857865 L-108.87096774193547 -247.41285956006766 L-119 -238.24558859076623 L-124.27536231884058 -227.18720196892784 L-124.27536231884058 -215.60806029841558 L-119 -204.54967367657719 L-108.87096774193547 -195.38240270727576 L-95.12987012987013 -188.96531302876477 L-79.16666666666666 -186.17278263527058 L-62.755102040816325 -187.12256768189508 L-47.61904761904761 -191.7543330132162 L-35.52631578947368 -199.6867405014613 L-27.7027027027027 -209.92280605478572 L-25 -221.39763113367172 z M56.46645021645021 -254.10920227792806 L54.870129870129865 -253.82994923857865 L41.12903225806451 -247.41285956006766 L31 -238.24558859076623 L25.724637681159418 -227.18720196892784 L25.724637681159418 -215.60806029841558 L31 -204.54967367657719 L41.12903225806451 -195.38240270727576 L54.870129870129865 -188.96531302876477 L70.83333333333333 -186.17278263527058 L87.24489795918366 -187.12256768189508 L102.38095238095238 -191.7543330132162 L114.47368421052632 -199.6867405014613 L122.29729729729729 -209.92280605478572 L125 -221.39763113367172 L122.29729729729729 -232.8724562125577 L114.47368421052632 -243.10852176588213 L102.38095238095238 -251.0409292541272 L87.24489795918366 -255.67269458544837 L70.83333333333333 -256.62247963207284 z"/>
<path fill="#bababa" stroke="#bababa" d="M-47.61904761904761 -191.7543330132163 L-62.75510204081632 -187.12256768189513 L-62.75510204081632 -180.0565778341794 L-47.61904761904761 -184.68834316550056 z"/>
<path fill="#bababa" stroke="#bababa" d="M147.42857142857142 -262.30788494077825 L-152.57142857142856 -262.30788494077825 L-161.79310344827584 -259.3428087986463 L-167.27999999999997 -253.2946489001692 L-167.27999999999997 319.96131556683576 L-161.79310344827584 326.00947546531296 L-152.57142857142856 328.9745516074449 L147.42857142857142 328.9745516074449 L157.46341463414632 327.95816028303324 L165.15789473684208 323.2639136598526 L168 316.37901861252107 L168 -249.71235194585444 L165.15789473684208 -256.597246993186 L157.46341463414632 -261.29149361636667 z M63.84791082541202 -97.57529610829101 L115 -97.57529610829101 L121.36585365853658 -95.71133671742807 L124 -91.20676818950928 L124 245.61759729272418 L121.36585365853658 250.12216582064292 L115 251.98612521150588 L-115 251.98612521150588 L-121.36585365853658 250.12216582064292 L-124 245.61759729272418 L-124 -91.20676818950928 L-121.36585365853658 -95.71133671742807 L-115 -97.57529610829101 z M-124.27536231884058 -208.54207045069987 L-124.27536231884058 -220.12121212121207 L-119 -231.1795987430505 L-108.87096774193547 -240.34686971235192 L-95.12987012987013 -246.7639593908629 L-79.16666666666666 -249.5564897843571 L-62.755102040816325 -248.60670473773263 L-47.61904761904761 -243.97493940641147 L-35.52631578947368 -236.04253191816642 L-27.7027027027027 -225.80646636484198 L-25 -214.33164128595598 L-27.7027027027027 -202.85681620706998 L-35.52631578947368 -192.62075065374555 L-47.61904761904761 -184.6883431655005 L-62.755102040816325 -180.05657783417934 L-79.16666666666666 -179.10679278755487 L-95.12987012987013 -181.89932318104903 L-108.87096774193547 -188.31641285956002 L-119 -197.48368382886147 z M70.83333333333333 -249.5564897843571 L87.24489795918366 -248.60670473773263 L102.38095238095238 -243.97493940641147 L114.47368421052632 -236.04253191816642 L122.29729729729729 -225.80646636484198 L125 -214.33164128595598 L122.29729729729729 -202.85681620706998 L114.47368421052632 -192.62075065374555 L102.38095238095238 -184.6883431655005 L87.24489795918366 -180.05657783417934 L70.83333333333333 -179.10679278755487 L54.870129870129865 -181.89932318104903 L41.12903225806451 -188.31641285956002 L31 -197.48368382886147 L25.724637681159418 -208.54207045069987 L25.724637681159418 -220.12121212121207 L31 -231.1795987430505 L41.12903225806451 -240.34686971235192 L54.870129870129865 -246.7639593908629 z"/>
<path fill="#c4d3ac" stroke="#c4d3ac" d="M-25.000000000000007 -228.46362098138744 L-25.000000000000007 -157.8037225042301 L-27.70270270270271 -146.3288974253441 L-27.702702702702705 -216.98879590250144 z"/>
<path fill="#c4d3ac" stroke="#c4d3ac" d="M-27.702702702702695 -239.93844606027344 L-27.702702702702695 -169.2785475831161 L-24.99999999999999 -157.8037225042301 L-24.99999999999999 -228.46362098138744 z"/>
<path fill="#c4d3ac" stroke="#c4d3ac" d="M-35.52631578947366 -250.17451161359787 L-35.526315789473664 -179.51461313644052 L-27.702702702702677 -169.2785475831161 L-27.702702702702688 -239.93844606027344 z"/>
<path fill="#c4d3ac" stroke="#c4d3ac" d="M-47.6190476190476 -258.10691910184295 L-47.6190476190476 -187.4470206246856 L-35.526315789473585 -179.51461313644052 L-35.52631578947361 -250.17451161359784 z"/>
<path fill="#c4d3ac" stroke="#c4d3ac" d="M-62.75510204081632 -262.7386844331641 L-62.75510204081632 -192.0787859560068 L-47.61904761904761 -187.44702062468565 L-47.61904761904761 -258.10691910184295 z"/>
<path fill="#c4d3ac" stroke="#c4d3ac" d="M-119.00000000000004 -245.31157843848194 L-119.00000000000003 -174.65167996132462 L-108.87096774193549 -183.81895093062604 L-108.87096774193552 -254.47884940778334 z"/>
<path fill="#c4d3ac" stroke="#c4d3ac" d="M-95.12987012987013 -260.89593908629445 L-95.12987012987013 -190.23604060913706 L-79.16666666666664 -193.02857100263125 L-79.16666666666664 -263.68846947978864 z"/>
<path fill="#c4d3ac" stroke="#c4d3ac" d="M-108.87096774193547 -254.4788494077835 L-108.87096774193547 -183.81895093062607 L-95.12987012987011 -190.23604060913706 L-95.12987012987011 -260.8959390862945 z"/>
<path fill="#c4d3ac" stroke="#c4d3ac" d="M-79.16666666666666 -263.68846947978864 L-79.16666666666666 -193.02857100263125 L-62.75510204081632 -192.07878595600675 L-62.75510204081632 -262.73868443316417 z"/>
<path fill="#c4d3ac" stroke="#c4d3ac" d="M-118.99999999999999 -211.61566352429293 L-118.99999999999999 -140.95576504713557 L-124.27536231884056 -152.01415166897397 L-124.27536231884055 -222.67405014613132 z"/>
<path fill="#c4d3ac" stroke="#c4d3ac" d="M-124.27536231884058 -222.67405014613135 L-124.27536231884058 -152.014151668974 L-124.27536231884058 -163.59329333948622 L-124.27536231884058 -234.25319181664358 z"/>
<path fill="#c4d3ac" stroke="#c4d3ac" d="M-124.27536231884059 -234.25319181664358 L-124.27536231884058 -163.59329333948622 L-119.00000000000001 -174.6516799613246 L-119 -245.31157843848197 z"/>
<path fill="#c4d3ac" stroke="#c4d3ac" d="M-108.87096774193544 -202.4483925549915 L-108.87096774193544 -131.78849407783414 L-118.99999999999997 -140.95576504713557 L-118.99999999999999 -211.61566352429296 z"/>
<path fill="#c4d3ac" stroke="#c4d3ac" d="M-95.12987012987011 -196.03130287648057 L-95.12987012987011 -125.37140439932317 L-108.87096774193547 -131.78849407783417 L-108.87096774193547 -202.44839255499156 z"/>
<path fill="#c4d3ac" stroke="#c4d3ac" d="M-79.16666666666664 -193.23877248298638 L-79.16666666666664 -122.578874005829 L-95.12987012987013 -125.37140439932318 L-95.12987012987013 -196.03130287648057 z"/>
<path fill="#c4d3ac" stroke="#c4d3ac" d="M-62.75510204081632 -194.18855752961082 L-62.75510204081632 -123.52865905245349 L-79.16666666666666 -122.57887400582902 L-79.16666666666666 -193.23877248298635 z"/>
<path fill="#c4d3ac" stroke="#c4d3ac" d="M-27.702702702702712 -216.98879590250147 L-27.702702702702716 -146.32889742534408 L-35.526315789473706 -136.09283187201964 L-35.5263157894737 -206.75273034917703 z"/>
<path fill="#c4d3ac" stroke="#c4d3ac" d="M-47.61904761904761 -198.820322860932 L-47.61904761904761 -128.16042438377463 L-62.75510204081632 -123.52865905245348 L-62.75510204081632 -194.18855752961085 z"/>
<path fill="#c4d3ac" stroke="#c4d3ac" d="M-35.52631578947369 -206.75273034917703 L-35.52631578947369 -136.09283187201967 L-47.619047619047684 -128.1604243837746 L-47.619047619047656 -198.82032286093192 z"/>
<path fill="#c4d3ac" stroke="#c4d3ac" d="M-25 -228.46362098138744 L-27.7027027027027 -216.98879590250144 L-35.52631578947368 -206.75273034917703 L-47.61904761904761 -198.82032286093198 L-62.755102040816325 -194.18855752961082 L-79.16666666666666 -193.23877248298632 L-95.12987012987013 -196.0313028764805 L-108.87096774193547 -202.44839255499153 L-119 -211.61566352429293 L-124.27536231884058 -222.67405014613132 L-124.27536231884058 -234.25319181664355 L-119 -245.31157843848197 L-108.87096774193547 -254.4788494077834 L-95.12987012987013 -260.8959390862944 L-79.16666666666666 -263.6884694797886 L-62.755102040816325 -262.7386844331641 L-47.61904761904761 -258.10691910184295 L-35.52631578947368 -250.1745116135979 L-27.7027027027027 -239.93844606027344 z"/>
<path fill="#c4d3ac" stroke="#c4d3ac" d="M-25 -157.80372250423008 L-27.7027027027027 -169.27854758311608 L-35.52631578947368 -179.51461313644052 L-47.61904761904761 -187.44702062468556 L-62.755102040816325 -192.07878595600673 L-79.16666666666666 -193.02857100263122 L-95.12987012987013 -190.23604060913704 L-108.87096774193547 -183.81895093062602 L-119 -174.65167996132462 L-124.27536231884058 -163.5932933394862 L-124.27536231884058 -152.014151668974 L-119 -140.95576504713557 L-108.87096774193547 -131.78849407783417 L-95.12987012987013 -125.37140439932317 L-79.16666666666666 -122.57887400582896 L-62.755102040816325 -123.52865905245345 L-47.61904761904761 -128.1604243837746 L-35.52631578947368 -136.09283187201967 L-27.7027027027027 -146.32889742534408 z"/>
<path fill="#c4d3ac" stroke="#c4d3ac" d="M124.99999999999999 -228.46362098138744 L124.99999999999999 -157.8037225042301 L122.29729729729728 -146.3288974253441 L122.29729729729729 -216.98879590250144 z"/>
<path fill="#c4d3ac" stroke="#c4d3ac" d="M122.29729729729729 -239.93844606027344 L122.29729729729729 -169.2785475831161 L125 -157.8037225042301 L125 -228.46362098138744 z"/>
<path fill="#c4d3ac" stroke="#c4d3ac" d="M114.47368421052633 -250.17451161359787 L114.47368421052633 -179.51461313644052 L122.29729729729732 -169.2785475831161 L122.2972972972973 -239.93844606027344 z"/>
<path fill="#c4d3ac" stroke="#c4d3ac" d="M102.3809523809524 -258.10691910184295 L102.3809523809524 -187.4470206246856 L114.4736842105264 -179.51461313644052 L114.47368421052639 -250.17451161359784 z"/>
<path fill="#c4d3ac" stroke="#c4d3ac" d="M87.24489795918366 -262.73868443316417 L87.24489795918366 -192.07878595600684 L102.38095238095237 -187.44702062468568 L102.38095238095237 -258.10691910184295 z"/>
<path fill="#c4d3ac" stroke="#c4d3ac" d="M30.999999999999954 -245.31157843848194 L30.999999999999964 -174.65167996132462 L41.1290322580645 -183.81895093062604 L41.12903225806447 -254.47884940778334 z"/>
<path fill="#c4d3ac" stroke="#c4d3ac" d="M54.870129870129865 -260.89593908629445 L54.870129870129865 -190.23604060913706 L70.83333333333333 -193.02857100263125 L70.83333333333333 -263.68846947978864 z"/>
<path fill="#c4d3ac" stroke="#c4d3ac" d="M41.12903225806451 -254.47884940778343 L41.12903225806451 -183.81895093062604 L54.870129870129865 -190.23604060913704 L54.870129870129865 -260.89593908629445 z"/>
<path fill="#c4d3ac" stroke="#c4d3ac" d="M70.83333333333333 -263.6884694797886 L70.83333333333333 -193.02857100263125 L87.24489795918366 -192.07878595600678 L87.24489795918366 -262.7386844331641 z"/>
<path fill="#c4d3ac" stroke="#c4d3ac" d="M31.00000000000001 -211.61566352429293 L31.000000000000004 -140.95576504713557 L25.72463768115943 -152.01415166897397 L25.72463768115944 -222.67405014613132 z"/>
<path fill="#c4d3ac" stroke="#c4d3ac" d="M25.724637681159418 -222.67405014613135 L25.724637681159418 -152.014151668974 L25.724637681159418 -163.59329333948622 L25.724637681159418 -234.25319181664358 z"/>
<path fill="#c4d3ac" stroke="#c4d3ac" d="M25.724637681159404 -234.25319181664358 L25.72463768115941 -163.59329333948622 L30.99999999999998 -174.6516799613246 L30.99999999999999 -245.31157843848197 z"/>
<path fill="#c4d3ac" stroke="#c4d3ac" d="M41.12903225806454 -202.4483925549915 L41.12903225806455 -131.78849407783414 L31.000000000000014 -140.95576504713557 L31.000000000000007 -211.61566352429296 z"/>
<path fill="#c4d3ac" stroke="#c4d3ac" d="M54.870129870129865 -196.0313028764806 L54.870129870129865 -125.3714043993232 L41.12903225806451 -131.78849407783417 L41.12903225806451 -202.44839255499159 z"/>
<path fill="#c4d3ac" stroke="#c4d3ac" d="M70.83333333333333 -193.23877248298638 L70.83333333333333 -122.57887400582901 L54.870129870129865 -125.3714043993232 L54.870129870129865 -196.03130287648057 z"/>
<path fill="#c4d3ac" stroke="#c4d3ac" d="M87.24489795918366 -194.18855752961085 L87.24489795918366 -123.52865905245348 L70.83333333333333 -122.578874005829 L70.83333333333333 -193.23877248298638 z"/>
<path fill="#c4d3ac" stroke="#c4d3ac" d="M122.29729729729728 -216.98879590250147 L122.29729729729728 -146.32889742534408 L114.47368421052629 -136.09283187201964 L114.47368421052629 -206.75273034917703 z"/>
<path fill="#c4d3ac" stroke="#c4d3ac" d="M102.38095238095237 -198.820322860932 L102.38095238095237 -128.16042438377465 L87.24489795918366 -123.52865905245349 L87.24489795918366 -194.18855752961085 z"/>
<path fill="#c4d3ac" stroke="#c4d3ac" d="M114.4736842105263 -206.75273034917703 L114.4736842105263 -136.09283187201967 L102.38095238095231 -128.1604243837746 L102.38095238095234 -198.82032286093192 z"/>
<path fill="#c4d3ac" stroke="#c4d3ac" d="M125 -228.46362098138744 L122.29729729729729 -216.98879590250144 L114.47368421052632 -206.75273034917703 L102.38095238095238 -198.82032286093198 L87.24489795918366 -194.18855752961082 L70.83333333333333 -193.23877248298632 L54.870129870129865 -196.0313028764805 L41.12903225806451 -202.44839255499153 L31 -211.61566352429293 L25.724637681159418 -222.67405014613132 L25.724637681159418 -234.25319181664355 L31 -245.31157843848197 L41.12903225806451 -254.4788494077834 L54.870129870129865 -260.8959390862944 L70.83333333333333 -263.6884694797886 L87.24489795918366 -262.7386844331641 L102.38095238095238 -258.10691910184295 L114.47368421052632 -250.1745116135979 L122.29729729729729 -239.93844606027344 z"/>
<path fill="#c4d3ac" stroke="#c4d3ac" d="M125 -157.80372250423008 L122.29729729729729 -169.27854758311608 L114.47368421052632 -179.51461313644052 L102.38095238095238 -187.44702062468556 L87.24489795918366 -192.07878595600673 L70.83333333333333 -193.02857100263122 L54.870129870129865 -190.23604060913704 L41.12903225806451 -183.81895093062602 L31 -174.65167996132462 L25.724637681159418 -163.5932933394862 L25.724637681159418 -152.014151668974 L31 -140.95576504713557 L41.12903225806451 -131.78849407783417 L54.870129870129865 -125.37140439932317 L70.83333333333333 -122.57887400582896 L87.24489795918366 -123.52865905245345 L102.38095238095238 -128.1604243837746 L114.47368421052632 -136.09283187201967 L122.29729729729729 -146.32889742534408 z"/>
</svg>