<?xml version="1.0" encoding="UTF-8"?>
<!-- Generated by jsxcad -->
<!DOCTYPE svg PUBLIC "-//W3C//DTD SVG 1.1 Tiny//EN" "http://www.w3.org/Graphics/SVG/1.1/DTD/svg11-tiny.dtd">
<svg baseProfile="tiny" height="606.7648915551457mm" width="545.7278260869568mm" viewBox="-167.2800000000001 -352.3157479494471 545.7278260869568 606.7648915551457" version="1.1" stroke="black" stroke-width=".1" fill="none" xmlns="http://www.w3.org/2000/svg">
<path fill="#bababa" stroke="#bababa" d="M159.9985625988213 -125.10741771737355 L60 -125.10741771737355 L60 -132.1734075650893 L168 -132.1734075650893 L168 -125.10741771737355 z"/>
<path fill="#bababa" stroke="#bababa" d="M60 299.4712624856721 L60 306.53725233338787 L60 313.6133944653676 L60 306.54740461765186 z"/>
<path fill="#bababa" stroke="#bababa" d="M60 -132.17340756508924 L60 -125.1074177173735 L60 -118.0312755853938 L60 -125.09726543310954 z"/>
<path fill="#bababa" stroke="#bababa" d="M60 306.54740461765186 L60 313.6133944653676 L168 313.6133944653676 L168 306.54740461765186 z"/>
<path fill="#bababa" stroke="#bababa" d="M122.29729729729726 -194.99807487199 L114.47368421052629 -184.76200931866558 L114.47368421052629 -177.69601947094984 L122.29729729729726 -187.9320850242743 z"/>
<path fill="#bababa" stroke="#bababa" d="M58.06277056277056 -232.39773428676614 L54.870129870129865 -231.8392282080673 L54.870129870129865 -238.90521805578305 L70.83333333333331 -241.69774844927724 L70.83333333333331 -234.6317586015615 z"/>
<path fill="#bababa" stroke="#bababa" d="M41.12903225806451 -232.48812837727198 L54.87012987012986 -238.90521805578297 L54.87012987012986 -231.83922820806725 L41.12903225806451 -225.42213852955626 z"/>
<path fill="#bababa" stroke="#bababa" d="M125 -206.47289995087604 L125 -199.40691010316027 L122.2972972972973 -210.88173518204627 L122.29729729729729 -217.947725029762 z"/>
<path fill="#bababa" stroke="#bababa" d="M39.10322580645165 -175.2251358706246 L41.12903225806454 -173.39168167676434 L41.12903225806453 -180.4576715244801 L31.000000000000043 -189.62494249378153 L31.000000000000018 -182.55895264606576 z"/>
<path fill="#bababa" stroke="#bababa" d="M52.12191034771679 -168.2580099339556 L54.87012987012986 -166.9745919982534 L54.87012987012986 -174.04058184596911 L41.12903225806451 -180.45767152448013 L41.12903225806451 -173.3916816767644 z"/>
<path fill="#bababa" stroke="#bababa" d="M31.000000000000018 -189.6249424937815 L25.72463768115944 -200.6833291156199 L25.724637681159436 -193.61733926790416 L31.000000000000014 -182.55895264606576 z"/>
<path fill="#bababa" stroke="#bababa" d="M25.724637681159418 -200.58961249540127 L25.724637681159418 -193.61733926790419 L25.724637681159418 -200.68332911561993 L25.724637681159418 -212.26247078613216 L25.724637681159418 -205.1964809384164 z"/>
<path fill="#bababa" stroke="#bababa" d="M33.025806451612844 -218.08832175411507 L30.99999999999996 -216.25486756025478 L30.99999999999998 -223.32085740797052 L41.1290322580645 -232.48812837727198 L41.12903225806448 -225.42213852955624 z"/>
<path fill="#bababa" stroke="#bababa" d="M114.47368421052634 -221.1178007353707 L114.47368421052634 -228.18379058308642 L122.29729729729732 -217.947725029762 L122.29729729729732 -210.88173518204627 z"/>
<path fill="#bababa" stroke="#bababa" d="M72.47448979591836 -241.60276994461472 L87.24489795918366 -240.7479634026527 L87.24489795918366 -233.68197355493697 L70.83333333333331 -234.63175860156144 L70.83333333333331 -241.69774844927716 z"/>
<path fill="#bababa" stroke="#bababa" d="M103.59022556390983 -235.32295732250697 L114.47368421052633 -228.18379058308645 L114.4736842105264 -221.11780073537068 L102.38095238095241 -229.05020822361578 L102.38095238095241 -236.1161980713315 z"/>
<path fill="#bababa" stroke="#bababa" d="M102.38095238095237 -176.82960183042061 L87.24489795918366 -172.19783649909945 L87.24489795918366 -165.13184665138365 L102.38095238095237 -169.76361198270482 z"/>
<path fill="#bababa" stroke="#bababa" d="M70.83333333333331 -171.24805145247493 L54.870129870129865 -174.04058184596911 L54.870129870129865 -166.97459199825337 L70.83333333333331 -164.18206160475918 z"/>
<path fill="#bababa" stroke="#bababa" d="M26.22120674180344 -206.23740520582325 L25.7246376811594 -205.19648093841636 L25.72463768115941 -212.26247078613216 L30.999999999999982 -223.32085740797052 L30.999999999999986 -216.25486756025478 z"/>
<path fill="#bababa" stroke="#bababa" d="M124.45945945945945 -197.11194508738308 L124.99999999999999 -199.40691010316027 L124.99999999999999 -206.472899950876 L122.29729729729729 -194.99807487199 L122.29729729729729 -187.93208502427427 z"/>
<path fill="#bababa" stroke="#bababa" d="M-27.70270270270269 -210.88173518204627 L-27.70270270270269 -217.94772502976198 L-24.999999999999993 -206.47289995087604 L-24.99999999999999 -199.40691010316027 z"/>
<path fill="#bababa" stroke="#bababa" d="M-79.16666666666666 -241.6977484492772 L-62.75510204081632 -240.74796340265274 L-62.75510204081632 -233.681973554937 L-79.16666666666666 -234.63175860156147 z"/>
<path fill="#bababa" stroke="#bababa" d="M-91.93722943722942 -232.39773428676614 L-95.12987012987011 -231.8392282080673 L-95.12987012987011 -238.90521805578305 L-79.16666666666666 -241.69774844927724 L-79.16666666666666 -234.6317586015615 z"/>
<path fill="#bababa" stroke="#bababa" d="M-62.755102040816325 -240.74796340265272 L-47.61904761904761 -236.11619807133155 L-47.61904761904761 -229.05020822361584 L-62.755102040816325 -233.681973554937 z"/>
<path fill="#bababa" stroke="#bababa" d="M-108.87096774193546 -232.488128377272 L-95.12987012987011 -238.905218055783 L-95.12987012987011 -231.83922820806725 L-108.87096774193546 -225.42213852955626 z"/>
<path fill="#bababa" stroke="#bababa" d="M-116.9741935483871 -218.08832175411507 L-119 -216.2548675602548 L-119.00000000000001 -223.32085740797052 L-108.87096774193553 -232.48812837727195 L-108.87096774193552 -225.42213852955624 z"/>
<path fill="#bababa" stroke="#bababa" d="M-124.27536231884059 -212.26247078613213 L-119.00000000000001 -223.3208574079705 L-119 -216.2548675602548 L-124.27536231884059 -205.19648093841639 z"/>
<path fill="#bababa" stroke="#bababa" d="M-124.27536231884058 -200.68332911561993 L-124.27536231884058 -212.26247078613216 L-124.27536231884058 -205.1964809384164 L-124.27536231884058 -193.61733926790419 z"/>
<path fill="#bababa" stroke="#bababa" d="M-97.87808965228318 -168.25800993395558 L-95.12987012987011 -166.97459199825337 L-95.12987012987011 -174.04058184596911 L-108.87096774193546 -180.4576715244801 L-108.87096774193546 -173.3916816767644 z"/>
<path fill="#bababa" stroke="#bababa" d="M87.24489795918366 -172.19783649909945 L70.83333333333333 -171.24805145247498 L70.83333333333333 -164.18206160475918 L87.24489795918366 -165.13184665138368 z"/>
<path fill="#bababa" stroke="#bababa" d="M-33.96159317211944 -219.0705876247058 L-35.52631578947366 -221.11780073537074 L-35.52631578947365 -228.18379058308645 L-27.702702702702677 -217.94772502976198 L-27.70270270270268 -210.88173518204627 z"/>
<path fill="#bababa" stroke="#bababa" d="M-110.89677419354834 -175.2251358706246 L-108.87096774193544 -173.39168167676434 L-108.87096774193546 -180.4576715244801 L-118.99999999999994 -189.62494249378153 L-118.99999999999997 -182.55895264606576 z"/>
<path fill="#bababa" stroke="#bababa" d="M-37.944862155388535 -176.10953797330086 L-35.52631578947374 -177.69601947094984 L-35.52631578947374 -184.76200931866552 L-47.61904761904767 -176.82960183042047 L-47.61904761904764 -169.76361198270482 z"/>
<path fill="#bababa" stroke="#bababa" d="M-64.39625850340134 -172.10285799443696 L-79.16666666666666 -171.24805145247493 L-79.16666666666666 -164.18206160475918 L-62.75510204081632 -165.13184665138365 L-62.75510204081632 -172.1978364990994 z"/>
<path fill="#bababa" stroke="#bababa" d="M-124.27536231884056 -193.61733926790416 L-118.99999999999999 -182.55895264606576 L-118.99999999999999 -189.6249424937815 L-124.27536231884056 -200.6833291156199 z"/>
<path fill="#bababa" stroke="#bababa" d="M110.8728740976436 -175.3340144661481 L114.47368421052627 -177.69601947094986 L114.47368421052626 -184.76200931866555 L102.38095238095231 -176.82960183042053 L102.38095238095237 -169.76361198270482 z"/>
<path fill="#bababa" stroke="#bababa" d="M-46.40977443609016 -235.32295732250697 L-35.52631578947366 -228.18379058308645 L-35.52631578947359 -221.11780073537068 L-47.61904761904758 -229.05020822361578 L-47.619047619047585 -236.1161980713315 z"/>
<path fill="#bababa" stroke="#bababa" d="M-47.61904761904761 -176.82960183042064 L-62.75510204081632 -172.19783649909945 L-62.75510204081632 -165.1318466513837 L-47.61904761904761 -169.76361198270487 z"/>
<path fill="#bababa" stroke="#bababa" d="M-25.540540540540544 -197.11194508738308 L-25.000000000000007 -199.40691010316027 L-25.000000000000004 -206.47289995087604 L-27.702702702702705 -194.99807487199004 L-27.70270270270271 -187.9320850242743 z"/>
<path fill="#bababa" stroke="#bababa" d="M-79.16666666666666 -171.24805145247495 L-95.12987012987013 -174.04058184596914 L-95.12987012987013 -166.9745919982534 L-79.16666666666666 -164.1820616047592 z"/>
<path fill="#bababa" stroke="#bababa" d="M147.42857142857142 343.89928279024065 L-152.57142857142856 343.89928279024065 L-152.57142857142856 336.8332929425249 L147.42857142857142 336.8332929425249 z"/>
<path fill="#bababa" stroke="#bababa" d="M157.4634146341463 342.882891465829 L147.4285714285714 343.89928279024065 L147.4285714285714 336.8332929425249 L157.4634146341463 335.81690161811326 z"/>
<path fill="#bababa" stroke="#bababa" d="M165.15789473684208 338.18864484264833 L157.46341463414635 342.88289146582895 L157.46341463414635 335.8169016181132 L165.1578947368421 331.1226549949326 z"/>
<path fill="#bababa" stroke="#bababa" d="M168 331.30374979531683 L165.15789473684208 338.1886448426484 L165.15789473684208 331.12265499493265 L168 324.23775994760103 z"/>
<path fill="#bababa" stroke="#bababa" d="M168 310.27307711313665 L168 313.6133944653676 L168 331.30374979531683 L168 324.2377599476011 L168 306.54740461765186 z"/>
<path fill="#bababa" stroke="#bababa" d="M168 -125.17005332999418 L168 -132.17340756508924 L168 -241.8536106107745 L168 -234.78762076305878 L168 -125.1074177173735 z"/>
<path fill="#bababa" stroke="#bababa" d="M168 -121.37159293762474 L168 -118.0312755853938 L168 306.53725233338787 L168 299.4712624856721 L168 -125.09726543310954 z"/>
<path fill="#bababa" stroke="#bababa" d="M168 303.19693498115697 L168 306.53725233338787 L60 306.53725233338787 L60 299.4712624856721 L168 299.4712624856721 z"/>
<path fill="#bababa" stroke="#bababa" d="M165.15789473684208 -241.6725158103903 L168 -234.78762076305875 L168 -241.85361061077447 L165.15789473684208 -248.73850565810602 z"/>
<path fill="#bababa" stroke="#bababa" d="M157.46341463414632 -246.36676243357098 L165.15789473684214 -241.6725158103903 L165.15789473684214 -248.73850565810605 L157.46341463414637 -253.43275228128667 z"/>
<path fill="#bababa" stroke="#bababa" d="M147.4285714285714 -247.38315375798265 L157.4634146341463 -246.366762433571 L157.4634146341463 -253.43275228128684 L147.4285714285714 -254.44914360569845 z"/>
<path fill="#bababa" stroke="#bababa" d="M-152.57142857142856 -247.38315375798265 L147.42857142857142 -247.38315375798265 L147.42857142857142 -254.44914360569842 L-152.57142857142856 -254.44914360569842 z"/>
<path fill="#bababa" stroke="#bababa" d="M-161.79310344827582 -244.41807761585062 L-152.57142857142853 -247.3831537579826 L-152.57142857142853 -254.44914360569842 L-161.79310344827582 -251.48406746356645 z"/>
<path fill="#bababa" stroke="#bababa" d="M-167.27999999999997 -238.36991771737348 L-161.79310344827587 -244.41807761585056 L-161.79310344827587 -251.48406746356628 L-167.28000000000003 -245.43590756508917 z"/>
<path fill="#bababa" stroke="#bababa" d="M-167.27999999999997 334.88604674963153 L-167.27999999999997 -238.36991771737348 L-167.27999999999997 -245.43590756508922 L-167.27999999999997 327.8200569019158 z"/>
<path fill="#bababa" stroke="#bababa" d="M-161.79310344827584 340.93420664810867 L-167.27999999999997 334.88604674963153 L-167.27999999999997 327.8200569019158 L-161.79310344827584 333.86821680039293 z"/>
<path fill="#bababa" stroke="#bababa" d="M-152.57142857142853 343.89928279024065 L-161.79310344827582 340.93420664810867 L-161.79310344827582 333.86821680039293 L-152.57142857142853 336.8332929425249 z"/>
<path fill="#bababa" stroke="#bababa" d="M100.67125643657272 -229.5733901692944 L87.24489795918366 -233.681973554937 L87.24489795918366 -240.74796340265274 L102.38095238095237 -236.11619807133158 L102.38095238095237 -229.05020822361584 z"/>
<path fill="#bababa" stroke="#bababa" d="M158.1226156849312 -125.09726543310953 L168 -125.09726543310953 L168 299.4712624856721 L60 299.4712624856721 L60 306.5474046176518 L168 306.5474046176518 L168 324.23775994760103 L165.15789473684208 331.12265499493265 L157.46341463414632 335.81690161811326 L147.42857142857142 336.8332929425249 L-152.57142857142856 336.8332929425249 L-161.79310344827584 333.8682168003929 L-167.27999999999997 327.8200569019158 L-167.27999999999997 -245.4359075650892 L-161.79310344827584 -251.48406746356633 L-152.57142857142856 -254.4491436056983 L147.42857142857142 -254.4491436056983 L157.46341463414632 -253.43275228128667 L165.15789473684208 -248.73850565810605 L168 -241.8536106107745 L168 -132.1734075650892 L60 -132.1734075650892 L60 -125.09726543310953 z M-49.13265306122449 -176.3664252972884 L-47.61904761904761 -176.82960183042053 L-35.52631578947368 -184.7620093186656 L-27.7027027027027 -194.99807487199 L-25 -206.472899950876 L-27.7027027027027 -217.947725029762 L-35.52631578947368 -228.18379058308642 L-47.61904761904761 -236.1161980713315 L-62.755102040816325 -240.74796340265266 L-79.16666666666666 -241.69774844927716 L-95.12987012987013 -238.90521805578294 L-108.87096774193547 -232.48812837727198 L-119 -223.32085740797052 L-124.27536231884058 -212.26247078613213 L-124.27536231884058 -200.68332911561987 L-119 -189.6249424937815 L-108.87096774193547 -180.45767152448008 L-95.12987012987013 -174.0405818459691 L-79.16666666666666 -171.24805145247487 L-62.755102040816325 -172.19783649909934 z M110.87287409764367 -182.40000431386386 L114.47368421052632 -184.7620093186656 L122.29729729729729 -194.99807487199 L125 -206.472899950876 L122.29729729729729 -217.947725029762 L114.47368421052632 -228.18379058308642 L102.38095238095238 -236.1161980713315 L87.24489795918366 -240.74796340265266 L70.83333333333333 -241.69774844927716 L54.870129870129865 -238.90521805578294 L41.12903225806451 -232.48812837727198 L31 -223.32085740797052 L25.724637681159418 -212.26247078613213 L25.724637681159418 -200.68332911561987 L31 -189.6249424937815 L41.12903225806451 -180.45767152448008 L54.870129870129865 -174.0405818459691 L70.83333333333333 -171.24805145247487 L87.24489795918366 -172.19783649909934 L102.38095238095238 -176.82960183042053 z"/>
<path fill="#bababa" stroke="#bababa" d="M83.92667163017492 -118.03127558539386 L168 -118.03127558539386 L168 -125.09726543310958 L60 -125.09726543310958 L60 -118.03127558539386 z"/>
<path fill="#bababa" stroke="#bababa" d="M-28.485064011379812 -193.97446831665758 L-35.526315789473706 -184.76200931866558 L-35.526315789473706 -177.69601947094984 L-27.70270270270273 -187.9320850242743 L-27.702702702702734 -194.99807487199 z"/>
<path fill="#bababa" stroke="#bababa" d="M166.37879372917294 -125.10741771737348 L168 -125.10741771737348 L168 -234.78762076305873 L165.15789473684208 -241.6725158103903 L157.46341463414632 -246.36676243357095 L147.42857142857142 -247.3831537579826 L-152.57142857142856 -247.3831537579826 L-161.79310344827584 -244.41807761585062 L-167.27999999999997 -238.36991771737348 L-167.27999999999997 334.88604674963153 L-161.79310344827584 340.9342066481086 L-152.57142857142856 343.89928279024065 L147.42857142857142 343.89928279024065 L157.46341463414632 342.882891465829 L165.15789473684208 338.1886448426484 L168 331.30374979531683 L168 313.61339446536755 L60 313.61339446536755 L60 306.53725233338787 L168 306.53725233338787 L168 -118.03127558539379 L60 -118.03127558539379 L60 -125.10741771737348 z M-82.35930735930735 -164.74056768345798 L-95.12987012987013 -166.97459199825335 L-108.87096774193547 -173.39168167676434 L-119 -182.55895264606576 L-124.27536231884058 -193.61733926790416 L-124.27536231884058 -205.1964809384164 L-119 -216.2548675602548 L-108.87096774193547 -225.4221385295562 L-95.12987012987013 -231.83922820806723 L-79.16666666666666 -234.63175860156142 L-62.755102040816325 -233.68197355493695 L-47.61904761904761 -229.05020822361575 L-35.52631578947368 -221.1178007353707 L-27.7027027027027 -210.88173518204627 L-25 -199.40691010316027 L-27.7027027027027 -187.9320850242743 L-35.52631578947368 -177.69601947094984 L-47.61904761904761 -169.76361198270482 L-62.755102040816325 -165.13184665138363 L-79.16666666666666 -164.18206160475916 z M25.724637681159418 -198.95086006555567 L25.724637681159418 -205.1964809384164 L31 -216.2548675602548 L41.12903225806451 -225.4221385295562 L54.870129870129865 -231.83922820806723 L70.83333333333333 -234.63175860156142 L87.24489795918366 -233.68197355493695 L102.38095238095238 -229.05020822361575 L114.47368421052632 -221.1178007353707 L122.29729729729729 -210.88173518204627 L125 -199.40691010316027 L122.29729729729729 -187.9320850242743 L114.47368421052632 -177.69601947094984 L102.38095238095238 -169.76361198270482 L87.24489795918366 -165.13184665138363 L70.83333333333333 -164.18206160475916 L54.870129870129865 -166.97459199825335 L41.12903225806451 -173.39168167676434 L31 -182.55895264606576 L25.724637681159418 -193.61733926790416 z"/>
<path fill="#c4d3ac" stroke="#c4d3ac" d="M-25 -213.53888979859175 L-25.000000000000004 -142.8789913214344 L-27.70270270270271 -131.4041662425484 L-27.702702702702705 -202.06406471970573 z"/>
<path fill="#c4d3ac" stroke="#c4d3ac" d="M-27.702702702702698 -225.01371487747772 L-27.702702702702695 -154.35381640032037 L-24.999999999999993 -142.8789913214344 L-24.999999999999996 -213.53888979859175 z"/>
<path fill="#c4d3ac" stroke="#c4d3ac" d="M-35.526315789473664 -235.2497804308022 L-35.526315789473664 -164.5898819536448 L-27.702702702702673 -154.35381640032037 L-27.70270270270268 -225.01371487747775 z"/>
<path fill="#c4d3ac" stroke="#c4d3ac" d="M-47.61904761904754 -243.1821879190472 L-47.61904761904752 -172.52228944188985 L-35.52631578947361 -164.5898819536448 L-35.52631578947363 -235.24978043080216 z"/>
<path fill="#c4d3ac" stroke="#c4d3ac" d="M-62.75510204081632 -247.81395325036843 L-62.75510204081632 -177.1540547732111 L-47.61904761904761 -172.52228944188994 L-47.61904761904761 -243.18218791904724 z"/>
<path fill="#c4d3ac" stroke="#c4d3ac" d="M-119.00000000000003 -230.38684725568623 L-119.00000000000004 -159.72694877852894 L-108.8709677419355 -168.8942197478303 L-108.87096774193554 -239.55411822498766 z"/>
<path fill="#c4d3ac" stroke="#c4d3ac" d="M-95.12987012987013 -245.97120790349877 L-95.12987012987013 -175.31130942634144 L-79.16666666666664 -178.10383981983563 L-79.16666666666664 -248.76373829699295 z"/>
<path fill="#c4d3ac" stroke="#c4d3ac" d="M-108.87096774193547 -239.55411822498772 L-108.87096774193547 -168.8942197478304 L-95.12987012987011 -175.31130942634138 L-95.12987012987011 -245.97120790349874 z"/>
<path fill="#c4d3ac" stroke="#c4d3ac" d="M-79.16666666666666 -248.76373829699293 L-79.16666666666666 -178.1038398198356 L-62.75510204081632 -177.15405477321113 L-62.75510204081632 -247.81395325036846 z"/>
<path fill="#c4d3ac" stroke="#c4d3ac" d="M-118.99999999999997 -196.69093234149722 L-118.99999999999999 -126.0310338643399 L-124.27536231884058 -137.08942048617828 L-124.27536231884056 -207.7493189633356 z"/>
<path fill="#c4d3ac" stroke="#c4d3ac" d="M-124.27536231884058 -207.74931896333564 L-124.27536231884058 -137.08942048617828 L-124.27536231884058 -148.6685621566905 L-124.27536231884058 -219.32846063384787 z"/>
<path fill="#c4d3ac" stroke="#c4d3ac" d="M-124.27536231884058 -219.32846063384787 L-124.27536231884059 -148.6685621566905 L-119 -159.7269487785289 L-119.00000000000001 -230.38684725568626 z"/>
<path fill="#c4d3ac" stroke="#c4d3ac" d="M-108.87096774193544 -187.52366137219582 L-108.87096774193544 -116.86376289503846 L-118.99999999999996 -126.0310338643399 L-118.99999999999999 -196.69093234149724 z"/>
<path fill="#c4d3ac" stroke="#c4d3ac" d="M-95.12987012987011 -181.10657169368483 L-95.12987012987011 -110.4466732165275 L-108.87096774193547 -116.86376289503849 L-108.87096774193547 -187.52366137219582 z"/>
<path fill="#c4d3ac" stroke="#c4d3ac" d="M-79.16666666666664 -178.31404130019067 L-79.16666666666664 -107.6541428230333 L-95.12987012987013 -110.44667321652749 L-95.12987012987013 -181.10657169368486 z"/>
<path fill="#c4d3ac" stroke="#c4d3ac" d="M-62.75510204081632 -179.26382634681516 L-62.75510204081632 -108.60392786965778 L-79.16666666666666 -107.6541428230333 L-79.16666666666666 -178.3140413001907 z"/>
<path fill="#c4d3ac" stroke="#c4d3ac" d="M-27.702702702702737 -202.06406471970575 L-27.702702702702727 -131.4041662425484 L-35.52631578947369 -121.16810068922398 L-35.5263157894737 -191.82799916638132 z"/>
<path fill="#c4d3ac" stroke="#c4d3ac" d="M-47.61904761904761 -183.8955916781363 L-47.61904761904761 -113.23569320097901 L-62.75510204081632 -108.60392786965784 L-62.75510204081632 -179.26382634681514 z"/>
<path fill="#c4d3ac" stroke="#c4d3ac" d="M-35.52631578947375 -191.8279991663813 L-35.52631578947372 -121.16810068922393 L-47.61904761904769 -113.23569320097891 L-47.61904761904767 -183.89559167813624 z"/>
<path fill="#c4d3ac" stroke="#c4d3ac" d="M-25 -213.53888979859175 L-27.7027027027027 -202.06406471970575 L-35.52631578947368 -191.82799916638135 L-47.61904761904761 -183.89559167813627 L-62.755102040816325 -179.2638263468151 L-79.16666666666666 -178.3140413001906 L-95.12987012987013 -181.10657169368483 L-108.87096774193547 -187.52366137219582 L-119 -196.69093234149722 L-124.27536231884058 -207.74931896333564 L-124.27536231884058 -219.32846063384787 L-119 -230.38684725568626 L-108.87096774193547 -239.5541182249877 L-95.12987012987013 -245.97120790349868 L-79.16666666666666 -248.76373829699287 L-62.755102040816325 -247.81395325036843 L-47.61904761904761 -243.18218791904724 L-35.52631578947368 -235.24978043080216 L-27.7027027027027 -225.01371487747775 z"/>
<path fill="#c4d3ac" stroke="#c4d3ac" d="M-25 -142.8789913214344 L-27.7027027027027 -154.3538164003204 L-35.52631578947368 -164.5898819536448 L-47.61904761904761 -172.52228944188985 L-62.755102040816325 -177.15405477321104 L-79.16666666666666 -178.1038398198355 L-95.12987012987013 -175.31130942634132 L-108.87096774193547 -168.89421974783033 L-119 -159.7269487785289 L-124.27536231884058 -148.6685621566905 L-124.27536231884058 -137.08942048617828 L-119 -126.0310338643399 L-108.87096774193547 -116.86376289503846 L-95.12987012987013 -110.44667321652747 L-79.16666666666666 -107.65414282303327 L-62.755102040816325 -108.60392786965775 L-47.61904761904761 -113.23569320097893 L-35.52631578947368 -121.16810068922398 L-27.7027027027027 -131.4041662425484 z"/>
<path fill="#c4d3ac" stroke="#c4d3ac" d="M124.99999999999999 -213.53888979859175 L124.99999999999999 -142.8789913214344 L122.29729729729728 -131.4041662425484 L122.29729729729729 -202.06406471970573 z"/>
<path fill="#c4d3ac" stroke="#c4d3ac" d="M122.29729729729729 -225.01371487747772 L122.29729729729729 -154.35381640032037 L125 -142.8789913214344 L125 -213.53888979859175 z"/>
<path fill="#c4d3ac" stroke="#c4d3ac" d="M114.47368421052633 -235.2497804308022 L114.47368421052633 -164.5898819536448 L122.29729729729732 -154.35381640032037 L122.2972972972973 -225.01371487747775 z"/>
<path fill="#c4d3ac" stroke="#c4d3ac" d="M102.38095238095245 -243.1821879190472 L102.38095238095246 -172.52228944188985 L114.47368421052639 -164.5898819536448 L114.47368421052636 -235.24978043080216 z"/>
<path fill="#c4d3ac" stroke="#c4d3ac" d="M87.24489795918366 -247.81395325036846 L87.24489795918366 -177.15405477321116 L102.38095238095237 -172.52228944189 L102.38095238095237 -243.1821879190473 z"/>
<path fill="#c4d3ac" stroke="#c4d3ac" d="M30.999999999999957 -230.38684725568623 L30.999999999999947 -159.72694877852894 L41.129032258064484 -168.8942197478303 L41.12903225806445 -239.55411822498766 z"/>
<path fill="#c4d3ac" stroke="#c4d3ac" d="M54.870129870129865 -245.97120790349874 L54.870129870129865 -175.31130942634135 L70.83333333333333 -178.10383981983554 L70.83333333333333 -248.76373829699293 z"/>
<path fill="#c4d3ac" stroke="#c4d3ac" d="M41.12903225806451 -239.55411822498772 L41.12903225806451 -168.89421974783036 L54.870129870129865 -175.31130942634138 L54.870129870129865 -245.9712079034987 z"/>
<path fill="#c4d3ac" stroke="#c4d3ac" d="M70.83333333333333 -248.76373829699295 L70.83333333333333 -178.10383981983554 L87.24489795918366 -177.15405477321107 L87.24489795918366 -247.81395325036846 z"/>
<path fill="#c4d3ac" stroke="#c4d3ac" d="M31.00000000000002 -196.69093234149722 L31.000000000000007 -126.0310338643399 L25.724637681159418 -137.08942048617828 L25.724637681159432 -207.7493189633356 z"/>
<path fill="#c4d3ac" stroke="#c4d3ac" d="M25.724637681159418 -207.74931896333564 L25.724637681159418 -137.08942048617828 L25.724637681159418 -148.6685621566905 L25.724637681159418 -219.32846063384787 z"/>
<path fill="#c4d3ac" stroke="#c4d3ac" d="M25.724637681159408 -219.32846063384787 L25.7246376811594 -148.6685621566905 L30.99999999999999 -159.7269487785289 L30.99999999999998 -230.38684725568626 z"/>
<path fill="#c4d3ac" stroke="#c4d3ac" d="M41.12903225806454 -187.52366137219582 L41.12903225806454 -116.86376289503846 L31.000000000000036 -126.0310338643399 L31.000000000000004 -196.69093234149724 z"/>
<path fill="#c4d3ac" stroke="#c4d3ac" d="M54.870129870129865 -181.10657169368486 L54.870129870129865 -110.44667321652751 L41.12903225806451 -116.86376289503852 L41.12903225806451 -187.52366137219585 z"/>
<path fill="#c4d3ac" stroke="#c4d3ac" d="M70.83333333333333 -178.3140413001907 L70.83333333333333 -107.65414282303338 L54.870129870129865 -110.44667321652757 L54.870129870129865 -181.10657169368488 z"/>
<path fill="#c4d3ac" stroke="#c4d3ac" d="M87.24489795918366 -179.26382634681514 L87.24489795918366 -108.60392786965782 L70.83333333333333 -107.65414282303335 L70.83333333333333 -178.31404130019067 z"/>
<path fill="#c4d3ac" stroke="#c4d3ac" d="M122.29729729729725 -202.06406471970575 L122.29729729729726 -131.4041662425484 L114.4736842105263 -121.16810068922398 L114.47368421052629 -191.82799916638132 z"/>
<path fill="#c4d3ac" stroke="#c4d3ac" d="M102.38095238095237 -183.89559167813633 L102.38095238095237 -113.23569320097896 L87.24489795918366 -108.6039278696578 L87.24489795918366 -179.26382634681516 z"/>
<path fill="#c4d3ac" stroke="#c4d3ac" d="M114.47368421052624 -191.8279991663813 L114.47368421052627 -121.16810068922393 L102.3809523809523 -113.23569320097891 L102.38095238095232 -183.89559167813624 z"/>
<path fill="#c4d3ac" stroke="#c4d3ac" d="M125 -213.53888979859175 L122.29729729729729 -202.06406471970575 L114.47368421052632 -191.82799916638135 L102.38095238095238 -183.89559167813627 L87.24489795918366 -179.2638263468151 L70.83333333333333 -178.3140413001906 L54.870129870129865 -181.10657169368483 L41.12903225806451 -187.52366137219582 L31 -196.69093234149722 L25.724637681159418 -207.74931896333564 L25.724637681159418 -219.32846063384787 L31 -230.38684725568626 L41.12903225806451 -239.5541182249877 L54.870129870129865 -245.97120790349868 L70.83333333333333 -248.76373829699287 L87.24489795918366 -247.81395325036843 L102.38095238095238 -243.18218791904724 L114.47368421052632 -235.24978043080216 L122.29729729729729 -225.01371487747775 z"/>
<path fill="#c4d3ac" stroke="#c4d3ac" d="M125 -142.8789913214344 L122.29729729729729 -154.3538164003204 L114.47368421052632 -164.5898819536448 L102.38095238095238 -172.52228944188985 L87.24489795918366 -177.15405477321104 L70.83333333333333 -178.1038398198355 L54.870129870129865 -175.31130942634132 L41.12903225806451 -168.89421974783033 L31 -159.7269487785289 L25.724637681159418 -148.6685621566905 L25.724637681159418 -137.08942048617828 L31 -126.0310338643399 L41.12903225806451 -116.86376289503846 L54.870129870129865 -110.44667321652747 L70.83333333333333 -107.65414282303327 L87.24489795918366 -108.60392786965775 L102.38095238095238 -113.23569320097893 L114.47368421052632 -121.16810068922398 L122.29729729729729 -131.4041662425484 z"/>
<path fill="#bababa" stroke="#bababa" d="M60 306.53725233338787 L60 299.4712624856721 L60 306.54740461765186 L60 313.6133944653676 z"/>
<path fill="#bababa" stroke="#bababa" d="M180 295.5849680694285 L180 310.42354674963156 L180 317.49968888161123 L180 302.6611102014082 z"/>
<path fill="#bababa" stroke="#bababa" d="M378.44782608695647 317.49968888161123 L378.44782608695647 310.42354674963156 L377.39130434782606 315.4736512584401 L377.39130434782606 322.54979339041984 z"/>
<path fill="#bababa" stroke="#bababa" d="M324.4444444444444 267.8450511335725 L-75.55555555555554 267.8450511335725 L-75.55555555555554 260.76890900159276 L324.4444444444444 260.76890900159276 z"/>
<path fill="#bababa" stroke="#bababa" d="M341.95121951219505 270.6083183232356 L324.44444444444434 267.8450511335725 L324.44444444444434 260.76890900159276 L341.95121951219505 263.53217619125587 z"/>
<path fill="#bababa" stroke="#bababa" d="M357.3584905660377 276.9009689522358 L341.95121951219505 270.60831832323555 L341.95121951219505 263.53217619125587 L357.3584905660377 269.82482682025613 z"/>
<path fill="#bababa" stroke="#bababa" d="M369.5652173913043 286.2326838054691 L357.3584905660377 276.9009689522358 L357.3584905660377 269.8248268202561 L369.5652173913043 279.15654167348936 z"/>
<path fill="#bababa" stroke="#bababa" d="M377.391304347826 297.6110056925996 L369.5652173913043 286.2326838054691 L369.5652173913043 279.15654167348936 L377.391304347826 290.5348635606199 z"/>
<path fill="#bababa" stroke="#bababa" d="M377.391304347826 297.6110056925996 L377.391304347826 290.53486356061984 L378.44782608695647 295.58496806942844 L378.44782608695647 302.6611102014082 z"/>
<path fill="#bababa" stroke="#bababa" d="M378.44782608695647 313.2893843130833 L378.44782608695647 317.49968888161123 L180 317.49968888161123 L180 310.4235467496315 L378.44782608695647 310.4235467496315 z"/>
<path fill="#bababa" stroke="#bababa" d="M369.5652173913043 333.9281152775503 L377.39130434782606 322.54979339041984 L377.39130434782606 315.4736512584401 L369.5652173913043 326.8519731455706 z"/>
<path fill="#bababa" stroke="#bababa" d="M357.3584905660377 343.2598301307836 L369.5652173913043 333.9281152775503 L369.5652173913043 326.85197314557064 L357.3584905660377 336.18368799880386 z"/>
<path fill="#bababa" stroke="#bababa" d="M341.95121951219505 349.55248075978375 L357.3584905660377 343.25983013078354 L357.3584905660377 336.1836879988038 L341.95121951219505 342.47633862780407 z"/>
<path fill="#bababa" stroke="#bababa" d="M324.44444444444434 352.3157479494469 L341.95121951219505 349.5524807597838 L341.95121951219505 342.4763386278041 L324.44444444444434 345.23960581746724 z"/>
<path fill="#bababa" stroke="#bababa" d="M-75.55555555555554 352.3157479494469 L324.4444444444444 352.3157479494469 L324.4444444444444 345.23960581746724 L-75.55555555555554 345.23960581746724 z"/>
<path fill="#bababa" stroke="#bababa" d="M-93.3333333333333 351.3892632666171 L-75.55555555555553 352.3157479494469 L-75.55555555555553 345.23960581746724 L-93.3333333333333 344.3131211346374 z"/>
<path fill="#bababa" stroke="#bababa" d="M-109.99999999999997 346.8235467496315 L-93.3333333333333 351.38926326661704 L-93.3333333333333 344.3131211346374 L-109.99999999999997 339.74740461765185 z"/>
<path fill="#bababa" stroke="#bababa" d="M-124.00000000000001 338.9096381201899 L-110.00000000000001 346.82354674963153 L-110.00000000000003 339.7474046176518 L-124.00000000000001 331.8334959882102 z"/>
<path fill="#bababa" stroke="#bababa" d="M-134 328.51341653555073 L-124.00000000000001 338.90963812018987 L-124.00000000000001 331.8334959882102 L-134 321.43727440357105 z"/>
<path fill="#bababa" stroke="#bababa" d="M-139.2771084337349 316.43979040445384 L-134 328.51341653555073 L-134 321.437274403571 L-139.2771084337349 309.36364827247417 z"/>
<path fill="#bababa" stroke="#bababa" d="M-139.2771084337349 313.6133944653676 L-139.2771084337349 316.4397904044539 L-139.2771084337349 309.36364827247417 L-139.2771084337349 306.53725233338787 z"/>
<path fill="#bababa" stroke="#bababa" d="M-139.2771084337349 306.2916404442068 L-139.2771084337349 299.4712624856721 L-139.2771084337349 296.64486654658583 L-139.2771084337349 303.72100867856557 L-139.2771084337349 306.54740461765186 z"/>
<path fill="#bababa" stroke="#bababa" d="M-133.99999999999997 291.6473825474687 L-139.27710843373487 303.7210086785655 L-139.27710843373487 296.64486654658583 L-133.99999999999997 284.57124041548894 z"/>
<path fill="#bababa" stroke="#bababa" d="M-123.99999999999997 281.2511609628295 L-133.99999999999997 291.6473825474686 L-133.99999999999997 284.57124041548894 L-123.99999999999999 274.1750188308498 z"/>
<path fill="#bababa" stroke="#bababa" d="M-109.99999999999999 273.3372523333879 L-123.99999999999997 281.2511609628295 L-123.99999999999997 274.1750188308498 L-109.99999999999997 266.26111020140814 z"/>
<path fill="#bababa" stroke="#bababa" d="M-93.3333333333333 268.7715358164023 L-109.99999999999997 273.3372523333879 L-109.99999999999997 266.26111020140814 L-93.3333333333333 261.69539368442264 z"/>
<path fill="#bababa" stroke="#bababa" d="M-75.55555555555553 267.84505113357244 L-93.3333333333333 268.77153581640226 L-93.3333333333333 261.6953936844226 L-75.55555555555553 260.76890900159276 z"/>
<path fill="#bababa" stroke="#bababa" d="M299.97465145754114 295.5849680694285 L180 295.5849680694285 L180 302.6611102014082 L378.44782608695647 302.6611102014082 L378.44782608695647 295.5849680694285 z"/>
<path fill="#bababa" stroke="#bababa" d="M-92.43459400840449 306.5474046176518 L60 306.5474046176518 L60 299.4712624856721 L-139.2771084337349 299.4712624856721 L-139.2771084337349 306.5474046176518 z"/>
<path fill="#bababa" stroke="#bababa" d="M-106.75565197304327 306.53725233338787 L60 306.53725233338787 L60 313.61339446536755 L-139.2771084337349 313.61339446536755 L-139.2771084337349 306.53725233338787 z"/>
<path fill="#bababa" stroke="#bababa" d="M-112.83919642971317 299.4712624856721 L60 299.4712624856721 L60 306.53725233338787 L-139.2771084337349 306.53725233338787 L-139.2771084337349 309.36364827247417 L-134 321.43727440357105 L-124 331.83349598821025 L-110 339.74740461765185 L-93.33333333333331 344.31312113463736 L-75.55555555555554 345.23960581746724 L324.4444444444444 345.23960581746724 L341.9512195121951 342.4763386278041 L357.3584905660377 336.1836879988039 L369.5652173913043 326.85197314557064 L377.39130434782606 315.47365125844016 L378.44782608695647 310.42354674963156 L180 310.42354674963156 L180 295.5849680694285 L378.44782608695647 295.5849680694285 L377.39130434782606 290.5348635606199 L369.5652173913043 279.1565416734894 L357.3584905660377 269.82482682025613 L341.9512195121951 263.5321761912559 L324.4444444444444 260.76890900159276 L-75.55555555555554 260.76890900159276 L-93.33333333333331 261.69539368442264 L-110 266.2611102014082 L-124 274.1750188308498 L-134 284.57124041548894 L-139.2771084337349 296.64486654658583 L-139.2771084337349 299.4712624856721 z"/>
<path fill="#bababa" stroke="#bababa" d="M60 313.6133944653676 L60 306.54740461765186 L-139.2771084337349 306.54740461765186 L-139.2771084337349 303.72100867856557 L-134 291.6473825474687 L-124 281.2511609628295 L-110 273.3372523333879 L-93.33333333333331 268.7715358164023 L-75.55555555555554 267.8450511335725 L324.4444444444444 267.8450511335725 L341.9512195121951 270.6083183232356 L357.3584905660377 276.9009689522358 L369.5652173913043 286.2326838054691 L377.39130434782606 297.6110056925996 L378.44782608695647 302.6611102014082 L180 302.6611102014082 L180 317.49968888161123 L378.44782608695647 317.49968888161123 L377.39130434782606 322.54979339041984 L369.5652173913043 333.9281152775503 L357.3584905660377 343.2598301307836 L341.9512195121951 349.5524807597838 L324.4444444444444 352.315747949447 L-75.55555555555554 352.315747949447 L-93.33333333333331 351.3892632666171 L-110 346.82354674963153 L-124 338.9096381201899 L-134 328.5134165355508 L-139.2771084337349 316.4397904044539 L-139.2771084337349 313.6133944653676 z"/>
<path fill="#bababa" stroke="#bababa" d="M60 -125.1074177173735 L60 -132.17340756508924 L60 -125.09726543310954 L60 -118.0312755853938 z"/>
<path fill="#bababa" stroke="#bababa" d="M180 -136.0597019813329 L180 -121.22112330112985 L180 -114.14498116915014 L180 -128.98355984935318 z"/>
<path fill="#bababa" stroke="#bababa" d="M378.44782608695647 -114.14498116915014 L378.44782608695647 -121.22112330112984 L377.39130434782606 -116.17101879232125 L377.39130434782606 -109.09487666034154 z"/>
<path fill="#bababa" stroke="#bababa" d="M324.4444444444444 -163.7996189171889 L-75.55555555555554 -163.7996189171889 L-75.55555555555554 -170.8757610491686 L324.4444444444444 -170.8757610491686 z"/>
<path fill="#bababa" stroke="#bababa" d="M341.95121951219505 -161.03635172752578 L324.44444444444434 -163.7996189171889 L324.44444444444434 -170.8757610491686 L341.95121951219505 -168.11249385950546 z"/>
<path fill="#bababa" stroke="#bababa" d="M357.3584905660377 -154.74370109852552 L341.95121951219505 -161.03635172752573 L341.95121951219505 -168.11249385950546 L357.3584905660377 -161.81984323050523 z"/>
<path fill="#bababa" stroke="#bababa" d="M369.5652173913043 -145.41198624529224 L357.3584905660377 -154.74370109852555 L357.3584905660377 -161.81984323050526 L369.5652173913043 -152.48812837727195 z"/>
<path fill="#bababa" stroke="#bababa" d="M377.391304347826 -134.0336643581618 L369.5652173913043 -145.41198624529227 L369.5652173913043 -152.48812837727195 L377.391304347826 -141.10980649014147 z"/>
<path fill="#bababa" stroke="#bababa" d="M377.391304347826 -134.03366435816176 L377.39130434782606 -141.10980649014147 L378.44782608695647 -136.05970198133286 L378.44782608695647 -128.98355984935318 z"/>
<path fill="#bababa" stroke="#bababa" d="M378.44782608695647 -118.35528573767805 L378.44782608695647 -114.14498116915014 L180 -114.14498116915014 L180 -121.22112330112982 L378.44782608695647 -121.22112330112982 z"/>
<path fill="#bababa" stroke="#bababa" d="M369.5652173913043 -97.71655477321106 L377.39130434782606 -109.09487666034154 L377.39130434782606 -116.17101879232122 L369.5652173913043 -104.79269690519075 z"/>
<path fill="#bababa" stroke="#bababa" d="M357.3584905660377 -88.38483991997778 L369.5652173913043 -97.71655477321106 L369.5652173913044 -104.79269690519075 L357.3584905660377 -95.46098205195747 z"/>
<path fill="#bababa" stroke="#bababa" d="M341.95121951219505 -82.09218929097756 L357.3584905660377 -88.3848399199778 L357.3584905660377 -95.46098205195749 L341.95121951219505 -89.16833142295725 z"/>
<path fill="#bababa" stroke="#bababa" d="M324.44444444444434 -79.32892210131443 L341.95121951219505 -82.09218929097756 L341.95121951219505 -89.16833142295725 L324.44444444444434 -86.40506423329413 z"/>
<path fill="#bababa" stroke="#bababa" d="M-75.55555555555554 -79.32892210131443 L324.4444444444444 -79.32892210131443 L324.4444444444444 -86.40506423329413 L-75.55555555555554 -86.40506423329413 z"/>
<path fill="#bababa" stroke="#bababa" d="M-93.3333333333333 -80.25540678414428 L-75.55555555555553 -79.32892210131443 L-75.55555555555553 -86.40506423329413 L-93.3333333333333 -87.33154891612398 z"/>
<path fill="#bababa" stroke="#bababa" d="M-109.99999999999997 -84.82112330112983 L-93.3333333333333 -80.25540678414428 L-93.3333333333333 -87.33154891612398 L-109.99999999999997 -91.89726543310952 z"/>
<path fill="#bababa" stroke="#bababa" d="M-124 -92.73503193057147 L-110 -84.82112330112984 L-110.00000000000001 -91.89726543310954 L-124.00000000000001 -99.81117406255116 z"/>
<path fill="#bababa" stroke="#bababa" d="M-134 -103.13125351521062 L-124.00000000000003 -92.73503193057147 L-123.99999999999999 -99.81117406255116 L-134 -110.20739564719031 z"/>
<path fill="#bababa" stroke="#bababa" d="M-139.2771084337349 -115.2048796463075 L-134 -103.1312535152106 L-134 -110.20739564719031 L-139.2771084337349 -122.2810217782872 z"/>
<path fill="#bababa" stroke="#bababa" d="M-139.2771084337349 -118.0312755853938 L-139.2771084337349 -115.2048796463075 L-139.2771084337349 -122.2810217782872 L-139.2771084337349 -125.1074177173735 z"/>
<path fill="#bababa" stroke="#bababa" d="M-139.2771084337349 -125.3530296065546 L-139.2771084337349 -132.17340756508924 L-139.2771084337349 -134.99980350417553 L-139.2771084337349 -127.92366137219584 L-139.2771084337349 -125.09726543310954 z"/>
<path fill="#bababa" stroke="#bababa" d="M-133.99999999999997 -139.9972875032927 L-139.27710843373487 -127.92366137219581 L-139.27710843373487 -134.99980350417553 L-133.99999999999997 -147.0734296352724 z"/>
<path fill="#bababa" stroke="#bababa" d="M-123.99999999999999 -150.39350908793185 L-133.99999999999997 -139.9972875032927 L-133.99999999999997 -147.0734296352724 L-123.99999999999997 -157.46965121991155 z"/>
<path fill="#bababa" stroke="#bababa" d="M-109.99999999999999 -158.30741771737348 L-123.99999999999999 -150.39350908793185 L-123.99999999999997 -157.46965121991155 L-109.99999999999999 -165.38355984935316 z"/>
<path fill="#bababa" stroke="#bababa" d="M-93.3333333333333 -162.87313423435904 L-109.99999999999997 -158.30741771737348 L-109.99999999999997 -165.38355984935316 L-93.3333333333333 -169.94927636633872 z"/>
<path fill="#bababa" stroke="#bababa" d="M-75.55555555555553 -163.7996189171889 L-93.3333333333333 -162.87313423435904 L-93.3333333333333 -169.94927636633872 L-75.55555555555553 -170.87576104916857 z"/>
<path fill="#bababa" stroke="#bababa" d="M299.97465145754114 -136.05970198133286 L180 -136.05970198133286 L180 -128.98355984935316 L378.44782608695647 -128.98355984935316 L378.44782608695647 -136.05970198133286 z"/>
<path fill="#bababa" stroke="#bababa" d="M-92.43459400840449 -125.09726543310953 L60 -125.09726543310953 L60 -132.1734075650892 L-139.2771084337349 -132.1734075650892 L-139.2771084337349 -125.09726543310953 z"/>
<path fill="#bababa" stroke="#bababa" d="M-106.75565197304327 -125.10741771737348 L60 -125.10741771737348 L60 -118.03127558539379 L-139.2771084337349 -118.03127558539379 L-139.2771084337349 -125.10741771737348 z"/>
<path fill="#bababa" stroke="#bababa" d="M-112.83919642971317 -132.17340756508926 L60 -132.17340756508926 L60 -125.10741771737354 L-139.2771084337349 -125.10741771737354 L-139.2771084337349 -122.28102177828721 L-134 -110.20739564719035 L-124 -99.81117406255117 L-110 -91.89726543310955 L-93.33333333333331 -87.33154891612402 L-75.55555555555554 -86.40506423329418 L324.4444444444444 -86.40506423329418 L341.9512195121951 -89.1683314229573 L357.3584905660377 -95.46098205195752 L369.5652173913043 -104.79269690519077 L377.39130434782606 -116.17101879232129 L378.44782608695647 -121.22112330112985 L180 -121.22112330112985 L180 -136.05970198133295 L378.44782608695647 -136.05970198133295 L377.39130434782606 -141.1098064901415 L369.5652173913043 -152.48812837727203 L357.3584905660377 -161.81984323050528 L341.9512195121951 -168.1124938595055 L324.4444444444444 -170.8757610491686 L-75.55555555555554 -170.8757610491686 L-93.33333333333331 -169.94927636633878 L-110 -165.38355984935325 L-124 -157.4696512199116 L-134 -147.07342963527245 L-139.2771084337349 -134.9998035041756 L-139.2771084337349 -132.17340756508926 z"/>
<path fill="#bababa" stroke="#bababa" d="M60 -118.03127558539383 L60 -125.09726543310956 L-139.2771084337349 -125.09726543310956 L-139.2771084337349 -127.92366137219587 L-134 -139.99728750329274 L-124 -150.3935090879319 L-110 -158.30741771737354 L-93.33333333333331 -162.87313423435907 L-75.55555555555554 -163.79961891718895 L324.4444444444444 -163.79961891718895 L341.9512195121951 -161.03635172752578 L357.3584905660377 -154.74370109852558 L369.5652173913043 -145.41198624529233 L377.39130434782606 -134.03366435816184 L378.44782608695647 -128.98355984935324 L180 -128.98355984935324 L180 -114.1449811691502 L378.44782608695647 -114.1449811691502 L377.39130434782606 -109.09487666034158 L369.5652173913043 -97.71655477321112 L357.3584905660377 -88.3848399199778 L341.9512195121951 -82.09218929097759 L324.4444444444444 -79.32892210131448 L-75.55555555555554 -79.32892210131448 L-93.33333333333331 -80.25540678414431 L-110 -84.8211233011299 L-124 -92.73503193057147 L-134 -103.13125351521064 L-139.2771084337349 -115.20487964630756 L-139.2771084337349 -118.03127558539383 z"/>
<path fill="none" stroke="#000000" d="M 10 133.6772088235982 L -5 133.6772088235982 M 10 133.6772088235982 L -5 126.60106669161851 M 10 126.60106669161851 L -5 126.60106669161851 M 5 120.53580200706449 L 4.285714285714285 121.54667945449015 L 2.8571428571428568 122.55755690191583 L 0.7142857142857135 123.06299562562867 L -0.7142857142857144 123.06299562562867 L -2.857142857142857 122.55755690191583 L -4.285714285714286 121.54667945449015 L -5 120.53580200706449 L -5 119.01948583592599 L -4.285714285714286 118.0086083885003 L -2.857142857142857 116.99773094107462 L -0.7142857142857144 116.49229221736181 L 0.7142857142857135 116.49229221736181 L 2.8571428571428568 116.99773094107462 L 4.285714285714285 118.0086083885003 L 5 119.01948583592599 L 5 120.53580200706449 M 6.428571428571427 97.7910594399869 L 7.857142857142856 98.29649816369974 L 9.285714285714285 99.3073756111254 L 10 100.31825305855108 L 10 102.3400079534024 L 9.285714285714285 103.35088540082808 L 7.857142857142856 104.36176284825376 L 6.428571428571427 104.86720157196659 L 4.285714285714285 105.37264029567943 L 0.7142857142857135 105.37264029567943 L -1.4285714285714288 104.86720157196659 L -2.857142857142857 104.36176284825376 L -4.285714285714286 103.35088540082808 L -5 102.3400079534024 L -5 100.31825305855108 L -4.285714285714286 99.3073756111254 L -2.857142857142857 98.29649816369974 L -1.4285714285714288 97.7910594399869 L 0.7142857142857135 97.7910594399869 M 0.7142857142857135 100.31825305855108 L 0.7142857142857135 97.7910594399869 M 0.7142857142857135 94.7584270977099 L 0.7142857142857135 88.69316241315587 L 2.1428571428571423 88.69316241315587 L 3.571428571428571 89.19860113686869 L 4.285714285714285 89.70403986058153 L 5 90.7149173080072 L 5 92.23123347914571 L 4.285714285714285 93.24211092657137 L 2.8571428571428568 94.25298837399706 L 0.7142857142857135 94.7584270977099 L -0.7142857142857144 94.7584270977099 L -2.857142857142857 94.25298837399706 L -4.285714285714286 93.24211092657137 L -5 92.23123347914571 L -5 90.7149173080072 L -4.285714285714286 89.70403986058153 L -2.857142857142857 88.69316241315587 M 5 83.13333645231467 L 4.285714285714285 84.14421389974034 L 2.8571428571428568 85.15509134716602 L 0.7142857142857135 85.66053007087885 L -0.7142857142857144 85.66053007087885 L -2.857142857142857 85.15509134716602 L -4.285714285714286 84.14421389974034 L -5 83.13333645231467 L -5 81.61702028117617 L -4.285714285714286 80.60614283375048 L -2.857142857142857 79.59526538632483 L -0.7142857142857144 79.08982666261198 L 0.7142857142857135 79.08982666261198 L 2.8571428571428568 79.59526538632483 L 4.285714285714285 80.60614283375048 L 5 81.61702028117617 L 5 83.13333645231467 M 5 75.55175559662214 L -5 75.55175559662214 M 2.1428571428571423 75.55175559662214 L 4.285714285714285 74.03543942548363 L 5 73.02456197805797 L 5 71.50824580691946 L 4.285714285714285 70.49736835949379 L 2.1428571428571423 69.99192963578096 L -5 69.99192963578096 M 2.1428571428571423 69.99192963578096 L 4.285714285714285 68.47561346464244 L 5 67.46473601721678 L 5 65.94841984607828 L 4.285714285714285 64.9375423986526 L 2.1428571428571423 64.43210367493977 L -5 64.43210367493977 M 0.7142857142857135 60.89403260894992 L 0.7142857142857135 54.8287679243959 L 2.1428571428571423 54.8287679243959 L 3.571428571428571 55.33420664810873 L 4.285714285714285 55.83964537182157 L 5 56.85052281924724 L 5 58.36683899038573 L 4.285714285714285 59.377716437811415 L 2.8571428571428568 60.388593885237086 L 0.7142857142857135 60.89403260894992 L -0.7142857142857144 60.89403260894992 L -2.857142857142857 60.388593885237086 L -4.285714285714286 59.377716437811415 L -5 58.36683899038573 L -5 56.85052281924724 L -4.285714285714286 55.83964537182157 L -2.857142857142857 54.8287679243959 M 10 50.78525813469321 L -2.1428571428571432 50.78525813469321 L -4.285714285714286 50.27981941098037 L -5 49.2689419635547 L -5 48.25806451612904 M 5 52.30157430583172 L 5 48.763503239841874 M 5 45.22543217385203 L -5 45.22543217385203 M 0.7142857142857135 45.22543217385203 L 2.8571428571428568 44.71999345013919 L 4.285714285714285 43.709116002713515 L 5 42.69823855528785 L 5 41.181922384149345 M 5 39.665606213010825 L -5 36.63297387073382 M 5 33.60034152845681 L -5 36.63297387073382 L -7.857142857142857 37.6438513181595 L -9.285714285714285 38.65472876558516 L -10 39.665606213010825 L -10 40.17104493672367"/>
</svg>