<?xml version="1.0" encoding="UTF-8"?>
<!-- Generated by jsxcad -->
<!DOCTYPE svg PUBLIC "-//W3C//DTD SVG 1.1 Tiny//EN" "http://www.w3.org/Graphics/SVG/1.1/DTD/svg11-tiny.dtd">
<svg baseProfile="tiny" height="606.7648915551457mm" width="547.2800000000003mm" viewBox="-167.2800000000001 -352.3157479494471 547.2800000000003 606.7648915551457" version="1.1" stroke="black" stroke-width=".1" fill="none" xmlns="http://www.w3.org/2000/svg">
<path fill="#bababa" stroke="#bababa" d="M60.25858881108523 -125.0972654331096 L60 -125.0972654331096 L60 -118.03127558539386 L168 -118.03127558539386 L168 -125.0972654331096 z"/>
<path fill="#bababa" stroke="#bababa" d="M60 299.4712624856721 L60 306.53725233338787 L60 313.6133944653676 L60 306.54740461765186 z"/>
<path fill="#bababa" stroke="#bababa" d="M60 -132.17340756508924 L60 -125.1074177173735 L60 -118.0312755853938 L60 -125.09726543310954 z"/>
<path fill="#bababa" stroke="#bababa" d="M168 313.6133944653676 L168 331.30374979531683 L168 324.2377599476011 L168 306.54740461765186 z"/>
<path fill="#bababa" stroke="#bababa" d="M168 -130.8043720320943 L168 -132.17340756508924 L168 -241.8536106107745 L168 -234.78762076305878 L168 -125.1074177173735 z"/>
<path fill="#bababa" stroke="#bababa" d="M168 306.22811527755033 L168 299.4712624856721 L168 -125.09726543310954 L168 -118.0312755853938 L168 306.53725233338787 z"/>
<path fill="#bababa" stroke="#bababa" d="M122.29729729729729 -217.947725029762 L125 -206.47289995087604 L125 -199.40691010316027 L122.2972972972973 -210.88173518204627 z"/>
<path fill="#bababa" stroke="#bababa" d="M41.12903225806451 -232.48812837727198 L54.87012987012986 -238.90521805578297 L54.87012987012986 -231.83922820806725 L41.12903225806451 -225.42213852955626 z"/>
<path fill="#bababa" stroke="#bababa" d="M25.724637681159418 -200.68332911561993 L25.724637681159418 -212.26247078613216 L25.724637681159418 -205.1964809384164 L25.724637681159418 -193.61733926790419 z"/>
<path fill="#bababa" stroke="#bababa" d="M29.94492753623189 -184.77062997043345 L31.000000000000007 -182.55895264606576 L31.000000000000004 -189.6249424937815 L25.724637681159425 -200.6833291156199 L25.72463768115943 -193.61733926790416 z"/>
<path fill="#bababa" stroke="#bababa" d="M39.10322580645165 -175.2251358706246 L41.12903225806454 -173.39168167676434 L41.12903225806453 -180.4576715244801 L31.000000000000043 -189.62494249378153 L31.000000000000018 -182.55895264606576 z"/>
<path fill="#bababa" stroke="#bababa" d="M53.49602010892332 -174.68229081382023 L41.12903225806451 -180.45767152448013 L41.12903225806451 -173.3916816767644 L54.87012987012986 -166.9745919982534 L54.87012987012986 -174.04058184596911 z"/>
<path fill="#bababa" stroke="#bababa" d="M122.29729729729732 -217.94772502976198 L122.2972972972973 -210.88173518204627 L114.47368421052633 -221.11780073537074 L114.47368421052634 -228.18379058308645 z"/>
<path fill="#bababa" stroke="#bababa" d="M120.73257467994308 -185.8848719136094 L122.29729729729728 -187.93208502427427 L122.29729729729728 -194.99807487199004 L114.47368421052629 -184.76200931866558 L114.47368421052629 -177.69601947094986 z"/>
<path fill="#bababa" stroke="#bababa" d="M100.8673469387755 -176.3664252972885 L87.24489795918366 -172.19783649909945 L87.24489795918366 -165.13184665138365 L102.38095238095237 -169.76361198270482 L102.38095238095237 -176.82960183042061 z"/>
<path fill="#bababa" stroke="#bababa" d="M26.22120674180344 -206.23740520582325 L25.7246376811594 -205.19648093841636 L25.72463768115941 -212.26247078613216 L30.999999999999982 -223.32085740797052 L30.999999999999986 -216.25486756025478 z"/>
<path fill="#bababa" stroke="#bababa" d="M54.870129870129865 -238.90521805578305 L70.83333333333333 -241.69774844927724 L70.83333333333333 -234.6317586015615 L54.870129870129865 -231.8392282080673 z"/>
<path fill="#bababa" stroke="#bababa" d="M33.025806451612844 -218.08832175411507 L30.99999999999996 -216.25486756025478 L30.99999999999998 -223.32085740797052 L41.1290322580645 -232.48812837727198 L41.12903225806448 -225.42213852955624 z"/>
<path fill="#bababa" stroke="#bababa" d="M67.64069264069263 -164.740567683458 L70.83333333333331 -164.18206160475918 L70.83333333333331 -171.24805145247493 L54.870129870129865 -174.04058184596911 L54.870129870129865 -166.97459199825337 z"/>
<path fill="#bababa" stroke="#bababa" d="M92.45540991298117 -239.15350107095517 L102.38095238095237 -236.11619807133152 L102.38095238095237 -229.0502082236158 L87.24489795918366 -233.68197355493697 L87.24489795918366 -240.7479634026527 z"/>
<path fill="#bababa" stroke="#bababa" d="M104.79949874686726 -227.4637267259667 L102.38095238095241 -229.05020822361575 L102.38095238095246 -236.11619807133144 L114.47368421052639 -228.1837905830864 L114.47368421052639 -221.11780073537074 z"/>
<path fill="#bababa" stroke="#bababa" d="M-79.16666666666666 -241.6977484492772 L-62.75510204081632 -240.74796340265274 L-62.75510204081632 -233.681973554937 L-79.16666666666666 -234.63175860156147 z"/>
<path fill="#bababa" stroke="#bababa" d="M-91.93722943722942 -232.39773428676614 L-95.12987012987011 -231.8392282080673 L-95.12987012987011 -238.90521805578305 L-79.16666666666666 -241.69774844927724 L-79.16666666666666 -234.6317586015615 z"/>
<path fill="#bababa" stroke="#bababa" d="M110.87287409764362 -175.33401446614812 L114.47368421052624 -177.69601947094984 L114.47368421052624 -184.76200931866552 L102.38095238095232 -176.82960183042047 L102.38095238095235 -169.76361198270482 z"/>
<path fill="#bababa" stroke="#bababa" d="M-95.12987012987011 -174.04058184596911 L-108.87096774193546 -180.4576715244801 L-108.87096774193546 -173.3916816767644 L-95.12987012987011 -166.97459199825337 z"/>
<path fill="#bababa" stroke="#bababa" d="M-115.65433792193497 -219.28285582803022 L-119 -216.2548675602548 L-119.00000000000001 -223.32085740797052 L-108.87096774193553 -232.48812837727195 L-108.87096774193552 -225.42213852955624 z"/>
<path fill="#bababa" stroke="#bababa" d="M-124.27536231884059 -212.26247078613213 L-119.00000000000001 -223.3208574079705 L-119 -216.2548675602548 L-124.27536231884059 -205.19648093841639 z"/>
<path fill="#bababa" stroke="#bababa" d="M-124.27536231884058 -200.68332911561993 L-124.27536231884058 -212.26247078613216 L-124.27536231884058 -205.1964809384164 L-124.27536231884058 -193.61733926790419 z"/>
<path fill="#bababa" stroke="#bababa" d="M124.66918721411574 -205.06837297568012 L122.29729729729728 -194.99807487199 L122.29729729729729 -187.9320850242743 L124.99999999999999 -199.4069101031603 L124.99999999999999 -206.47289995087598 z"/>
<path fill="#bababa" stroke="#bababa" d="M-108.87096774193546 -232.48812837727203 L-95.12987012987013 -238.90521805578302 L-95.12987012987013 -231.8392282080673 L-108.87096774193546 -225.42213852955632 z"/>
<path fill="#bababa" stroke="#bababa" d="M-61.24149659863944 -240.28478686952062 L-47.61904761904761 -236.11619807133155 L-47.61904761904761 -229.05020822361584 L-62.755102040816325 -233.681973554937 L-62.755102040816325 -240.74796340265272 z"/>
<path fill="#bababa" stroke="#bababa" d="M-82.35930735930735 -164.740567683458 L-79.16666666666666 -164.18206160475918 L-79.16666666666666 -171.2480514524749 L-95.12987012987011 -174.0405818459691 L-95.12987012987011 -166.97459199825337 z"/>
<path fill="#bababa" stroke="#bababa" d="M-28.485064011379812 -193.97446831665758 L-35.526315789473706 -184.76200931866558 L-35.526315789473706 -177.69601947094984 L-27.70270270270273 -187.9320850242743 L-27.702702702702734 -194.99807487199 z"/>
<path fill="#bababa" stroke="#bababa" d="M-27.432432432432417 -216.8002425218734 L-24.999999999999993 -206.47289995087604 L-24.99999999999999 -199.40691010316027 L-27.70270270270269 -210.88173518204627 L-27.70270270270269 -217.94772502976198 z"/>
<path fill="#bababa" stroke="#bababa" d="M-25.540540540540544 -197.11194508738308 L-25.000000000000007 -199.40691010316027 L-25.000000000000007 -206.472899950876 L-27.702702702702705 -194.99807487199 L-27.702702702702705 -187.93208502427427 z"/>
<path fill="#bababa" stroke="#bababa" d="M-118.99999999999997 -182.55895264606576 L-108.87096774193544 -173.39168167676434 L-108.87096774193546 -180.4576715244801 L-118.99999999999994 -189.62494249378153 z"/>
<path fill="#bababa" stroke="#bababa" d="M-47.61904761904764 -169.76361198270482 L-35.52631578947374 -177.69601947094984 L-35.52631578947374 -184.76200931866552 L-47.61904761904767 -176.82960183042047 z"/>
<path fill="#bababa" stroke="#bababa" d="M-33.961593172119464 -219.07058762470584 L-35.52631578947365 -221.1178007353707 L-35.52631578947365 -228.18379058308642 L-27.702702702702673 -217.947725029762 L-27.702702702702673 -210.88173518204627 z"/>
<path fill="#bababa" stroke="#bababa" d="M124 260.5423284755198 L124 -76.2820370067136 L124.70022724198124 -82.24511480901741 L124.70022724198124 254.77618426852203 z"/>
<path fill="#bababa" stroke="#bababa" d="M-121.88526592146174 -87.03408147791376 L-121.36585365853658 -80.78660553463236 L-124.70022724198124 -82.24511480901741 z"/>
<path fill="#bababa" stroke="#bababa" d="M-121.8852659214617 -87.03408147791376 L-115.13915322193428 -89.01066667904047 L-121.36585365853655 -80.78660553463236 z"/>
<path fill="#bababa" stroke="#bababa" d="M-121.88526592146171 259.5345080596675 L-121.52439626962469 258.4550036716646 L-121.88526592146171 258.348450655478 z"/>
<path fill="#bababa" stroke="#bababa" d="M-121.88526592146172 258.348450655478 L-122.03584658278713 258.0930941607263 L-121.88526592146172 259.5345080596675 z"/>
<path fill="#bababa" stroke="#bababa" d="M-115.13915322193428 -90.21204552210544 L-115.13915322193428 -89.01066667904053 L-121.88526592146171 -87.03408147791379 L-121.88526592146171 -88.22013888210329 z"/>
<path fill="#bababa" stroke="#bababa" d="M-121.88526592146172 259.5345080596675 L-124.70022724198125 254.776184268522 L-121.36585365853658 265.0468970034386 z"/>
<path fill="#bababa" stroke="#bababa" d="M-115.13915322193428 261.5417361385451 L-121.36585365853657 265.04689700343863 L-114.99999999999999 266.9108563943016 z"/>
<path fill="#bababa" stroke="#bababa" d="M-124.70022724198124 254.77618426852203 L-121.88526592146172 259.5345080596675 L-122.03584658278713 258.0930941607263 L-124.70022724198122 253.57480542545713 z"/>
<path fill="#bababa" stroke="#bababa" d="M-124.70022724198124 254.776184268522 L-124 260.54232847551987 L-121.36585365853658 265.0468970034386 z"/>
<path fill="#bababa" stroke="#bababa" d="M-121.88526592146171 259.5345080596675 L-121.36585365853657 265.04689700343863 L-115.13915322193428 261.5417361385451 z"/>
<path fill="#bababa" stroke="#bababa" d="M121.36585365853657 265.04689700343863 L121.88526592146168 259.53450805966753 L115.13915322193427 261.5417361385451 z"/>
<path fill="#bababa" stroke="#bababa" d="M71.47214673835651 -82.65056492549532 L-115 -82.65056492549532 L-115.1391532219343 -89.01066667904047 L115.1391532219343 -89.01066667904047 L115 -82.65056492549532 z"/>
<path fill="#bababa" stroke="#bababa" d="M-114.99999999999999 -82.65056492549532 L-121.36585365853657 -80.78660553463236 L-115.13915322193427 -89.01066667904047 z"/>
<path fill="#bababa" stroke="#bababa" d="M155.54884084396977 313.6133944653676 L168 313.6133944653676 L168 306.54740461765186 L60 306.54740461765186 L60 313.6133944653676 z"/>
<path fill="#bababa" stroke="#bababa" d="M-124.70022724198125 -82.24511480901741 L-121.3658536585366 -80.78660553463237 L-124 -76.2820370067136 z"/>
<path fill="#bababa" stroke="#bababa" d="M114.99999999999999 266.9108563943016 L121.36585365853657 265.04689700343863 L115.13915322193428 261.5417361385451 z"/>
<path fill="#bababa" stroke="#bababa" d="M124 -76.2820370067136 L121.3658536585366 -80.78660553463237 L124.70022724198125 -82.24511480901741 z"/>
<path fill="#bababa" stroke="#bababa" d="M114.99999999999999 -82.65056492549532 L115.13915322193427 -89.01066667904047 L121.36585365853657 -80.78660553463236 z"/>
<path fill="#bababa" stroke="#bababa" d="M121.36585365853658 265.0468970034386 L124.70022724198124 254.77618426852203 L121.88526592146171 259.5345080596675 z"/>
<path fill="#bababa" stroke="#bababa" d="M115.13915322193428 -89.01066667904047 L121.8852659214617 -87.03408147791376 L121.36585365853655 -80.78660553463236 z"/>
<path fill="#bababa" stroke="#bababa" d="M85.60374149659863 -172.10285799443696 L70.83333333333331 -171.24805145247493 L70.83333333333331 -164.18206160475918 L87.24489795918366 -165.13184665138365 L87.24489795918366 -172.1978364990994 z"/>
<path fill="#bababa" stroke="#bababa" d="M121.88526592146174 -87.03408147791376 L124.70022724198124 -82.24511480901741 L121.36585365853658 -80.78660553463236 z"/>
<path fill="#bababa" stroke="#bababa" d="M124 260.5423284755198 L124.70022724198124 254.77618426852203 L121.36585365853658 265.0468970034386 z"/>
<path fill="#bababa" stroke="#bababa" d="M115.13915322193428 260.3403572954802 L115.13915322193428 261.5417361385451 L121.8852659214617 259.5345080596675 L121.8852659214617 258.348450655478 z"/>
<path fill="#bababa" stroke="#bababa" d="M-115.13915322193428 260.3403572954802 L-121.52439626962469 258.45500367166466 L-121.88526592146171 259.5345080596675 L-115.13915322193428 261.5417361385451 z"/>
<path fill="#bababa" stroke="#bababa" d="M124.70022724198122 253.57480542545713 L121.88526592146171 258.348450655478 L121.88526592146171 259.5345080596675 L124.70022724198124 254.77618426852203 z"/>
<path fill="#bababa" stroke="#bababa" d="M121.8852659214617 -88.22013888210326 L121.8852659214617 -87.0340814779138 L115.13915322193428 -89.0106666790405 L115.13915322193428 -90.2120455221054 z"/>
<path fill="#bababa" stroke="#bababa" d="M-124.70022724198124 -82.24511480901742 L-124.70022724198124 254.77618426852203 L-124.70022724198124 253.57480542545713 L-124.70022724198124 -83.44649365208234 z"/>
<path fill="#bababa" stroke="#bababa" d="M124.70022724198124 253.57480542545713 L124.70022724198124 254.77618426852206 L124.70022724198124 -82.24511480901742 L124.70022724198124 -83.44649365208234 z"/>
<path fill="#bababa" stroke="#bababa" d="M115.1391532219343 260.3403572954802 L-115.1391532219343 260.3403572954802 L-115.1391532219343 261.5417361385451 L115.1391532219343 261.5417361385451 z"/>
<path fill="#bababa" stroke="#bababa" d="M124.70022724198124 -82.24511480901742 L121.88526592146172 -87.03408147791377 L121.88526592146172 -88.22013888210324 L124.70022724198124 -83.44649365208232 z"/>
<path fill="#bababa" stroke="#bababa" d="M137.55357142857142 -125.10741771737355 L60 -125.10741771737355 L60 -132.17340756508924 L168 -132.17340756508924 L168 -125.10741771737355 z"/>
<path fill="#bababa" stroke="#bababa" d="M102.67037032412183 -90.21204552210543 L115.1391532219343 -90.21204552210543 L115.1391532219343 -89.01066667904053 L-115.1391532219343 -89.01066667904053 L-115.1391532219343 -90.21204552210543 z"/>
<path fill="#bababa" stroke="#bababa" d="M-124.27536231884056 -193.61733926790416 L-118.99999999999999 -182.55895264606576 L-118.99999999999999 -189.6249424937815 L-124.27536231884056 -200.6833291156199 z"/>
<path fill="#bababa" stroke="#bababa" d="M86.07537474161212 -233.74965726999116 L70.83333333333331 -234.63175860156144 L70.83333333333331 -241.69774844927719 L87.24489795918366 -240.7479634026527 L87.24489795918366 -233.68197355493697 z"/>
<path fill="#bababa" stroke="#bababa" d="M-46.40977443609016 -235.32295732250697 L-35.52631578947366 -228.18379058308645 L-35.52631578947359 -221.11780073537068 L-47.61904761904758 -229.05020822361578 L-47.619047619047585 -236.1161980713315 z"/>
<path fill="#bababa" stroke="#bababa" d="M147.42857142857142 343.89928279024065 L-152.57142857142856 343.89928279024065 L-152.57142857142856 336.8332929425249 L147.42857142857142 336.8332929425249 z"/>
<path fill="#bababa" stroke="#bababa" d="M157.4634146341463 342.882891465829 L147.4285714285714 343.89928279024065 L147.4285714285714 336.8332929425249 L157.4634146341463 335.81690161811326 z"/>
<path fill="#bababa" stroke="#bababa" d="M165.15789473684208 338.18864484264833 L157.46341463414635 342.88289146582895 L157.46341463414635 335.8169016181132 L165.1578947368421 331.1226549949326 z"/>
<path fill="#bababa" stroke="#bababa" d="M168 331.30374979531683 L165.15789473684208 338.1886448426484 L165.15789473684208 331.12265499493265 L168 324.23775994760103 z"/>
<path fill="#bababa" stroke="#bababa" d="M150.56837718155768 306.53725233338787 L60 306.53725233338787 L60 299.4712624856721 L168 299.4712624856721 L168 306.53725233338787 z"/>
<path fill="#bababa" stroke="#bababa" d="M165.15789473684208 -241.6725158103903 L168 -234.78762076305875 L168 -241.85361061077447 L165.15789473684208 -248.73850565810602 z"/>
<path fill="#bababa" stroke="#bababa" d="M157.46341463414632 -246.36676243357098 L165.15789473684214 -241.6725158103903 L165.15789473684214 -248.73850565810605 L157.46341463414637 -253.43275228128667 z"/>
<path fill="#bababa" stroke="#bababa" d="M147.4285714285714 -247.38315375798265 L157.4634146341463 -246.366762433571 L157.4634146341463 -253.43275228128684 L147.4285714285714 -254.44914360569845 z"/>
<path fill="#bababa" stroke="#bababa" d="M-152.57142857142856 -247.38315375798265 L147.42857142857142 -247.38315375798265 L147.42857142857142 -254.44914360569842 L-152.57142857142856 -254.44914360569842 z"/>
<path fill="#bababa" stroke="#bababa" d="M-161.79310344827582 -244.41807761585062 L-152.57142857142853 -247.3831537579826 L-152.57142857142853 -254.44914360569842 L-161.79310344827582 -251.48406746356645 z"/>
<path fill="#bababa" stroke="#bababa" d="M-167.27999999999997 -238.36991771737348 L-161.79310344827587 -244.41807761585056 L-161.79310344827587 -251.48406746356628 L-167.28000000000003 -245.43590756508917 z"/>
<path fill="#bababa" stroke="#bababa" d="M-167.27999999999997 334.88604674963153 L-167.27999999999997 -238.36991771737348 L-167.27999999999997 -245.43590756508922 L-167.27999999999997 327.8200569019158 z"/>
<path fill="#bababa" stroke="#bababa" d="M-161.79310344827584 340.93420664810867 L-167.27999999999997 334.88604674963153 L-167.27999999999997 327.8200569019158 L-161.79310344827584 333.86821680039293 z"/>
<path fill="#bababa" stroke="#bababa" d="M-152.57142857142853 343.89928279024065 L-161.79310344827582 340.93420664810867 L-161.79310344827582 333.86821680039293 L-152.57142857142853 336.8332929425249 z"/>
<path fill="#bababa" stroke="#bababa" d="M-110.79776276339769 266.9108563943016 L115 266.9108563943016 L115.1391532219343 261.5417361385451 L-115.1391532219343 261.5417361385451 L-115 266.9108563943016 z"/>
<path fill="#bababa" stroke="#bababa" d="M-121.88526592146174 -87.03408147791377 L-124.70022724198124 -82.24511480901741 L-124.70022724198125 -83.44649365208234 L-121.88526592146172 -88.22013888210324 z"/>
<path fill="#bababa" stroke="#bababa" d="M-124.70022724198124 254.77618426852203 L-124.70022724198122 -82.24511480901741 L-124 -76.2820370067136 L-124 260.5423284755198 z"/>
<path fill="#bababa" stroke="#bababa" d="M-62.75510204081632 -172.1978364990994 L-79.16666666666666 -171.24805145247493 L-79.16666666666666 -164.18206160475924 L-62.75510204081632 -165.1318466513837 z"/>
<path fill="#bababa" stroke="#bababa" d="M139.3820491931517 -125.09726543310954 L168 -125.09726543310954 L168 299.4712624856721 L60 299.4712624856721 L60 306.5474046176518 L168 306.5474046176518 L168 324.23775994760103 L165.15789473684208 331.12265499493265 L157.46341463414632 335.81690161811326 L147.42857142857142 336.8332929425249 L-152.57142857142856 336.8332929425249 L-161.79310344827584 333.8682168003929 L-167.27999999999997 327.82005690191573 L-167.27999999999997 -245.43590756508922 L-161.79310344827584 -251.48406746356633 L-152.57142857142856 -254.4491436056983 L147.42857142857142 -254.4491436056983 L157.46341463414632 -253.43275228128667 L165.15789473684208 -248.73850565810605 L168 -241.8536106107745 L168 -132.1734075650892 L60 -132.1734075650892 L60 -125.09726543310954 z M-35.52631578947368 -184.7620093186656 L-27.7027027027027 -194.99807487199 L-25 -206.47289995087598 L-27.7027027027027 -217.947725029762 L-35.52631578947368 -228.18379058308642 L-47.61904761904761 -236.1161980713315 L-62.755102040816325 -240.74796340265266 L-79.16666666666666 -241.69774844927713 L-95.12987012987013 -238.90521805578294 L-108.87096774193547 -232.48812837727195 L-119 -223.32085740797052 L-124.27536231884058 -212.26247078613213 L-124.27536231884058 -200.6833291156199 L-119 -189.6249424937815 L-108.87096774193547 -180.45767152448008 L-95.12987012987013 -174.0405818459691 L-79.16666666666666 -171.2480514524749 L-62.755102040816325 -172.19783649909937 L-47.61904761904761 -176.82960183042053 z M100.8673469387755 -176.3664252972884 L102.38095238095238 -176.82960183042053 L114.47368421052632 -184.7620093186656 L122.29729729729729 -194.99807487199 L125 -206.47289995087598 L122.29729729729729 -217.947725029762 L114.47368421052632 -228.18379058308642 L102.38095238095238 -236.1161980713315 L87.24489795918366 -240.74796340265266 L70.83333333333333 -241.69774844927713 L54.870129870129865 -238.90521805578294 L41.12903225806451 -232.48812837727195 L31 -223.32085740797052 L25.724637681159418 -212.26247078613213 L25.724637681159418 -200.6833291156199 L31 -189.6249424937815 L41.12903225806451 -180.45767152448008 L54.870129870129865 -174.0405818459691 L70.83333333333333 -171.2480514524749 L87.24489795918366 -172.19783649909937 z M121.88526592146172 -88.22013888210324 L115.1391532219343 -90.21204552210538 L-115.1391532219343 -90.21204552210538 L-121.88526592146172 -88.22013888210324 L-124.70022724198124 -83.44649365208232 L-124.70022724198124 253.5748054254571 L-122.03584658278712 258.09309416072637 L-121.88526592146171 258.348450655478 L-121.5243962696247 258.4550036716646 L-115.1391532219343 260.34035729548015 L115.1391532219343 260.34035729548015 L121.88526592146171 258.348450655478 L124.70022724198124 253.57480542545713 L124.70022724198124 -83.44649365208232 z"/>
<path fill="#bababa" stroke="#bababa" d="M-47.61904761904761 -176.8296018304206 L-62.75510204081632 -172.1978364990994 L-62.75510204081632 -165.13184665138368 L-47.61904761904761 -169.76361198270484 z"/>
<path fill="#bababa" stroke="#bababa" d="M65.80953311549608 -125.10741771737348 L168 -125.10741771737348 L168 -234.78762076305873 L165.15789473684208 -241.6725158103903 L157.46341463414632 -246.36676243357095 L147.42857142857142 -247.3831537579826 L-152.57142857142856 -247.3831537579826 L-161.79310344827584 -244.41807761585062 L-167.27999999999997 -238.36991771737348 L-167.27999999999997 334.88604674963153 L-161.79310344827584 340.9342066481086 L-152.57142857142856 343.89928279024065 L147.42857142857142 343.89928279024065 L157.46341463414632 342.882891465829 L165.15789473684208 338.1886448426484 L168 331.30374979531683 L168 313.61339446536755 L60 313.61339446536755 L60 306.53725233338787 L168 306.53725233338787 L168 -118.03127558539379 L60 -118.03127558539379 L60 -125.10741771737348 z M-95.12987012987013 -166.97459199825335 L-108.87096774193547 -173.39168167676434 L-119 -182.55895264606576 L-124.27536231884058 -193.61733926790416 L-124.27536231884058 -205.1964809384164 L-119 -216.2548675602548 L-108.87096774193547 -225.4221385295562 L-95.12987012987013 -231.83922820806723 L-79.16666666666666 -234.63175860156142 L-62.755102040816325 -233.68197355493695 L-47.61904761904761 -229.05020822361575 L-35.52631578947368 -221.1178007353707 L-27.7027027027027 -210.88173518204627 L-25 -199.40691010316027 L-27.7027027027027 -187.9320850242743 L-35.52631578947368 -177.69601947094984 L-47.61904761904761 -169.76361198270482 L-62.755102040816325 -165.13184665138363 L-79.16666666666666 -164.18206160475916 z M63.84791082541202 -82.65056492549532 L115 -82.65056492549532 L121.36585365853658 -80.78660553463236 L124 -76.2820370067136 L124 260.54232847551987 L121.36585365853658 265.04689700343863 L115 266.91085639430156 L-115 266.91085639430156 L-121.36585365853658 265.04689700343863 L-124 260.54232847551987 L-124 -76.2820370067136 L-121.36585365853658 -80.78660553463236 L-115 -82.65056492549532 z M116.54788129806552 -180.40980619878113 L114.47368421052632 -177.69601947094984 L102.38095238095238 -169.76361198270482 L87.24489795918366 -165.13184665138363 L70.83333333333333 -164.18206160475916 L54.870129870129865 -166.97459199825335 L41.12903225806451 -173.39168167676434 L31 -182.55895264606576 L25.724637681159418 -193.61733926790416 L25.724637681159418 -205.1964809384164 L31 -216.2548675602548 L41.12903225806451 -225.4221385295562 L54.870129870129865 -231.83922820806723 L70.83333333333333 -234.63175860156142 L87.24489795918366 -233.68197355493695 L102.38095238095238 -229.05020822361575 L114.47368421052632 -221.1178007353707 L122.29729729729729 -210.88173518204627 L125 -199.40691010316027 L122.29729729729729 -187.9320850242743 z"/>
<path fill="#c4d3ac" stroke="#c4d3ac" d="M-25 -213.53888979859175 L-25.000000000000004 -142.8789913214344 L-27.70270270270271 -131.4041662425484 L-27.702702702702705 -202.06406471970573 z"/>
<path fill="#c4d3ac" stroke="#c4d3ac" d="M-27.702702702702698 -225.01371487747772 L-27.702702702702695 -154.35381640032037 L-24.999999999999993 -142.8789913214344 L-24.999999999999996 -213.53888979859175 z"/>
<path fill="#c4d3ac" stroke="#c4d3ac" d="M-35.526315789473664 -235.2497804308022 L-35.526315789473664 -164.5898819536448 L-27.702702702702673 -154.35381640032037 L-27.70270270270268 -225.01371487747775 z"/>
<path fill="#c4d3ac" stroke="#c4d3ac" d="M-47.61904761904754 -243.1821879190472 L-47.61904761904752 -172.52228944188985 L-35.52631578947361 -164.5898819536448 L-35.52631578947363 -235.24978043080216 z"/>
<path fill="#c4d3ac" stroke="#c4d3ac" d="M-62.75510204081632 -247.81395325036843 L-62.75510204081632 -177.1540547732111 L-47.61904761904761 -172.52228944188994 L-47.61904761904761 -243.18218791904724 z"/>
<path fill="#c4d3ac" stroke="#c4d3ac" d="M-119.00000000000003 -230.38684725568623 L-119.00000000000004 -159.72694877852894 L-108.8709677419355 -168.8942197478303 L-108.87096774193554 -239.55411822498766 z"/>
<path fill="#c4d3ac" stroke="#c4d3ac" d="M-95.12987012987013 -245.97120790349877 L-95.12987012987013 -175.31130942634144 L-79.16666666666664 -178.10383981983563 L-79.16666666666664 -248.76373829699295 z"/>
<path fill="#c4d3ac" stroke="#c4d3ac" d="M-108.87096774193547 -239.55411822498772 L-108.87096774193547 -168.8942197478304 L-95.12987012987011 -175.31130942634138 L-95.12987012987011 -245.97120790349874 z"/>
<path fill="#c4d3ac" stroke="#c4d3ac" d="M-79.16666666666666 -248.76373829699293 L-79.16666666666666 -178.1038398198356 L-62.75510204081632 -177.15405477321113 L-62.75510204081632 -247.81395325036846 z"/>
<path fill="#c4d3ac" stroke="#c4d3ac" d="M-118.99999999999997 -196.69093234149722 L-118.99999999999999 -126.0310338643399 L-124.27536231884058 -137.08942048617828 L-124.27536231884056 -207.7493189633356 z"/>
<path fill="#c4d3ac" stroke="#c4d3ac" d="M-124.27536231884058 -207.74931896333564 L-124.27536231884058 -137.08942048617828 L-124.27536231884058 -148.6685621566905 L-124.27536231884058 -219.32846063384787 z"/>
<path fill="#c4d3ac" stroke="#c4d3ac" d="M-124.27536231884058 -219.32846063384787 L-124.27536231884059 -148.6685621566905 L-119 -159.7269487785289 L-119.00000000000001 -230.38684725568626 z"/>
<path fill="#c4d3ac" stroke="#c4d3ac" d="M-108.87096774193544 -187.52366137219582 L-108.87096774193544 -116.86376289503846 L-118.99999999999996 -126.0310338643399 L-118.99999999999999 -196.69093234149724 z"/>
<path fill="#c4d3ac" stroke="#c4d3ac" d="M-95.12987012987011 -181.10657169368483 L-95.12987012987011 -110.4466732165275 L-108.87096774193547 -116.86376289503849 L-108.87096774193547 -187.52366137219582 z"/>
<path fill="#c4d3ac" stroke="#c4d3ac" d="M-79.16666666666664 -178.31404130019067 L-79.16666666666664 -107.6541428230333 L-95.12987012987013 -110.44667321652749 L-95.12987012987013 -181.10657169368486 z"/>
<path fill="#c4d3ac" stroke="#c4d3ac" d="M-62.75510204081632 -179.26382634681516 L-62.75510204081632 -108.60392786965778 L-79.16666666666666 -107.6541428230333 L-79.16666666666666 -178.3140413001907 z"/>
<path fill="#c4d3ac" stroke="#c4d3ac" d="M-27.702702702702737 -202.06406471970575 L-27.702702702702727 -131.4041662425484 L-35.52631578947369 -121.16810068922398 L-35.5263157894737 -191.82799916638132 z"/>
<path fill="#c4d3ac" stroke="#c4d3ac" d="M-47.61904761904761 -183.8955916781363 L-47.61904761904761 -113.23569320097901 L-62.75510204081632 -108.60392786965784 L-62.75510204081632 -179.26382634681514 z"/>
<path fill="#c4d3ac" stroke="#c4d3ac" d="M-35.52631578947375 -191.8279991663813 L-35.52631578947372 -121.16810068922393 L-47.61904761904769 -113.23569320097891 L-47.61904761904767 -183.89559167813624 z"/>
<path fill="#c4d3ac" stroke="#c4d3ac" d="M-25 -213.53888979859175 L-27.7027027027027 -202.06406471970575 L-35.52631578947368 -191.82799916638135 L-47.61904761904761 -183.89559167813627 L-62.755102040816325 -179.2638263468151 L-79.16666666666666 -178.3140413001906 L-95.12987012987013 -181.10657169368483 L-108.87096774193547 -187.52366137219582 L-119 -196.69093234149722 L-124.27536231884058 -207.74931896333564 L-124.27536231884058 -219.32846063384787 L-119 -230.38684725568626 L-108.87096774193547 -239.5541182249877 L-95.12987012987013 -245.97120790349868 L-79.16666666666666 -248.76373829699287 L-62.755102040816325 -247.81395325036843 L-47.61904761904761 -243.18218791904724 L-35.52631578947368 -235.24978043080216 L-27.7027027027027 -225.01371487747775 z"/>
<path fill="#c4d3ac" stroke="#c4d3ac" d="M-25 -142.8789913214344 L-27.7027027027027 -154.3538164003204 L-35.52631578947368 -164.5898819536448 L-47.61904761904761 -172.52228944188985 L-62.755102040816325 -177.15405477321104 L-79.16666666666666 -178.1038398198355 L-95.12987012987013 -175.31130942634132 L-108.87096774193547 -168.89421974783033 L-119 -159.7269487785289 L-124.27536231884058 -148.6685621566905 L-124.27536231884058 -137.08942048617828 L-119 -126.0310338643399 L-108.87096774193547 -116.86376289503846 L-95.12987012987013 -110.44667321652747 L-79.16666666666666 -107.65414282303327 L-62.755102040816325 -108.60392786965775 L-47.61904761904761 -113.23569320097893 L-35.52631578947368 -121.16810068922398 L-27.7027027027027 -131.4041662425484 z"/>
<path fill="#c4d3ac" stroke="#c4d3ac" d="M124.99999999999999 -213.53888979859175 L124.99999999999999 -142.8789913214344 L122.29729729729728 -131.4041662425484 L122.29729729729729 -202.06406471970573 z"/>
<path fill="#c4d3ac" stroke="#c4d3ac" d="M122.29729729729729 -225.01371487747772 L122.29729729729729 -154.35381640032037 L125 -142.8789913214344 L125 -213.53888979859175 z"/>
<path fill="#c4d3ac" stroke="#c4d3ac" d="M114.47368421052633 -235.2497804308022 L114.47368421052633 -164.5898819536448 L122.29729729729732 -154.35381640032037 L122.2972972972973 -225.01371487747775 z"/>
<path fill="#c4d3ac" stroke="#c4d3ac" d="M102.38095238095245 -243.1821879190472 L102.38095238095246 -172.52228944188985 L114.47368421052639 -164.5898819536448 L114.47368421052636 -235.24978043080216 z"/>
<path fill="#c4d3ac" stroke="#c4d3ac" d="M87.24489795918366 -247.81395325036846 L87.24489795918366 -177.15405477321116 L102.38095238095237 -172.52228944189 L102.38095238095237 -243.1821879190473 z"/>
<path fill="#c4d3ac" stroke="#c4d3ac" d="M30.999999999999957 -230.38684725568623 L30.999999999999947 -159.72694877852894 L41.129032258064484 -168.8942197478303 L41.12903225806445 -239.55411822498766 z"/>
<path fill="#c4d3ac" stroke="#c4d3ac" d="M54.870129870129865 -245.97120790349874 L54.870129870129865 -175.31130942634135 L70.83333333333333 -178.10383981983554 L70.83333333333333 -248.76373829699293 z"/>
<path fill="#c4d3ac" stroke="#c4d3ac" d="M41.12903225806451 -239.55411822498772 L41.12903225806451 -168.89421974783036 L54.870129870129865 -175.31130942634138 L54.870129870129865 -245.9712079034987 z"/>
<path fill="#c4d3ac" stroke="#c4d3ac" d="M70.83333333333333 -248.76373829699295 L70.83333333333333 -178.10383981983554 L87.24489795918366 -177.15405477321107 L87.24489795918366 -247.81395325036846 z"/>
<path fill="#c4d3ac" stroke="#c4d3ac" d="M31.00000000000002 -196.69093234149722 L31.000000000000007 -126.0310338643399 L25.724637681159418 -137.08942048617828 L25.724637681159432 -207.7493189633356 z"/>
<path fill="#c4d3ac" stroke="#c4d3ac" d="M25.724637681159418 -207.74931896333564 L25.724637681159418 -137.08942048617828 L25.724637681159418 -148.6685621566905 L25.724637681159418 -219.32846063384787 z"/>
<path fill="#c4d3ac" stroke="#c4d3ac" d="M25.724637681159408 -219.32846063384787 L25.7246376811594 -148.6685621566905 L30.99999999999999 -159.7269487785289 L30.99999999999998 -230.38684725568626 z"/>
<path fill="#c4d3ac" stroke="#c4d3ac" d="M41.12903225806454 -187.52366137219582 L41.12903225806454 -116.86376289503846 L31.000000000000036 -126.0310338643399 L31.000000000000004 -196.69093234149724 z"/>
<path fill="#c4d3ac" stroke="#c4d3ac" d="M54.870129870129865 -181.10657169368486 L54.870129870129865 -110.44667321652751 L41.12903225806451 -116.86376289503852 L41.12903225806451 -187.52366137219585 z"/>
<path fill="#c4d3ac" stroke="#c4d3ac" d="M70.83333333333333 -178.3140413001907 L70.83333333333333 -107.65414282303338 L54.870129870129865 -110.44667321652757 L54.870129870129865 -181.10657169368488 z"/>
<path fill="#c4d3ac" stroke="#c4d3ac" d="M87.24489795918366 -179.26382634681514 L87.24489795918366 -108.60392786965782 L70.83333333333333 -107.65414282303335 L70.83333333333333 -178.31404130019067 z"/>
<path fill="#c4d3ac" stroke="#c4d3ac" d="M122.29729729729725 -202.06406471970575 L122.29729729729726 -131.4041662425484 L114.4736842105263 -121.16810068922398 L114.47368421052629 -191.82799916638132 z"/>
<path fill="#c4d3ac" stroke="#c4d3ac" d="M102.38095238095237 -183.89559167813633 L102.38095238095237 -113.23569320097896 L87.24489795918366 -108.6039278696578 L87.24489795918366 -179.26382634681516 z"/>
<path fill="#c4d3ac" stroke="#c4d3ac" d="M114.47368421052624 -191.8279991663813 L114.47368421052627 -121.16810068922393 L102.3809523809523 -113.23569320097891 L102.38095238095232 -183.89559167813624 z"/>
<path fill="#c4d3ac" stroke="#c4d3ac" d="M125 -213.53888979859175 L122.29729729729729 -202.06406471970575 L114.47368421052632 -191.82799916638135 L102.38095238095238 -183.89559167813627 L87.24489795918366 -179.2638263468151 L70.83333333333333 -178.3140413001906 L54.870129870129865 -181.10657169368483 L41.12903225806451 -187.52366137219582 L31 -196.69093234149722 L25.724637681159418 -207.74931896333564 L25.724637681159418 -219.32846063384787 L31 -230.38684725568626 L41.12903225806451 -239.5541182249877 L54.870129870129865 -245.97120790349868 L70.83333333333333 -248.76373829699287 L87.24489795918366 -247.81395325036843 L102.38095238095238 -243.18218791904724 L114.47368421052632 -235.24978043080216 L122.29729729729729 -225.01371487747775 z"/>
<path fill="#c4d3ac" stroke="#c4d3ac" d="M125 -142.8789913214344 L122.29729729729729 -154.3538164003204 L114.47368421052632 -164.5898819536448 L102.38095238095238 -172.52228944188985 L87.24489795918366 -177.15405477321104 L70.83333333333333 -178.1038398198355 L54.870129870129865 -175.31130942634132 L41.12903225806451 -168.89421974783033 L31 -159.7269487785289 L25.724637681159418 -148.6685621566905 L25.724637681159418 -137.08942048617828 L31 -126.0310338643399 L41.12903225806451 -116.86376289503846 L54.870129870129865 -110.44667321652747 L70.83333333333333 -107.65414282303327 L87.24489795918366 -108.60392786965775 L102.38095238095238 -113.23569320097893 L114.47368421052632 -121.16810068922398 L122.29729729729729 -131.4041662425484 z"/>
<path fill="#bababa" stroke="#bababa" d="M60 306.53725233338787 L60 299.4712624856721 L60 306.54740461765186 L60 313.6133944653676 z"/>
<path fill="#bababa" stroke="#bababa" d="M324.4444444444444 267.8450511335725 L-75.55555555555554 267.8450511335725 L-75.55555555555554 260.76890900159276 L324.4444444444444 260.76890900159276 z"/>
<path fill="#bababa" stroke="#bababa" d="M341.95121951219505 270.6083183232356 L324.44444444444434 267.8450511335725 L324.44444444444434 260.76890900159276 L341.95121951219505 263.53217619125587 z"/>
<path fill="#bababa" stroke="#bababa" d="M357.3584905660377 276.9009689522358 L341.95121951219505 270.60831832323555 L341.95121951219505 263.53217619125587 L357.3584905660377 269.82482682025613 z"/>
<path fill="#bababa" stroke="#bababa" d="M369.5652173913043 286.2326838054691 L357.3584905660377 276.9009689522358 L357.3584905660377 269.8248268202561 L369.5652173913043 279.15654167348936 z"/>
<path fill="#bababa" stroke="#bababa" d="M377.391304347826 297.6110056925996 L369.5652173913043 286.2326838054691 L369.5652173913043 279.15654167348936 L377.391304347826 290.5348635606199 z"/>
<path fill="#bababa" stroke="#bababa" d="M379.99999999999994 310.08039954150973 L377.391304347826 297.6110056925996 L377.391304347826 290.5348635606199 L379.99999999999994 303.00425740953 z"/>
<path fill="#bababa" stroke="#bababa" d="M377.39130434782606 322.5497933904198 L380 310.08039954150973 L380 303.00425740953 L377.39130434782606 315.4736512584401 z"/>
<path fill="#bababa" stroke="#bababa" d="M369.5652173913043 333.9281152775503 L377.39130434782606 322.54979339041984 L377.39130434782606 315.4736512584401 L369.5652173913043 326.8519731455706 z"/>
<path fill="#bababa" stroke="#bababa" d="M357.3584905660377 343.2598301307836 L369.5652173913043 333.9281152775503 L369.5652173913043 326.85197314557064 L357.3584905660377 336.18368799880386 z"/>
<path fill="#bababa" stroke="#bababa" d="M341.95121951219505 349.55248075978375 L357.3584905660377 343.25983013078354 L357.3584905660377 336.1836879988038 L341.95121951219505 342.47633862780407 z"/>
<path fill="#bababa" stroke="#bababa" d="M324.44444444444434 352.3157479494469 L341.95121951219505 349.5524807597838 L341.95121951219505 342.4763386278041 L324.44444444444434 345.23960581746724 z"/>
<path fill="#bababa" stroke="#bababa" d="M-75.55555555555554 352.3157479494469 L324.4444444444444 352.3157479494469 L324.4444444444444 345.23960581746724 L-75.55555555555554 345.23960581746724 z"/>
<path fill="#bababa" stroke="#bababa" d="M-93.3333333333333 351.3892632666171 L-75.55555555555553 352.3157479494469 L-75.55555555555553 345.23960581746724 L-93.3333333333333 344.3131211346374 z"/>
<path fill="#bababa" stroke="#bababa" d="M-109.99999999999997 346.8235467496315 L-93.3333333333333 351.38926326661704 L-93.3333333333333 344.3131211346374 L-109.99999999999997 339.74740461765185 z"/>
<path fill="#bababa" stroke="#bababa" d="M-124.00000000000001 338.9096381201899 L-110.00000000000001 346.82354674963153 L-110.00000000000003 339.7474046176518 L-124.00000000000001 331.8334959882102 z"/>
<path fill="#bababa" stroke="#bababa" d="M-134 328.51341653555073 L-124.00000000000001 338.90963812018987 L-124.00000000000001 331.8334959882102 L-134 321.43727440357105 z"/>
<path fill="#bababa" stroke="#bababa" d="M-139.2771084337349 316.43979040445384 L-134 328.51341653555073 L-134 321.437274403571 L-139.2771084337349 309.36364827247417 z"/>
<path fill="#bababa" stroke="#bababa" d="M-139.2771084337349 313.6133944653676 L-139.2771084337349 316.4397904044539 L-139.2771084337349 309.36364827247417 L-139.2771084337349 306.53725233338787 z"/>
<path fill="#bababa" stroke="#bababa" d="M-139.2771084337349 306.2916404442068 L-139.2771084337349 299.4712624856721 L-139.2771084337349 296.64486654658583 L-139.2771084337349 303.72100867856557 L-139.2771084337349 306.54740461765186 z"/>
<path fill="#bababa" stroke="#bababa" d="M-133.99999999999997 291.6473825474687 L-139.27710843373487 303.7210086785655 L-139.27710843373487 296.64486654658583 L-133.99999999999997 284.57124041548894 z"/>
<path fill="#bababa" stroke="#bababa" d="M-123.99999999999997 281.2511609628295 L-133.99999999999997 291.6473825474686 L-133.99999999999997 284.57124041548894 L-123.99999999999999 274.1750188308498 z"/>
<path fill="#bababa" stroke="#bababa" d="M-109.99999999999999 273.3372523333879 L-123.99999999999997 281.2511609628295 L-123.99999999999997 274.1750188308498 L-109.99999999999997 266.26111020140814 z"/>
<path fill="#bababa" stroke="#bababa" d="M-93.3333333333333 268.7715358164023 L-109.99999999999997 273.3372523333879 L-109.99999999999997 266.26111020140814 L-93.3333333333333 261.69539368442264 z"/>
<path fill="#bababa" stroke="#bababa" d="M-75.55555555555553 267.84505113357244 L-93.3333333333333 268.77153581640226 L-93.3333333333333 261.6953936844226 L-75.55555555555553 260.76890900159276 z"/>
<path fill="#bababa" stroke="#bababa" d="M-92.43459400840449 306.5474046176518 L60 306.5474046176518 L60 299.4712624856721 L-139.2771084337349 299.4712624856721 L-139.2771084337349 306.5474046176518 z"/>
<path fill="#bababa" stroke="#bababa" d="M-95.51624418236861 313.61339446536755 L-139.2771084337349 313.61339446536755 L-139.2771084337349 306.53725233338787 L60 306.53725233338787 L60 313.61339446536755 z"/>
<path fill="#bababa" stroke="#bababa" d="M-112.83919642971317 299.4712624856721 L60 299.4712624856721 L60 306.53725233338787 L-139.2771084337349 306.53725233338787 L-139.2771084337349 309.36364827247417 L-134 321.43727440357105 L-124 331.83349598821025 L-110 339.74740461765185 L-93.33333333333331 344.31312113463736 L-75.55555555555554 345.23960581746724 L324.4444444444444 345.23960581746724 L341.9512195121951 342.4763386278041 L357.3584905660377 336.1836879988039 L369.5652173913043 326.85197314557064 L377.39130434782606 315.47365125844016 L380 303.00425740953 L377.39130434782606 290.5348635606199 L369.5652173913043 279.1565416734894 L357.3584905660377 269.82482682025613 L341.9512195121951 263.5321761912559 L324.4444444444444 260.76890900159276 L-75.55555555555554 260.76890900159276 L-93.33333333333331 261.69539368442264 L-110 266.2611102014082 L-124 274.1750188308498 L-134 284.57124041548894 L-139.2771084337349 296.64486654658583 L-139.2771084337349 299.4712624856721 z"/>
<path fill="#bababa" stroke="#bababa" d="M60 313.6133944653676 L60 306.54740461765186 L-139.2771084337349 306.54740461765186 L-139.2771084337349 303.72100867856557 L-134 291.6473825474687 L-124 281.2511609628295 L-110 273.3372523333879 L-93.33333333333331 268.7715358164023 L-75.55555555555554 267.8450511335725 L324.4444444444444 267.8450511335725 L341.9512195121951 270.6083183232356 L357.3584905660377 276.9009689522358 L369.5652173913043 286.2326838054691 L377.39130434782606 297.6110056925996 L380 310.08039954150973 L377.39130434782606 322.54979339041984 L369.5652173913043 333.9281152775503 L357.3584905660377 343.2598301307836 L341.9512195121951 349.5524807597838 L324.4444444444444 352.315747949447 L-75.55555555555554 352.315747949447 L-93.33333333333331 351.3892632666171 L-110 346.82354674963153 L-124 338.9096381201899 L-134 328.5134165355508 L-139.2771084337349 316.4397904044539 L-139.2771084337349 313.6133944653676 z"/>
<path fill="#bababa" stroke="#bababa" d="M60 -125.1074177173735 L60 -132.17340756508924 L60 -125.09726543310954 L60 -118.0312755853938 z"/>
<path fill="#bababa" stroke="#bababa" d="M324.4444444444444 -163.7996189171889 L-75.55555555555554 -163.7996189171889 L-75.55555555555554 -170.8757610491686 L324.4444444444444 -170.8757610491686 z"/>
<path fill="#bababa" stroke="#bababa" d="M341.95121951219505 -161.03635172752578 L324.44444444444434 -163.7996189171889 L324.44444444444434 -170.8757610491686 L341.95121951219505 -168.11249385950546 z"/>
<path fill="#bababa" stroke="#bababa" d="M357.3584905660377 -154.74370109852552 L341.95121951219505 -161.03635172752573 L341.95121951219505 -168.11249385950546 L357.3584905660377 -161.81984323050523 z"/>
<path fill="#bababa" stroke="#bababa" d="M369.5652173913043 -145.41198624529224 L357.3584905660377 -154.74370109852555 L357.3584905660377 -161.81984323050526 L369.5652173913043 -152.48812837727195 z"/>
<path fill="#bababa" stroke="#bababa" d="M377.391304347826 -134.0336643581618 L369.5652173913043 -145.41198624529227 L369.5652173913043 -152.48812837727195 L377.391304347826 -141.10980649014147 z"/>
<path fill="#bababa" stroke="#bababa" d="M379.99999999999994 -121.56427050925167 L377.391304347826 -134.0336643581618 L377.391304347826 -141.10980649014147 L379.99999999999994 -128.64041264123134 z"/>
<path fill="#bababa" stroke="#bababa" d="M377.39130434782606 -109.09487666034154 L380 -121.56427050925167 L380 -128.64041264123134 L377.39130434782606 -116.17101879232123 z"/>
<path fill="#bababa" stroke="#bababa" d="M369.5652173913043 -97.71655477321106 L377.39130434782606 -109.09487666034154 L377.39130434782606 -116.17101879232122 L369.5652173913043 -104.79269690519075 z"/>
<path fill="#bababa" stroke="#bababa" d="M357.3584905660377 -88.38483991997778 L369.5652173913043 -97.71655477321106 L369.5652173913044 -104.79269690519075 L357.3584905660377 -95.46098205195747 z"/>
<path fill="#bababa" stroke="#bababa" d="M341.95121951219505 -82.09218929097756 L357.3584905660377 -88.3848399199778 L357.3584905660377 -95.46098205195749 L341.95121951219505 -89.16833142295725 z"/>
<path fill="#bababa" stroke="#bababa" d="M324.44444444444434 -79.32892210131443 L341.95121951219505 -82.09218929097756 L341.95121951219505 -89.16833142295725 L324.44444444444434 -86.40506423329413 z"/>
<path fill="#bababa" stroke="#bababa" d="M-75.55555555555554 -79.32892210131443 L324.4444444444444 -79.32892210131443 L324.4444444444444 -86.40506423329413 L-75.55555555555554 -86.40506423329413 z"/>
<path fill="#bababa" stroke="#bababa" d="M-93.3333333333333 -80.25540678414428 L-75.55555555555553 -79.32892210131443 L-75.55555555555553 -86.40506423329413 L-93.3333333333333 -87.33154891612398 z"/>
<path fill="#bababa" stroke="#bababa" d="M-109.99999999999997 -84.82112330112983 L-93.3333333333333 -80.25540678414428 L-93.3333333333333 -87.33154891612398 L-109.99999999999997 -91.89726543310952 z"/>
<path fill="#bababa" stroke="#bababa" d="M-124 -92.73503193057147 L-110 -84.82112330112984 L-110.00000000000001 -91.89726543310954 L-124.00000000000001 -99.81117406255116 z"/>
<path fill="#bababa" stroke="#bababa" d="M-134 -103.13125351521062 L-124.00000000000003 -92.73503193057147 L-123.99999999999999 -99.81117406255116 L-134 -110.20739564719031 z"/>
<path fill="#bababa" stroke="#bababa" d="M-139.2771084337349 -115.2048796463075 L-134 -103.1312535152106 L-134 -110.20739564719031 L-139.2771084337349 -122.2810217782872 z"/>
<path fill="#bababa" stroke="#bababa" d="M-139.2771084337349 -118.0312755853938 L-139.2771084337349 -115.2048796463075 L-139.2771084337349 -122.2810217782872 L-139.2771084337349 -125.1074177173735 z"/>
<path fill="#bababa" stroke="#bababa" d="M-139.2771084337349 -125.3530296065546 L-139.2771084337349 -132.17340756508924 L-139.2771084337349 -134.99980350417553 L-139.2771084337349 -127.92366137219584 L-139.2771084337349 -125.09726543310954 z"/>
<path fill="#bababa" stroke="#bababa" d="M-133.99999999999997 -139.9972875032927 L-139.27710843373487 -127.92366137219581 L-139.27710843373487 -134.99980350417553 L-133.99999999999997 -147.0734296352724 z"/>
<path fill="#bababa" stroke="#bababa" d="M-123.99999999999999 -150.39350908793185 L-133.99999999999997 -139.9972875032927 L-133.99999999999997 -147.0734296352724 L-123.99999999999997 -157.46965121991155 z"/>
<path fill="#bababa" stroke="#bababa" d="M-109.99999999999999 -158.30741771737348 L-123.99999999999999 -150.39350908793185 L-123.99999999999997 -157.46965121991155 L-109.99999999999999 -165.38355984935316 z"/>
<path fill="#bababa" stroke="#bababa" d="M-93.3333333333333 -162.87313423435904 L-109.99999999999997 -158.30741771737348 L-109.99999999999997 -165.38355984935316 L-93.3333333333333 -169.94927636633872 z"/>
<path fill="#bababa" stroke="#bababa" d="M-75.55555555555553 -163.7996189171889 L-93.3333333333333 -162.87313423435904 L-93.3333333333333 -169.94927636633872 L-75.55555555555553 -170.87576104916857 z"/>
<path fill="#bababa" stroke="#bababa" d="M-92.43459400840449 -125.09726543310953 L60 -125.09726543310953 L60 -132.1734075650892 L-139.2771084337349 -132.1734075650892 L-139.2771084337349 -125.09726543310953 z"/>
<path fill="#bababa" stroke="#bababa" d="M-95.51624418236861 -118.03127558539379 L-139.2771084337349 -118.03127558539379 L-139.2771084337349 -125.10741771737348 L60 -125.10741771737348 L60 -118.03127558539379 z"/>
<path fill="#bababa" stroke="#bababa" d="M-112.83919642971317 -132.17340756508926 L60 -132.17340756508926 L60 -125.10741771737354 L-139.2771084337349 -125.10741771737354 L-139.2771084337349 -122.28102177828721 L-134 -110.20739564719035 L-124 -99.81117406255117 L-110 -91.89726543310955 L-93.33333333333331 -87.33154891612402 L-75.55555555555554 -86.40506423329418 L324.4444444444444 -86.40506423329418 L341.9512195121951 -89.1683314229573 L357.3584905660377 -95.46098205195752 L369.5652173913043 -104.79269690519077 L377.39130434782606 -116.17101879232129 L380 -128.6404126412314 L377.39130434782606 -141.1098064901415 L369.5652173913043 -152.48812837727203 L357.3584905660377 -161.81984323050528 L341.9512195121951 -168.1124938595055 L324.4444444444444 -170.8757610491686 L-75.55555555555554 -170.8757610491686 L-93.33333333333331 -169.94927636633878 L-110 -165.38355984935325 L-124 -157.4696512199116 L-134 -147.07342963527245 L-139.2771084337349 -134.9998035041756 L-139.2771084337349 -132.17340756508926 z"/>
<path fill="#bababa" stroke="#bababa" d="M60 -118.03127558539383 L60 -125.09726543310956 L-139.2771084337349 -125.09726543310956 L-139.2771084337349 -127.92366137219587 L-134 -139.99728750329274 L-124 -150.3935090879319 L-110 -158.30741771737354 L-93.33333333333331 -162.87313423435907 L-75.55555555555554 -163.79961891718895 L324.4444444444444 -163.79961891718895 L341.9512195121951 -161.03635172752578 L357.3584905660377 -154.74370109852558 L369.5652173913043 -145.41198624529233 L377.39130434782606 -134.03366435816184 L380 -121.56427050925168 L377.39130434782606 -109.09487666034158 L369.5652173913043 -97.71655477321112 L357.3584905660377 -88.3848399199778 L341.9512195121951 -82.09218929097759 L324.4444444444444 -79.32892210131448 L-75.55555555555554 -79.32892210131448 L-93.33333333333331 -80.25540678414431 L-110 -84.8211233011299 L-124 -92.73503193057147 L-134 -103.13125351521064 L-139.2771084337349 -115.20487964630756 L-139.2771084337349 -118.03127558539383 z"/>
</svg>