<?xml version="1.0" encoding="UTF-8"?>
<!-- Generated by jsxcad -->
<!DOCTYPE svg PUBLIC "-//W3C//DTD SVG 1.1 Tiny//EN" "http://www.w3.org/Graphics/SVG/1.1/DTD/svg11-tiny.dtd">
<svg baseProfile="tiny" height="610.2978864790036mm" width="547.2800000000003mm" viewBox="-167.2800000000001 -354.181587448085 547.2800000000003 610.2978864790036" version="1.1" stroke="black" stroke-width=".1" fill="none" xmlns="http://www.w3.org/2000/svg">
<path fill="#bababa" stroke="#bababa" d="M-139.2771084337349 305.5868481772035 L-139.2771084337349 298.5107060452238 L-139.2771084337349 304.87009690816797 L-139.2771084337349 311.94623904014765 z"/>
<path fill="#bababa" stroke="#bababa" d="M-139.2771084337349 -119.69843101061375 L-139.2771084337349 -126.05782187355791 L-139.2771084337349 -133.1339640055376 L-139.2771084337349 -126.77457314259344 z"/>
<path fill="#bababa" stroke="#bababa" d="M35 301.3371019843101 L168 301.3371019843101 L168 308.4132441162898 L15 308.4132441162898 L15 301.3371019843101 z"/>
<path fill="#bababa" stroke="#bababa" d="M35 -130.3075680664513 L168 -130.3075680664513 L168 -123.23142593447159 L15 -123.23142593447159 L15 -130.3075680664513 z"/>
<path fill="#bababa" stroke="#bababa" d="M15 304.87009690816797 L15 301.3371019843101 L15 308.4132441162898 L15 311.94623904014765 z"/>
<path fill="#bababa" stroke="#bababa" d="M15 -130.3075680664513 L15 -123.23142593447162 L15 -119.69843101061375 L15 -126.77457314259344 z"/>
<path fill="#bababa" stroke="#bababa" d="M122.29729729729729 -219.61488045498194 L125 -208.14005537609594 L125 -201.07406552838023 L122.2972972972973 -212.54889060726623 z"/>
<path fill="#bababa" stroke="#bababa" d="M41.12903225806451 -234.1552838024919 L54.87012987012986 -240.5723734810029 L54.87012987012986 -233.5063836332872 L41.12903225806451 -227.0892939547762 z"/>
<path fill="#bababa" stroke="#bababa" d="M25.724637681159418 -202.35048454083986 L25.724637681159418 -213.9296262113521 L25.724637681159418 -206.86363636363635 L25.724637681159418 -195.28449469312412 z"/>
<path fill="#bababa" stroke="#bababa" d="M29.94492753623189 -186.43778539565338 L31.000000000000007 -184.22610807128572 L31.000000000000004 -191.29209791900146 L25.724637681159425 -202.35048454083983 L25.72463768115944 -195.2844946931241 z"/>
<path fill="#bababa" stroke="#bababa" d="M39.10322580645164 -176.8922912958446 L41.129032258064555 -175.0588371019843 L41.12903225806454 -182.12482694970004 L31.000000000000014 -191.29209791900144 L31.000000000000032 -184.2261080712857 z"/>
<path fill="#bababa" stroke="#bababa" d="M53.49602010892332 -176.34944623904016 L41.12903225806451 -182.12482694970006 L41.12903225806451 -175.05883710198432 L54.87012987012986 -168.64174742347333 L54.87012987012986 -175.70773727118907 z"/>
<path fill="#bababa" stroke="#bababa" d="M122.29729729729732 -219.61488045498197 L122.29729729729733 -212.5488906072662 L114.47368421052636 -222.78495616059064 L114.47368421052636 -229.85094600830635 z"/>
<path fill="#bababa" stroke="#bababa" d="M120.73257467994306 -187.55202733882936 L122.29729729729729 -189.59924044949423 L122.29729729729725 -196.66523029720994 L114.4736842105263 -186.4291647438855 L114.4736842105263 -179.3631748961698 z"/>
<path fill="#bababa" stroke="#bababa" d="M100.8673469387755 -178.0335807225084 L87.24489795918366 -173.86499192431933 L87.24489795918366 -166.7990020766036 L102.38095238095237 -171.43076740792478 L102.38095238095237 -178.4967572556405 z"/>
<path fill="#bababa" stroke="#bababa" d="M26.221206741803453 -207.9045606310432 L25.7246376811594 -206.86363636363632 L25.7246376811594 -213.92962621135206 L30.999999999999982 -224.98801283319045 L30.999999999999982 -217.92202298547474 z"/>
<path fill="#bababa" stroke="#bababa" d="M54.870129870129865 -240.57237348100298 L70.83333333333333 -243.36490387449717 L70.83333333333333 -236.29891402678143 L54.870129870129865 -233.50638363328724 z"/>
<path fill="#bababa" stroke="#bababa" d="M33.02580645161288 -219.75547717933503 L30.99999999999999 -217.92202298547474 L30.999999999999964 -224.9880128331905 L41.129032258064456 -234.1552838024919 L41.129032258064484 -227.08929395477614 z"/>
<path fill="#bababa" stroke="#bababa" d="M67.64069264069263 -166.40772310867803 L70.83333333333331 -165.8492170299792 L70.83333333333331 -172.9152068776949 L54.870129870129865 -175.7077372711891 L54.870129870129865 -168.6417474234734 z"/>
<path fill="#bababa" stroke="#bababa" d="M97.66996559273967 -232.15896690117174 L87.24489795918366 -235.34912898015696 L87.24489795918366 -242.41511882787267 L102.38095238095237 -237.7833534965515 L102.38095238095237 -230.71736364883577 z"/>
<path fill="#bababa" stroke="#bababa" d="M104.79949874686726 -229.1308821511867 L102.38095238095248 -230.71736364883566 L102.38095238095246 -237.78335349655146 L114.47368421052637 -229.85094600830638 L114.47368421052639 -222.7849561605906 z"/>
<path fill="#bababa" stroke="#bababa" d="M-79.16666666666666 -243.36490387449717 L-62.75510204081632 -242.4151188278727 L-62.75510204081632 -235.34912898015696 L-79.16666666666666 -236.29891402678143 z"/>
<path fill="#bababa" stroke="#bababa" d="M-91.93722943722942 -234.06488971198607 L-95.12987012987011 -233.50638363328724 L-95.12987012987011 -240.57237348100298 L-79.16666666666666 -243.36490387449717 L-79.16666666666666 -236.29891402678143 z"/>
<path fill="#bababa" stroke="#bababa" d="M110.8728740976436 -177.00116989136805 L114.47368421052623 -179.36317489616977 L114.47368421052629 -186.42916474388556 L102.38095238095232 -178.49675725564046 L102.38095238095232 -171.43076740792478 z"/>
<path fill="#bababa" stroke="#bababa" d="M-95.12987012987011 -175.70773727118905 L-108.87096774193546 -182.12482694970004 L-108.87096774193546 -175.05883710198432 L-95.12987012987011 -168.6417474234733 z"/>
<path fill="#bababa" stroke="#bababa" d="M-117.98709677419359 -225.90473993012063 L-108.87096774193552 -234.15528380249194 L-108.87096774193549 -227.08929395477617 L-119.00000000000001 -217.92202298547474 L-119.00000000000003 -224.98801283319045 z"/>
<path fill="#bababa" stroke="#bababa" d="M-124.27536231884059 -213.9296262113521 L-119.00000000000001 -224.98801283319048 L-119.00000000000001 -217.92202298547474 L-124.2753623188406 -206.86363636363635 z"/>
<path fill="#bababa" stroke="#bababa" d="M-124.27536231884058 -202.35048454083986 L-124.27536231884058 -213.9296262113521 L-124.27536231884058 -206.86363636363635 L-124.27536231884058 -195.28449469312412 z"/>
<path fill="#bababa" stroke="#bababa" d="M124.66918721411574 -206.73552840090008 L122.29729729729729 -196.66523029720997 L122.29729729729728 -189.59924044949423 L124.99999999999999 -201.0740655283802 L124.99999999999999 -208.14005537609594 z"/>
<path fill="#bababa" stroke="#bababa" d="M-108.87096774193546 -234.155283802492 L-95.12987012987013 -240.57237348100298 L-95.12987012987013 -233.50638363328724 L-108.87096774193546 -227.08929395477625 z"/>
<path fill="#bababa" stroke="#bababa" d="M-61.24149659863944 -241.95194229474058 L-47.61904761904761 -237.7833534965515 L-47.61904761904761 -230.71736364883574 L-62.755102040816325 -235.3491289801569 L-62.755102040816325 -242.4151188278727 z"/>
<path fill="#bababa" stroke="#bababa" d="M-82.35930735930735 -166.40772310867803 L-79.16666666666666 -165.84921702997917 L-79.16666666666666 -172.9152068776949 L-95.12987012987011 -175.7077372711891 L-95.12987012987011 -168.64174742347336 z"/>
<path fill="#bababa" stroke="#bababa" d="M-28.48506401137983 -195.6416237418775 L-35.526315789473706 -186.42916474388554 L-35.52631578947372 -179.36317489616977 L-27.702702702702748 -189.59924044949423 L-27.702702702702734 -196.66523029721 z"/>
<path fill="#bababa" stroke="#bababa" d="M-27.432432432432424 -218.46739794709336 L-24.99999999999999 -208.14005537609594 L-24.999999999999996 -201.0740655283802 L-27.702702702702698 -212.5488906072662 L-27.70270270270269 -219.61488045498194 z"/>
<path fill="#bababa" stroke="#bababa" d="M-25.540540540540547 -198.779100512603 L-25.000000000000004 -201.07406552838023 L-25.000000000000004 -208.14005537609597 L-27.70270270270271 -196.66523029720997 L-27.70270270270271 -189.59924044949423 z"/>
<path fill="#bababa" stroke="#bababa" d="M-138.96827002667152 304.46612382592923 L-138.96827002667152 297.8041070604522 L-139.27710843373487 298.51070604522374 L-139.27710843373487 305.5868481772034 L-138.96827002667152 304.88024919243185 z"/>
<path fill="#bababa" stroke="#bababa" d="M-138.96827002667152 -126.76442085832946 L-138.96827002667152 -133.84056299030917 L-139.27710843373487 -133.1339640055376 L-139.27710843373487 -126.0578218735579 z"/>
<path fill="#bababa" stroke="#bababa" d="M-118.99999999999996 -184.2261080712857 L-108.87096774193543 -175.0588371019843 L-108.87096774193544 -182.12482694970004 L-118.99999999999997 -191.29209791900144 z"/>
<path fill="#bababa" stroke="#bababa" d="M-47.61904761904766 -171.43076740792478 L-35.52631578947376 -179.36317489616977 L-35.5263157894737 -186.42916474388556 L-47.61904761904766 -178.49675725564046 z"/>
<path fill="#bababa" stroke="#bababa" d="M-124.27536231884055 -195.2844946931241 L-118.99999999999999 -184.22610807128572 L-118.99999999999999 -191.29209791900146 L-124.27536231884056 -202.35048454083983 z"/>
<path fill="#bababa" stroke="#bababa" d="M124 258.87517305029985 L124 -77.94919243193354 L124.70022724198122 -83.91227023423735 L124.70022724198124 253.1090288433021 z"/>
<path fill="#bababa" stroke="#bababa" d="M-121.88526592146174 -88.7012369031337 L-121.36585365853658 -82.4537609598523 L-124.70022724198124 -83.91227023423735 z"/>
<path fill="#bababa" stroke="#bababa" d="M-121.8852659214617 -88.7012369031337 L-115.13915322193428 -90.67782210426041 L-121.36585365853655 -82.4537609598523 z"/>
<path fill="#bababa" stroke="#bababa" d="M-121.88526592146171 257.86735263444757 L-121.52439626962469 256.7878482464447 L-121.88526592146171 256.68129523025806 z"/>
<path fill="#bababa" stroke="#bababa" d="M-121.88526592146172 256.68129523025806 L-122.03584658278712 256.4259387355064 L-121.88526592146172 257.86735263444757 z"/>
<path fill="#bababa" stroke="#bababa" d="M-115.13915322193428 -91.87920094732536 L-115.13915322193428 -90.67782210426046 L-121.88526592146171 -88.70123690313376 L-121.88526592146171 -89.88729430732322 z"/>
<path fill="#bababa" stroke="#bababa" d="M-121.88526592146172 257.8673526344475 L-124.70022724198124 253.1090288433021 L-121.36585365853658 263.3797415782186 z"/>
<path fill="#bababa" stroke="#bababa" d="M-115.13915322193428 259.87458071332514 L-121.36585365853657 263.37974157821867 L-114.99999999999999 265.24370096908166 z"/>
<path fill="#bababa" stroke="#bababa" d="M-124.70022724198124 253.10902884330207 L-121.88526592146171 257.86735263444757 L-122.03584658278712 256.4259387355064 L-124.70022724198124 251.90765000023717 z"/>
<path fill="#bababa" stroke="#bababa" d="M-124.70022724198124 253.10902884330207 L-124 258.8751730502999 L-121.36585365853658 263.37974157821867 z"/>
<path fill="#bababa" stroke="#bababa" d="M-121.88526592146171 257.86735263444757 L-121.36585365853657 263.37974157821867 L-115.13915322193428 259.87458071332514 z"/>
<path fill="#bababa" stroke="#bababa" d="M121.36585365853657 263.37974157821867 L121.88526592146168 257.86735263444757 L115.13915322193427 259.87458071332514 z"/>
<path fill="#bababa" stroke="#bababa" d="M71.47214673835651 -84.31772035071526 L-115 -84.31772035071526 L-115.1391532219343 -90.67782210426041 L115.1391532219343 -90.67782210426041 L115 -84.31772035071526 z"/>
<path fill="#bababa" stroke="#bababa" d="M-114.99999999999999 -84.31772035071526 L-121.36585365853657 -82.4537609598523 L-115.13915322193427 -90.67782210426041 z"/>
<path fill="#bababa" stroke="#bababa" d="M-124.70022724198125 -83.91227023423735 L-121.3658536585366 -82.4537609598523 L-124 -77.94919243193354 z"/>
<path fill="#bababa" stroke="#bababa" d="M-109.4357105407859 297.8041070604522 L168 297.8041070604522 L168 301.3371019843101 L15 301.3371019843101 L15 304.87009690816797 L-139.2771084337349 304.87009690816797 L-139.2771084337349 298.5107060452238 L-138.96827002667152 297.8041070604522 z"/>
<path fill="#bababa" stroke="#bababa" d="M114.99999999999999 265.24370096908166 L121.36585365853657 263.37974157821867 L115.13915322193428 259.87458071332514 z"/>
<path fill="#bababa" stroke="#bababa" d="M124 -77.94919243193354 L121.3658536585366 -82.4537609598523 L124.70022724198125 -83.91227023423735 z"/>
<path fill="#bababa" stroke="#bababa" d="M114.99999999999999 -84.31772035071526 L115.13915322193427 -90.67782210426041 L121.36585365853657 -82.4537609598523 z"/>
<path fill="#bababa" stroke="#bababa" d="M121.36585365853658 263.3797415782186 L124.70022724198124 253.10902884330207 L121.88526592146171 257.86735263444757 z"/>
<path fill="#bababa" stroke="#bababa" d="M115.13915322193428 -90.67782210426041 L121.8852659214617 -88.7012369031337 L121.36585365853655 -82.4537609598523 z"/>
<path fill="#bababa" stroke="#bababa" d="M85.60374149659863 -173.77001341965692 L70.83333333333331 -172.91520687769489 L70.83333333333331 -165.84921702997914 L87.24489795918366 -166.7990020766036 L87.24489795918366 -173.86499192431936 z"/>
<path fill="#bababa" stroke="#bababa" d="M121.88526592146174 -88.7012369031337 L124.70022724198124 -83.91227023423735 L121.36585365853658 -82.4537609598523 z"/>
<path fill="#bababa" stroke="#bababa" d="M124 258.8751730502999 L124.70022724198124 253.1090288433021 L121.36585365853658 263.37974157821867 z"/>
<path fill="#bababa" stroke="#bababa" d="M115.13915322193428 258.67320187026024 L115.13915322193428 259.87458071332514 L121.8852659214617 257.86735263444757 L121.8852659214617 256.68129523025806 z"/>
<path fill="#bababa" stroke="#bababa" d="M-115.13915322193428 258.67320187026024 L-121.52439626962469 256.7878482464447 L-121.88526592146171 257.86735263444757 L-115.13915322193428 259.87458071332514 z"/>
<path fill="#bababa" stroke="#bababa" d="M124.70022724198124 251.9076500002372 L121.88526592146171 256.68129523025806 L121.88526592146171 257.8673526344475 L124.70022724198124 253.1090288433021 z"/>
<path fill="#bababa" stroke="#bababa" d="M121.8852659214617 -89.88729430732322 L121.8852659214617 -88.70123690313376 L115.13915322193428 -90.67782210426046 L115.13915322193428 -91.87920094732536 z"/>
<path fill="#bababa" stroke="#bababa" d="M-124.70022724198124 -83.91227023423735 L-124.70022724198124 253.1090288433021 L-124.70022724198124 251.90765000023717 L-124.70022724198124 -85.11364907730227 z"/>
<path fill="#bababa" stroke="#bababa" d="M124.70022724198124 251.9076500002372 L124.70022724198124 253.10902884330213 L124.70022724198124 -83.91227023423735 L124.70022724198124 -85.11364907730227 z"/>
<path fill="#bababa" stroke="#bababa" d="M115.1391532219343 258.67320187026024 L-115.1391532219343 258.67320187026024 L-115.1391532219343 259.87458071332514 L115.1391532219343 259.87458071332514 z"/>
<path fill="#bababa" stroke="#bababa" d="M124.70022724198124 -83.91227023423735 L121.88526592146172 -88.7012369031337 L121.88526592146172 -89.88729430732317 L124.70022724198124 -85.11364907730227 z"/>
<path fill="#bababa" stroke="#bababa" d="M102.67037032412183 -91.87920094732536 L115.1391532219343 -91.87920094732536 L115.1391532219343 -90.67782210426044 L-115.1391532219343 -90.67782210426044 L-115.1391532219343 -91.87920094732536 z"/>
<path fill="#bababa" stroke="#bababa" d="M-46.40977443609014 -236.9901127477269 L-35.526315789473635 -229.85094600830638 L-35.52631578947367 -222.78495616059067 L-47.619047619047606 -230.7173636488357 L-47.619047619047564 -237.78335349655143 z"/>
<path fill="#bababa" stroke="#bababa" d="M166.03308130044707 304.8802491924319 L-138.96827002667152 304.8802491924319 L-139.2771084337349 305.5868481772035 L-139.2771084337349 311.94623904014765 L15 311.94623904014765 L15 308.4132441162898 L168 308.4132441162898 L168 304.8802491924319 z"/>
<path fill="#bababa" stroke="#bababa" d="M86.07537474161212 -235.4168126952111 L70.83333333333331 -236.29891402678138 L70.83333333333331 -243.3649038744971 L87.24489795918366 -242.41511882787262 L87.24489795918366 -235.3491289801569 z"/>
<path fill="#bababa" stroke="#bababa" d="M-33.961593172119464 -220.73774304992577 L-35.52631578947365 -222.78495616059064 L-35.52631578947365 -229.85094600830638 L-27.702702702702677 -219.61488045498194 L-27.702702702702677 -212.5488906072662 z"/>
<path fill="#bababa" stroke="#bababa" d="M147.42857142857142 342.2321273650207 L-152.57142857142856 342.2321273650207 L-152.57142857142856 335.16613751730495 L147.42857142857142 335.16613751730495 z"/>
<path fill="#bababa" stroke="#bababa" d="M157.4634146341463 341.2157360406091 L147.4285714285714 342.2321273650207 L147.4285714285714 335.16613751730495 L157.4634146341463 334.14974619289336 z"/>
<path fill="#bababa" stroke="#bababa" d="M165.1578947368421 336.5214894174284 L157.46341463414635 341.21573604060904 L157.46341463414635 334.1497461928933 L165.1578947368421 329.4554995697127 z"/>
<path fill="#bababa" stroke="#bababa" d="M168 329.6365943700968 L165.15789473684208 336.5214894174284 L165.15789473684208 329.4554995697127 L168 322.57060452238113 z"/>
<path fill="#bababa" stroke="#bababa" d="M90.32029171359824 -133.8405629903092 L168 -133.8405629903092 L168 -130.3075680664513 L15 -130.3075680664513 L15 -126.77457314259351 L-139.2771084337349 -126.77457314259351 L-139.2771084337349 -133.13396400553762 L-138.96827002667152 -133.8405629903092 z"/>
<path fill="#bababa" stroke="#bababa" d="M168 -132.85142619690805 L168 -133.84056299030917 L168 -243.52076603599446 L168 -236.45477618827871 L168 329.6365943700969 L168 322.57060452238113 L168 304.8802491924319 L168 308.4132441162898 L168 301.3371019843101 L168 297.8041070604522 L168 -126.76442085832949 L168 -123.23142593447162 L168 -130.3075680664513 z"/>
<path fill="#bababa" stroke="#bababa" d="M165.15789473684208 -243.33967123561024 L168 -236.4547761882787 L168 -243.52076603599443 L165.15789473684208 -250.405661083326 z"/>
<path fill="#bababa" stroke="#bababa" d="M157.4634146341464 -248.0339178587909 L165.1578947368421 -243.33967123561024 L165.1578947368421 -250.40566108332598 L157.46341463414635 -255.0999077065066 z"/>
<path fill="#bababa" stroke="#bababa" d="M147.4285714285714 -249.05030918320264 L157.4634146341463 -248.03391785879103 L157.4634146341463 -255.0999077065067 L147.4285714285714 -256.1162990309183 z"/>
<path fill="#bababa" stroke="#bababa" d="M-152.57142857142856 -249.05030918320256 L147.42857142857142 -249.05030918320256 L147.42857142857142 -256.11629903091836 L-152.57142857142856 -256.11629903091836 z"/>
<path fill="#bababa" stroke="#bababa" d="M-161.79310344827582 -246.08523304107058 L-152.57142857142853 -249.05030918320256 L-152.57142857142853 -256.11629903091836 L-161.79310344827582 -253.1512228887864 z"/>
<path fill="#bababa" stroke="#bababa" d="M-167.28 -240.03707314259344 L-161.79310344827584 -246.08523304107052 L-161.7931034482759 -253.15122288878626 L-167.28 -247.10306299030913 z"/>
<path fill="#bababa" stroke="#bababa" d="M-167.27999999999997 333.2188913244116 L-167.27999999999997 -240.03707314259344 L-167.27999999999997 -247.10306299030916 L-167.27999999999997 326.1529014766959 z"/>
<path fill="#bababa" stroke="#bababa" d="M-161.79310344827584 339.2670512228887 L-167.27999999999997 333.2188913244116 L-167.27999999999997 326.15290147669583 L-161.79310344827584 332.20106137517297 z"/>
<path fill="#bababa" stroke="#bababa" d="M-152.57142857142853 342.23212736502074 L-161.79310344827582 339.26705122288877 L-161.79310344827582 332.201061375173 L-152.57142857142853 335.166137517305 z"/>
<path fill="#bababa" stroke="#bababa" d="M-110.79776276339769 265.24370096908166 L115 265.24370096908166 L115.1391532219343 259.87458071332514 L-115.1391532219343 259.87458071332514 L-115 265.24370096908166 z"/>
<path fill="#bababa" stroke="#bababa" d="M-121.88526592146172 -88.7012369031337 L-124.70022724198124 -83.91227023423735 L-124.70022724198124 -85.11364907730227 L-121.88526592146172 -89.88729430732317 z"/>
<path fill="#bababa" stroke="#bababa" d="M-124.70022724198124 253.10902884330207 L-124.70022724198122 -83.91227023423735 L-124 -77.94919243193354 L-124 258.8751730502999 z"/>
<path fill="#bababa" stroke="#bababa" d="M-62.75510204081632 -173.8649919243194 L-79.16666666666666 -172.9152068776949 L-79.16666666666666 -165.84921702997914 L-62.75510204081632 -166.7990020766036 z"/>
<path fill="#bababa" stroke="#bababa" d="M87.81084864637985 -126.76442085832947 L168 -126.76442085832947 L168 297.80410706045217 L-138.96827002667152 297.80410706045217 L-138.96827002667152 304.88024919243185 L168 304.88024919243185 L168 322.5706045223811 L165.15789473684208 329.4554995697127 L157.46341463414632 334.14974619289336 L147.42857142857142 335.16613751730495 L-152.57142857142856 335.16613751730495 L-161.79310344827584 332.20106137517297 L-167.27999999999997 326.15290147669583 L-167.27999999999997 -247.10306299030916 L-161.79310344827584 -253.15122288878626 L-152.57142857142856 -256.11629903091824 L147.42857142857142 -256.11629903091824 L157.46341463414632 -255.09990770650663 L165.15789473684208 -250.405661083326 L168 -243.52076603599446 L168 -133.84056299030917 L-138.96827002667152 -133.84056299030917 L-138.96827002667152 -126.76442085832947 z M-35.52631578947368 -186.4291647438855 L-27.7027027027027 -196.66523029720994 L-25 -208.14005537609594 L-27.7027027027027 -219.61488045498194 L-35.52631578947368 -229.85094600830638 L-47.61904761904761 -237.78335349655143 L-62.755102040816325 -242.4151188278726 L-79.16666666666666 -243.36490387449706 L-95.12987012987013 -240.5723734810029 L-108.87096774193547 -234.15528380249188 L-119 -224.98801283319048 L-124.27536231884058 -213.9296262113521 L-124.27536231884058 -202.35048454083983 L-119 -191.29209791900144 L-108.87096774193547 -182.1248269497 L-95.12987012987013 -175.70773727118905 L-79.16666666666666 -172.91520687769483 L-62.755102040816325 -173.8649919243193 L-47.61904761904761 -178.49675725564046 z M116.58053515802894 -189.18567432207345 L122.29729729729729 -196.66523029720994 L125 -208.14005537609594 L122.29729729729729 -219.61488045498194 L114.47368421052632 -229.85094600830638 L102.38095238095238 -237.78335349655143 L87.24489795918366 -242.4151188278726 L70.83333333333333 -243.36490387449706 L54.870129870129865 -240.5723734810029 L41.12903225806451 -234.15528380249188 L31 -224.98801283319048 L25.724637681159418 -213.9296262113521 L25.724637681159418 -202.35048454083983 L31 -191.29209791900144 L41.12903225806451 -182.1248269497 L54.870129870129865 -175.70773727118905 L70.83333333333333 -172.91520687769483 L87.24489795918366 -173.8649919243193 L102.38095238095238 -178.49675725564046 L114.47368421052632 -186.4291647438855 z M64.0993088299529 -91.87920094732533 L-115.1391532219343 -91.87920094732533 L-121.88526592146172 -89.88729430732319 L-124.70022724198124 -85.11364907730227 L-124.70022724198124 251.90765000023717 L-122.03584658278712 256.42593873550635 L-121.88526592146171 256.68129523025806 L-121.5243962696247 256.78784824644464 L-115.1391532219343 258.67320187026024 L115.1391532219343 258.67320187026024 L121.88526592146171 256.68129523025806 L124.70022724198124 251.90765000023717 L124.70022724198124 -85.11364907730227 L121.88526592146172 -89.88729430732319 L115.1391532219343 -91.87920094732533 z"/>
<path fill="#bababa" stroke="#bababa" d="M26.580425168150825 -126.76442085832949 L-138.96827002667152 -126.76442085832949 L-139.2771084337349 -126.05782187355796 L-139.2771084337349 -119.69843101061379 L15 -119.69843101061379 L15 -123.23142593447163 L168 -123.23142593447163 L168 -126.76442085832949 z"/>
<path fill="#bababa" stroke="#bababa" d="M-62.755102040816325 -166.79900207660367 L-47.619047619047606 -171.43076740792483 L-47.619047619047606 -178.49675725564057 L-62.755102040816325 -173.8649919243194 z"/>
<path fill="#bababa" stroke="#bababa" d="M147.42857142857142 -249.05030918320253 L-152.57142857142856 -249.05030918320253 L-161.79310344827584 -246.08523304107055 L-167.27999999999997 -240.0370731425934 L-167.27999999999997 333.2188913244116 L-161.79310344827584 339.2670512228887 L-152.57142857142856 342.23212736502063 L147.42857142857142 342.23212736502063 L157.46341463414632 341.21573604060904 L165.15789473684208 336.52148941742837 L168 329.6365943700968 L168 -236.45477618827871 L165.15789473684208 -243.33967123561027 L157.46341463414632 -248.0339178587909 z M-106.50842047584871 -126.77457314259344 L15 -126.77457314259344 L15 -119.69843101061375 L-139.2771084337349 -119.69843101061375 L-139.2771084337349 -126.77457314259344 z M-124 258.8751730502999 L-124 -77.94919243193354 L-121.36585365853658 -82.45376095985229 L-115 -84.31772035071525 L115 -84.31772035071525 L121.36585365853658 -82.45376095985229 L124 -77.94919243193354 L124 258.8751730502999 L121.36585365853658 263.37974157821867 L115 265.2437009690816 L-115 265.2437009690816 L-121.36585365853658 263.37974157821867 z M-66.03741496598639 -166.60904506727866 L-79.16666666666666 -165.8492170299791 L-95.12987012987013 -168.64174742347328 L-108.87096774193547 -175.05883710198427 L-119 -184.2261080712857 L-124.27536231884058 -195.2844946931241 L-124.27536231884058 -206.86363636363635 L-119 -217.92202298547474 L-108.87096774193547 -227.08929395477614 L-95.12987012987013 -233.50638363328716 L-79.16666666666666 -236.29891402678135 L-62.755102040816325 -235.34912898015688 L-47.61904761904761 -230.7173636488357 L-35.52631578947368 -222.78495616059064 L-27.7027027027027 -212.5488906072662 L-25 -201.07406552838023 L-27.7027027027027 -189.59924044949423 L-35.52631578947368 -179.3631748961698 L-47.61904761904761 -171.43076740792475 L-62.755102040816325 -166.79900207660356 z M70.83333333333333 -236.29891402678135 L87.24489795918366 -235.34912898015688 L102.38095238095238 -230.7173636488357 L114.47368421052632 -222.78495616059064 L122.29729729729729 -212.5488906072662 L125 -201.07406552838023 L122.29729729729729 -189.59924044949423 L114.47368421052632 -179.3631748961698 L102.38095238095238 -171.43076740792475 L87.24489795918366 -166.79900207660356 L70.83333333333333 -165.8492170299791 L54.870129870129865 -168.64174742347328 L41.12903225806451 -175.05883710198427 L31 -184.2261080712857 L25.724637681159418 -195.2844946931241 L25.724637681159418 -206.86363636363635 L31 -217.92202298547474 L41.12903225806451 -227.08929395477614 L54.870129870129865 -233.50638363328716 z M-139.2771084337349 308.6391279347301 L-139.2771084337349 304.8700969081679 L15 304.8700969081679 L15 311.9462390401476 L-139.2771084337349 311.9462390401476 z"/>
<path fill="#c4d3ac" stroke="#c4d3ac" d="M-25.000000000000007 -215.20604522381169 L-25 -144.54614674665433 L-27.702702702702705 -133.07132166776833 L-27.70270270270271 -203.73122014492571 z"/>
<path fill="#c4d3ac" stroke="#c4d3ac" d="M-27.702702702702695 -226.6808703026977 L-27.702702702702698 -156.02097182554033 L-24.999999999999996 -144.54614674665433 L-24.99999999999999 -215.20604522381169 z"/>
<path fill="#c4d3ac" stroke="#c4d3ac" d="M-35.52631578947368 -236.91693585602212 L-35.52631578947365 -166.25703737886477 L-27.702702702702663 -156.02097182554033 L-27.702702702702688 -226.6808703026977 z"/>
<path fill="#c4d3ac" stroke="#c4d3ac" d="M-47.619047619047535 -244.84934334426714 L-47.619047619047564 -174.18944486710976 L-35.5263157894736 -166.25703737886477 L-35.52631578947362 -236.9169358560221 z"/>
<path fill="#c4d3ac" stroke="#c4d3ac" d="M-62.75510204081632 -249.48110867558836 L-62.75510204081632 -178.82121019843106 L-47.61904761904761 -174.1894448671099 L-47.61904761904761 -244.8493433442672 z"/>
<path fill="#c4d3ac" stroke="#c4d3ac" d="M-119.00000000000001 -232.05400268090622 L-119.00000000000003 -161.39410420374884 L-108.87096774193552 -170.5613751730503 L-108.8709677419355 -241.22127365020762 z"/>
<path fill="#c4d3ac" stroke="#c4d3ac" d="M-95.12987012987013 -247.6383633287187 L-95.12987012987013 -176.9784648515613 L-79.16666666666664 -179.7709952450555 L-79.16666666666664 -250.4308937222129 z"/>
<path fill="#c4d3ac" stroke="#c4d3ac" d="M-108.87096774193547 -241.2212736502077 L-108.87096774193547 -170.56137517305035 L-95.12987012987011 -176.97846485156134 L-95.12987012987011 -247.6383633287187 z"/>
<path fill="#c4d3ac" stroke="#c4d3ac" d="M-79.16666666666666 -250.43089372221286 L-79.16666666666666 -179.77099524505553 L-62.75510204081632 -178.82121019843106 L-62.75510204081632 -249.4811086755884 z"/>
<path fill="#c4d3ac" stroke="#c4d3ac" d="M-118.99999999999999 -198.35808776671718 L-118.99999999999999 -127.69818928955983 L-124.27536231884056 -138.75657591139824 L-124.27536231884056 -209.41647438855557 z"/>
<path fill="#c4d3ac" stroke="#c4d3ac" d="M-124.27536231884058 -209.4164743885556 L-124.27536231884058 -138.75657591139824 L-124.27536231884058 -150.33571758191047 L-124.27536231884058 -220.99561605906783 z"/>
<path fill="#c4d3ac" stroke="#c4d3ac" d="M-124.27536231884059 -220.99561605906777 L-124.27536231884058 -150.33571758191044 L-119 -161.39410420374884 L-119 -232.05400268090622 z"/>
<path fill="#c4d3ac" stroke="#c4d3ac" d="M-108.87096774193544 -189.19081679741575 L-108.87096774193542 -118.53091832025841 L-118.99999999999997 -127.69818928955983 L-118.99999999999999 -198.35808776671718 z"/>
<path fill="#c4d3ac" stroke="#c4d3ac" d="M-95.12987012987011 -182.7737271189048 L-95.12987012987011 -112.11382864174746 L-108.87096774193547 -118.53091832025846 L-108.87096774193547 -189.1908167974158 z"/>
<path fill="#c4d3ac" stroke="#c4d3ac" d="M-79.16666666666664 -179.9811967254106 L-79.16666666666664 -109.32129824825323 L-95.12987012987013 -112.11382864174742 L-95.12987012987013 -182.7737271189048 z"/>
<path fill="#c4d3ac" stroke="#c4d3ac" d="M-62.75510204081632 -180.9309817720351 L-62.75510204081632 -110.27108329487771 L-79.16666666666666 -109.32129824825324 L-79.16666666666666 -179.98119672541063 z"/>
<path fill="#c4d3ac" stroke="#c4d3ac" d="M-27.702702702702727 -203.7312201449257 L-27.702702702702716 -133.07132166776836 L-35.5263157894737 -122.83525611444388 L-35.52631578947369 -193.49515459160125 z"/>
<path fill="#c4d3ac" stroke="#c4d3ac" d="M-47.61904761904761 -185.56274710335626 L-47.61904761904761 -114.90284862619896 L-62.75510204081632 -110.27108329487778 L-62.75510204081632 -180.9309817720351 z"/>
<path fill="#c4d3ac" stroke="#c4d3ac" d="M-35.526315789473756 -193.49515459160125 L-35.52631578947373 -122.83525611444388 L-47.6190476190477 -114.90284862619886 L-47.61904761904767 -185.5627471033562 z"/>
<path fill="#c4d3ac" stroke="#c4d3ac" d="M-25 -215.20604522381169 L-27.7027027027027 -203.7312201449257 L-35.52631578947368 -193.49515459160128 L-47.61904761904761 -185.56274710335623 L-62.755102040816325 -180.93098177203507 L-79.16666666666666 -179.98119672541057 L-95.12987012987013 -182.77372711890476 L-108.87096774193547 -189.19081679741575 L-119 -198.35808776671718 L-124.27536231884058 -209.41647438855557 L-124.27536231884058 -220.9956160590678 L-119 -232.05400268090622 L-108.87096774193547 -241.22127365020762 L-95.12987012987013 -247.63836332871864 L-79.16666666666666 -250.43089372221283 L-62.755102040816325 -249.48110867558836 L-47.61904761904761 -244.8493433442672 L-35.52631578947368 -236.91693585602212 L-27.7027027027027 -226.68087030269768 z"/>
<path fill="#c4d3ac" stroke="#c4d3ac" d="M-25 -144.54614674665433 L-27.7027027027027 -156.02097182554033 L-35.52631578947368 -166.25703737886477 L-47.61904761904761 -174.1894448671098 L-62.755102040816325 -178.82121019843098 L-79.16666666666666 -179.77099524505547 L-95.12987012987013 -176.97846485156128 L-108.87096774193547 -170.56137517305027 L-119 -161.39410420374887 L-124.27536231884058 -150.33571758191044 L-124.27536231884058 -138.75657591139822 L-119 -127.69818928955983 L-108.87096774193547 -118.53091832025841 L-95.12987012987013 -112.1138286417474 L-79.16666666666666 -109.32129824825321 L-62.755102040816325 -110.2710832948777 L-47.61904761904761 -114.90284862619886 L-35.52631578947368 -122.83525611444391 L-27.7027027027027 -133.07132166776833 z"/>
<path fill="#c4d3ac" stroke="#c4d3ac" d="M124.99999999999999 -215.20604522381169 L124.99999999999999 -144.54614674665433 L122.29729729729729 -133.07132166776833 L122.29729729729728 -203.73122014492571 z"/>
<path fill="#c4d3ac" stroke="#c4d3ac" d="M122.29729729729729 -226.6808703026977 L122.29729729729729 -156.02097182554033 L125 -144.54614674665433 L125 -215.20604522381169 z"/>
<path fill="#c4d3ac" stroke="#c4d3ac" d="M114.47368421052632 -236.91693585602212 L114.47368421052634 -166.25703737886477 L122.29729729729733 -156.02097182554033 L122.2972972972973 -226.6808703026977 z"/>
<path fill="#c4d3ac" stroke="#c4d3ac" d="M102.38095238095245 -244.84934334426714 L102.38095238095242 -174.18944486710976 L114.47368421052639 -166.25703737886477 L114.47368421052637 -236.9169358560221 z"/>
<path fill="#c4d3ac" stroke="#c4d3ac" d="M87.24489795918366 -249.48110867558842 L87.24489795918366 -178.8212101984311 L102.38095238095237 -174.18944486710993 L102.38095238095237 -244.84934334426725 z"/>
<path fill="#c4d3ac" stroke="#c4d3ac" d="M30.99999999999997 -232.05400268090622 L30.999999999999964 -161.39410420374884 L41.12903225806448 -170.5613751730503 L41.129032258064484 -241.22127365020762 z"/>
<path fill="#c4d3ac" stroke="#c4d3ac" d="M54.870129870129865 -247.63836332871867 L54.870129870129865 -176.97846485156134 L70.83333333333333 -179.77099524505553 L70.83333333333333 -250.43089372221286 z"/>
<path fill="#c4d3ac" stroke="#c4d3ac" d="M41.12903225806451 -241.22127365020768 L41.12903225806451 -170.56137517305032 L54.870129870129865 -176.97846485156134 L54.870129870129865 -247.63836332871867 z"/>
<path fill="#c4d3ac" stroke="#c4d3ac" d="M70.83333333333333 -250.4308937222129 L70.83333333333333 -179.77099524505547 L87.24489795918366 -178.821210198431 L87.24489795918366 -249.48110867558842 z"/>
<path fill="#c4d3ac" stroke="#c4d3ac" d="M31.00000000000001 -198.35808776671718 L31 -127.69818928955983 L25.72463768115943 -138.75657591139824 L25.72463768115942 -209.41647438855557 z"/>
<path fill="#c4d3ac" stroke="#c4d3ac" d="M25.724637681159418 -209.4164743885556 L25.724637681159418 -138.75657591139824 L25.724637681159418 -150.33571758191047 L25.724637681159418 -220.99561605906783 z"/>
<path fill="#c4d3ac" stroke="#c4d3ac" d="M25.724637681159393 -220.99561605906777 L25.724637681159408 -150.33571758191044 L30.999999999999993 -161.39410420374884 L30.99999999999999 -232.05400268090622 z"/>
<path fill="#c4d3ac" stroke="#c4d3ac" d="M41.12903225806454 -189.19081679741575 L41.129032258064576 -118.53091832025841 L31.000000000000014 -127.69818928955983 L31.000000000000007 -198.35808776671718 z"/>
<path fill="#c4d3ac" stroke="#c4d3ac" d="M54.870129870129865 -182.77372711890482 L54.870129870129865 -112.11382864174749 L41.12903225806451 -118.53091832025848 L41.12903225806451 -189.1908167974158 z"/>
<path fill="#c4d3ac" stroke="#c4d3ac" d="M70.83333333333333 -179.98119672541063 L70.83333333333333 -109.32129824825324 L54.870129870129865 -112.11382864174743 L54.870129870129865 -182.77372711890482 z"/>
<path fill="#c4d3ac" stroke="#c4d3ac" d="M87.24489795918366 -180.93098177203507 L87.24489795918366 -110.27108329487776 L70.83333333333333 -109.32129824825329 L70.83333333333333 -179.9811967254106 z"/>
<path fill="#c4d3ac" stroke="#c4d3ac" d="M122.29729729729726 -203.7312201449257 L122.29729729729728 -133.07132166776836 L114.47368421052629 -122.83525611444388 L114.4736842105263 -193.49515459160125 z"/>
<path fill="#c4d3ac" stroke="#c4d3ac" d="M102.38095238095237 -185.56274710335626 L102.38095238095237 -114.90284862619892 L87.24489795918366 -110.27108329487774 L87.24489795918366 -180.9309817720351 z"/>
<path fill="#c4d3ac" stroke="#c4d3ac" d="M114.47368421052623 -193.49515459160125 L114.47368421052626 -122.83525611444388 L102.3809523809523 -114.90284862619886 L102.38095238095232 -185.5627471033562 z"/>
<path fill="#c4d3ac" stroke="#c4d3ac" d="M125 -215.20604522381169 L122.29729729729729 -203.7312201449257 L114.47368421052632 -193.49515459160128 L102.38095238095238 -185.56274710335623 L87.24489795918366 -180.93098177203507 L70.83333333333333 -179.98119672541057 L54.870129870129865 -182.77372711890476 L41.12903225806451 -189.19081679741575 L31 -198.35808776671718 L25.724637681159418 -209.41647438855557 L25.724637681159418 -220.9956160590678 L31 -232.05400268090622 L41.12903225806451 -241.22127365020762 L54.870129870129865 -247.63836332871864 L70.83333333333333 -250.43089372221283 L87.24489795918366 -249.48110867558836 L102.38095238095238 -244.8493433442672 L114.47368421052632 -236.91693585602212 L122.29729729729729 -226.68087030269768 z"/>
<path fill="#c4d3ac" stroke="#c4d3ac" d="M125 -144.54614674665433 L122.29729729729729 -156.02097182554033 L114.47368421052632 -166.25703737886477 L102.38095238095238 -174.1894448671098 L87.24489795918366 -178.82121019843098 L70.83333333333333 -179.77099524505547 L54.870129870129865 -176.97846485156128 L41.12903225806451 -170.56137517305027 L31 -161.39410420374887 L25.724637681159418 -150.33571758191044 L25.724637681159418 -138.75657591139822 L31 -127.69818928955983 L41.12903225806451 -118.53091832025841 L54.870129870129865 -112.1138286417474 L70.83333333333333 -109.32129824825321 L87.24489795918366 -110.2710832948777 L102.38095238095238 -114.90284862619886 L114.47368421052632 -122.83525611444391 L122.29729729729729 -133.07132166776833 z"/>
<path fill="#bababa" stroke="#bababa" d="M15 301.3371019843101 L15 308.40309183202584 L15 315.4792339640055 L15 308.4132441162898 z"/>
<path fill="#bababa" stroke="#bababa" d="M215 301.3371019843101 L15 301.3371019843101 L15 308.4132441162898 L215 308.4132441162898 z"/>
<path fill="#bababa" stroke="#bababa" d="M215 308.40309183202584 L215 301.3371019843101 L215 308.4132441162898 L215 315.4792339640055 z"/>
<path fill="#bababa" stroke="#bababa" d="M324.4444444444444 269.7108906322104 L-75.55555555555554 269.7108906322104 L-75.55555555555554 262.63474850023067 L324.4444444444444 262.63474850023067 z"/>
<path fill="#bababa" stroke="#bababa" d="M341.95121951219505 272.4741578218735 L324.44444444444434 269.7108906322104 L324.44444444444434 262.63474850023067 L341.95121951219505 265.3980156898938 z"/>
<path fill="#bababa" stroke="#bababa" d="M357.3584905660377 278.7668084508737 L341.95121951219505 272.4741578218735 L341.95121951219505 265.3980156898938 L357.3584905660377 271.69066631889405 z"/>
<path fill="#bababa" stroke="#bababa" d="M369.5652173913043 288.098523304107 L357.3584905660377 278.7668084508737 L357.3584905660377 271.69066631889405 L369.5652173913043 281.0223811721273 z"/>
<path fill="#bababa" stroke="#bababa" d="M377.391304347826 299.4768451912375 L369.5652173913043 288.098523304107 L369.5652173913043 281.0223811721273 L377.391304347826 292.4007030592578 z"/>
<path fill="#bababa" stroke="#bababa" d="M379.99999999999994 311.94623904014765 L377.391304347826 299.4768451912375 L377.391304347826 292.4007030592578 L379.99999999999994 304.8700969081679 z"/>
<path fill="#bababa" stroke="#bababa" d="M377.39130434782606 324.4156328890577 L380 311.94623904014765 L380 304.8700969081679 L377.39130434782606 317.33949075707807 z"/>
<path fill="#bababa" stroke="#bababa" d="M369.5652173913043 335.79395477618823 L377.39130434782606 324.41563288905775 L377.39130434782606 317.33949075707807 L369.5652173913043 328.71781264420855 z"/>
<path fill="#bababa" stroke="#bababa" d="M357.35849056603774 345.1256696294215 L369.5652173913043 335.79395477618823 L369.5652173913043 328.7178126442085 L357.35849056603774 338.0495274974418 z"/>
<path fill="#bababa" stroke="#bababa" d="M341.95121951219505 351.4183202584217 L357.3584905660377 345.12566962942145 L357.3584905660377 338.0495274974418 L341.95121951219505 344.342178126442 z"/>
<path fill="#bababa" stroke="#bababa" d="M324.44444444444434 354.1815874480849 L341.95121951219505 351.4183202584217 L341.95121951219505 344.34217812644204 L324.44444444444434 347.10544531610515 z"/>
<path fill="#bababa" stroke="#bababa" d="M-75.55555555555554 354.1815874480848 L324.4444444444444 354.1815874480848 L324.4444444444444 347.10544531610515 L-75.55555555555554 347.10544531610515 z"/>
<path fill="#bababa" stroke="#bababa" d="M-93.3333333333333 353.255102765255 L-75.55555555555553 354.1815874480848 L-75.55555555555553 347.10544531610515 L-93.3333333333333 346.1789606332753 z"/>
<path fill="#bababa" stroke="#bababa" d="M-109.99999999999997 348.68938624826944 L-93.3333333333333 353.255102765255 L-93.3333333333333 346.1789606332753 L-109.99999999999997 341.61324411628976 z"/>
<path fill="#bababa" stroke="#bababa" d="M-124.00000000000001 340.77547761882784 L-110.00000000000001 348.68938624826944 L-110.00000000000001 341.61324411628976 L-124.00000000000001 333.6993354868481 z"/>
<path fill="#bababa" stroke="#bababa" d="M-134 330.3792560341887 L-124.00000000000001 340.77547761882784 L-124 333.6993354868481 L-134 323.30311390220896 z"/>
<path fill="#bababa" stroke="#bababa" d="M-139.2771084337349 318.30562990309176 L-134 330.37925603418864 L-134 323.30311390220896 L-139.2771084337349 311.2294877711121 z"/>
<path fill="#bababa" stroke="#bababa" d="M-139.2771084337349 305.5868481772035 L-139.2771084337349 318.3056299030918 L-139.2771084337349 311.22948777111213 L-139.2771084337349 298.5107060452238 z"/>
<path fill="#bababa" stroke="#bababa" d="M-133.99999999999997 293.5132220461066 L-139.27710843373487 305.5868481772034 L-139.27710843373487 298.5107060452238 L-133.99999999999997 286.43707991412685 z"/>
<path fill="#bababa" stroke="#bababa" d="M-123.99999999999999 283.1170004614674 L-133.99999999999997 293.5132220461066 L-133.99999999999997 286.43707991412685 L-123.99999999999999 276.0408583294877 z"/>
<path fill="#bababa" stroke="#bababa" d="M-109.99999999999997 275.2030918320258 L-123.99999999999996 283.1170004614674 L-123.99999999999999 276.0408583294877 L-109.99999999999997 268.1269497000461 z"/>
<path fill="#bababa" stroke="#bababa" d="M-93.3333333333333 270.63737531504023 L-109.99999999999997 275.2030918320258 L-109.99999999999997 268.12694970004605 L-93.3333333333333 263.56123318306055 z"/>
<path fill="#bababa" stroke="#bababa" d="M-75.55555555555553 269.7108906322104 L-93.3333333333333 270.63737531504023 L-93.3333333333333 263.5612331830605 L-75.55555555555553 262.63474850023067 z"/>
<path fill="#bababa" stroke="#bababa" d="M158.310489577278 315.47923396400546 L15 315.47923396400546 L15 308.4030918320258 L215 308.4030918320258 L215 315.47923396400546 z"/>
<path fill="#bababa" stroke="#bababa" d="M357.3584905660377 338.04952749744183 L369.5652173913043 328.71781264420855 L377.39130434782606 317.33949075707807 L380 304.87009690816797 L377.39130434782606 292.4007030592578 L369.5652173913043 281.0223811721273 L357.3584905660377 271.69066631889405 L341.9512195121951 265.39801568989384 L324.4444444444444 262.6347485002307 L-75.55555555555554 262.6347485002307 L-93.33333333333331 263.56123318306055 L-110 268.1269497000461 L-124 276.0408583294877 L-134 286.4370799141269 L-139.2771084337349 298.5107060452238 L-139.2771084337349 311.22948777111213 L-134 323.303113902209 L-124 333.69933548684816 L-110 341.61324411628976 L-93.33333333333331 346.1789606332753 L-75.55555555555554 347.1054453161052 L324.4444444444444 347.1054453161052 L341.9512195121951 344.34217812644204 z M35 301.3371019843101 L215 301.3371019843101 L215 308.40309183202584 L15 308.40309183202584 L15 301.3371019843101 z"/>
<path fill="#bababa" stroke="#bababa" d="M324.4444444444444 354.1815874480849 L-75.55555555555554 354.1815874480849 L-93.33333333333331 353.255102765255 L-110 348.68938624826944 L-124 340.77547761882784 L-134 330.3792560341887 L-139.2771084337349 318.3056299030918 L-139.2771084337349 305.5868481772035 L-134 293.5132220461066 L-124 283.11700046146746 L-110 275.2030918320258 L-93.33333333333331 270.6373753150403 L-75.55555555555554 269.7108906322104 L324.4444444444444 269.7108906322104 L341.9512195121951 272.4741578218735 L357.3584905660377 278.7668084508738 L369.5652173913043 288.098523304107 L377.39130434782606 299.47684519123754 L380 311.94623904014765 L377.39130434782606 324.41563288905775 L369.5652173913043 335.79395477618823 L357.3584905660377 345.1256696294215 L341.9512195121951 351.4183202584217 z M15 308.4132441162898 L15 315.4792339640055 L215 315.4792339640055 L215 308.4132441162898 z"/>
<path fill="#bababa" stroke="#bababa" d="M15 -130.3075680664513 L15 -123.24157821873557 L15 -116.16543608675588 L15 -123.23142593447162 z"/>
<path fill="#bababa" stroke="#bababa" d="M215 -130.3075680664513 L15 -130.3075680664513 L15 -123.23142593447159 L215 -123.23142593447159 z"/>
<path fill="#bababa" stroke="#bababa" d="M215 -123.24157821873557 L215 -130.3075680664513 L215 -123.23142593447162 L215 -116.16543608675588 z"/>
<path fill="#bababa" stroke="#bababa" d="M324.4444444444444 -161.93377941855098 L-75.55555555555554 -161.93377941855098 L-75.55555555555554 -169.00992155053066 L324.4444444444444 -169.00992155053066 z"/>
<path fill="#bababa" stroke="#bababa" d="M341.95121951219505 -159.17051222888784 L324.44444444444434 -161.93377941855098 L324.44444444444434 -169.00992155053066 L341.95121951219505 -166.24665436086755 z"/>
<path fill="#bababa" stroke="#bababa" d="M357.3584905660377 -152.87786159988758 L341.95121951219505 -159.17051222888782 L341.95121951219505 -166.24665436086752 L357.3584905660377 -159.9540037318673 z"/>
<path fill="#bababa" stroke="#bababa" d="M369.5652173913043 -143.54614674665433 L357.35849056603763 -152.8778615998876 L357.3584905660377 -159.95400373186732 L369.5652173913043 -150.62228887863404 z"/>
<path fill="#bababa" stroke="#bababa" d="M377.391304347826 -132.16782485952385 L369.5652173913043 -143.54614674665433 L369.5652173913043 -150.62228887863404 L377.391304347826 -139.24396699150356 z"/>
<path fill="#bababa" stroke="#bababa" d="M379.99999999999994 -119.69843101061373 L377.391304347826 -132.16782485952385 L377.391304347826 -139.24396699150353 L379.99999999999994 -126.77457314259344 z"/>
<path fill="#bababa" stroke="#bababa" d="M377.39130434782606 -107.22903716170362 L380 -119.69843101061373 L380 -126.77457314259344 L377.39130434782606 -114.30517929368331 z"/>
<path fill="#bababa" stroke="#bababa" d="M369.5652173913043 -95.85071527457313 L377.39130434782606 -107.22903716170362 L377.39130434782606 -114.30517929368331 L369.5652173913043 -102.92685740655283 z"/>
<path fill="#bababa" stroke="#bababa" d="M357.3584905660377 -86.51900042133984 L369.5652173913043 -95.85071527457313 L369.5652173913043 -102.92685740655283 L357.3584905660377 -93.59514255331955 z"/>
<path fill="#bababa" stroke="#bababa" d="M341.95121951219505 -80.22634979233963 L357.3584905660377 -86.51900042133987 L357.3584905660377 -93.59514255331956 L341.95121951219505 -87.30249192431933 z"/>
<path fill="#bababa" stroke="#bababa" d="M324.44444444444434 -77.46308260267651 L341.95121951219505 -80.22634979233963 L341.95121951219505 -87.30249192431933 L324.44444444444434 -84.5392247346562 z"/>
<path fill="#bababa" stroke="#bababa" d="M-75.55555555555554 -77.46308260267651 L324.4444444444444 -77.46308260267651 L324.4444444444444 -84.5392247346562 L-75.55555555555554 -84.5392247346562 z"/>
<path fill="#bababa" stroke="#bababa" d="M-93.3333333333333 -78.38956728550636 L-75.55555555555553 -77.4630826026765 L-75.55555555555553 -84.53922473465619 L-93.3333333333333 -85.46570941748605 z"/>
<path fill="#bababa" stroke="#bababa" d="M-109.99999999999997 -82.9552838024919 L-93.3333333333333 -78.38956728550636 L-93.3333333333333 -85.46570941748605 L-109.99999999999997 -90.0314259344716 z"/>
<path fill="#bababa" stroke="#bababa" d="M-124.00000000000003 -90.86919243193354 L-110.00000000000003 -82.95528380249192 L-110.00000000000004 -90.03142593447161 L-123.99999999999999 -97.94533456391324 z"/>
<path fill="#bababa" stroke="#bababa" d="M-134 -101.26541401657269 L-124 -90.86919243193354 L-124.00000000000001 -97.94533456391324 L-134 -108.34155614855239 z"/>
<path fill="#bababa" stroke="#bababa" d="M-139.2771084337349 -113.33904014766958 L-134 -101.26541401657269 L-134 -108.34155614855237 L-139.2771084337349 -120.41518227964927 z"/>
<path fill="#bababa" stroke="#bababa" d="M-139.2771084337349 -126.05782187355791 L-139.2771084337349 -113.33904014766958 L-139.2771084337349 -120.41518227964927 L-139.2771084337349 -133.1339640055376 z"/>
<path fill="#bababa" stroke="#bababa" d="M-133.99999999999997 -138.13144800465477 L-139.27710843373487 -126.0578218735579 L-139.27710843373487 -133.1339640055376 L-134 -145.20759013663445 z"/>
<path fill="#bababa" stroke="#bababa" d="M-123.99999999999996 -148.52766958929394 L-134 -138.13144800465477 L-133.99999999999997 -145.20759013663448 L-124 -155.60381172127362 z"/>
<path fill="#bababa" stroke="#bababa" d="M-109.99999999999997 -156.44157821873554 L-123.99999999999997 -148.52766958929394 L-123.99999999999996 -155.60381172127362 L-109.99999999999996 -163.51772035071525 z"/>
<path fill="#bababa" stroke="#bababa" d="M-93.3333333333333 -161.0072947357211 L-109.99999999999997 -156.44157821873554 L-109.99999999999997 -163.51772035071525 L-93.3333333333333 -168.0834368677008 z"/>
<path fill="#bababa" stroke="#bababa" d="M-75.55555555555553 -161.93377941855096 L-93.3333333333333 -161.0072947357211 L-93.3333333333333 -168.08343686770078 L-75.55555555555553 -169.00992155053063 z"/>
<path fill="#bababa" stroke="#bababa" d="M158.310489577278 -116.16543608675586 L15 -116.16543608675586 L15 -123.24157821873555 L215 -123.24157821873555 L215 -116.16543608675586 z"/>
<path fill="#bababa" stroke="#bababa" d="M357.3584905660377 -93.59514255331958 L369.5652173913043 -102.92685740655284 L377.39130434782606 -114.30517929368337 L380 -126.77457314259347 L377.39130434782606 -139.24396699150356 L369.5652173913043 -150.6222888786341 L357.3584905660377 -159.95400373186735 L341.9512195121951 -166.24665436086755 L324.4444444444444 -169.0099215505307 L-75.55555555555554 -169.0099215505307 L-93.33333333333331 -168.08343686770084 L-110 -163.5177203507153 L-124 -155.60381172127367 L-134 -145.2075901366345 L-139.2771084337349 -133.13396400553765 L-139.2771084337349 -120.41518227964929 L-134 -108.34155614855243 L-124 -97.94533456391325 L-110 -90.03142593447161 L-93.33333333333331 -85.4657094174861 L-75.55555555555554 -84.53922473465626 L324.4444444444444 -84.53922473465626 L341.9512195121951 -87.30249192431937 z M35 -130.30756806645132 L215 -130.30756806645132 L215 -123.24157821873561 L15 -123.24157821873561 L15 -130.30756806645132 z"/>
<path fill="#bababa" stroke="#bababa" d="M324.4444444444444 -77.46308260267655 L-75.55555555555554 -77.46308260267655 L-93.33333333333331 -78.38956728550639 L-110 -82.95528380249198 L-124 -90.86919243193354 L-134 -101.26541401657272 L-139.2771084337349 -113.33904014766964 L-139.2771084337349 -126.05782187355794 L-134 -138.1314480046548 L-124 -148.52766958929396 L-110 -156.4415782187356 L-93.33333333333331 -161.00729473572113 L-75.55555555555554 -161.93377941855104 L324.4444444444444 -161.93377941855104 L341.9512195121951 -159.17051222888784 L357.3584905660377 -152.87786159988764 L369.5652173913043 -143.5461467466544 L377.39130434782606 -132.16782485952385 L380 -119.69843101061376 L377.39130434782606 -107.22903716170366 L369.5652173913043 -95.85071527457319 L357.3584905660377 -86.51900042133987 L341.9512195121951 -80.22634979233966 z M15 -123.23142593447163 L15 -116.1654360867559 L215 -116.1654360867559 L215 -123.23142593447163 z"/>
</svg>