<?xml version="1.0" encoding="UTF-8"?>
<!-- Generated by jsxcad -->
<!DOCTYPE svg PUBLIC "-//W3C//DTD SVG 1.1 Tiny//EN" "http://www.w3.org/Graphics/SVG/1.1/DTD/svg11-tiny.dtd">
<svg baseProfile="tiny" height="598.5687279637923mm" width="335.8767123287673mm" viewBox="-167.8767123287672 -299.0847023913716 335.8767123287673 598.5687279637923" version="1.1" stroke="black" stroke-width=".1" fill="none" xmlns="http://www.w3.org/2000/svg">
<path fill="#bababa" stroke="#bababa" d="M150.97297297297297 292.0187125436556 L150.97297297297297 299.08470239137137 L-149.027027027027 299.08470239137137 L-149.027027027027 292.0187125436556 z"/>
<path fill="#bababa" stroke="#bababa" d="M154.79999999999995 291.5783417935702 L154.79999999999995 298.64433164128593 L150.97297297297294 299.0847023913713 L150.97297297297294 292.0187125436556 z"/>
<path fill="#bababa" stroke="#bababa" d="M158.43749999999997 290.569031598001 L158.43749999999997 297.63502144571675 L154.79999999999995 298.64433164128593 L154.79999999999995 291.5783417935702 z"/>
<path fill="#bababa" stroke="#bababa" d="M161.64705882352936 289.01745226009183 L161.64705882352936 296.08344210780757 L158.43749999999997 297.63502144571675 L158.43749999999997 290.569031598001 z"/>
<path fill="#bababa" stroke="#bababa" d="M164.31818181818184 287.03245654514683 L164.3181818181818 294.09844639286257 L161.64705882352942 296.0834421078075 L161.6470588235294 289.0174522600918 z"/>
<path fill="#bababa" stroke="#bababa" d="M166.32558139534885 284.65437476120286 L166.32558139534882 291.72036460891866 L164.3181818181818 294.09844639286257 L164.31818181818184 287.0324565451468 z"/>
<path fill="#bababa" stroke="#bababa" d="M167.57142857142856 282.0423978728547 L167.57142857142856 289.10838772057036 L166.32558139534882 291.7203646089186 L166.32558139534882 284.6543747612029 z"/>
<path fill="#bababa" stroke="#bababa" d="M168 279.3130287648054 L168 286.3790186125211 L167.57142857142856 289.10838772057036 L167.57142857142856 282.0423978728547 z"/>
<path fill="#bababa" stroke="#bababa" d="M168 -286.7783417935702 L168 -279.71235194585444 L168 286.3790186125211 L168 279.3130287648054 z"/>
<path fill="#bababa" stroke="#bababa" d="M167.57142857142856 -289.5077109016195 L167.57142857142856 -282.44172105390373 L168 -279.71235194585444 L168 -286.7783417935702 z"/>
<path fill="#bababa" stroke="#bababa" d="M166.32558139534882 -292.11968778996766 L166.32558139534882 -285.053697942252 L167.57142857142856 -282.44172105390373 L167.57142857142856 -289.5077109016194 z"/>
<path fill="#bababa" stroke="#bababa" d="M164.31818181818184 -294.4977695739116 L164.3181818181818 -287.4317797261959 L166.32558139534882 -285.053697942252 L166.32558139534882 -292.1196877899677 z"/>
<path fill="#bababa" stroke="#bababa" d="M161.64705882352942 -296.48276528885657 L161.6470588235294 -289.4167754411409 L164.31818181818184 -287.4317797261959 L164.3181818181818 -294.4977695739117 z"/>
<path fill="#bababa" stroke="#bababa" d="M158.43749999999997 -298.0343446267658 L158.43749999999997 -290.9683547790501 L161.64705882352936 -289.41677544114094 L161.64705882352936 -296.4827652888566 z"/>
<path fill="#bababa" stroke="#bababa" d="M154.79999999999995 -299.043654822335 L154.79999999999995 -291.9776649746193 L158.43749999999997 -290.96835477905006 L158.43749999999997 -298.0343446267658 z"/>
<path fill="#bababa" stroke="#bababa" d="M150.97297297297294 -299.4840255724204 L150.97297297297294 -292.4180357247047 L154.79999999999995 -291.97766497461924 L154.79999999999995 -299.043654822335 z"/>
<path fill="#bababa" stroke="#bababa" d="M-149.027027027027 -299.4840255724204 L-149.027027027027 -292.41803572470474 L150.97297297297297 -292.41803572470474 L150.97297297297297 -299.4840255724204 z"/>
<path fill="#bababa" stroke="#bababa" d="M-152.90322580645156 -299.33600247849193 L-152.90322580645156 -292.27001263077614 L-149.02702702702697 -292.4180357247047 L-149.02702702702697 -299.4840255724204 z"/>
<path fill="#bababa" stroke="#bababa" d="M-156.66666666666663 -298.6056079284506 L-156.66666666666663 -291.5396180807348 L-152.90322580645156 -292.2700126307762 L-152.90322580645156 -299.33600247849193 z"/>
<path fill="#bababa" stroke="#bababa" d="M-160.09756097560972 -297.3193535212089 L-160.09756097560972 -290.2533636734932 L-156.66666666666663 -291.5396180807348 L-156.66666666666663 -298.6056079284505 z"/>
<path fill="#bababa" stroke="#bababa" d="M-163.05000000000004 -295.535067681895 L-163.05000000000004 -288.46907783417925 L-160.09756097560975 -290.25336367349314 L-160.09756097560978 -297.3193535212089 z"/>
<path fill="#bababa" stroke="#bababa" d="M-165.42857142857144 -293.35230609682867 L-165.42857142857142 -286.286316249113 L-163.05 -288.4690778341793 L-163.05 -295.53506768189504 z"/>
<path fill="#bababa" stroke="#bababa" d="M-167.05263157894734 -290.8541996615905 L-167.05263157894734 -283.7882098138747 L-165.42857142857142 -286.28631624911293 L-165.42857142857142 -293.35230609682867 z"/>
<path fill="#bababa" stroke="#bababa" d="M-167.8767123287671 -288.1430263475948 L-167.8767123287671 -281.07703649987906 L-167.05263157894734 -283.78820981387474 L-167.05263157894734 -290.8541996615905 z"/>
<path fill="#bababa" stroke="#bababa" d="M-167.8767123287671 280.67771331883 L-167.8767123287671 287.74370316654574 L-167.8767123287671 -281.07703649987906 L-167.8767123287671 -288.1430263475948 z"/>
<path fill="#bababa" stroke="#bababa" d="M-167.05263157894734 283.38888663282563 L-167.05263157894734 290.4548764805414 L-167.8767123287671 287.74370316654574 L-167.8767123287671 280.67771331883 z"/>
<path fill="#bababa" stroke="#bababa" d="M-165.42857142857142 285.8869930680639 L-165.42857142857142 292.9529829157796 L-167.05263157894734 290.4548764805414 L-167.05263157894734 283.38888663282563 z"/>
<path fill="#bababa" stroke="#bababa" d="M-163.04999999999998 288.06975465313025 L-163.04999999999998 295.135744500846 L-165.42857142857142 292.9529829157796 L-165.42857142857142 285.8869930680639 z"/>
<path fill="#bababa" stroke="#bababa" d="M-160.0975609756098 289.854040492444 L-160.0975609756098 296.92003034015977 L-163.05 295.13574450084593 L-163.05 288.06975465313025 z"/>
<path fill="#bababa" stroke="#bababa" d="M-156.66666666666663 291.1402948996857 L-156.66666666666663 298.20628474740147 L-160.09756097560972 296.9200303401599 L-160.09756097560972 289.85404049244414 z"/>
<path fill="#bababa" stroke="#bababa" d="M-152.90322580645156 291.87068944972714 L-152.90322580645156 298.9366792974429 L-156.66666666666663 298.20628474740147 L-156.66666666666663 291.1402948996857 z"/>
<path fill="#bababa" stroke="#bababa" d="M-149.02702702702697 292.0187125436556 L-149.02702702702697 299.08470239137137 L-152.90322580645156 298.9366792974429 L-152.90322580645156 291.8706894497271 z"/>
<path fill="#bababa" stroke="#bababa" d="M150.97297297297297 292.01871254365557 L-149.027027027027 292.01871254365557 L-152.9032258064516 291.8706894497271 L-156.66666666666666 291.14029489968567 L-160.09756097560975 289.8540404924441 L-163.04999999999998 288.06975465313025 L-165.42857142857142 285.8869930680639 L-167.05263157894734 283.3888866328257 L-167.8767123287671 280.67771331883 L-167.8767123287671 -288.1430263475948 L-167.05263157894734 -290.8541996615905 L-165.42857142857142 -293.3523060968287 L-163.04999999999998 -295.53506768189504 L-160.09756097560975 -297.3193535212088 L-156.66666666666666 -298.6056079284505 L-152.9032258064516 -299.3360024784918 L-149.027027027027 -299.48402557242036 L150.97297297297297 -299.48402557242036 L154.79999999999998 -299.043654822335 L158.4375 -298.03434462676574 L161.6470588235294 -296.48276528885657 L164.3181818181818 -294.4977695739116 L166.32558139534882 -292.1196877899677 L167.57142857142856 -289.5077109016195 L168 -286.7783417935702 L168 279.3130287648054 L167.57142857142856 282.0423978728547 L166.32558139534882 284.6543747612029 L164.3181818181818 287.03245654514683 L161.6470588235294 289.0174522600918 L158.4375 290.56903159800095 L154.79999999999998 291.57834179357013 z"/>
<path fill="#bababa" stroke="#bababa" d="M150.97297297297297 299.08470239137125 L154.79999999999998 298.6443316412859 L158.4375 297.6350214457167 L161.6470588235294 296.0834421078075 L164.3181818181818 294.09844639286257 L166.32558139534882 291.72036460891866 L167.57142857142856 289.10838772057036 L168 286.3790186125211 L168 -279.71235194585444 L167.57142857142856 -282.44172105390373 L166.32558139534882 -285.053697942252 L164.3181818181818 -287.4317797261959 L161.6470588235294 -289.4167754411408 L158.4375 -290.96835477905006 L154.79999999999998 -291.9776649746192 L150.97297297297297 -292.4180357247046 L-149.027027027027 -292.4180357247046 L-152.9032258064516 -292.27001263077614 L-156.66666666666666 -291.5396180807347 L-160.09756097560975 -290.25336367349314 L-163.04999999999998 -288.4690778341793 L-165.42857142857142 -286.286316249113 L-167.05263157894734 -283.78820981387474 L-167.8767123287671 -281.07703649987906 L-167.8767123287671 287.74370316654574 L-167.05263157894734 290.45487648054143 L-165.42857142857142 292.9529829157796 L-163.04999999999998 295.135744500846 L-160.09756097560975 296.92003034015977 L-156.66666666666666 298.2062847474014 L-152.9032258064516 298.93667929744277 L-149.027027027027 299.08470239137125 z"/>
</svg>