<?xml version="1.0" encoding="UTF-8"?>
<!-- Generated by jsxcad -->
<!DOCTYPE svg PUBLIC "-//W3C//DTD SVG 1.1 Tiny//EN" "http://www.w3.org/Graphics/SVG/1.1/DTD/svg11-tiny.dtd">
<svg baseProfile="tiny" height="598.3484263959396mm" width="335.2800000000002mm" viewBox="-167.2800000000001 -298.9745516074452 335.2800000000002 598.3484263959396" version="1.1" stroke="black" stroke-width=".1" fill="none" xmlns="http://www.w3.org/2000/svg">
<path fill="#bababa" stroke="#bababa" d="M121.36585365853657 -161.09204737732657 L114.99999999999999 -162.9560067681895 L114.99999999999999 -168.82087614042072 L121.36585365853657 -166.97135778901276 z"/>
<path fill="#bababa" stroke="#bababa" d="M121.36585365853657 -152.08291032148898 L123.99999999999999 -156.58747884940774 L123.99999999999999 -162.4538436872797 L121.36585365853657 -157.94925838286832 z"/>
<path fill="#bababa" stroke="#bababa" d="M-83.38202180580545 -158.5601280587679 L-85.66666666666664 -162.45571520739037 L-85.66666666666664 -156.58747884940777 L-83.03252032520324 -152.08291032148898 L-83.03252032520324 -157.96166310146796 z"/>
<path fill="#bababa" stroke="#bababa" d="M115.13915322193428 181.23629429585097 L121.88526592146171 179.22906621697334 L121.88526592146171 178.04300881278388 L115.50468457251631 179.9269859892886 z"/>
<path fill="#bababa" stroke="#bababa" d="M115.13915322193428 181.23629429585097 L115.5046845725163 179.9269859892886 L115.13915322193428 180.03491545278604 z"/>
<path fill="#bababa" stroke="#bababa" d="M121.88526592146172 179.2290662169733 L124.70022724198124 174.47074242582786 L124.70022724198125 173.26936358276294 L122.03584658278713 177.78765231803217 z"/>
<path fill="#bababa" stroke="#bababa" d="M121.88526592146172 179.2290662169733 L122.03584658278713 177.78765231803217 L121.88526592146172 178.04300881278388 z"/>
<path fill="#bababa" stroke="#bababa" d="M-86.3668939086479 174.4707424258279 L-83.5519325881284 179.2290662169733 L-83.5519325881284 178.04300881278385 L-86.21436805277274 173.52801876180425 z"/>
<path fill="#bababa" stroke="#bababa" d="M-76.80581988860094 -169.31610852173466 L-77.17135123918297 -170.40955790130215 L-76.80581988860094 -170.5174873647996 z"/>
<path fill="#bababa" stroke="#bababa" d="M-83.5519325881284 -167.33952332060792 L-83.7025132494538 -168.27022423004573 L-83.5519325881284 -168.5255807247974 z"/>
<path fill="#bababa" stroke="#bababa" d="M-86.3668939086479 -163.7519354947765 L-83.7025132494538 -168.27022423004573 L-83.5519325881284 -167.33952332060792 L-86.3668939086479 -162.5505566517116 z"/>
<path fill="#bababa" stroke="#bababa" d="M-80.89791046524823 -151.45788400016346 L-76.66666666666664 -150.21895093062605 L-76.66666666666664 -156.08356193527686 L-76.80581988860094 -156.1243068170643 L-83.03252032520324 -157.96166310146796 L-83.03252032520324 -152.082910321489 z"/>
<path fill="#bababa" stroke="#bababa" d="M-76.66666666666666 -162.95600676818952 L-76.66666666666666 -168.82061777284034 L114.86784725538374 -168.82061777284034 L115 -168.82087614042072 L115 -162.95600676818952 z"/>
<path fill="#bababa" stroke="#bababa" d="M121.72644692447444 -160.47540848693723 L121.36585365853658 -161.09204737732654 L121.36585365853658 -166.9713577890127 L121.5227814176619 -166.70359477972661 L124 -162.45384368727971 L124 -156.58747884940774 z"/>
<path fill="#bababa" stroke="#bababa" d="M-83.03252032520324 -161.09204737732657 L-83.03252032520324 -166.97080015730555 L-76.80581988860094 -168.7798728910529 L-76.66666666666664 -168.82061777284034 L-76.66666666666664 -162.95600676818952 z"/>
<path fill="#bababa" stroke="#bababa" d="M98.14976599063962 -150.21895093062605 L115 -150.21895093062605 L115 -156.0974552882825 L107.89367215175254 -156.08356193527686 L-76.66666666666666 -156.08356193527686 L-76.66666666666666 -150.21895093062605 z"/>
<path fill="#bababa" stroke="#bababa" d="M118.09816569240071 -151.12611206667503 L121.36585365853657 -152.08291032148898 L121.36585365853657 -157.94925838286835 L115.57343918862166 -156.2663030244727 L114.99999999999999 -156.0974552882825 L114.99999999999999 -150.21895093062605 z"/>
<path fill="#bababa" stroke="#bababa" d="M-85.66666666666666 -156.58747884940774 L-85.66666666666666 -162.45571520739037 L-83.52840671879355 -166.12392709448687 L-83.03252032520325 -166.97080015730552 L-83.03252032520325 -161.09204737732654 z"/>
<path fill="#bababa" stroke="#bababa" d="M104.74598925003798 -170.5174873647996 L115.13915322193428 -170.5174873647996 L115.13915322193428 -169.31610852173466 z"/>
<path fill="#bababa" stroke="#bababa" d="M124 -136.77428087986462 L121.36585365853658 -141.2788494077834 L121.36585365853658 -147.1434604124342 L124 -142.63889188451543 z"/>
<path fill="#bababa" stroke="#bababa" d="M-86.3668939086479 -145.5033845347195 L-86.3668939086479 -163.7519354947765 L-86.3668939086479 -162.55055665171156 z"/>
<path fill="#bababa" stroke="#bababa" d="M121.36585365853657 -132.26971235194583 L123.99999999999999 -136.77428087986462 L123.99999999999999 -142.63889188451543 L121.36585365853657 -138.13432335659664 z"/>
<path fill="#bababa" stroke="#bababa" d="M-76.80581988860094 181.23629429585097 L115.13915322193427 181.23629429585097 L115.13915322193427 180.03491545278607 L-66.41265591670464 180.03491545278607 z"/>
<path fill="#bababa" stroke="#bababa" d="M-83.03252032520324 -132.26971235194583 L-83.03252032520324 -138.14812503865406 L-85.66666666666664 -142.63965315805186 L-85.66666666666664 -136.77428087986462 z"/>
<path fill="#bababa" stroke="#bababa" d="M-76.87944937571064 -130.4680569897349 L-76.66666666666664 -130.4057529610829 L-76.66666666666664 -136.27036396573374 L-76.80581988860094 -136.31110884752118 L-82.98672606055275 -138.13495229622606 L-83.03252032520324 -138.1481250386541 L-83.03252032520324 -132.26971235194586 z"/>
<path fill="#bababa" stroke="#bababa" d="M-83.99222708003613 -139.63768590224726 L-85.66666666666666 -136.77428087986462 L-85.66666666666666 -142.63965315805183 L-83.15722301373088 -146.94463536886965 L-83.03252032520325 -147.15760218776236 L-83.03252032520325 -141.27884940778338 z"/>
<path fill="#bababa" stroke="#bababa" d="M-83.03252032520324 -141.27884940778344 L-83.03252032520324 -147.1576021877624 L-76.80581988860094 -148.96667492150974 L-76.66666666666664 -149.00741980329718 L-76.66666666666664 -143.14280879864637 z"/>
<path fill="#bababa" stroke="#bababa" d="M121.10872959545776 -141.35413684568263 L114.99999999999997 -143.14280879864637 L114.99999999999997 -149.01222971699144 L116.50397998677474 -148.567045617777 L121.36585365853657 -147.14346041243425 L121.36585365853657 -141.27884940778344 z"/>
<path fill="#bababa" stroke="#bababa" d="M104.1835445796492 -136.28432039197952 L97.04495532388177 -136.27036396573374 L-76.66666666666666 -136.27036396573374 L-76.66666666666666 -130.4057529610829 L115 -130.4057529610829 L115 -136.27036396573374 L109.2964451270301 -136.27036396573374 z"/>
<path fill="#bababa" stroke="#bababa" d="M117.66239390265027 -131.1853175541782 L121.36585365853657 -132.26971235194586 L121.36585365853657 -138.13432335659667 L114.99999999999999 -136.2703639657337 L114.99999999999999 -130.4057529610829 z"/>
<path fill="#bababa" stroke="#bababa" d="M-76.66666666666666 -143.14280879864637 L-76.66666666666666 -149.00741980329718 L104.01913042751298 -149.00741980329718 L111.44409040208664 -149.02193610372439 L115 -149.01222971699144 L115 -143.14280879864637 z"/>
<path fill="#bababa" stroke="#bababa" d="M-76.80581988860094 -169.31610852173466 L-83.55193258812838 -167.33952332060798 L-83.55193258812838 -168.52558072479744 L-77.17135123918297 -170.40955790130215 z"/>
<path fill="#bababa" stroke="#bababa" d="M-78.09855098746374 180.32153939645258 L-76.80581988860094 181.23629429585094 L-83.55193258812838 179.22906621697334 L-86.36689390864788 174.47074242582786 L-85.07416280978511 175.3854973252262 L-83.03252032520324 178.865571476714 z"/>
<path fill="#bababa" stroke="#bababa" d="M-83.03252032520324 -112.4565143824027 L-83.03252032520324 -118.33206298931553 L-85.24190241139719 -122.09931828961176 L-85.66666666666664 -122.82569391497229 L-85.66666666666664 -116.96108291032148 z"/>
<path fill="#bababa" stroke="#bababa" d="M-78.52618694486587 -111.13703346543643 L-76.66666666666664 -110.59255499153977 L-76.66666666666664 -116.45716599619058 L-76.80581988860094 -116.49791087797803 L-82.6010717727085 -118.20795660402187 L-83.03252032520324 -118.33206298931556 L-83.03252032520324 -112.45651438240272 z"/>
<path fill="#bababa" stroke="#bababa" d="M-83.53665386915988 -120.60354895736077 L-85.66666666666666 -116.96108291032147 L-85.66666666666666 -122.82569391497229 L-85.28047069169591 -123.48611517064772 L-83.03252032520325 -127.34250235321336 L-83.03252032520325 -121.46565143824026 z"/>
<path fill="#bababa" stroke="#bababa" d="M-82.77931643772271 -127.41796874145007 L-76.80581988860094 -129.15347695196658 L-76.66666666666664 -129.19422183375403 L-76.66666666666664 -123.32961082910322 L-83.03252032520324 -121.46565143824027 L-83.03252032520324 -127.3425023532134 z"/>
<path fill="#bababa" stroke="#bababa" d="M123.99506274429129 -116.96952595174618 L121.36585365853658 -121.46565143824026 L121.36585365853658 -127.33026244289107 L124 -122.82569391497229 L124 -116.96108291032147 z"/>
<path fill="#bababa" stroke="#bababa" d="M123.9865696698377 -116.93811613675376 L123.99999999999999 -116.96108291032148 L123.99999999999999 -122.8256939149723 L121.36585365853657 -118.32112538705351 L121.36585365853657 -112.4565143824027 z"/>
<path fill="#bababa" stroke="#bababa" d="M120.47740868015781 -121.72579335314173 L114.99999999999999 -123.32961082910322 L114.99999999999999 -129.19422183375403 L121.36585365853657 -127.33026244289108 L121.36585365853657 -121.46565143824027 z"/>
<path fill="#bababa" stroke="#bababa" d="M92.88936218919093 -116.47025150704307 L86.196238496011 -116.45716599619058 L-76.66666666666666 -116.45716599619058 L-76.66666666666666 -110.59255499153977 L115 -110.59255499153977 L115 -116.45716599619058 L97.68320514169021 -116.45716599619058 z"/>
<path fill="#bababa" stroke="#bababa" d="M117.33409263477598 -111.27599104255556 L121.36585365853657 -112.4565143824027 L121.36585365853657 -118.32112538705353 L114.99999999999999 -116.45716599619058 L114.99999999999999 -110.59255499153976 z"/>
<path fill="#bababa" stroke="#bababa" d="M-76.66666666666666 -123.32961082910323 L-76.66666666666666 -129.19422183375403 L93.17041359964222 -129.19422183375403 L100.14990801162838 -129.20786721878792 L105.14885941798013 -129.19422183375403 L115 -129.19422183375403 L115 -123.32961082910323 z"/>
<path fill="#bababa" stroke="#bababa" d="M-76.8208556051014 180.6956561189479 L-76.81625745504454 180.69697877904096 L-76.80581988860094 181.23629429585094 z"/>
<path fill="#bababa" stroke="#bababa" d="M-77.16973433048837 168.1510488800637 L-77.37640546153065 160.71978988407395 L-77.2019117428888 160.7699830868368 L-77.05969804200384 168.11825301207952 z"/>
<path fill="#bababa" stroke="#bababa" d="M-77.93195531795992 140.7439236492 L-77.58756603073307 140.8429873946326 L-77.44100593505176 148.4158382285109 L-77.71630932020635 148.4978912820942 z"/>
<path fill="#bababa" stroke="#bababa" d="M-78.48750517438918 120.76805741432608 L-77.97322031857733 120.9159917024284 L-77.8223138280997 128.71342344494226 L-78.2628843099243 128.84473368412472 z"/>
<path fill="#bababa" stroke="#bababa" d="M-78.80945929964227 109.19157608615521 L-79.04305503081844 100.79219117945212 L-78.3588746064216 100.98899601022421 L-78.20362172114763 109.01100866137362 z"/>
<path fill="#bababa" stroke="#bababa" d="M-79.5986048872477 80.81632494457817 L-78.74452889426586 81.06200031802003 L-78.58492961419554 89.30859387780498 L-79.35603428936022 89.53841848818571 z"/>
<path fill="#bababa" stroke="#bababa" d="M-80.15415474367697 60.84045870970424 L-79.13018318211012 61.13500462581584 L-78.96623750724348 69.60617909423634 L-79.90260927907819 69.8852608902162 z"/>
<path fill="#bababa" stroke="#bababa" d="M-80.44918426879615 50.2321032922467 L-80.70970460010624 40.86459247483029 L-79.51583746995439 41.20800893361165 L-79.3475454002914 49.9037643106677 z"/>
<path fill="#bababa" stroke="#bababa" d="M-85.2804706916959 -123.48611517064774 L-86.36689390864788 -162.5505566517116 L-83.55193258812838 -167.33952332060792 L-83.52840671879353 -166.12392709448687 L-85.66666666666664 -162.4557152073904 L-83.38202180580544 -158.5601280587679 L-83.15722301373086 -146.94463536886965 L-85.66666666666664 -142.63965315805186 L-83.03252032520324 -138.14812503865406 L-82.98672606055275 -138.13495229622603 L-82.77931643772273 -127.41796874145005 L-83.03252032520324 -127.34250235321336 z"/>
<path fill="#bababa" stroke="#bababa" d="M-83.76195239947376 -106.27509038810337 L-84.75446118213684 -104.57242906377103 L-85.24190241139719 -122.09931828961177 L-83.03252032520324 -118.33206298931555 L-82.6010717727085 -118.20795660402185 L-82.3980085446748 -107.71555395788141 L-83.03252032520324 -107.52644030387485 z"/>
<path fill="#bababa" stroke="#bababa" d="M-82.01670065162686 -88.01313917431277 L-83.03252032520324 -87.71037825453632 L-84.22845167257778 -85.65874295689433 L-84.6633618463138 -101.29677679705418 L-83.03252032520324 -98.51600093997702 L-82.21541748486423 -98.28096091181767 z"/>
<path fill="#bababa" stroke="#bababa" d="M-83.03252032520324 -67.89431620519781 L-83.70244216301872 -66.74505685001762 L-84.08482128123042 -80.49423530449663 L-83.03252032520324 -78.69993889063849 L-81.82976319701997 -78.35396521961347 L-81.63539275857894 -68.31072439074413 z"/>
<path fill="#bababa" stroke="#bababa" d="M-83.03252032520324 -48.07825415585929 L-83.17643265345966 -47.83137074314093 L-83.50628071614703 -59.69169381193905 L-83.03252032520324 -58.88387684129999 L-81.44410890917571 -58.4269695274093 L-81.25408486553101 -48.60830960717549 z"/>
<path fill="#bababa" stroke="#bababa" d="M-81.26877419046644 -38.560472361230836 L-81.05845462133144 -38.4999738352051 L-80.8727769724831 -28.905894823606854 L-82.635484227668 -28.380527099631323 L-82.93190402582327 -39.038872464665495 z"/>
<path fill="#bababa" stroke="#bababa" d="M-80.67280033348717 -18.572978143000913 L-80.49146907943518 -9.203480040038219 L-82.08890923795003 -8.727369501661816 L-82.37635416939402 -19.06300622979155 z"/>
<path fill="#bababa" stroke="#bababa" d="M-80.28714604564291 1.354017549203275 L-80.11016118638726 10.49893474353042 L-81.54233424823207 10.92578809630769 L-81.82080431296475 0.9128600050823971 z"/>
<path fill="#bababa" stroke="#bababa" d="M-81.26525445653549 20.88872623995634 L-79.90149175779865 21.28101324140746 L-79.72885329333933 30.201349527099058 L-80.99575925851411 30.57894569427719 z"/>
<path fill="#bababa" stroke="#bababa" d="M-76.80581988860094 -170.5174873647996 L104.74598925003798 -170.5174873647996 L115.13915322193428 -169.31610852173466 L-76.80581988860094 -169.31610852173466 z"/>
<path fill="#bababa" stroke="#bababa" d="M120.04769215635194 179.24762985631978 L121.88526592146171 179.22906621697334 L115.13915322193428 181.2362942958509 L-76.80581988860094 181.2362942958509 L-27.381016070209988 180.73699230848283 L114.99999999999999 180.73699230848283 z"/>
<path fill="#bababa" stroke="#bababa" d="M-66.41265591670465 180.03491545278607 L-76.80581988860094 180.03491545278607 L-76.80581988860094 181.23629429585097 z"/>
<path fill="#bababa" stroke="#bababa" d="M-86.3668939086479 173.26936358276296 L-86.3668939086479 -145.50338453471952 L-86.3668939086479 -162.5505566517116 L-86.3668939086479 174.47074242582786 z"/>
<path fill="#bababa" stroke="#bababa" d="M124.70022724198124 174.4707424258279 L124.70022724198124 -162.55055665171156 L124.70022724198124 -163.7519354947765 L124.70022724198124 155.02081262270596 z"/>
<path fill="#bababa" stroke="#bababa" d="M-82.3980085446748 -107.71555395788143 L-76.80581988860094 -109.34027898242344 L-76.66666666666664 -109.38102386421089 L-76.66666666666664 -103.51641285956008 L-83.03252032520324 -101.65245346869713 L-83.03252032520324 -107.52644030387486 z"/>
<path fill="#bababa" stroke="#bababa" d="M-83.03252032520324 -92.64331641285955 L-83.03252032520324 -98.516000939977 L-84.6633618463138 -101.29677679705419 L-85.66666666666664 -103.01249594542914 L-85.66666666666664 -97.14788494077833 z"/>
<path fill="#bababa" stroke="#bababa" d="M-62.048061154703355 180.74080354695658 L-27.381016070209988 180.73699230848283 L-76.80581988860095 181.23629429585094 z"/>
<path fill="#bababa" stroke="#bababa" d="M124.70022724198122 174.47074242582786 L121.8852659214617 179.22906621697334 L120.04769215635196 179.2476298563198 L121.36585365853657 178.8627833117057 L123.92724282294198 174.49669532528773 z"/>
<path fill="#bababa" stroke="#bababa" d="M124.70022724198124 174.47074242582786 L124.70022724198124 155.020812622706 L124.70022724198124 173.26936358276296 z"/>
<path fill="#bababa" stroke="#bababa" d="M-79.54849344036226 -91.62317285028965 L-76.66666666666664 -90.77935702199663 L-76.66666666666664 -96.64396802664743 L-76.80581988860094 -96.68471290843488 L-82.21541748486423 -98.28096091181767 L-83.03252032520324 -98.51600093997703 L-83.03252032520324 -92.64331641285958 z"/>
<path fill="#bababa" stroke="#bababa" d="M123.41350779295747 -98.15082630972506 L121.36585365853658 -101.65245346869712 L121.36585365853658 -107.51706447334793 L124 -103.01249594542915 L124 -97.14788494077833 z"/>
<path fill="#bababa" stroke="#bababa" d="M122.56429580781911 -94.69273360096851 L123.99999999999999 -97.14788494077833 L123.99999999999999 -103.01249594542915 L121.36585365853657 -98.50792741751037 L121.36585365853657 -92.64331641285955 z"/>
<path fill="#bababa" stroke="#bababa" d="M-84.75446118213685 -104.57242906377103 L-83.03252032520325 -107.52644030387486 L-83.03252032520325 -101.6524534686971 L-85.66666666666666 -97.14788494077833 L-85.66666666666666 -103.01249594542914 z"/>
<path fill="#bababa" stroke="#bababa" d="M119.96435575037488 -102.06282029886917 L114.99999999999999 -103.51641285956008 L114.99999999999999 -109.38102386421089 L121.36585365853657 -107.51706447334794 L121.36585365853657 -101.65245346869713 z"/>
<path fill="#bababa" stroke="#bababa" d="M81.59517979873267 -96.65618262210663 L75.34752166814025 -96.64396802664744 L-76.66666666666666 -96.64396802664744 L-76.66666666666666 -90.77935702199662 L115 -90.77935702199662 L115 -96.64396802664744 L86.06996515635032 -96.64396802664744 z"/>
<path fill="#bababa" stroke="#bababa" d="M117.07786940651614 -91.3877694048463 L121.36585365853657 -92.64331641285956 L121.36585365853657 -98.50792741751037 L114.99999999999999 -96.64396802664743 L114.99999999999999 -90.77935702199662 z"/>
<path fill="#bababa" stroke="#bababa" d="M-76.66666666666666 -103.51641285956008 L-76.66666666666666 -109.38102386421089 L82.32169677177146 -109.38102386421089 L88.85572562117012 -109.3937983338515 L93.53561943264025 -109.38102386421089 L115 -109.38102386421089 L115 -103.51641285956008 z"/>
<path fill="#bababa" stroke="#bababa" d="M-84.22845167257779 -85.65874295689433 L-83.03252032520325 -87.71037825453632 L-83.03252032520325 -81.83925549915396 L-85.66666666666666 -77.33468697123519 L-85.66666666666666 -83.199297975886 z"/>
<path fill="#bababa" stroke="#bababa" d="M-83.03252032520324 -72.8301184433164 L-83.03252032520324 -78.6999388906385 L-84.08482128123042 -80.49423530449661 L-85.66666666666664 -83.199297975886 L-85.66666666666664 -77.33468697123519 z"/>
<path fill="#bababa" stroke="#bababa" d="M-79.27157647026999 -71.72889196326524 L-76.66666666666664 -70.96615905245346 L-76.66666666666664 -76.83077005710429 L-76.80581988860094 -76.87151493889174 L-81.82976319701997 -78.3539652196135 L-83.03252032520324 -78.6999388906385 L-83.03252032520324 -72.83011844331641 z"/>
<path fill="#bababa" stroke="#bababa" d="M-82.01670065162688 -88.01313917431278 L-76.80581988860094 -89.5270810128803 L-76.66666666666664 -89.56782589466775 L-76.66666666666664 -83.70321489001692 L-83.03252032520324 -81.83925549915398 L-83.03252032520324 -87.71037825453634 z"/>
<path fill="#bababa" stroke="#bababa" d="M122.90258449304174 -79.211341763295 L121.36585365853658 -81.83925549915396 L121.36585365853658 -87.70386650380478 L124 -83.19929797588601 L124 -77.33468697123519 z"/>
<path fill="#bababa" stroke="#bababa" d="M121.53070353802359 -73.11202289459145 L123.99999999999999 -77.33468697123519 L123.99999999999999 -83.19929797588601 L121.36585365853657 -78.69472944796722 L121.36585365853657 -72.8301184433164 z"/>
<path fill="#bababa" stroke="#bababa" d="M119.53918363041872 -82.37411522662387 L114.99999999999999 -83.70321489001692 L114.99999999999999 -89.56782589466775 L121.36585365853657 -87.7038665038048 L121.36585365853657 -81.83925549915398 z"/>
<path fill="#bababa" stroke="#bababa" d="M70.30099740827441 -76.84211373717018 L64.49880484026949 -76.83077005710429 L-76.66666666666666 -76.83077005710429 L-76.66666666666666 -70.96615905245346 L115 -70.96615905245346 L115 -76.83077005710429 L74.45672517101043 -76.83077005710429 z"/>
<path fill="#bababa" stroke="#bababa" d="M116.87233524180776 -71.51438982306365 L121.36585365853657 -72.83011844331641 L121.36585365853657 -78.69472944796723 L114.99999999999999 -76.83077005710429 L114.99999999999999 -70.96615905245346 z"/>
<path fill="#bababa" stroke="#bababa" d="M-76.66666666666666 -83.70321489001692 L-76.66666666666666 -89.56782589466773 L71.4729799439007 -89.56782589466773 L77.56154323071186 -89.57972944891506 L81.92237944730036 -89.56782589466773 L115 -89.56782589466773 L115 -83.70321489001692 z"/>
<path fill="#bababa" stroke="#bababa" d="M121.36585365853657 -53.016920473773254 L123.99999999999999 -57.52148900169204 L123.99999999999999 -63.386100006342865 L121.36585365853657 -58.88153147842408 z"/>
<path fill="#bababa" stroke="#bababa" d="M-83.03252032520325 -62.02605752961082 L-85.66666666666666 -57.52148900169203 L-85.66666666666666 -63.38610000634286 L-83.70244216301872 -66.74505685001762 L-83.03252032520325 -67.89431620519781 z"/>
<path fill="#bababa" stroke="#bababa" d="M-83.03252032520324 -53.016920473773254 L-83.03252032520324 -58.88387684129998 L-83.50628071614703 -59.69169381193905 L-85.66666666666664 -63.38610000634286 L-85.66666666666664 -57.52148900169203 z"/>
<path fill="#bababa" stroke="#bababa" d="M-77.97516421390024 -51.536096860437425 L-76.66666666666664 -51.152961082910316 L-76.66666666666664 -57.017572087561135 L-76.80581988860094 -57.05831696934859 L-81.4441089091757 -58.4269695274093 L-83.03252032520324 -58.88387684129999 L-83.03252032520324 -53.01692047377326 z"/>
<path fill="#bababa" stroke="#bababa" d="M-81.63539275857894 -68.31072439074414 L-76.80581988860094 -69.71388304333715 L-76.66666666666664 -69.7546279251246 L-76.66666666666664 -63.890016920473784 L-83.03252032520324 -62.02605752961084 L-83.03252032520324 -67.89431620519782 z"/>
<path fill="#bababa" stroke="#bababa" d="M-76.66666666666666 -63.89001692047378 L-76.66666666666666 -69.7546279251246 L60.62426311602994 -69.7546279251246 L66.2673608402536 -69.76566056397859 L70.30913946196047 -69.7546279251246 L115 -69.7546279251246 L115 -63.89001692047378 z"/>
<path fill="#bababa" stroke="#bababa" d="M119.18109394734284 -62.66576802232656 L114.99999999999999 -63.89001692047379 L114.99999999999999 -69.7546279251246 L121.36585365853657 -67.89066853426165 L121.36585365853657 -62.026057529610846 z"/>
<path fill="#bababa" stroke="#bababa" d="M122.45016186743908 -60.171817104353096 L121.36585365853658 -62.026057529610824 L121.36585365853658 -67.89066853426164 L124 -63.38610000634286 L124 -57.52148900169204 z"/>
<path fill="#bababa" stroke="#bababa" d="M44.71242849713989 -51.15296108291032 L115 -51.15296108291032 L115 -57.01757208756114 L62.84348518567055 -57.01757208756114 L59.00681501781615 -57.028044852233734 L53.65008801239873 -57.01757208756114 L-76.66666666666666 -57.01757208756114 L-76.66666666666666 -51.15296108291032 z"/>
<path fill="#bababa" stroke="#bababa" d="M120.93979456930741 -52.89216786665572 L121.36585365853655 -53.01692047377326 L121.36585365853655 -58.88153147842408 L114.99999999999999 -57.01757208756114 L114.99999999999999 -51.152961082910316 z"/>
<path fill="#bababa" stroke="#bababa" d="M121.36585365853657 -33.20372250423011 L123.99999999999999 -37.70829103214889 L123.99999999999999 -43.57290203679972 L121.36585365853657 -39.06833350888093 z"/>
<path fill="#bababa" stroke="#bababa" d="M-83.03252032520324 -33.203722504230115 L-83.03252032520324 -39.06833350888093 L-85.66666666666664 -43.57290203679971 L-85.66666666666664 -37.70829103214889 z"/>
<path fill="#bababa" stroke="#bababa" d="M-85.50795708293778 -37.97969516209067 L-85.66666666666666 -37.70829103214889 L-85.66666666666666 -43.57290203679972 L-83.17643265345966 -47.83137074314092 L-83.03252032520325 -48.07825415585929 L-83.03252032520325 -42.21285956006768 z"/>
<path fill="#bababa" stroke="#bababa" d="M-81.25408486553101 -48.608309607175514 L-76.80581988860094 -49.90068507379401 L-76.66666666666664 -49.941429955581455 L-76.66666666666664 -44.07681895093062 L-83.03252032520324 -42.212859560067685 L-83.03252032520324 -48.0782541558593 z"/>
<path fill="#bababa" stroke="#bababa" d="M54.97317844979534 -49.95159167904215 L58.695899476620596 -49.94142995558145 L115 -49.94142995558145 L115 -44.07681895093063 L-76.66666666666666 -44.07681895093063 L-76.66666666666666 -49.94142995558145 L49.77554628815917 -49.94142995558145 z"/>
<path fill="#bababa" stroke="#bababa" d="M-81.05845462133144 -38.499973835205104 L-82.93190402582327 -39.0388724646655 L-83.03252032520324 -39.06833350888094 L-83.03252032520324 -33.203722504230115 L-76.66666666666664 -31.339763113367177 L-76.66666666666664 -37.204374118017995 L-76.80581988860094 -37.24511899980544 z"/>
<path fill="#bababa" stroke="#bababa" d="M118.87537145429985 -42.9420873967992 L114.99999999999999 -44.07681895093062 L114.99999999999999 -49.94142995558145 L121.36585365853657 -48.0774705647185 L121.36585365853657 -42.21285956006768 z"/>
<path fill="#bababa" stroke="#bababa" d="M122.04673650282031 -41.04850381290127 L121.36585365853658 -42.21285956006768 L121.36585365853658 -48.077470564718496 L124 -43.57290203679971 L124 -37.70829103214889 z"/>
<path fill="#bababa" stroke="#bababa" d="M34.02496099843994 -31.33976311336718 L115 -31.33976311336718 L115 -37.204374118017995 L51.230245200330664 -37.204374118017995 L47.71263262735789 -37.21397596729729 L42.801371184527966 -37.204374118017995 L-76.66666666666666 -37.204374118017995 L-76.66666666666666 -31.33976311336718 z"/>
<path fill="#bababa" stroke="#bababa" d="M120.48670737435415 -32.94630330167798 L121.36585365853657 -33.203722504230115 L121.36585365853657 -39.06833350888094 L114.99999999999999 -37.204374118017995 L114.99999999999999 -31.339763113367173 z"/>
<path fill="#bababa" stroke="#bababa" d="M-80.67280033348717 -18.572978143000913 L-82.37635416939402 -19.06300622979155 L-83.03252032520324 -19.255135539337786 L-83.03252032520324 -13.39052453468697 L-76.66666666666664 -11.526565143824026 L-76.66666666666664 -17.391176148474845 L-76.80581988860094 -17.43192103026229 z"/>
<path fill="#bababa" stroke="#bababa" d="M-85.10753405958404 -18.851247663871476 L-85.66666666666666 -17.89509306260575 L-85.66666666666666 -23.75970406725657 L-83.03252032520325 -28.264272595175353 L-83.03252032520325 -22.39966159052453 z"/>
<path fill="#bababa" stroke="#bababa" d="M-81.51671305643362 -22.84349887377289 L-83.03252032520324 -22.39966159052454 L-83.03252032520324 -28.264272595175363 L-82.63548422766799 -28.380527099631333 L-80.8727769724831 -28.905894823606864 L-76.80581988860094 -30.087487104250858 L-76.66666666666664 -30.128231986038305 L-76.66666666666664 -24.263620981387486 z"/>
<path fill="#bababa" stroke="#bababa" d="M43.67899605933709 -30.137522794105706 L47.08265949128071 -30.128231986038298 L115 -30.128231986038298 L115 -24.263620981387483 L-76.66666666666666 -24.263620981387483 L-76.66666666666666 -30.128231986038298 L38.92682946028841 -30.128231986038298 z"/>
<path fill="#bababa" stroke="#bababa" d="M118.61131157170426 -23.206207713901588 L114.99999999999999 -24.263620981387486 L114.99999999999999 -30.128231986038305 L121.36585365853655 -28.264272595175367 L121.36585365853655 -22.399661590524545 z"/>
<path fill="#bababa" stroke="#bababa" d="M121.68475768231157 -21.85431412584061 L121.36585365853658 -22.399661590524527 L121.36585365853658 -28.264272595175353 L124 -23.759704067256568 L124 -17.89509306260575 z"/>
<path fill="#bababa" stroke="#bababa" d="M-83.03252032520324 -13.390524534686971 L-83.03252032520324 -19.25513553933779 L-85.66666666666664 -23.759704067256568 L-85.66666666666664 -17.89509306260575 z"/>
<path fill="#bababa" stroke="#bababa" d="M123.91850534845082 -17.755731692744224 L123.99999999999999 -17.89509306260575 L123.99999999999999 -23.75970406725657 L121.36585365853657 -19.25513553933779 L121.36585365853657 -13.390524534686968 z"/>
<path fill="#bababa" stroke="#bababa" d="M23.337493499739992 -11.526565143824028 L115 -11.526565143824028 L115 -17.391176148474848 L39.61700521499078 -17.391176148474848 L36.41845023689963 -17.399907082360844 L31.95265435665721 -17.391176148474848 L-76.66666666666666 -17.391176148474848 L-76.66666666666666 -11.526565143824028 z"/>
<path fill="#bababa" stroke="#bababa" d="M120.09784411276948 -13.019243882112281 L121.36585365853657 -13.390524534686971 L121.36585365853657 -19.25513553933779 L114.99999999999999 -17.391176148474845 L114.99999999999999 -11.526565143824024 z"/>
<path fill="#bababa" stroke="#bababa" d="M-85.07262373053932 0.902251280207973 L-85.66666666666666 1.918104906937394 L-85.66666666666666 -3.946506097713425 L-83.03252032520325 -8.451074625632206 L-83.03252032520325 -2.586463620981387 z"/>
<path fill="#bababa" stroke="#bababa" d="M-81.22542451919756 -3.1155919010945214 L-83.03252032520324 -2.5864636209813914 L-83.03252032520324 -8.451074625632208 L-82.08890923795003 -8.727369501661821 L-80.49146907943516 -9.203480040038226 L-76.80581988860094 -10.274289134707706 L-76.66666666666664 -10.315034016495156 L-76.66666666666664 -4.450423011844339 z"/>
<path fill="#bababa" stroke="#bababa" d="M32.38481366887883 -10.323453909169256 L35.46941950594082 -10.315034016495154 L115 -10.315034016495154 L115 -4.450423011844334 L-76.66666666666666 -4.450423011844334 L-76.66666666666666 -10.315034016495154 L28.078112632417653 -10.315034016495154 z"/>
<path fill="#bababa" stroke="#bababa" d="M-80.28714604564291 1.3540175492032782 L-81.82080431296475 0.9128600050823977 L-83.03252032520324 0.5580624302053578 L-83.03252032520324 6.422673434856176 L-76.66666666666664 8.28663282571912 L-76.66666666666664 2.4220218210683004 L-76.80581988860094 2.3812769392808546 z"/>
<path fill="#bababa" stroke="#bababa" d="M118.38094115798569 -3.46046355637813 L114.99999999999999 -4.450423011844344 L114.99999999999999 -10.315034016495153 L121.36585365853657 -8.451074625632208 L121.36585365853657 -2.5864636209813994 z"/>
<path fill="#bababa" stroke="#bababa" d="M123.53084708165811 1.1158216634141742 L121.36585365853658 -2.5864636209813865 L121.36585365853658 -8.451074625632206 L124 -3.9465060977134256 L124 1.918104906937394 z"/>
<path fill="#bababa" stroke="#bababa" d="M-83.03252032520324 6.422673434856175 L-83.03252032520324 0.5580624302053555 L-85.66666666666664 -3.9465060977134248 L-85.66666666666664 1.9181049069373939 z"/>
<path fill="#bababa" stroke="#bababa" d="M123.68564087622174 2.4556802850194375 L123.99999999999999 1.918104906937394 L123.99999999999999 -3.946506097713425 L121.36585365853657 0.5580624302053554 L121.36585365853658 6.422673434856175 z"/>
<path fill="#bababa" stroke="#bababa" d="M12.650026001040047 8.286632825719119 L115 8.286632825719119 L115 2.4220218210682996 L28.0037652296509 2.4220218210682996 L25.124267846441374 2.4141618025756033 L21.10393752878645 2.4220218210682996 L-76.66666666666666 2.4220218210682996 L-76.66666666666666 8.286632825719119 z"/>
<path fill="#bababa" stroke="#bababa" d="M119.76045317466786 6.892744138412205 L121.36585365853657 6.4226734348561765 L121.36585365853657 0.5580624302053576 L114.99999999999999 2.4220218210683035 L114.99999999999999 8.286632825719122 z"/>
<path fill="#bababa" stroke="#bababa" d="M-83.03252032520325 26.23587140439932 L-83.03252032520325 20.3712603997485 L-85.66666666666666 15.866691871829719 L-85.66666666666666 21.731302876480537 z"/>
<path fill="#bababa" stroke="#bababa" d="M-81.27134903264803 20.886941712226424 L-83.03252032520324 20.371260399748508 L-83.03252032520324 26.235871404399322 L-76.66666666666664 28.099830795262267 L-76.66666666666664 22.235219790611453 L-76.80581988860094 22.194474908824002 L-79.90149175779865 21.281013241407468 L-81.26525445653549 20.88872623995635 z"/>
<path fill="#bababa" stroke="#bababa" d="M-84.40646170820688 19.576267104454523 L-85.66666666666664 21.731302876480537 L-85.66666666666664 15.866691871829717 L-83.03252032520324 11.362123343910937 L-83.03252032520324 17.226734348561756 z"/>
<path fill="#bababa" stroke="#bababa" d="M-81.42310930564906 16.755489336569767 L-83.03252032520324 17.226734348561756 L-83.03252032520324 11.362123343910936 L-81.54233424823207 10.925788096307684 L-80.11016118638724 10.498934743530414 L-76.80581988860094 9.53890883483544 L-76.66666666666664 9.498163953047992 L-76.66666666666664 15.36277495769881 z"/>
<path fill="#bababa" stroke="#bababa" d="M21.090631278420567 9.490614975767192 L23.85617952060094 9.498163953047994 L115 9.498163953047994 L115 15.362774957698814 L-76.66666666666666 15.362774957698814 L-76.66666666666666 9.498163953047994 L17.22939580454689 9.498163953047994 z"/>
<path fill="#bababa" stroke="#bababa" d="M118.1781995421313 16.29337047565387 L114.99999999999997 15.362774957698809 L114.99999999999997 9.498163953047984 L121.36585365853657 11.362123343910932 L121.36585365853657 17.22673434856176 z"/>
<path fill="#bababa" stroke="#bababa" d="M123.15114584713206 20.27970482301866 L121.36585365853657 17.226734348561756 L121.36585365853657 11.36212334391094 L123.99999999999999 15.866691871829719 L123.99999999999999 21.73130287648054 z"/>
<path fill="#bababa" stroke="#bababa" d="M123.49171056144864 22.600512218395814 L124 21.731302876480537 L124 15.866691871829719 L121.36585365853658 20.371260399748497 L121.36585365853658 26.23587140439932 z"/>
<path fill="#bababa" stroke="#bababa" d="M1.9625585023401 28.099830795262264 L115 28.099830795262264 L115 22.235219790611445 L16.390525244311014 22.235219790611445 L13.830085455983115 22.228230687512053 L10.255220700915688 22.235219790611445 L-76.66666666666666 22.235219790611445 L-76.66666666666666 28.099830795262264 z"/>
<path fill="#bababa" stroke="#bababa" d="M119.46494916290801 26.792467420553265 L121.36585365853655 26.23587140439933 L121.36585365853655 20.37126039974851 L114.99999999999997 22.235219790611456 L114.99999999999997 28.099830795262275 z"/>
<path fill="#bababa" stroke="#bababa" d="M-76.51539463840805 180.74080354695658 L-62.048061154703355 180.74080354695658 L-76.80581988860094 181.2362942958509 z"/>
<path fill="#bababa" stroke="#bababa" d="M114.99999999999999 29.311361922591136 L12.242939535261053 29.311361922591136 L16.390525244311014 22.235219790611442 L114.99999999999999 22.235219790611442 L121.36585365853657 20.3712603997485 L123.99999999999999 15.866691871829719 L121.36585365853657 11.362123343910937 L114.99999999999999 9.498163953047994 L23.85617952060094 9.498163953047994 L28.003765229650895 2.4220218210682996 L114.99999999999999 2.4220218210682996 L121.36585365853657 0.5580624302053555 L123.99999999999999 -3.946506097713425 L121.36585365853657 -8.451074625632206 L114.99999999999999 -10.315034016495149 L35.46941950594082 -10.315034016495149 L39.61700521499078 -17.391176148474845 L114.99999999999999 -17.391176148474845 L121.36585365853657 -19.255135539337786 L123.99999999999999 -23.759704067256568 L121.36585365853657 -28.26427259517535 L114.99999999999999 -30.128231986038298 L47.08265949128071 -30.128231986038298 L51.230245200330664 -37.20437411801799 L114.99999999999999 -37.20437411801799 L121.36585365853657 -39.06833350888093 L123.99999999999999 -43.57290203679971 L121.36585365853657 -48.077470564718496 L114.99999999999999 -49.94142995558144 L58.69589947662059 -49.94142995558144 L62.84348518567055 -57.017572087561135 L114.99999999999999 -57.017572087561135 L121.36585365853657 -58.88153147842407 L123.99999999999999 -63.38610000634286 L121.36585365853657 -67.89066853426164 L114.99999999999999 -69.75462792512458 L70.30913946196047 -69.75462792512458 L74.45672517101043 -76.83077005710427 L114.99999999999999 -76.83077005710427 L121.36585365853657 -78.69472944796722 L123.99999999999999 -83.199297975886 L121.36585365853657 -87.70386650380479 L114.99999999999999 -89.56782589466772 L81.92237944730036 -89.56782589466772 L86.0699651563503 -96.64396802664743 L114.99999999999999 -96.64396802664743 L121.36585365853657 -98.50792741751036 L123.99999999999999 -103.01249594542915 L121.36585365853657 -107.51706447334793 L114.99999999999999 -109.38102386421087 L93.53561943264023 -109.38102386421087 L97.6832051416902 -116.45716599619057 L114.99999999999999 -116.45716599619057 L121.36585365853657 -118.3211253870535 L123.99999999999999 -122.82569391497229 L121.36585365853657 -127.33026244289107 L114.99999999999999 -129.194221833754 L105.1488594179801 -129.194221833754 L109.29644512703008 -136.2703639657337 L114.99999999999999 -136.2703639657337 L121.36585365853657 -138.13432335659664 L123.99999999999999 -142.63889188451543 L121.36585365853657 -147.14346041243422 L116.50397998677472 -148.56704561777696 L124.70022724198121 -162.55055665171156 L124.70022724198121 174.4707424258279 L123.92724282294196 174.4966953252877 L123.99999999999999 174.37227562817486 L121.36585365853657 169.8677071002561 L114.99999999999999 168.00374770939314 L-69.04974036211813 168.00374770939314 L-64.90215465306817 160.92760557741343 L114.99999999999999 160.92760557741343 L121.36585365853657 159.0636461865505 L123.99999999999999 154.55907765863174 L121.36585365853657 150.05450913071294 L114.99999999999999 148.19054973985 L-57.43650037677824 148.19054973985 L-53.28891466772829 141.1144076078703 L114.99999999999999 141.1144076078703 L121.36585365853657 139.25044821700737 L123.99999999999999 134.74587968908858 L121.36585365853657 130.2413111611698 L114.99999999999999 128.37735177030686 L-45.82326039143836 128.37735177030686 L-41.675674682388404 121.30120963832717 L114.99999999999999 121.30120963832717 L121.36585365853657 119.43725024746422 L123.99999999999999 114.93268171954544 L121.36585365853657 110.42811319162666 L114.99999999999999 108.56415380076372 L-34.21002040609848 108.56415380076372 L-30.06243469704852 101.48801166878403 L114.99999999999999 101.48801166878403 L121.36585365853657 99.62405227792108 L123.99999999999999 95.11948375000229 L121.36585365853657 90.61491522208351 L114.99999999999999 88.75095583122057 L-22.5967804207586 88.75095583122057 L-18.44919471170864 81.67481369924087 L114.99999999999999 81.67481369924087 L121.36585365853657 79.81085430837793 L123.99999999999999 75.30628578045915 L121.36585365853657 70.80171725254037 L114.99999999999999 68.93775786167743 L-10.983540435418714 68.93775786167743 L-6.835954726368754 61.86161572969773 L114.99999999999999 61.86161572969773 L121.36585365853657 59.997656338834794 L123.99999999999999 55.49308781091601 L121.36585365853657 50.98851928299723 L114.99999999999999 49.124559892134286 L0.6296995499211707 49.124559892134286 L4.777285258971129 42.04841776015459 L114.99999999999999 42.04841776015459 L121.36585365853657 40.18445836929165 L123.99999999999999 35.67988984137286 L121.36585365853657 31.17532131345408 z"/>
<path fill="#bababa" stroke="#bababa" d="M124.70022724198124 -162.5505566517116 L121.88526592146174 -167.33952332060792 L121.88526592146172 -168.5255807247974 L124.54770138610608 -164.01059067381777 z"/>
<path fill="#bababa" stroke="#bababa" d="M-83.03252032520325 46.04906937394246 L-83.03252032520325 40.18445836929164 L-85.66666666666666 35.67988984137286 L-85.66666666666666 41.54450084602368 z"/>
<path fill="#bababa" stroke="#bababa" d="M-81.27134903264803 40.70013968176957 L-83.03252032520324 40.184458369291654 L-83.03252032520324 46.04906937394247 L-76.66666666666664 47.91302876480542 L-76.66666666666664 42.0484177601546 L-76.80581988860094 42.00767287836715 L-79.51583746995438 41.20800893361166 L-80.70970460010622 40.864592474830296 z"/>
<path fill="#bababa" stroke="#bababa" d="M-84.09785590558359 38.861728264486274 L-85.66666666666664 41.54450084602368 L-85.66666666666664 35.67988984137286 L-83.03252032520324 31.17532131345408 L-83.03252032520324 37.0399323181049 z"/>
<path fill="#bababa" stroke="#bababa" d="M-80.73655798345538 36.367661041144316 L-83.03252032520324 37.0399323181049 L-83.03252032520324 31.17532131345408 L-80.9957592585141 30.57894569427719 L-79.72885329333933 30.201349527099058 L-76.80581988860094 29.352106804378586 L-76.66666666666664 29.31136192259114 L-76.66666666666664 35.17597292724196 z"/>
<path fill="#bababa" stroke="#bababa" d="M-64.81380451004597 35.17597292724196 L-76.66666666666666 35.17597292724196 L-76.66666666666666 29.311361922591143 L6.380678976676131 29.311361922591143 L9.796448887962308 29.304683860703637 L12.242939535261055 29.311361922591143 L115 29.311361922591143 L115 35.17597292724196 z"/>
<path fill="#bababa" stroke="#bababa" d="M117.99839754755102 36.05392136371025 L114.99999999999999 35.17597292724196 L114.99999999999999 29.311361922591136 L121.36585365853657 31.175321313454084 L121.36585365853657 37.0399323181049 z"/>
<path fill="#bababa" stroke="#bababa" d="M122.80380469245402 39.49892590935475 L121.36585365853657 37.039932318104896 L121.36585365853657 31.17532131345408 L123.99999999999999 35.67988984137286 L123.99999999999999 41.54450084602368 z"/>
<path fill="#bababa" stroke="#bababa" d="M123.32770323245445 42.69417382084584 L124 41.54450084602368 L124 35.67988984137286 L121.36585365853658 40.18445836929165 L121.36585365853658 46.049069373942466 z"/>
<path fill="#bababa" stroke="#bababa" d="M-8.724908996359847 47.91302876480542 L115 47.91302876480542 L115 42.04841776015459 L4.777285258971129 42.04841776015459 L2.535903065524855 42.0422995724485 L-0.5934961269550729 42.04841776015459 L-76.66666666666666 42.04841776015459 L-76.66666666666666 47.91302876480542 z"/>
<path fill="#bababa" stroke="#bababa" d="M119.20398761966457 46.682076464757294 L121.36585365853657 46.04906937394247 L121.36585365853657 40.184458369291654 L114.99999999999999 42.0484177601546 L114.99999999999999 47.91302876480542 z"/>
<path fill="#bababa" stroke="#bababa" d="M-83.03252032520325 65.86226734348561 L-83.03252032520325 59.99765633883478 L-85.66666666666666 55.49308781091601 L-85.66666666666666 61.35769881556682 z"/>
<path fill="#bababa" stroke="#bababa" d="M93.53561943264023 -109.38102386421087 L88.85572562117011 -109.39379833385148 L92.88936218919092 -116.47025150704306 L97.6832051416902 -116.45716599619057 z"/>
<path fill="#bababa" stroke="#bababa" d="M66.26736084025359 -69.76566056397859 L70.30099740827441 -76.84211373717018 L74.45672517101043 -76.83077005710427 L70.30913946196047 -69.75462792512458 z"/>
<path fill="#bababa" stroke="#bababa" d="M-76.80581988860094 181.23629429585094 L-76.52337366768296 180.7407817670036 L-76.51539463840805 180.74080354695658 z"/>
<path fill="#bababa" stroke="#bababa" d="M-65.22919127722469 160.92671288206716 L-64.90215465306818 160.92760557741346 L-69.04974036211813 168.00374770939314 L-69.2628278452455 168.00316605525873 z"/>
<path fill="#bababa" stroke="#bababa" d="M-53.288914667728285 141.1144076078703 L-57.43650037677825 148.19054973985 L-57.96864545478725 148.1890971703223 L-53.93500888676644 141.1126439971307 z"/>
<path fill="#bababa" stroke="#bababa" d="M-41.675674682388404 121.30120963832717 L-45.82326039143837 128.37735177030683 L-46.67446306432898 128.37502828538584 L-42.64082649630818 121.29857511219427 z"/>
<path fill="#bababa" stroke="#bababa" d="M-31.346644105849922 101.48450622725782 L-30.06243469704852 101.48801166878403 L-34.21002040609848 108.56415380076372 L-35.38028067387072 108.56095940044942 z"/>
<path fill="#bababa" stroke="#bababa" d="M-20.05246171539166 81.67043734232138 L-18.44919471170864 81.67481369924087 L-22.596780420758595 88.75095583122057 L-24.08609828341247 88.74689051551297 z"/>
<path fill="#bababa" stroke="#bababa" d="M-12.79191589295421 68.93282163057653 L-8.758279324933403 61.85636845738494 L-6.835954726368755 61.86161572969773 L-10.983540435418714 68.93775786167743 z"/>
<path fill="#bababa" stroke="#bababa" d="M-1.4977335024959515 49.11875274564008 L2.5359030655248547 42.04229957244849 L4.777285258971129 42.04841776015459 L0.6296995499211707 49.12455989213428 z"/>
<path fill="#bababa" stroke="#bababa" d="M9.796448887962306 29.304683860703637 L13.830085455983113 22.22823068751205 L16.390525244311014 22.235219790611445 L12.242939535261055 29.31136192259114 z"/>
<path fill="#bababa" stroke="#bababa" d="M25.124267846441374 2.414161802575604 L28.0037652296509 2.4220218210682996 L23.85617952060094 9.498163953047994 L21.090631278420567 9.49061497576719 z"/>
<path fill="#bababa" stroke="#bababa" d="M36.41845023689963 -17.39990708236084 L39.617005214990776 -17.39117614847484 L35.46941950594082 -10.31503401649515 L32.38481366887882 -10.323453909169253 z"/>
<path fill="#bababa" stroke="#bababa" d="M43.67899605933708 -30.137522794105696 L47.71263262735789 -37.21397596729728 L51.230245200330664 -37.20437411801799 L47.0826594912807 -30.128231986038294 z"/>
<path fill="#bababa" stroke="#bababa" d="M62.843485185670545 -57.017572087561135 L58.69589947662058 -49.94142995558144 L54.97317844979534 -49.951591679042146 L59.006815017816145 -57.02804485223373 z"/>
<path fill="#bababa" stroke="#bababa" d="M81.92237944730036 -89.56782589466772 L77.56154323071185 -89.57972944891502 L81.59517979873267 -96.65618262210663 L86.0699651563503 -96.64396802664741 z"/>
<path fill="#bababa" stroke="#bababa" d="M104.18354457964918 -136.2843203919795 L109.29644512703008 -136.2703639657337 L105.14885941798012 -129.19422183375403 L100.14990801162838 -129.2078672187879 z"/>
<path fill="#bababa" stroke="#bababa" d="M121.52278141766189 -166.70359477972661 L121.8852659214617 -167.33952332060792 L124.70022724198122 -162.5505566517116 L116.50397998677472 -148.56704561777698 L114.99999999999997 -149.0122297169914 L111.44409040208664 -149.02193610372436 L115.57343918862166 -156.26630302447268 L121.36585365853655 -157.94925838286832 L123.99999999999999 -162.4538436872797 z"/>
<path fill="#bababa" stroke="#bababa" d="M-86.21436805277276 173.52801876180422 L-86.36689390864791 173.26936358276294 L-86.36689390864791 174.47074242582786 z"/>
<path fill="#bababa" stroke="#bababa" d="M124.70022724198124 -162.5505566517116 L124.54770138610608 -164.01059067381777 L124.70022724198124 -163.7519354947765 z"/>
<path fill="#bababa" stroke="#bababa" d="M-81.27134903264803 60.51333765131272 L-83.03252032520324 59.9976563388348 L-83.03252032520324 65.86226734348561 L-76.66666666666664 67.72622673434856 L-76.66666666666664 61.861615729697746 L-76.80581988860094 61.8208708479103 L-79.13018318211012 61.13500462581586 L-80.15415474367697 60.840458709704244 z"/>
<path fill="#bababa" stroke="#bababa" d="M-83.8731182904611 58.29060970150227 L-85.66666666666664 61.35769881556683 L-85.66666666666664 55.49308781091601 L-83.03252032520324 50.988519282997224 L-83.03252032520324 56.85313028764805 z"/>
<path fill="#bababa" stroke="#bababa" d="M-80.52944217034161 56.1202142824927 L-83.03252032520324 56.85313028764805 L-83.03252032520324 50.98851928299723 L-80.44918426879615 50.2321032922467 L-79.3475454002914 49.9037643106677 L-76.80581988860094 49.16530477392173 L-76.66666666666664 49.124559892134286 L-76.66666666666664 54.989170896785105 z"/>
<path fill="#bababa" stroke="#bababa" d="M-72.62147699087589 54.98917089678511 L-76.66666666666666 54.98917089678511 L-76.66666666666666 49.124559892134286 L-4.46803785119463 49.124559892134286 L-1.4977335024959517 49.11875274564009 L0.6296995499211707 49.124559892134286 L115 49.124559892134286 L115 54.98917089678511 z"/>
<path fill="#bababa" stroke="#bababa" d="M117.83785031322122 55.820110158811445 L114.99999999999999 54.989170896785105 L114.99999999999999 49.124559892134286 L121.36585365853657 50.98851928299723 L121.36585365853657 56.85313028764805 z"/>
<path fill="#bababa" stroke="#bababa" d="M122.4848558569517 58.76669978312731 L121.36585365853657 56.85313028764805 L121.36585365853657 50.988519282997224 L123.99999999999999 55.49308781091601 L123.99999999999999 61.35769881556683 z"/>
<path fill="#bababa" stroke="#bababa" d="M123.18718935218882 62.747660035888934 L124 61.35769881556683 L124 55.49308781091601 L121.36585365853658 59.99765633883479 L121.36585365853658 65.86226734348561 z"/>
<path fill="#bababa" stroke="#bababa" d="M-19.412376495059792 67.72622673434856 L115 67.72622673434856 L115 61.86161572969774 L-6.835954726368755 61.86161572969774 L-8.758279324933405 61.856368457384946 L-11.442212954825834 61.86161572969774 L-76.66666666666666 61.86161572969774 L-76.66666666666666 67.72622673434856 z"/>
<path fill="#bababa" stroke="#bababa" d="M118.97184631077863 66.56324677484034 L121.36585365853657 65.86226734348561 L121.36585365853657 59.9976563388348 L114.99999999999997 61.861615729697746 L114.99999999999997 67.72622673434857 z"/>
<path fill="#bababa" stroke="#bababa" d="M-83.03252032520325 85.67546531302875 L-83.03252032520325 79.81085430837793 L-85.66666666666666 75.30628578045915 L-85.66666666666666 81.17089678510997 z"/>
<path fill="#bababa" stroke="#bababa" d="M-81.27134903264805 80.32653562085585 L-83.03252032520324 79.81085430837794 L-83.03252032520324 85.67546531302877 L-76.66666666666664 87.53942470389171 L-76.66666666666664 81.67481369924089 L-76.80581988860094 81.63406881745344 L-78.74452889426586 81.06200031802005 L-79.5986048872477 80.81632494457818 z"/>
<path fill="#bababa" stroke="#bababa" d="M-83.54902108554587 77.54957951512738 L-85.66666666666664 81.17089678510997 L-85.66666666666664 75.30628578045915 L-83.03252032520324 70.80171725254037 L-83.03252032520324 76.6663282571912 z"/>
<path fill="#bababa" stroke="#bababa" d="M-68.06035505881502 74.80236886632825 L-76.66666666666666 74.80236886632825 L-76.66666666666666 68.93775786167744 L-15.316754679065392 68.93775786167744 L-12.791915892954211 68.93282163057654 L-10.983540435418714 68.93775786167744 L115 68.93775786167744 L115 74.80236886632825 z"/>
<path fill="#bababa" stroke="#bababa" d="M117.69362208174249 75.59107725392477 L114.99999999999999 74.80236886632825 L114.99999999999999 68.93775786167743 L121.36585365853657 70.80171725254037 L121.36585365853657 76.6663282571912 z"/>
<path fill="#bababa" stroke="#bababa" d="M-79.90260927907819 69.8852608902162 L-78.96623750724346 69.60617909423634 L-76.80581988860094 68.97850274346489 L-76.66666666666664 68.93775786167744 L-76.66666666666664 74.80236886632825 L-83.03252032520322 76.6663282571912 L-83.03252032520322 70.80171725254037 z"/>
<path fill="#bababa" stroke="#bababa" d="M122.19095477386934 78.07730700881734 L121.36585365853657 76.6663282571912 L121.36585365853657 70.80171725254037 L123.99999999999999 75.30628578045915 L123.99999999999999 81.17089678510997 z"/>
<path fill="#bababa" stroke="#bababa" d="M123.88039181990032 81.37543486838871 L124 81.17089678510996 L124 75.30628578045915 L121.36585365853658 79.81085430837793 L121.36585365853658 85.67546531302875 z"/>
<path fill="#bababa" stroke="#bababa" d="M-30.09984399375974 87.53942470389171 L115 87.53942470389171 L115 81.67481369924089 L-18.44919471170864 81.67481369924089 L-20.05246171539166 81.67043734232139 L-22.290929782696594 81.67481369924089 L-76.66666666666666 81.67481369924089 L-76.66666666666666 87.53942470389171 z"/>
<path fill="#bababa" stroke="#bababa" d="M121.21238287708982 85.72040246044766 L121.36585365853657 85.67546531302877 L121.36585365853657 79.81085430837794 L114.99999999999999 81.67481369924089 L114.99999999999999 87.53942470389171 z"/>
<path fill="#bababa" stroke="#bababa" d="M-76.53451392205038 180.7408035469566 L-76.52337366768295 180.7407817670036 L-76.80581988860095 181.23629429585094 z"/>
<path fill="#bababa" stroke="#bababa" d="M-65.22919127722469 160.92671288206716 L-69.2628278452455 168.00316605525876 L-69.56033881841918 168.00374770939314 L-65.68579709417963 160.92760557741346 z"/>
<path fill="#bababa" stroke="#bababa" d="M-53.93500888676644 141.1126439971307 L-57.968645454787236 148.1890971703223 L-58.71162199054843 148.19054973985 L-54.837080266308874 141.1144076078703 z"/>
<path fill="#bababa" stroke="#bababa" d="M-43.988363438438114 121.30120963832717 L-42.64082649630818 121.29857511219427 L-46.67446306432898 128.37502828538587 L-47.86290516267767 128.37735177030686 z"/>
<path fill="#bababa" stroke="#bababa" d="M-31.346644105849922 101.48450622725782 L-35.38028067387072 108.56095940044942 L-37.0141883348069 108.5641538007637 L-33.13964661056735 101.48801166878403 z"/>
<path fill="#bababa" stroke="#bababa" d="M-20.05246171539166 81.67043734232138 L-24.08609828341247 88.74689051551297 L-26.16547150693615 88.75095583122058 L-22.290929782696594 81.67481369924089 z"/>
<path fill="#bababa" stroke="#bababa" d="M-11.442212954825834 61.86161572969773 L-8.758279324933403 61.85636845738494 L-12.791915892954211 68.93282163057651 L-15.31675467906539 68.93775786167743 z"/>
<path fill="#bababa" stroke="#bababa" d="M2.535903065524855 42.04229957244849 L-1.4977335024959515 49.11875274564008 L-4.468037851194629 49.124559892134286 L-0.5934961269550728 42.048417760154585 z"/>
<path fill="#bababa" stroke="#bababa" d="M13.830085455983115 22.22823068751205 L9.796448887962306 29.304683860703637 L6.38067897667613 29.31136192259114 L10.255220700915688 22.235219790611442 z"/>
<path fill="#bababa" stroke="#bababa" d="M115.13915322193428 -169.31610852173463 L121.88526592146171 -167.33952332060795 L121.52278141766188 -166.70359477972661 L121.36585365853655 -166.97135778901273 L114.99999999999999 -168.8208761404207 L114.86784725538374 -168.8206177728403 z"/>
<path fill="#bababa" stroke="#bababa" d="M104.01913042751296 -149.00741980329715 L107.89367215175253 -156.08356193527686 L114.99999999999999 -156.09745528828248 L115.57343918862166 -156.26630302447268 L111.44409040208663 -149.02193610372436 z"/>
<path fill="#bababa" stroke="#bababa" d="M93.17041359964222 -129.194221833754 L97.04495532388177 -136.2703639657337 L104.18354457964918 -136.2843203919795 L100.14990801162837 -129.20786721878792 z"/>
<path fill="#bababa" stroke="#bababa" d="M88.85572562117012 -109.39379833385148 L82.32169677177144 -109.38102386421087 L86.196238496011 -116.45716599619057 L92.88936218919092 -116.47025150704306 z"/>
<path fill="#bababa" stroke="#bababa" d="M71.47297994390068 -89.56782589466773 L75.34752166814025 -96.64396802664741 L81.59517979873266 -96.65618262210661 L77.56154323071185 -89.57972944891503 z"/>
<path fill="#bababa" stroke="#bababa" d="M66.2673608402536 -69.76566056397859 L60.62426311602993 -69.75462792512458 L64.49880484026947 -76.83077005710427 L70.3009974082744 -76.84211373717017 z"/>
<path fill="#bababa" stroke="#bababa" d="M54.97317844979534 -49.95159167904214 L49.77554628815917 -49.94142995558144 L53.650088012398726 -57.017572087561135 L59.00681501781615 -57.028044852233734 z"/>
<path fill="#bababa" stroke="#bababa" d="M38.92682946028841 -30.128231986038294 L42.801371184527966 -37.20437411801799 L47.71263262735789 -37.21397596729729 L43.67899605933708 -30.1375227941057 z"/>
<path fill="#bababa" stroke="#bababa" d="M28.078112632417653 -10.315034016495147 L31.95265435665721 -17.391176148474845 L36.41845023689963 -17.39990708236084 L32.38481366887882 -10.323453909169249 z"/>
<path fill="#bababa" stroke="#bababa" d="M25.124267846441374 2.4141618025756055 L21.090631278420563 9.490614975767192 L17.22939580454689 9.498163953047994 L21.103937528786446 2.4220218210683 z"/>
<path fill="#bababa" stroke="#bababa" d="M-83.5519325881284 179.22906621697337 L-76.80581988860094 181.23629429585097 L-76.80581988860094 180.03491545278607 L-83.19106293629137 178.1495618289705 z"/>
<path fill="#bababa" stroke="#bababa" d="M115.13915322193428 -170.5174873647996 L121.5243962696247 -168.63213374098405 L121.88526592146171 -167.33952332060798 L115.13915322193428 -169.31610852173466 z"/>
<path fill="#bababa" stroke="#bababa" d="M-85.64435757532841 100.94594469854316 L-85.66666666666664 100.98409475465311 L-85.66666666666664 95.11948375000229 L-83.03252032520324 90.61491522208351 L-83.03252032520324 96.47952622673434 z"/>
<path fill="#bababa" stroke="#bababa" d="M-79.35603428936022 89.53841848818571 L-78.58492961419554 89.30859387780498 L-76.80581988860094 88.79170071300803 L-76.66666666666664 88.75095583122058 L-76.66666666666664 94.6155668358714 L-83.03252032520324 96.47952622673435 L-83.03252032520324 90.61491522208352 z"/>
<path fill="#bababa" stroke="#bababa" d="M-63.499233126754156 94.6155668358714 L-76.66666666666666 94.6155668358714 L-76.66666666666666 88.75095583122058 L-26.16547150693615 88.75095583122058 L-24.08609828341247 88.74689051551297 L-22.5967804207586 88.75095583122058 L115 88.75095583122058 L115 94.6155668358714 z"/>
<path fill="#bababa" stroke="#bababa" d="M117.56334504735241 95.36612934159714 L114.99999999999999 94.6155668358714 L114.99999999999999 88.75095583122058 L121.36585365853657 90.61491522208352 L121.36585365853657 96.47952622673435 z"/>
<path fill="#bababa" stroke="#bababa" d="M-83.03252032520325 105.48866328257189 L-83.03252032520325 99.62405227792107 L-85.66666666666666 95.1194837500023 L-85.66666666666666 100.98409475465311 z"/>
<path fill="#bababa" stroke="#bababa" d="M-79.04305503081845 100.79219117945215 L-83.03252032520324 99.62405227792111 L-83.03252032520324 105.48866328257192 L-76.66666666666664 107.35262267343487 L-76.66666666666664 101.48801166878404 L-76.80581988860094 101.4472667869966 L-78.3588746064216 100.98899601022424 z"/>
<path fill="#bababa" stroke="#bababa" d="M121.9192623411672 97.42589252978111 L121.36585365853657 96.47952622673432 L121.36585365853657 90.61491522208351 L123.99999999999999 95.1194837500023 L123.99999999999999 100.98409475465311 z"/>
<path fill="#bababa" stroke="#bababa" d="M123.39561332250203 102.01763687921033 L124 100.98409475465311 L124 95.1194837500023 L121.36585365853658 99.62405227792108 L121.36585365853658 105.48866328257189 z"/>
<path fill="#bababa" stroke="#bababa" d="M115 107.35262267343487 L115 101.48801166878404 L-30.062434697048523 101.48801166878404 L-31.346644105849922 101.48450622725785 L-33.139646610567354 101.48801166878404 L-76.66666666666666 101.48801166878404 L-76.66666666666666 107.35262267343487 z"/>
<path fill="#bababa" stroke="#bababa" d="M120.9180911265387 105.61977078537711 L121.36585365853655 105.48866328257193 L121.36585365853655 99.6240522779211 L114.99999999999999 101.48801166878404 L114.99999999999999 107.35262267343487 z"/>
<path fill="#bababa" stroke="#bababa" d="M-83.03252032520325 125.30186125211503 L-83.03252032520325 119.43725024746423 L-85.66666666666666 114.93268171954544 L-85.66666666666666 120.79729272419627 z"/>
<path fill="#bababa" stroke="#bababa" d="M-78.48750517438918 120.7680574143261 L-83.03252032520324 119.43725024746425 L-83.03252032520324 125.30186125211506 L-76.66666666666664 127.165820642978 L-76.66666666666664 121.3012096383272 L-76.80581988860094 121.26046475653975 L-77.97322031857733 120.91599170242841 z"/>
<path fill="#bababa" stroke="#bababa" d="M-85.54980978134219 120.59745954119597 L-85.66666666666664 120.79729272419625 L-85.66666666666664 114.93268171954544 L-83.03252032520324 110.42811319162666 L-83.03252032520324 116.29272419627746 z"/>
<path fill="#bababa" stroke="#bababa" d="M117.44508834725298 115.1447010538453 L114.99999999999999 114.42876480541454 L114.99999999999999 108.56415380076373 L121.36585365853657 110.42811319162668 L121.36585365853657 116.29272419627749 z"/>
<path fill="#bababa" stroke="#bababa" d="M121.6673529093076 116.80830832113661 L121.36585365853657 116.29272419627748 L121.36585365853657 110.42811319162666 L123.99999999999999 114.93268171954544 L123.99999999999999 120.79729272419625 z"/>
<path fill="#bababa" stroke="#bababa" d="M-34.21002040609848 108.56415380076373 L115 108.56415380076373 L115 114.42876480541454 L-76.66666666666666 114.42876480541454 L-76.66666666666666 108.56415380076373 L-37.01418833480691 108.56415380076373 L-35.38028067387073 108.56095940044943 z"/>
<path fill="#bababa" stroke="#bababa" d="M-83.03252032520324 116.29272419627749 L-83.03252032520324 110.42811319162668 L-78.80945929964226 109.19157608615522 L-78.20362172114761 109.01100866137362 L-76.80581988860094 108.60489868255118 L-76.66666666666664 108.56415380076373 L-76.66666666666664 114.42876480541454 z"/>
<path fill="#bababa" stroke="#bababa" d="M122.86505640481366 122.73812308709823 L124 120.79729272419624 L124 114.93268171954543 L121.36585365853658 119.43725024746422 L121.36585365853658 125.30186125211505 z"/>
<path fill="#bababa" stroke="#bababa" d="M115 127.16582064297802 L115 121.3012096383272 L-41.675674682388404 121.3012096383272 L-42.64082649630818 121.2985751121943 L-43.988363438438114 121.3012096383272 L-76.66666666666666 121.3012096383272 L-76.66666666666666 127.16582064297802 z"/>
<path fill="#bababa" stroke="#bababa" d="M120.65042054252768 125.51134427617592 L121.36585365853657 125.30186125211506 L121.36585365853657 119.43725024746423 L114.99999999999999 121.3012096383272 L114.99999999999999 127.165820642978 z"/>
<path fill="#bababa" stroke="#bababa" d="M-83.03252032520325 145.11505922165819 L-83.03252032520325 139.25044821700735 L-85.66666666666666 134.74587968908858 L-85.66666666666666 140.6104906937394 z"/>
<path fill="#bababa" stroke="#bababa" d="M-80.95394939925991 145.72367701352204 L-76.66666666666664 146.97901861252114 L-76.66666666666664 141.11440760787033 L-76.80581988860095 141.0736627260829 L-77.58756603073307 140.84298739463262 L-77.93195531795992 140.74392364920004 L-83.03252032520324 139.25044821700737 L-83.03252032520324 145.1150592216582 z"/>
<path fill="#bababa" stroke="#bababa" d="M-85.46186805796451 140.26027121170083 L-85.66666666666664 140.6104906937394 L-85.66666666666664 134.74587968908858 L-83.03252032520324 130.24131116116982 L-83.03252032520324 136.1059221658206 z"/>
<path fill="#bababa" stroke="#bababa" d="M-83.03252032520324 136.10592216582063 L-83.03252032520324 130.24131116116982 L-78.2628843099243 128.84473368412472 L-77.8223138280997 128.71342344494226 L-76.80581988860094 128.4180966520943 L-76.66666666666664 128.37735177030686 L-76.66666666666664 134.2419627749577 z"/>
<path fill="#bababa" stroke="#bababa" d="M117.33726171726497 134.92632675196467 L114.99999999999999 134.2419627749577 L114.99999999999999 128.37735177030686 L121.36585365853657 130.24131116116982 L121.36585365853657 136.10592216582063 z"/>
<path fill="#bababa" stroke="#bababa" d="M-45.82326039143837 128.3773517703069 L115 128.3773517703069 L115 134.2419627749577 L-76.66666666666666 134.2419627749577 L-76.66666666666666 128.3773517703069 L-47.86290516267767 128.3773517703069 L-46.67446306432899 128.37502828538587 z"/>
<path fill="#bababa" stroke="#bababa" d="M123.15865379248757 139.17173173498742 L121.36585365853657 136.10592216582063 L121.36585365853657 130.24131116116982 L123.99999999999999 134.74587968908858 L123.99999999999999 140.6104906937394 z"/>
<path fill="#bababa" stroke="#bababa" d="M122.78159098624334 142.69405257149432 L124 140.6104906937394 L124 134.74587968908858 L121.36585365853658 139.25044821700735 L121.36585365853658 145.11505922165819 z"/>
<path fill="#bababa" stroke="#bababa" d="M115 146.97901861252114 L115 141.11440760787033 L-53.28891466772829 141.11440760787033 L-53.93500888676644 141.11264399713073 L-54.837080266308874 141.11440760787033 L-76.66666666666666 141.11440760787033 L-76.66666666666666 146.97901861252114 z"/>
<path fill="#bababa" stroke="#bababa" d="M118.25327243357654 146.02644131042297 L121.36585365853657 145.1150592216582 L121.36585365853657 139.25044821700737 L114.99999999999999 141.11440760787033 L114.99999999999999 146.97901861252114 z"/>
<path fill="#bababa" stroke="#bababa" d="M123.99999999999999 160.42368866328255 L121.36585365853657 155.91912013536376 L121.36585365853657 150.05450913071294 L123.99999999999999 154.55907765863174 z"/>
<path fill="#bababa" stroke="#bababa" d="M121.36585365853658 164.9282571912013 L124 160.42368866328255 L124 154.5590776586317 L121.36585365853658 159.0636461865505 z"/>
<path fill="#bababa" stroke="#bababa" d="M121.36585365853655 155.91912013536378 L114.99999999999999 154.05516074450085 L114.99999999999999 148.19054973985 L121.36585365853655 150.05450913071297 z"/>
<path fill="#bababa" stroke="#bababa" d="M-83.03252032520324 155.91912013536376 L-85.66666666666664 160.42368866328255 L-85.66666666666664 154.5590776586317 L-83.03252032520324 150.05450913071292 z"/>
<path fill="#bababa" stroke="#bababa" d="M-85.66666666666666 160.42368866328255 L-83.03252032520325 164.92825719120134 L-83.03252032520325 159.0636461865505 L-85.66666666666666 154.5590776586317 z"/>
<path fill="#bababa" stroke="#bababa" d="M114.99999999999999 166.7922165820643 L121.36585365853657 164.92825719120137 L121.36585365853657 159.06364618655053 L114.99999999999999 160.92760557741346 z"/>
<path fill="#bababa" stroke="#bababa" d="M-76.66666666666664 154.05516074450085 L-83.03252032520324 155.91912013536378 L-83.03252032520324 150.05450913071294 L-77.71630932020634 148.49789128209423 L-77.44100593505178 148.41583822851092 L-76.80581988860095 148.23129462163746 L-76.66666666666664 148.19054973985 z"/>
<path fill="#bababa" stroke="#bababa" d="M-76.66666666666666 166.7922165820643 L115 166.7922165820643 L115 160.9276055774135 L-64.90215465306818 160.9276055774135 L-65.2291912772247 160.9267128820672 L-65.68579709417963 160.9276055774135 L-76.66666666666666 160.9276055774135 z"/>
<path fill="#bababa" stroke="#bababa" d="M61.973674045991245 -168.8206177728403 L-76.66666666666664 -168.8206177728403 L-76.80581988860094 -168.77987289105286 L-76.80581988860094 -169.31610852173463 L115.13915322193428 -169.31610852173463 L114.86784725538372 -168.8206177728403 z"/>
<path fill="#bababa" stroke="#bababa" d="M60.62426311602993 -69.75462792512458 L-76.66666666666664 -69.75462792512458 L-76.80581988860094 -69.71388304333712 L-76.80581988860094 -76.87151493889172 L-76.66666666666664 -76.83077005710427 L64.49880484026949 -76.83077005710427 z"/>
<path fill="#bababa" stroke="#bababa" d="M-26.16547150693615 88.75095583122058 L-76.66666666666664 88.75095583122058 L-76.80581988860094 88.79170071300801 L-76.80581988860094 81.63406881745343 L-76.66666666666664 81.67481369924089 L-22.29092978269659 81.67481369924089 z"/>
<path fill="#bababa" stroke="#bababa" d="M-37.01418833480691 108.56415380076372 L-76.66666666666664 108.56415380076372 L-76.80581988860094 108.60489868255117 L-76.80581988860094 101.44726678699658 L-76.66666666666664 101.48801166878403 L-33.13964661056735 101.48801166878403 z"/>
<path fill="#bababa" stroke="#bababa" d="M-76.80581988860094 181.23629429585094 L-76.80581988860094 180.70005866516914 L-76.66666666666664 180.74080354695658 L-76.53451392205038 180.74080354695658 z"/>
<path fill="#bababa" stroke="#bababa" d="M93.1704135996422 -129.194221833754 L-76.66666666666664 -129.194221833754 L-76.80581988860094 -129.15347695196655 L-76.80581988860094 -136.31110884752115 L-76.66666666666664 -136.2703639657337 L97.04495532388177 -136.2703639657337 z"/>
<path fill="#bababa" stroke="#bababa" d="M-23.640340712657903 -116.45716599619057 L86.196238496011 -116.45716599619057 L82.32169677177144 -109.38102386421087 L-76.66666666666664 -109.38102386421087 L-76.80581988860094 -109.34027898242343 L-76.80581988860094 -116.49791087797801 L-76.66666666666664 -116.45716599619057 z"/>
<path fill="#bababa" stroke="#bababa" d="M61.973674045991245 -149.00741980329715 L-76.66666666666664 -149.00741980329715 L-76.80581988860094 -148.9666749215097 L-76.80581988860094 -156.1243068170643 L-76.66666666666664 -156.08356193527686 L107.89367215175253 -156.08356193527686 L104.01913042751298 -149.00741980329715 z"/>
<path fill="#bababa" stroke="#bababa" d="M-23.640340712657903 -96.64396802664741 L75.34752166814025 -96.64396802664741 L71.4729799439007 -89.56782589466772 L-76.66666666666664 -89.56782589466772 L-76.80581988860094 -89.52708101288027 L-76.80581988860094 -96.68471290843486 L-76.66666666666664 -96.64396802664741 z"/>
<path fill="#bababa" stroke="#bababa" d="M-76.80581988860094 -57.05831696934858 L-76.66666666666664 -57.017572087561135 L53.650088012398726 -57.017572087561135 L49.77554628815917 -49.94142995558144 L-76.66666666666664 -49.94142995558144 L-76.80581988860094 -49.900685073793994 z"/>
<path fill="#bababa" stroke="#bababa" d="M38.9268294602884 -30.128231986038294 L-76.66666666666664 -30.128231986038294 L-76.80581988860094 -30.087487104250847 L-76.80581988860094 -37.245118999805435 L-76.66666666666664 -37.20437411801799 L42.801371184527966 -37.20437411801799 z"/>
<path fill="#bababa" stroke="#bababa" d="M-76.66666666666664 160.92760557741343 L-65.68579709417963 160.92760557741343 L-69.56033881841918 168.00374770939314 L-76.66666666666664 168.00374770939314 L-76.80581988860094 168.0444925911806 L-76.80581988860094 160.886860695626 z"/>
<path fill="#bababa" stroke="#bababa" d="M-76.66666666666664 148.19054973984998 L-76.80581988860094 148.23129462163746 L-76.80581988860094 141.07366272608286 L-76.66666666666664 141.1144076078703 L-54.837080266308874 141.1144076078703 L-58.71162199054843 148.19054973984998 z"/>
<path fill="#bababa" stroke="#bababa" d="M-76.66666666666664 121.30120963832718 L-43.988363438438114 121.30120963832718 L-47.86290516267767 128.37735177030683 L-76.66666666666664 128.37735177030683 L-76.80581988860094 128.4180966520943 L-76.80581988860094 121.26046475653972 z"/>
<path fill="#bababa" stroke="#bababa" d="M-76.80581988860094 61.820870847910285 L-76.66666666666664 61.86161572969773 L-11.442212954825832 61.86161572969773 L-15.31675467906539 68.93775786167743 L-76.66666666666664 68.93775786167743 L-76.80581988860094 68.97850274346487 z"/>
<path fill="#bababa" stroke="#bababa" d="M-76.80581988860094 42.007672878367146 L-76.66666666666664 42.048417760154585 L-0.5934961269550728 42.048417760154585 L-4.468037851194629 49.124559892134286 L-76.66666666666664 49.124559892134286 L-76.80581988860094 49.16530477392173 z"/>
<path fill="#bababa" stroke="#bababa" d="M-76.80581988860094 22.194474908823995 L-76.66666666666664 22.235219790611442 L10.255220700915686 22.235219790611442 L6.38067897667613 29.31136192259114 L-76.66666666666664 29.31136192259114 L-76.80581988860094 29.352106804378586 z"/>
<path fill="#bababa" stroke="#bababa" d="M-76.80581988860094 2.3812769392808524 L-76.66666666666664 2.4220218210682996 L21.103937528786446 2.4220218210682996 L17.22939580454689 9.498163953047994 L-76.66666666666664 9.498163953047994 L-76.80581988860094 9.538908834835441 z"/>
<path fill="#bababa" stroke="#bababa" d="M-76.80581988860094 -17.43192103026229 L-76.66666666666664 -17.39117614847484 L31.952654356657202 -17.39117614847484 L28.07811263241765 -10.31503401649515 L-76.66666666666664 -10.31503401649515 L-76.80581988860094 -10.274289134707702 z"/>
<path fill="#bababa" stroke="#bababa" d="M-83.55193258812838 179.22906621697337 L-83.19106293629136 178.1495618289705 L-83.55193258812838 178.04300881278388 z"/>
<path fill="#bababa" stroke="#bababa" d="M121.52439626962469 -168.63213374098405 L121.8852659214617 -168.52558072479746 L121.8852659214617 -167.33952332060798 z"/>
<path fill="#bababa" stroke="#bababa" d="M-76.52337366768296 180.74078176700363 L-76.5345139220504 180.7408035469566 L-76.66666666666666 180.7408035469566 L-76.66666666666666 186.60541455160745 L115 186.60541455160745 L115 180.73699230848285 L-27.38101607020999 180.73699230848285 L-62.04806115470336 180.7408035469566 L-76.51539463840805 180.7408035469566 z"/>
<path fill="#bababa" stroke="#bababa" d="M120.04769215635196 179.24762985631983 L114.99999999999999 180.73699230848288 L114.99999999999999 186.60541455160745 L121.36585365853657 184.74145516074452 L121.36585365853657 178.86278331170573 z"/>
<path fill="#bababa" stroke="#bababa" d="M-78.09855098746372 180.32153939645264 L-83.03252032520324 178.86557147671402 L-83.03252032520324 184.7414551607445 L-76.66666666666664 186.60541455160745 L-76.66666666666664 180.7408035469566 L-76.80581988860094 180.70005866516917 L-76.81625745504454 180.696978779041 L-76.8208556051014 180.69565611894794 z"/>
<path fill="#bababa" stroke="#bababa" d="M-85.07416280978511 175.38549732522623 L-85.66666666666666 174.37227562817486 L-85.66666666666666 180.23688663282567 L-83.03252032520325 184.7414551607445 L-83.03252032520325 178.865571476714 z"/>
<path fill="#bababa" stroke="#bababa" d="M-83.76128086005366 171.1139369387444 L-83.03252032520324 169.8677071002561 L-83.03252032520324 175.7323181049069 L-85.66666666666664 180.23688663282567 L-85.66666666666664 174.37227562817486 z"/>
<path fill="#bababa" stroke="#bababa" d="M-76.80581988860094 168.0444925911806 L-76.66666666666664 168.00374770939317 L-76.66666666666664 173.868358714044 L-83.03252032520324 175.73231810490694 L-83.03252032520324 169.86770710025613 L-77.16973433048837 168.15104888006374 L-77.05969804200386 168.11825301207955 z"/>
<path fill="#bababa" stroke="#bababa" d="M-76.80581988860094 181.23629429585094 L-76.81625745504454 180.69697877904096 L-76.80581988860094 180.70005866516917 z"/>
<path fill="#bababa" stroke="#bababa" d="M-77.20191174288881 160.7699830868368 L-76.80581988860094 160.886860695626 L-76.80581988860094 168.04449259118059 L-77.05969804200384 168.11825301207952 z"/>
<path fill="#bababa" stroke="#bababa" d="M-77.44100593505178 148.4158382285109 L-77.58756603073307 140.8429873946326 L-76.80581988860094 141.07366272608286 L-76.80581988860094 148.23129462163746 z"/>
<path fill="#bababa" stroke="#bababa" d="M-77.8223138280997 128.71342344494224 L-77.97322031857732 120.9159917024284 L-76.80581988860094 121.26046475653972 L-76.80581988860094 128.4180966520943 z"/>
<path fill="#bababa" stroke="#bababa" d="M-78.3588746064216 100.9889960102242 L-76.80581988860094 101.44726678699658 L-76.80581988860094 108.60489868255117 L-78.20362172114761 109.01100866137361 z"/>
<path fill="#bababa" stroke="#bababa" d="M-76.80581988860094 -17.43192103026229 L-76.80581988860094 -10.274289134707702 L-80.49146907943516 -9.203480040038219 L-80.67280033348717 -18.572978143000913 z"/>
<path fill="#bababa" stroke="#bababa" d="M-76.80581988860094 22.194474908824 L-76.80581988860094 29.352106804378586 L-79.72885329333933 30.201349527099058 L-79.90149175779864 21.28101324140746 z"/>
<path fill="#bababa" stroke="#bababa" d="M-76.80581988860094 42.00767287836714 L-76.80581988860094 49.165304773921726 L-79.3475454002914 49.9037643106677 L-79.51583746995438 41.20800893361165 z"/>
<path fill="#bababa" stroke="#bababa" d="M-76.80581988860094 61.820870847910285 L-76.80581988860094 68.97850274346487 L-78.96623750724348 69.60617909423634 L-79.13018318211013 61.13500462581584 z"/>
<path fill="#bababa" stroke="#bababa" d="M-76.80581988860094 81.63406881745343 L-76.80581988860094 88.79170071300803 L-78.58492961419554 89.30859387780497 L-78.74452889426586 81.06200031802003 z"/>
<path fill="#bababa" stroke="#bababa" d="M-81.26830544949563 -117.81468787292918 L-76.80581988860094 -116.497910877978 L-76.80581988860094 -109.34027898242343 L-82.3980085446748 -107.7155539578814 L-82.6010717727085 -118.20795660402186 z"/>
<path fill="#bababa" stroke="#bababa" d="M-78.42894499164815 -89.05550679836966 L-82.01670065162686 -88.01313917431277 L-82.21541748486423 -98.28096091181766 L-76.80581988860094 -96.68471290843486 L-76.80581988860094 -89.52708101288029 z"/>
<path fill="#bababa" stroke="#bababa" d="M-76.80581988860094 -69.71388304333713 L-81.63539275857893 -68.31072439074413 L-81.82976319701996 -78.35396521961349 L-76.80581988860094 -76.87151493889172 z"/>
<path fill="#bababa" stroke="#bababa" d="M-76.80581988860094 -49.90068507379399 L-81.25408486553103 -48.60830960717549 L-81.4441089091757 -58.42696952740929 L-76.80581988860094 -57.05831696934858 z"/>
<path fill="#bababa" stroke="#bababa" d="M-80.8727769724831 -28.905894823606857 L-81.05845462133145 -38.499973835205104 L-76.80581988860094 -37.245118999805435 L-76.80581988860094 -30.08748710425085 z"/>
<path fill="#bababa" stroke="#bababa" d="M-78.42894499164817 10.01048304934605 L-80.11016118638724 10.498934743530418 L-80.28714604564291 1.354017549203275 L-76.80581988860094 2.3812769392808524 L-76.80581988860094 9.538908834835443 z"/>
<path fill="#bababa" stroke="#bababa" d="M-76.80581988860094 -169.31610852173463 L-76.80581988860094 -168.77987289105286 L-83.03252032520324 -166.97080015730552 L-83.52840671879353 -166.1239270944869 L-83.55193258812838 -167.33952332060795 z"/>
<path fill="#bababa" stroke="#bababa" d="M-81.26830544949563 -157.44108381201548 L-76.80581988860094 -156.1243068170643 L-76.80581988860094 -148.9666749215097 L-83.03252032520324 -147.15760218776236 L-83.15722301373086 -146.94463536886965 L-83.38202180580545 -158.5601280587679 L-83.03252032520324 -157.96166310146793 z"/>
<path fill="#bababa" stroke="#bababa" d="M-76.80581988860094 -136.31110884752115 L-76.80581988860094 -129.15347695196655 L-82.77931643772273 -127.41796874145005 L-82.98672606055274 -138.13495229622606 z"/>
<path fill="#bababa" stroke="#bababa" d="M-69.5603388184192 168.00374770939317 L-69.26282784524551 168.00316605525876 L-69.04974036211813 168.00374770939317 L115 168.00374770939317 L115 173.86835871404398 L-76.66666666666666 173.86835871404398 L-76.66666666666666 168.00374770939317 z"/>
<path fill="#bababa" stroke="#bababa" d="M119.60468236598136 169.3520257877782 L121.36585365853655 169.8677071002561 L121.36585365853655 175.7323181049069 L114.99999999999999 173.86835871404398 L114.99999999999999 168.00374770939317 z"/>
<path fill="#bababa" stroke="#bababa" d="M123.27123946514956 173.12604578968657 L123.99999999999999 174.37227562817486 L123.99999999999999 180.23688663282567 L121.36585365853657 175.7323181049069 L121.36585365853657 169.8677071002561 z"/>
<path fill="#bababa" stroke="#bababa" d="M123.92724282294198 174.4966953252877 L121.36585365853658 178.8627833117057 L121.36585365853658 184.74145516074447 L124 180.2368866328257 L124 174.37227562817486 z"/>
<path fill="#bababa" stroke="#bababa" d="M115 154.05516074450085 L-76.66666666666666 154.05516074450085 L-76.66666666666666 148.19054973985 L-58.71162199054844 148.19054973985 L-57.96864545478725 148.1890971703223 L-57.436500376778255 148.19054973985 L115 148.19054973985 z"/>
<path fill="#bababa" stroke="#bababa" d="M147.42857142857142 298.97455160744494 L-152.57142857142856 298.97455160744494 L-152.57142857142856 291.90856175972925 L147.42857142857142 291.90856175972925 z"/>
<path fill="#bababa" stroke="#bababa" d="M157.4634146341463 297.95816028303335 L147.4285714285714 298.974551607445 L147.4285714285714 291.9085617597292 L157.4634146341463 290.8921704353176 z"/>
<path fill="#bababa" stroke="#bababa" d="M165.15789473684208 293.2639136598527 L157.46341463414632 297.9581602830333 L157.46341463414632 290.89217043531755 L165.1578947368421 286.19792381213693 z"/>
<path fill="#bababa" stroke="#bababa" d="M168 286.37901861252107 L165.15789473684208 293.2639136598527 L165.15789473684208 286.19792381213693 L168 279.3130287648054 z"/>
<path fill="#bababa" stroke="#bababa" d="M168 -279.71235194585444 L168 286.3790186125211 L168 279.3130287648054 L168 -286.7783417935702 z"/>
<path fill="#bababa" stroke="#bababa" d="M165.15789473684208 -286.597246993186 L168 -279.71235194585444 L168 -286.7783417935702 L165.15789473684208 -293.66323684090173 z"/>
<path fill="#bababa" stroke="#bababa" d="M157.46341463414635 -291.2914936163666 L165.15789473684208 -286.597246993186 L165.15789473684208 -293.66323684090173 L157.46341463414632 -298.35748346408235 z"/>
<path fill="#bababa" stroke="#bababa" d="M147.4285714285714 -292.3078849407783 L157.4634146341463 -291.29149361636667 L157.4634146341463 -298.3574834640824 L147.4285714285714 -299.37387478849405 z"/>
<path fill="#bababa" stroke="#bababa" d="M-152.57142857142856 -292.3078849407783 L147.42857142857142 -292.3078849407783 L147.42857142857142 -299.37387478849405 L-152.57142857142856 -299.37387478849405 z"/>
<path fill="#bababa" stroke="#bababa" d="M-161.79310344827582 -289.34280879864633 L-152.57142857142853 -292.3078849407783 L-152.57142857142853 -299.37387478849405 L-161.79310344827582 -296.4087986463621 z"/>
<path fill="#bababa" stroke="#bababa" d="M-167.27999999999997 -283.29464890016914 L-161.79310344827584 -289.3428087986463 L-161.79310344827584 -296.408798646362 L-167.27999999999997 -290.3606387478849 z"/>
<path fill="#bababa" stroke="#bababa" d="M-167.27999999999997 289.9613155668358 L-167.27999999999997 -283.2946489001692 L-167.27999999999997 -290.36063874788493 L-167.27999999999997 282.8953257191201 z"/>
<path fill="#bababa" stroke="#bababa" d="M-161.79310344827587 296.0094754653129 L-167.27999999999997 289.9613155668358 L-167.27999999999997 282.8953257191201 L-161.79310344827584 288.9434856175972 z"/>
<path fill="#bababa" stroke="#bababa" d="M-152.57142857142853 298.974551607445 L-161.79310344827582 296.009475465313 L-161.79310344827582 288.9434856175973 L-152.57142857142853 291.90856175972925 z"/>
<path fill="#bababa" stroke="#bababa" d="M-78.09855098746374 180.3215393964526 L-76.8208556051014 180.6956561189479 L-76.80581988860095 181.23629429585094 z"/>
<path fill="#bababa" stroke="#bababa" d="M-85.66666666666664 174.3722756281749 L-85.0741628097851 175.3854973252262 L-86.3668939086479 174.47074242582786 L-86.36689390864788 -162.55055665171156 L-85.2804706916959 -123.48611517064774 L-85.66666666666664 -122.82569391497229 L-85.24190241139719 -122.09931828961176 L-84.75446118213684 -104.57242906377103 L-85.66666666666664 -103.01249594542914 L-84.6633618463138 -101.29677679705418 L-84.22845167257778 -85.65874295689433 L-85.66666666666664 -83.199297975886 L-84.08482128123042 -80.49423530449661 L-83.70244216301872 -66.74505685001763 L-85.66666666666664 -63.38610000634286 L-83.50628071614703 -59.69169381193905 L-83.17643265345966 -47.83137074314092 L-85.66666666666664 -43.57290203679971 L-83.03252032520324 -39.06833350888093 L-82.93190402582327 -39.038872464665495 L-82.63548422766799 -28.38052709963132 L-83.03252032520324 -28.264272595175353 L-85.66666666666664 -23.75970406725657 L-83.03252032520324 -19.25513553933779 L-82.37635416939402 -19.063006229791547 L-82.08890923795003 -8.727369501661816 L-83.03252032520324 -8.451074625632206 L-85.66666666666664 -3.946506097713425 L-83.03252032520324 0.5580624302053555 L-81.82080431296475 0.9128600050823971 L-81.54233424823207 10.92578809630769 L-83.03252032520324 11.362123343910937 L-85.66666666666664 15.86669187182972 L-83.03252032520324 20.371260399748497 L-81.26525445653549 20.88872623995634 L-80.9957592585141 30.57894569427719 L-83.03252032520324 31.175321313454084 L-85.66666666666664 35.67988984137286 L-83.03252032520324 40.18445836929165 L-80.70970460010624 40.86459247483029 L-80.44918426879615 50.2321032922467 L-83.03252032520324 50.988519282997224 L-85.66666666666664 55.49308781091601 L-83.03252032520324 59.99765633883479 L-80.15415474367697 60.84045870970424 L-79.90260927907818 69.8852608902162 L-83.03252032520324 70.80171725254037 L-85.66666666666664 75.30628578045915 L-83.03252032520324 79.81085430837794 L-79.5986048872477 80.81632494457817 L-79.35603428936022 89.5384184881857 L-83.03252032520324 90.61491522208351 L-85.66666666666664 95.1194837500023 L-83.03252032520324 99.62405227792107 L-79.04305503081844 100.79219117945212 L-78.80945929964226 109.19157608615521 L-83.03252032520324 110.42811319162666 L-85.66666666666664 114.93268171954543 L-83.03252032520324 119.43725024746422 L-78.48750517438918 120.76805741432607 L-78.2628843099243 128.84473368412472 L-83.03252032520324 130.24131116116982 L-85.66666666666664 134.74587968908858 L-83.03252032520324 139.25044821700737 L-77.93195531795992 140.7439236492 L-77.71630932020634 148.49789128209423 L-83.03252032520324 150.05450913071294 L-85.66666666666664 154.55907765863174 L-83.03252032520324 159.0636461865505 L-77.37640546153067 160.71978988407398 L-77.16973433048838 168.1510488800637 L-83.03252032520324 169.8677071002561 z"/>
<path fill="#bababa" stroke="#bababa" d="M147.42857142857142 -299.373874788494 L157.46341463414632 -298.35748346408235 L165.15789473684208 -293.66323684090173 L168 -286.7783417935702 L168 279.3130287648054 L165.15789473684208 286.19792381213693 L157.46341463414632 290.89217043531755 L147.42857142857142 291.9085617597292 L-152.57142857142856 291.9085617597292 L-161.79310344827584 288.9434856175972 L-167.27999999999997 282.8953257191201 L-167.27999999999997 -290.3606387478849 L-161.79310344827584 -296.408798646362 L-152.57142857142856 -299.373874788494 z M90.31597583641896 -170.51748736479954 L-76.80581988860095 -170.51748736479954 L-77.17135123918297 -170.4095579013021 L-83.5519325881284 -168.5255807247974 L-83.70251324945379 -168.27022423004573 L-86.3668939086479 -163.7519354947765 L-86.3668939086479 -145.50338453471952 L-86.3668939086479 173.26936358276296 L-86.21436805277274 173.52801876180422 L-83.5519325881284 178.04300881278382 L-83.19106293629137 178.14956182897046 L-76.80581988860095 180.034915452786 L-66.41265591670465 180.034915452786 L115.1391532219343 180.034915452786 L115.50468457251631 179.92698598928857 L121.88526592146171 178.04300881278382 L122.03584658278712 177.78765231803217 L124.70022724198124 173.26936358276296 L124.70022724198124 155.020812622706 L124.70022724198124 -163.7519354947765 L124.54770138610608 -164.01059067381777 L121.88526592146172 -168.5255807247974 L121.5243962696247 -168.63213374098402 L115.1391532219343 -170.51748736479954 L104.745989250038 -170.51748736479954 z"/>
<path fill="#bababa" stroke="#bababa" d="M-83.03252032520324 164.92825719120134 L-76.66666666666664 166.7922165820643 L-76.66666666666664 160.9276055774135 L-76.80581988860094 160.88686069562604 L-77.2019117428888 160.76998308683682 L-77.37640546153065 160.71978988407398 L-83.03252032520324 159.06364618655053 z"/>
<path fill="#bababa" stroke="#bababa" d="M147.42857142857142 -292.30788494077825 L-152.57142857142856 -292.30788494077825 L-161.79310344827584 -289.3428087986463 L-167.27999999999997 -283.2946489001692 L-167.27999999999997 289.9613155668358 L-161.79310344827584 296.00947546531296 L-152.57142857142856 298.97455160744494 L147.42857142857142 298.97455160744494 L157.46341463414632 297.9581602830333 L165.15789473684208 293.2639136598527 L168 286.3790186125211 L168 -279.71235194585444 L165.15789473684208 -286.597246993186 L157.46341463414632 -291.29149361636667 z M-83.03252032520325 175.7323181049069 L-76.66666666666666 173.86835871404398 L115 173.86835871404398 L121.36585365853658 175.7323181049069 L124 180.23688663282567 L121.36585365853658 184.74145516074447 L115 186.60541455160742 L-76.66666666666666 186.60541455160742 L-83.03252032520325 184.74145516074447 L-85.66666666666666 180.23688663282567 z M123.39237631383038 80.13181915663733 L124 81.17089678510997 L121.36585365853658 85.67546531302875 L115 87.5394247038917 L-76.66666666666666 87.5394247038917 L-83.03252032520325 85.67546531302875 L-85.66666666666666 81.17089678510997 L-83.03252032520325 76.6663282571912 L-76.66666666666666 74.80236886632825 L115 74.80236886632825 L121.36585365853658 76.6663282571912 z M-85.66666666666666 160.42368866328252 L-83.03252032520325 155.91912013536376 L-76.66666666666666 154.05516074450082 L115 154.05516074450082 L121.36585365853658 155.91912013536376 L124 160.42368866328252 L121.36585365853658 164.9282571912013 L115 166.79221658206427 L-76.66666666666666 166.79221658206427 L-83.03252032520325 164.9282571912013 z M-72.87308133404298 114.42876480541454 L115 114.42876480541454 L121.36585365853658 116.29272419627748 L124 120.79729272419627 L121.36585365853658 125.30186125211505 L115 127.16582064297798 L-76.66666666666666 127.16582064297798 L-83.03252032520325 125.30186125211505 L-85.66666666666666 120.79729272419627 L-83.03252032520325 116.29272419627748 L-76.66666666666666 114.42876480541454 z M117.33726171726497 134.92632675196467 L121.36585365853658 136.10592216582063 L124 140.61049069373942 L121.36585365853658 145.11505922165819 L115 146.97901861252112 L-76.66666666666666 146.97901861252112 L-83.03252032520325 145.11505922165819 L-85.66666666666666 140.61049069373942 L-83.03252032520325 136.10592216582063 L-76.66666666666666 134.24196277495767 L115 134.24196277495767 z M-0.7879003361279217 15.362774957698813 L115 15.362774957698813 L121.36585365853658 17.226734348561756 L124 21.731302876480537 L121.36585365853658 26.23587140439932 L115 28.099830795262264 L-76.66666666666666 28.099830795262264 L-83.03252032520325 26.23587140439932 L-85.66666666666666 21.731302876480537 L-83.03252032520325 17.226734348561756 L-76.66666666666666 15.362774957698813 z M121.9192623411672 97.42589252978111 L124 100.98409475465311 L121.36585365853658 105.48866328257189 L115 107.35262267343485 L-76.66666666666666 107.35262267343485 L-83.03252032520325 105.48866328257189 L-85.66666666666666 100.98409475465311 L-83.03252032520325 96.47952622673434 L-76.66666666666666 94.61556683587139 L115 94.61556683587139 L121.36585365853658 96.47952622673434 z M115 35.17597292724196 L121.36585365853658 37.0399323181049 L124 41.54450084602368 L121.36585365853658 46.04906937394246 L115 47.91302876480541 L-76.66666666666666 47.91302876480541 L-83.03252032520325 46.04906937394246 L-85.66666666666666 41.54450084602368 L-83.03252032520325 37.0399323181049 L-76.66666666666666 35.17597292724196 z M-22.093190415312915 54.989170896785105 L115 54.989170896785105 L121.36585365853658 56.85313028764804 L124 61.35769881556683 L121.36585365853658 65.86226734348561 L115 67.72622673434854 L-76.66666666666666 67.72622673434854 L-83.03252032520325 65.86226734348561 L-85.66666666666666 61.35769881556683 L-83.03252032520325 56.85313028764804 L-76.66666666666666 54.989170896785105 z M-47.104655103783706 -123.3296108291032 L115 -123.3296108291032 L121.36585365853658 -121.46565143824024 L124 -116.96108291032147 L121.36585365853658 -112.45651438240269 L115 -110.59255499153974 L-76.66666666666666 -110.59255499153974 L-83.03252032520325 -112.45651438240269 L-85.66666666666666 -116.96108291032147 L-83.03252032520325 -121.46565143824024 L-76.66666666666666 -123.3296108291032 z M40.89547581903276 -44.076818950930615 L115 -44.076818950930615 L121.36585365853658 -42.21285956006768 L124 -37.70829103214889 L121.36585365853658 -33.203722504230115 L115 -31.33976311336717 L-76.66666666666666 -31.33976311336717 L-83.03252032520325 -33.203722504230115 L-85.66666666666666 -37.70829103214889 L-83.03252032520325 -42.21285956006768 L-76.66666666666666 -44.076818950930615 z M11.404243955129607 -4.450423011844331 L115 -4.450423011844331 L121.36585365853658 -2.5864636209813865 L124 1.9181049069373939 L121.36585365853658 6.422673434856175 L115 8.286632825719119 L-76.66666666666666 8.286632825719119 L-83.03252032520325 6.422673434856175 L-85.66666666666666 1.9181049069373939 L-83.03252032520325 -2.5864636209813865 L-76.66666666666666 -4.450423011844331 z M25.13117511275036 -24.263620981387476 L115 -24.263620981387476 L121.36585365853658 -22.39966159052453 L124 -17.89509306260575 L121.36585365853658 -13.39052453468697 L115 -11.526565143824024 L-76.66666666666666 -11.526565143824024 L-83.03252032520325 -13.39052453468697 L-85.66666666666666 -17.89509306260575 L-83.03252032520325 -22.39966159052453 L-76.66666666666666 -24.263620981387476 z M49.04279560928164 -63.89001692047376 L115 -63.89001692047376 L121.36585365853658 -62.02605752961082 L124 -57.52148900169204 L121.36585365853658 -53.01692047377326 L115 -51.15296108291031 L-76.66666666666666 -51.15296108291031 L-83.03252032520325 -53.01692047377326 L-85.66666666666666 -57.52148900169204 L-83.03252032520325 -62.02605752961082 L-76.66666666666666 -63.89001692047376 z M70.39387904831779 -103.51641285956005 L115 -103.51641285956005 L121.36585365853658 -101.65245346869712 L124 -97.14788494077834 L121.36585365853658 -92.64331641285953 L115 -90.7793570219966 L-76.66666666666666 -90.7793570219966 L-83.03252032520325 -92.64331641285953 L-85.66666666666666 -97.14788494077834 L-83.03252032520325 -101.65245346869712 L-76.66666666666666 -103.51641285956005 z M-72.79634599956385 -143.14280879864634 L115 -143.14280879864634 L121.36585365853658 -141.27884940778338 L124 -136.77428087986462 L121.36585365853658 -132.26971235194583 L115 -130.4057529610829 L-76.66666666666666 -130.4057529610829 L-83.03252032520325 -132.26971235194583 L-85.66666666666666 -136.77428087986462 L-83.03252032520325 -141.27884940778338 L-76.66666666666666 -143.14280879864634 z M56.174444283801954 -83.7032148900169 L115 -83.7032148900169 L121.36585365853658 -81.83925549915396 L124 -77.33468697123519 L121.36585365853658 -72.83011844331641 L115 -70.96615905245346 L-76.66666666666666 -70.96615905245346 L-83.03252032520325 -72.83011844331641 L-85.66666666666666 -77.33468697123519 L-83.03252032520325 -81.83925549915396 L-76.66666666666666 -83.7032148900169 z M-85.66666666666666 -156.58747884940777 L-83.03252032520325 -161.09204737732654 L-76.66666666666666 -162.9560067681895 L115 -162.9560067681895 L121.36585365853658 -161.09204737732654 L124 -156.58747884940777 L121.36585365853658 -152.08291032148898 L115 -150.21895093062602 L-76.66666666666666 -150.21895093062602 L-83.03252032520325 -152.08291032148898 z"/>
</svg>